<?xml version="1.0" encoding="UTF-8" standalone="no"?>
<svg
   version="1.1"
   width="600"
   height="600"
   viewBox="1311.84 1347.91 812.25 812.25"
   xmlns="http://www.w3.org/2000/svg">
  <rect x="1311.84" y="1347.91" width="812.25" height="812.25" fill="#000000"/>
  <path
         id="path408"
         d="m 1485.44,1755.94 v 9.55 l -3.25,-3.24 v -6.31 h 3.25"
         style="fill:#ffffff;fill-opacity:1;fill-rule:nonzero;stroke:none" />
  <path
         id="path409"
         d="m 1482.19,1752.69 v -6.87 l 3.25,-3.24 v 10.11 h -3.25"
         style="fill:#ffffff;fill-opacity:1;fill-rule:nonzero;stroke:none" />
  <path
         id="path410"
         d="m 1504.49,1730.39 v -6.86 l 3.25,-3.26 v 10.12 h -3.25"
         style="fill:#ffffff;fill-opacity:1;fill-rule:nonzero;stroke:none" />
  <path
         id="path411"
         d="m 1507.74,1778.24 v 9.55 l -3.25,-3.24 v -6.31 h 3.25"
         style="fill:#ffffff;fill-opacity:1;fill-rule:nonzero;stroke:none" />
  <path
         id="path412"
         d="m 1507.74,1755.94 v 19.05 h -3.25 v -19.05 h 3.25"
         style="fill:#ffffff;fill-opacity:1;fill-rule:nonzero;stroke:none" />
  <path
         id="path413"
         d="m 1507.74,1733.63 v 19.06 h -3.25 v -19.06 h 3.25"
         style="fill:#ffffff;fill-opacity:1;fill-rule:nonzero;stroke:none" />
  <path
         id="path414"
         d="m 1530.04,1778.24 v 19.05 h -3.25 v -19.05 h 3.25"
         style="fill:#ffffff;fill-opacity:1;fill-rule:nonzero;stroke:none" />
  <path
         id="path415"
         d="m 1530.04,1755.94 v 19.05 h -3.25 v -19.05 h 3.25"
         style="fill:#ffffff;fill-opacity:1;fill-rule:nonzero;stroke:none" />
  <path
         id="path416"
         d="m 1530.04,1800.54 v 9.55 l -3.25,-3.24 v -6.31 h 3.25"
         style="fill:#ffffff;fill-opacity:1;fill-rule:nonzero;stroke:none" />
  <path
         id="path417"
         d="m 1526.79,1708.09 v -6.87 l 3.25,-3.24 v 10.11 h -3.25"
         style="fill:#ffffff;fill-opacity:1;fill-rule:nonzero;stroke:none" />
  <path
         id="path418"
         d="m 1530.04,1711.34 v 19.05 h -3.25 v -19.05 h 3.25"
         style="fill:#ffffff;fill-opacity:1;fill-rule:nonzero;stroke:none" />
  <path
         id="path419"
         d="m 1530.04,1733.63 v 19.06 h -3.25 v -19.06 h 3.25"
         style="fill:#ffffff;fill-opacity:1;fill-rule:nonzero;stroke:none" />
  <path
         id="path420"
         d="m 1552.34,1778.24 v 19.05 h -3.25 v -19.05 h 3.25"
         style="fill:#ffffff;fill-opacity:1;fill-rule:nonzero;stroke:none" />
  <path
         id="path421"
         d="m 1552.34,1755.94 v 19.05 h -3.25 v -19.05 h 3.25"
         style="fill:#ffffff;fill-opacity:1;fill-rule:nonzero;stroke:none" />
  <path
         id="path422"
         d="m 1552.34,1711.34 v 19.05 h -3.25 v -19.05 h 3.25"
         style="fill:#ffffff;fill-opacity:1;fill-rule:nonzero;stroke:none" />
  <path
         id="path423"
         d="m 1552.34,1689.03 v 19.06 h -3.25 v -19.06 h 3.25"
         style="fill:#ffffff;fill-opacity:1;fill-rule:nonzero;stroke:none" />
  <path
         id="path424"
         d="m 1549.09,1685.79 v -6.86 l 3.25,-3.26 v 10.12 h -3.25"
         style="fill:#ffffff;fill-opacity:1;fill-rule:nonzero;stroke:none" />
  <path
         id="path425"
         d="m 1552.34,1822.84 v 9.55 l -3.25,-3.24 v -6.31 h 3.25"
         style="fill:#ffffff;fill-opacity:1;fill-rule:nonzero;stroke:none" />
  <path
         id="path426"
         d="m 1552.34,1733.63 v 19.06 h -3.25 v -19.06 h 3.25"
         style="fill:#ffffff;fill-opacity:1;fill-rule:nonzero;stroke:none" />
  <path
         id="path427"
         d="m 1552.34,1800.54 v 19.05 h -3.25 v -19.05 h 3.25"
         style="fill:#ffffff;fill-opacity:1;fill-rule:nonzero;stroke:none" />
  <path
         id="path428"
         d="m 1574.64,1711.34 v 19.05 h -3.25 v -19.05 h 3.25"
         style="fill:#ffffff;fill-opacity:1;fill-rule:nonzero;stroke:none" />
  <path
         id="path429"
         d="m 1574.64,1778.24 v 19.05 h -3.25 v -19.05 h 3.25"
         style="fill:#ffffff;fill-opacity:1;fill-rule:nonzero;stroke:none" />
  <path
         id="path430"
         d="m 1574.64,1755.94 v 19.05 h -3.25 v -19.05 h 3.25"
         style="fill:#ffffff;fill-opacity:1;fill-rule:nonzero;stroke:none" />
  <path
         id="path431"
         d="m 1574.64,1822.84 v 19.05 h -3.25 v -19.05 h 3.25"
         style="fill:#ffffff;fill-opacity:1;fill-rule:nonzero;stroke:none" />
  <path
         id="path432"
         d="m 1571.39,1663.49 v -6.87 l 3.25,-3.25 v 10.12 h -3.25"
         style="fill:#ffffff;fill-opacity:1;fill-rule:nonzero;stroke:none" />
  <path
         id="path433"
         d="m 1574.64,1733.63 v 19.06 h -3.25 v -19.06 h 3.25"
         style="fill:#ffffff;fill-opacity:1;fill-rule:nonzero;stroke:none" />
  <path
         id="path434"
         d="m 1574.64,1689.03 v 19.06 h -3.25 v -19.06 h 3.25"
         style="fill:#ffffff;fill-opacity:1;fill-rule:nonzero;stroke:none" />
  <path
         id="path435"
         d="m 1574.64,1666.73 v 19.06 h -3.25 v -19.06 h 3.25"
         style="fill:#ffffff;fill-opacity:1;fill-rule:nonzero;stroke:none" />
  <path
         id="path436"
         d="m 1574.64,1845.14 v 9.56 l -3.25,-3.25 v -6.31 h 3.25"
         style="fill:#ffffff;fill-opacity:1;fill-rule:nonzero;stroke:none" />
  <path
         id="path437"
         d="m 1574.64,1800.54 v 19.05 h -3.25 v -19.05 h 3.25"
         style="fill:#ffffff;fill-opacity:1;fill-rule:nonzero;stroke:none" />
  <path
         id="path438"
         d="m 1596.94,1755.94 v 19.05 h -3.25 v -19.05 h 3.25"
         style="fill:#ffffff;fill-opacity:1;fill-rule:nonzero;stroke:none" />
  <path
         id="path439"
         d="m 1596.94,1845.14 v 19.05 h -3.25 v -19.05 h 3.25"
         style="fill:#ffffff;fill-opacity:1;fill-rule:nonzero;stroke:none" />
  <path
         id="path440"
         d="m 1596.94,1822.84 v 19.05 h -3.25 v -19.05 h 3.25"
         style="fill:#ffffff;fill-opacity:1;fill-rule:nonzero;stroke:none" />
  <path
         id="path441"
         d="m 1593.69,1641.19 v -6.86 l 3.25,-3.26 v 10.12 h -3.25"
         style="fill:#ffffff;fill-opacity:1;fill-rule:nonzero;stroke:none" />
  <path
         id="path442"
         d="m 1596.94,1733.63 v 19.06 h -3.25 v -19.06 h 3.25"
         style="fill:#ffffff;fill-opacity:1;fill-rule:nonzero;stroke:none" />
  <path
         id="path443"
         d="m 1596.94,1778.24 v 19.05 h -3.25 v -19.05 h 3.25"
         style="fill:#ffffff;fill-opacity:1;fill-rule:nonzero;stroke:none" />
  <path
         id="path444"
         d="m 1596.94,1689.03 v 19.06 h -3.25 v -19.06 h 3.25"
         style="fill:#ffffff;fill-opacity:1;fill-rule:nonzero;stroke:none" />
  <path
         id="path445"
         d="m 1596.94,1666.73 v 19.06 h -3.25 v -19.06 h 3.25"
         style="fill:#ffffff;fill-opacity:1;fill-rule:nonzero;stroke:none" />
  <path
         id="path446"
         d="m 1596.94,1867.43 v 9.56 l -3.25,-3.24 v -6.32 h 3.25"
         style="fill:#ffffff;fill-opacity:1;fill-rule:nonzero;stroke:none" />
  <path
         id="path447"
         d="m 1596.94,1644.43 v 19.06 h -3.25 v -19.06 h 3.25"
         style="fill:#ffffff;fill-opacity:1;fill-rule:nonzero;stroke:none" />
  <path
         id="path448"
         d="m 1596.94,1711.34 v 19.05 h -3.25 v -19.05 h 3.25"
         style="fill:#ffffff;fill-opacity:1;fill-rule:nonzero;stroke:none" />
  <path
         id="path449"
         d="m 1596.94,1800.54 v 19.05 h -3.25 v -19.05 h 3.25"
         style="fill:#ffffff;fill-opacity:1;fill-rule:nonzero;stroke:none" />
  <path
         id="path450"
         d="m 1619.24,1666.73 v 19.06 h -3.25 v -19.06 h 3.25"
         style="fill:#ffffff;fill-opacity:1;fill-rule:nonzero;stroke:none" />
  <path
         id="path451"
         d="m 1619.24,1689.03 v 19.06 h -3.25 v -19.06 h 3.25"
         style="fill:#ffffff;fill-opacity:1;fill-rule:nonzero;stroke:none" />
  <path
         id="path452"
         d="m 1619.24,1845.14 v 19.05 h -3.25 v -19.05 h 3.25"
         style="fill:#ffffff;fill-opacity:1;fill-rule:nonzero;stroke:none" />
  <path
         id="path453"
         d="m 1619.24,1622.14 v 19.05 h -3.25 v -19.05 h 3.25"
         style="fill:#ffffff;fill-opacity:1;fill-rule:nonzero;stroke:none" />
  <path
         id="path454"
         d="m 1619.24,1800.54 v 19.05 h -3.25 v -19.05 h 3.25"
         style="fill:#ffffff;fill-opacity:1;fill-rule:nonzero;stroke:none" />
  <path
         id="path455"
         d="m 1619.24,1644.43 v 19.06 h -3.25 v -19.06 h 3.25"
         style="fill:#ffffff;fill-opacity:1;fill-rule:nonzero;stroke:none" />
  <path
         id="path456"
         d="m 1615.99,1618.89 v -6.87 l 3.25,-3.25 v 10.12 h -3.25"
         style="fill:#ffffff;fill-opacity:1;fill-rule:nonzero;stroke:none" />
  <path
         id="path457"
         d="m 1619.24,1822.84 v 19.05 h -3.25 v -19.05 h 3.25"
         style="fill:#ffffff;fill-opacity:1;fill-rule:nonzero;stroke:none" />
  <path
         id="path458"
         d="m 1619.24,1711.34 v 19.05 h -3.25 v -19.05 h 3.25"
         style="fill:#ffffff;fill-opacity:1;fill-rule:nonzero;stroke:none" />
  <path
         id="path459"
         d="m 1619.24,1867.43 v 19.06 h -3.25 v -19.06 h 3.25"
         style="fill:#ffffff;fill-opacity:1;fill-rule:nonzero;stroke:none" />
  <path
         id="path460"
         d="m 1619.24,1778.24 v 19.05 h -3.25 v -19.05 h 3.25"
         style="fill:#ffffff;fill-opacity:1;fill-rule:nonzero;stroke:none" />
  <path
         id="path461"
         d="m 1619.24,1733.63 v 19.06 h -3.25 v -19.06 h 3.25"
         style="fill:#ffffff;fill-opacity:1;fill-rule:nonzero;stroke:none" />
  <path
         id="path462"
         d="m 1619.24,1755.94 v 19.05 h -3.25 v -19.05 h 3.25"
         style="fill:#ffffff;fill-opacity:1;fill-rule:nonzero;stroke:none" />
  <path
         id="path463"
         d="m 1619.24,1889.74 v 9.56 l -3.25,-3.26 v -6.3 h 3.25"
         style="fill:#ffffff;fill-opacity:1;fill-rule:nonzero;stroke:none" />
  <path
         id="path464"
         d="m 1641.54,1845.14 v 19.05 h -3.24 v -19.05 h 3.24"
         style="fill:#ffffff;fill-opacity:1;fill-rule:nonzero;stroke:none" />
  <path
         id="path465"
         d="m 1641.54,1711.34 v 19.05 h -3.24 v -19.05 h 3.24"
         style="fill:#ffffff;fill-opacity:1;fill-rule:nonzero;stroke:none" />
  <path
         id="path466"
         d="m 1641.54,1778.24 v 19.05 h -3.24 v -19.05 h 3.24"
         style="fill:#ffffff;fill-opacity:1;fill-rule:nonzero;stroke:none" />
  <path
         id="path467"
         d="m 1641.54,1689.03 v 19.06 h -3.24 v -19.06 h 3.24"
         style="fill:#ffffff;fill-opacity:1;fill-rule:nonzero;stroke:none" />
  <path
         id="path468"
         d="m 1641.54,1889.74 v 19.05 h -3.24 v -19.05 h 3.24"
         style="fill:#ffffff;fill-opacity:1;fill-rule:nonzero;stroke:none" />
  <path
         id="path469"
         d="m 1641.54,1822.84 v 19.05 h -3.24 v -19.05 h 3.24"
         style="fill:#ffffff;fill-opacity:1;fill-rule:nonzero;stroke:none" />
  <path
         id="path470"
         d="m 1641.54,1912.04 v 9.56 l -3.24,-3.25 v -6.31 h 3.24"
         style="fill:#ffffff;fill-opacity:1;fill-rule:nonzero;stroke:none" />
  <path
         id="path471"
         d="m 1641.54,1666.73 v 19.06 h -3.24 v -19.06 h 3.24"
         style="fill:#ffffff;fill-opacity:1;fill-rule:nonzero;stroke:none" />
  <path
         id="path472"
         d="m 1641.54,1867.43 v 19.06 h -3.24 v -19.06 h 3.24"
         style="fill:#ffffff;fill-opacity:1;fill-rule:nonzero;stroke:none" />
  <path
         id="path473"
         d="m 1641.54,1644.43 v 19.06 h -3.24 v -19.06 h 3.24"
         style="fill:#ffffff;fill-opacity:1;fill-rule:nonzero;stroke:none" />
  <path
         id="path474"
         d="m 1641.54,1800.54 v 19.05 h -3.24 v -19.05 h 3.24"
         style="fill:#ffffff;fill-opacity:1;fill-rule:nonzero;stroke:none" />
  <path
         id="path475"
         d="m 1641.54,1733.63 v 19.06 h -3.24 v -19.06 h 3.24"
         style="fill:#ffffff;fill-opacity:1;fill-rule:nonzero;stroke:none" />
  <path
         id="path476"
         d="m 1638.3,1596.58 v -6.86 l 3.24,-3.25 v 10.11 h -3.24"
         style="fill:#ffffff;fill-opacity:1;fill-rule:nonzero;stroke:none" />
  <path
         id="path477"
         d="m 1641.54,1755.94 v 19.05 h -3.24 v -19.05 h 3.24"
         style="fill:#ffffff;fill-opacity:1;fill-rule:nonzero;stroke:none" />
  <path
         id="path478"
         d="m 1641.54,1622.14 v 19.05 h -3.24 v -19.05 h 3.24"
         style="fill:#ffffff;fill-opacity:1;fill-rule:nonzero;stroke:none" />
  <path
         id="path479"
         d="m 1641.54,1599.83 v 19.06 h -3.24 v -19.06 h 3.24"
         style="fill:#ffffff;fill-opacity:1;fill-rule:nonzero;stroke:none" />
  <path
         id="path480"
         d="m 1663.84,1733.63 v 19.06 h -3.25 v -19.06 h 3.25"
         style="fill:#ffffff;fill-opacity:1;fill-rule:nonzero;stroke:none" />
  <path
         id="path481"
         d="m 1663.84,1644.43 v 19.06 h -3.25 v -19.06 h 3.25"
         style="fill:#ffffff;fill-opacity:1;fill-rule:nonzero;stroke:none" />
  <path
         id="path482"
         d="m 1663.84,1867.43 v 19.06 h -3.25 v -19.06 h 3.25"
         style="fill:#ffffff;fill-opacity:1;fill-rule:nonzero;stroke:none" />
  <path
         id="path483"
         d="m 1663.84,1800.54 v 19.05 h -3.25 v -19.05 h 3.25"
         style="fill:#ffffff;fill-opacity:1;fill-rule:nonzero;stroke:none" />
  <path
         id="path484"
         d="m 1663.84,1845.14 v 19.05 h -3.25 v -19.05 h 3.25"
         style="fill:#ffffff;fill-opacity:1;fill-rule:nonzero;stroke:none" />
  <path
         id="path485"
         d="m 1663.84,1666.73 v 19.06 h -3.25 v -19.06 h 3.25"
         style="fill:#ffffff;fill-opacity:1;fill-rule:nonzero;stroke:none" />
  <path
         id="path486"
         d="m 1663.84,1934.34 v 9.56 l -3.25,-3.26 v -6.3 h 3.25"
         style="fill:#ffffff;fill-opacity:1;fill-rule:nonzero;stroke:none" />
  <path
         id="path487"
         d="m 1663.84,1622.14 v 19.05 h -3.25 v -19.05 h 3.25"
         style="fill:#ffffff;fill-opacity:1;fill-rule:nonzero;stroke:none" />
  <path
         id="path488"
         d="m 1663.84,1711.34 v 19.05 h -3.25 v -19.05 h 3.25"
         style="fill:#ffffff;fill-opacity:1;fill-rule:nonzero;stroke:none" />
  <path
         id="path489"
         d="m 1663.84,1889.74 v 19.05 h -3.25 v -19.05 h 3.25"
         style="fill:#ffffff;fill-opacity:1;fill-rule:nonzero;stroke:none" />
  <path
         id="path490"
         d="m 1663.84,1778.24 v 19.05 h -3.25 v -19.05 h 3.25"
         style="fill:#ffffff;fill-opacity:1;fill-rule:nonzero;stroke:none" />
  <path
         id="path491"
         d="m 1663.84,1577.53 v 19.05 h -3.25 v -19.05 h 3.25"
         style="fill:#ffffff;fill-opacity:1;fill-rule:nonzero;stroke:none" />
  <path
         id="path492"
         d="m 1663.84,1822.84 v 19.05 h -3.25 v -19.05 h 3.25"
         style="fill:#ffffff;fill-opacity:1;fill-rule:nonzero;stroke:none" />
  <path
         id="path493"
         d="m 1660.59,1574.28 v -6.86 l 3.25,-3.25 v 10.11 h -3.25"
         style="fill:#ffffff;fill-opacity:1;fill-rule:nonzero;stroke:none" />
  <path
         id="path494"
         d="m 1663.84,1689.03 v 19.06 h -3.25 v -19.06 h 3.25"
         style="fill:#ffffff;fill-opacity:1;fill-rule:nonzero;stroke:none" />
  <path
         id="path495"
         d="m 1663.84,1755.94 v 19.05 h -3.25 v -19.05 h 3.25"
         style="fill:#ffffff;fill-opacity:1;fill-rule:nonzero;stroke:none" />
  <path
         id="path496"
         d="m 1663.84,1599.83 v 19.06 h -3.25 v -19.06 h 3.25"
         style="fill:#ffffff;fill-opacity:1;fill-rule:nonzero;stroke:none" />
  <path
         id="path497"
         d="m 1663.84,1912.04 v 19.05 h -3.25 v -19.05 h 3.25"
         style="fill:#ffffff;fill-opacity:1;fill-rule:nonzero;stroke:none" />
  <path
         id="path498"
         d="m 1686.14,1711.34 v 19.05 h -3.24 v -19.05 h 3.24"
         style="fill:#ffffff;fill-opacity:1;fill-rule:nonzero;stroke:none" />
  <path
         id="path499"
         d="m 1686.14,1822.84 v 19.05 h -3.24 v -19.05 h 3.24"
         style="fill:#ffffff;fill-opacity:1;fill-rule:nonzero;stroke:none" />
  <path
         id="path500"
         d="m 1686.14,1778.24 v 19.05 h -3.24 v -19.05 h 3.24"
         style="fill:#ffffff;fill-opacity:1;fill-rule:nonzero;stroke:none" />
  <path
         id="path501"
         d="m 1686.14,1889.74 v 19.05 h -3.24 v -19.05 h 3.24"
         style="fill:#ffffff;fill-opacity:1;fill-rule:nonzero;stroke:none" />
  <path
         id="path502"
         d="m 1686.14,1599.83 v 19.06 h -3.24 v -19.06 h 3.24"
         style="fill:#ffffff;fill-opacity:1;fill-rule:nonzero;stroke:none" />
  <path
         id="path503"
         d="m 1686.14,1666.73 v 19.06 h -3.24 v -19.06 h 3.24"
         style="fill:#ffffff;fill-opacity:1;fill-rule:nonzero;stroke:none" />
  <path
         id="path504"
         d="m 1686.14,1867.43 v 19.06 h -3.24 v -19.06 h 3.24"
         style="fill:#ffffff;fill-opacity:1;fill-rule:nonzero;stroke:none" />
  <path
         id="path505"
         d="m 1686.14,1644.43 v 19.06 h -3.24 v -19.06 h 3.24"
         style="fill:#ffffff;fill-opacity:1;fill-rule:nonzero;stroke:none" />
  <path
         id="path506"
         d="m 1686.14,1689.03 v 19.06 h -3.24 v -19.06 h 3.24"
         style="fill:#ffffff;fill-opacity:1;fill-rule:nonzero;stroke:none" />
  <path
         id="path507"
         d="m 1686.14,1622.14 v 19.05 h -3.24 v -19.05 h 3.24"
         style="fill:#ffffff;fill-opacity:1;fill-rule:nonzero;stroke:none" />
  <path
         id="path508"
         d="m 1682.9,1551.98 v -6.86 l 3.24,-3.25 v 10.11 h -3.24"
         style="fill:#ffffff;fill-opacity:1;fill-rule:nonzero;stroke:none" />
  <path
         id="path509"
         d="m 1686.14,1934.34 v 19.05 h -3.24 v -19.05 h 3.24"
         style="fill:#ffffff;fill-opacity:1;fill-rule:nonzero;stroke:none" />
  <path
         id="path510"
         d="m 1686.14,1845.14 v 19.05 h -3.24 v -19.05 h 3.24"
         style="fill:#ffffff;fill-opacity:1;fill-rule:nonzero;stroke:none" />
  <path
         id="path511"
         d="m 1686.14,1555.23 v 19.05 h -3.24 v -19.05 h 3.24"
         style="fill:#ffffff;fill-opacity:1;fill-rule:nonzero;stroke:none" />
  <path
         id="path512"
         d="m 1686.14,1912.04 v 19.05 h -3.24 v -19.05 h 3.24"
         style="fill:#ffffff;fill-opacity:1;fill-rule:nonzero;stroke:none" />
  <path
         id="path513"
         d="m 1686.14,1755.94 v 19.05 h -3.24 v -19.05 h 3.24"
         style="fill:#ffffff;fill-opacity:1;fill-rule:nonzero;stroke:none" />
  <path
         id="path514"
         d="m 1686.14,1733.63 v 19.06 h -3.24 v -19.06 h 3.24"
         style="fill:#ffffff;fill-opacity:1;fill-rule:nonzero;stroke:none" />
  <path
         id="path515"
         d="m 1686.14,1956.64 v 9.55 l -3.24,-3.24 v -6.31 h 3.24"
         style="fill:#ffffff;fill-opacity:1;fill-rule:nonzero;stroke:none" />
  <path
         id="path516"
         d="m 1686.14,1800.54 v 19.05 h -3.24 v -19.05 h 3.24"
         style="fill:#ffffff;fill-opacity:1;fill-rule:nonzero;stroke:none" />
  <path
         id="path517"
         d="m 1686.14,1577.53 v 19.05 h -3.24 v -19.05 h 3.24"
         style="fill:#ffffff;fill-opacity:1;fill-rule:nonzero;stroke:none" />
  <path
         id="path518"
         d="m 1708.44,1733.63 v 19.06 h -3.24 v -19.06 h 3.24"
         style="fill:#ffffff;fill-opacity:1;fill-rule:nonzero;stroke:none" />
  <path
         id="path519"
         d="m 1708.44,1778.24 v 19.05 h -3.24 v -19.05 h 3.24"
         style="fill:#ffffff;fill-opacity:1;fill-rule:nonzero;stroke:none" />
  <path
         id="path520"
         d="m 1708.44,1822.84 v 19.05 h -3.24 v -19.05 h 3.24"
         style="fill:#ffffff;fill-opacity:1;fill-rule:nonzero;stroke:none" />
  <path
         id="path521"
         d="m 1705.2,1529.69 v -6.87 l 3.24,-3.25 v 10.12 h -3.24"
         style="fill:#ffffff;fill-opacity:1;fill-rule:nonzero;stroke:none" />
  <path
         id="path522"
         d="m 1708.44,1755.94 v 19.05 h -3.24 v -19.05 h 3.24"
         style="fill:#ffffff;fill-opacity:1;fill-rule:nonzero;stroke:none" />
  <path
         id="path523"
         d="m 1708.44,1889.74 v 19.05 h -3.24 v -19.05 h 3.24"
         style="fill:#ffffff;fill-opacity:1;fill-rule:nonzero;stroke:none" />
  <path
         id="path524"
         d="m 1708.44,1867.43 v 19.06 h -3.24 v -19.06 h 3.24"
         style="fill:#ffffff;fill-opacity:1;fill-rule:nonzero;stroke:none" />
  <path
         id="path525"
         d="m 1708.44,1978.95 v 9.55 l -3.24,-3.25 v -6.3 h 3.24"
         style="fill:#ffffff;fill-opacity:1;fill-rule:nonzero;stroke:none" />
  <path
         id="path526"
         d="m 1708.44,1599.83 v 19.06 h -3.24 v -19.06 h 3.24"
         style="fill:#ffffff;fill-opacity:1;fill-rule:nonzero;stroke:none" />
  <path
         id="path527"
         d="m 1708.44,1711.34 v 19.05 h -3.24 v -19.05 h 3.24"
         style="fill:#ffffff;fill-opacity:1;fill-rule:nonzero;stroke:none" />
  <path
         id="path528"
         d="m 1708.44,1956.64 v 19.05 h -3.24 v -19.05 h 3.24"
         style="fill:#ffffff;fill-opacity:1;fill-rule:nonzero;stroke:none" />
  <path
         id="path529"
         d="m 1708.44,1689.03 v 19.06 h -3.24 v -19.06 h 3.24"
         style="fill:#ffffff;fill-opacity:1;fill-rule:nonzero;stroke:none" />
  <path
         id="path530"
         d="m 1708.44,1800.54 v 19.05 h -3.24 v -19.05 h 3.24"
         style="fill:#ffffff;fill-opacity:1;fill-rule:nonzero;stroke:none" />
  <path
         id="path531"
         d="m 1708.44,1622.14 v 19.05 h -3.24 v -19.05 h 3.24"
         style="fill:#ffffff;fill-opacity:1;fill-rule:nonzero;stroke:none" />
  <path
         id="path532"
         d="m 1708.44,1644.43 v 19.06 h -3.24 v -19.06 h 3.24"
         style="fill:#ffffff;fill-opacity:1;fill-rule:nonzero;stroke:none" />
  <path
         id="path533"
         d="m 1708.44,1532.94 v 19.04 h -3.24 v -19.04 h 3.24"
         style="fill:#ffffff;fill-opacity:1;fill-rule:nonzero;stroke:none" />
  <path
         id="path534"
         d="m 1708.44,1577.53 v 19.05 h -3.24 v -19.05 h 3.24"
         style="fill:#ffffff;fill-opacity:1;fill-rule:nonzero;stroke:none" />
  <path
         id="path535"
         d="m 1708.44,1934.34 v 19.05 h -3.24 v -19.05 h 3.24"
         style="fill:#ffffff;fill-opacity:1;fill-rule:nonzero;stroke:none" />
  <path
         id="path536"
         d="m 1708.44,1845.14 v 19.05 h -3.24 v -19.05 h 3.24"
         style="fill:#ffffff;fill-opacity:1;fill-rule:nonzero;stroke:none" />
  <path
         id="path537"
         d="m 1708.44,1666.73 v 19.06 h -3.24 v -19.06 h 3.24"
         style="fill:#ffffff;fill-opacity:1;fill-rule:nonzero;stroke:none" />
  <path
         id="path538"
         d="m 1708.44,1555.23 v 19.05 h -3.24 v -19.05 h 3.24"
         style="fill:#ffffff;fill-opacity:1;fill-rule:nonzero;stroke:none" />
  <path
         id="path539"
         d="m 1708.44,1912.04 v 19.05 h -3.24 v -19.05 h 3.24"
         style="fill:#ffffff;fill-opacity:1;fill-rule:nonzero;stroke:none" />
  <path
         id="path540"
         d="m 1730.74,1800.54 v 19.05 h -3.24 v -19.05 h 3.24"
         style="fill:#ffffff;fill-opacity:1;fill-rule:nonzero;stroke:none" />
  <path
         id="path541"
         d="m 1730.74,1644.43 v 19.06 h -3.24 v -19.06 h 3.24"
         style="fill:#ffffff;fill-opacity:1;fill-rule:nonzero;stroke:none" />
  <path
         id="path542"
         d="m 1730.74,1912.04 v 19.05 h -3.24 v -19.05 h 3.24"
         style="fill:#ffffff;fill-opacity:1;fill-rule:nonzero;stroke:none" />
  <path
         id="path543"
         d="m 1730.74,1577.53 v 19.05 h -3.24 v -19.05 h 3.24"
         style="fill:#ffffff;fill-opacity:1;fill-rule:nonzero;stroke:none" />
  <path
         id="path544"
         d="m 1730.74,1822.84 v 19.05 h -3.24 v -19.05 h 3.24"
         style="fill:#ffffff;fill-opacity:1;fill-rule:nonzero;stroke:none" />
  <path
         id="path545"
         d="m 1730.74,1934.34 v 19.05 h -3.24 v -19.05 h 3.24"
         style="fill:#ffffff;fill-opacity:1;fill-rule:nonzero;stroke:none" />
  <path
         id="path546"
         d="m 1730.74,1956.64 v 19.05 h -3.24 v -19.05 h 3.24"
         style="fill:#ffffff;fill-opacity:1;fill-rule:nonzero;stroke:none" />
  <path
         id="path547"
         d="m 1730.74,1711.34 v 19.05 h -3.24 v -19.05 h 3.24"
         style="fill:#ffffff;fill-opacity:1;fill-rule:nonzero;stroke:none" />
  <path
         id="path548"
         d="m 1730.74,1778.24 v 19.05 h -3.24 v -19.05 h 3.24"
         style="fill:#ffffff;fill-opacity:1;fill-rule:nonzero;stroke:none" />
  <path
         id="path549"
         d="m 1730.74,1622.14 v 19.05 h -3.24 v -19.05 h 3.24"
         style="fill:#ffffff;fill-opacity:1;fill-rule:nonzero;stroke:none" />
  <path
         id="path550"
         d="m 1730.74,1755.94 v 19.05 h -3.24 v -19.05 h 3.24"
         style="fill:#ffffff;fill-opacity:1;fill-rule:nonzero;stroke:none" />
  <path
         id="path551"
         d="m 1730.74,1599.83 v 19.06 h -3.24 v -19.06 h 3.24"
         style="fill:#ffffff;fill-opacity:1;fill-rule:nonzero;stroke:none" />
  <path
         id="path552"
         d="m 1730.74,1889.74 v 19.05 h -3.24 v -19.05 h 3.24"
         style="fill:#ffffff;fill-opacity:1;fill-rule:nonzero;stroke:none" />
  <path
         id="path553"
         d="m 1727.5,1529.69 v -10.12 l 3.24,3.25 v 6.87 h -3.24"
         style="fill:#ffffff;fill-opacity:1;fill-rule:nonzero;stroke:none" />
  <path
         id="path554"
         d="m 1730.74,1978.95 v 6.3 l -3.24,3.25 v -9.55 h 3.24"
         style="fill:#ffffff;fill-opacity:1;fill-rule:nonzero;stroke:none" />
  <path
         id="path555"
         d="m 1730.74,1532.94 v 19.04 h -3.24 v -19.04 h 3.24"
         style="fill:#ffffff;fill-opacity:1;fill-rule:nonzero;stroke:none" />
  <path
         id="path556"
         d="m 1730.74,1666.73 v 19.06 h -3.24 v -19.06 h 3.24"
         style="fill:#ffffff;fill-opacity:1;fill-rule:nonzero;stroke:none" />
  <path
         id="path557"
         d="m 1730.74,1845.14 v 19.05 h -3.24 v -19.05 h 3.24"
         style="fill:#ffffff;fill-opacity:1;fill-rule:nonzero;stroke:none" />
  <path
         id="path558"
         d="m 1730.74,1555.23 v 19.05 h -3.24 v -19.05 h 3.24"
         style="fill:#ffffff;fill-opacity:1;fill-rule:nonzero;stroke:none" />
  <path
         id="path559"
         d="m 1730.74,1733.63 v 19.06 h -3.24 v -19.06 h 3.24"
         style="fill:#ffffff;fill-opacity:1;fill-rule:nonzero;stroke:none" />
  <path
         id="path560"
         d="m 1730.74,1689.03 v 19.06 h -3.24 v -19.06 h 3.24"
         style="fill:#ffffff;fill-opacity:1;fill-rule:nonzero;stroke:none" />
  <path
         id="path561"
         d="m 1730.74,1867.43 v 19.06 h -3.24 v -19.06 h 3.24"
         style="fill:#ffffff;fill-opacity:1;fill-rule:nonzero;stroke:none" />
  <path
         id="path562"
         d="m 1753.04,1555.23 v 19.05 h -3.25 v -19.05 h 3.25"
         style="fill:#ffffff;fill-opacity:1;fill-rule:nonzero;stroke:none" />
  <path
         id="path563"
         d="m 1753.04,1755.94 v 19.05 h -3.25 v -19.05 h 3.25"
         style="fill:#ffffff;fill-opacity:1;fill-rule:nonzero;stroke:none" />
  <path
         id="path564"
         d="m 1753.04,1845.14 v 19.05 h -3.25 v -19.05 h 3.25"
         style="fill:#ffffff;fill-opacity:1;fill-rule:nonzero;stroke:none" />
  <path
         id="path565"
         d="m 1749.79,1551.98 v -10.11 l 3.25,3.25 v 6.86 h -3.25"
         style="fill:#ffffff;fill-opacity:1;fill-rule:nonzero;stroke:none" />
  <path
         id="path566"
         d="m 1753.04,1778.24 v 19.05 h -3.25 v -19.05 h 3.25"
         style="fill:#ffffff;fill-opacity:1;fill-rule:nonzero;stroke:none" />
  <path
         id="path567"
         d="m 1753.04,1822.84 v 19.05 h -3.25 v -19.05 h 3.25"
         style="fill:#ffffff;fill-opacity:1;fill-rule:nonzero;stroke:none" />
  <path
         id="path568"
         d="m 1753.04,1867.43 v 19.06 h -3.25 v -19.06 h 3.25"
         style="fill:#ffffff;fill-opacity:1;fill-rule:nonzero;stroke:none" />
  <path
         id="path569"
         d="m 1753.04,1733.63 v 19.06 h -3.25 v -19.06 h 3.25"
         style="fill:#ffffff;fill-opacity:1;fill-rule:nonzero;stroke:none" />
  <path
         id="path570"
         d="m 1753.04,1889.74 v 19.05 h -3.25 v -19.05 h 3.25"
         style="fill:#ffffff;fill-opacity:1;fill-rule:nonzero;stroke:none" />
  <path
         id="path571"
         d="m 1753.04,1644.43 v 19.06 h -3.25 v -19.06 h 3.25"
         style="fill:#ffffff;fill-opacity:1;fill-rule:nonzero;stroke:none" />
  <path
         id="path572"
         d="m 1753.04,1956.64 v 6.31 l -3.25,3.24 v -9.55 h 3.25"
         style="fill:#ffffff;fill-opacity:1;fill-rule:nonzero;stroke:none" />
  <path
         id="path573"
         d="m 1753.04,1689.03 v 19.06 h -3.25 v -19.06 h 3.25"
         style="fill:#ffffff;fill-opacity:1;fill-rule:nonzero;stroke:none" />
  <path
         id="path574"
         d="m 1753.04,1666.73 v 19.06 h -3.25 v -19.06 h 3.25"
         style="fill:#ffffff;fill-opacity:1;fill-rule:nonzero;stroke:none" />
  <path
         id="path575"
         d="m 1753.04,1800.54 v 19.05 h -3.25 v -19.05 h 3.25"
         style="fill:#ffffff;fill-opacity:1;fill-rule:nonzero;stroke:none" />
  <path
         id="path576"
         d="m 1753.04,1711.34 v 19.05 h -3.25 v -19.05 h 3.25"
         style="fill:#ffffff;fill-opacity:1;fill-rule:nonzero;stroke:none" />
  <path
         id="path577"
         d="m 1753.04,1934.34 v 19.05 h -3.25 v -19.05 h 3.25"
         style="fill:#ffffff;fill-opacity:1;fill-rule:nonzero;stroke:none" />
  <path
         id="path578"
         d="m 1753.04,1577.53 v 19.05 h -3.25 v -19.05 h 3.25"
         style="fill:#ffffff;fill-opacity:1;fill-rule:nonzero;stroke:none" />
  <path
         id="path579"
         d="m 1753.04,1599.83 v 19.06 h -3.25 v -19.06 h 3.25"
         style="fill:#ffffff;fill-opacity:1;fill-rule:nonzero;stroke:none" />
  <path
         id="path580"
         d="m 1753.04,1912.04 v 19.05 h -3.25 v -19.05 h 3.25"
         style="fill:#ffffff;fill-opacity:1;fill-rule:nonzero;stroke:none" />
  <path
         id="path581"
         d="m 1753.04,1622.14 v 19.05 h -3.25 v -19.05 h 3.25"
         style="fill:#ffffff;fill-opacity:1;fill-rule:nonzero;stroke:none" />
  <path
         id="path582"
         d="m 1775.35,1689.03 v 19.06 h -3.26 v -19.06 h 3.26"
         style="fill:#ffffff;fill-opacity:1;fill-rule:nonzero;stroke:none" />
  <path
         id="path583"
         d="m 1775.35,1889.74 v 19.05 h -3.26 v -19.05 h 3.26"
         style="fill:#ffffff;fill-opacity:1;fill-rule:nonzero;stroke:none" />
  <path
         id="path584"
         d="m 1775.35,1733.63 v 19.06 h -3.26 v -19.06 h 3.26"
         style="fill:#ffffff;fill-opacity:1;fill-rule:nonzero;stroke:none" />
  <path
         id="path585"
         d="m 1775.35,1934.34 v 6.3 l -3.26,3.26 v -9.56 h 3.26"
         style="fill:#ffffff;fill-opacity:1;fill-rule:nonzero;stroke:none" />
  <path
         id="path586"
         d="m 1775.35,1800.54 v 19.05 h -3.26 v -19.05 h 3.26"
         style="fill:#ffffff;fill-opacity:1;fill-rule:nonzero;stroke:none" />
  <path
         id="path587"
         d="m 1775.35,1644.43 v 19.06 h -3.26 v -19.06 h 3.26"
         style="fill:#ffffff;fill-opacity:1;fill-rule:nonzero;stroke:none" />
  <path
         id="path588"
         d="m 1775.35,1867.43 v 19.06 h -3.26 v -19.06 h 3.26"
         style="fill:#ffffff;fill-opacity:1;fill-rule:nonzero;stroke:none" />
  <path
         id="path589"
         d="m 1775.35,1845.14 v 19.05 h -3.26 v -19.05 h 3.26"
         style="fill:#ffffff;fill-opacity:1;fill-rule:nonzero;stroke:none" />
  <path
         id="path590"
         d="m 1775.35,1666.73 v 19.06 h -3.26 v -19.06 h 3.26"
         style="fill:#ffffff;fill-opacity:1;fill-rule:nonzero;stroke:none" />
  <path
         id="path591"
         d="m 1775.35,1822.84 v 19.05 h -3.26 v -19.05 h 3.26"
         style="fill:#ffffff;fill-opacity:1;fill-rule:nonzero;stroke:none" />
  <path
         id="path592"
         d="m 1775.35,1711.34 v 19.05 h -3.26 v -19.05 h 3.26"
         style="fill:#ffffff;fill-opacity:1;fill-rule:nonzero;stroke:none" />
  <path
         id="path593"
         d="m 1775.35,1577.53 v 19.05 h -3.26 v -19.05 h 3.26"
         style="fill:#ffffff;fill-opacity:1;fill-rule:nonzero;stroke:none" />
  <path
         id="path594"
         d="m 1775.35,1778.24 v 19.05 h -3.26 v -19.05 h 3.26"
         style="fill:#ffffff;fill-opacity:1;fill-rule:nonzero;stroke:none" />
  <path
         id="path595"
         d="m 1775.35,1599.83 v 19.06 h -3.26 v -19.06 h 3.26"
         style="fill:#ffffff;fill-opacity:1;fill-rule:nonzero;stroke:none" />
  <path
         id="path596"
         d="m 1775.35,1755.94 v 19.05 h -3.26 v -19.05 h 3.26"
         style="fill:#ffffff;fill-opacity:1;fill-rule:nonzero;stroke:none" />
  <path
         id="path597"
         d="m 1775.35,1912.04 v 19.05 h -3.26 v -19.05 h 3.26"
         style="fill:#ffffff;fill-opacity:1;fill-rule:nonzero;stroke:none" />
  <path
         id="path598"
         d="m 1775.35,1622.14 v 19.05 h -3.26 v -19.05 h 3.26"
         style="fill:#ffffff;fill-opacity:1;fill-rule:nonzero;stroke:none" />
  <path
         id="path599"
         d="m 1772.09,1574.28 v -10.11 l 3.26,3.25 v 6.86 h -3.26"
         style="fill:#ffffff;fill-opacity:1;fill-rule:nonzero;stroke:none" />
  <path
         id="path600"
         d="m 1797.64,1845.14 v 19.05 h -3.25 v -19.05 h 3.25"
         style="fill:#ffffff;fill-opacity:1;fill-rule:nonzero;stroke:none" />
  <path
         id="path601"
         d="m 1797.64,1711.34 v 19.05 h -3.25 v -19.05 h 3.25"
         style="fill:#ffffff;fill-opacity:1;fill-rule:nonzero;stroke:none" />
  <path
         id="path602"
         d="m 1797.64,1912.04 v 6.31 l -3.25,3.25 v -9.56 h 3.25"
         style="fill:#ffffff;fill-opacity:1;fill-rule:nonzero;stroke:none" />
  <path
         id="path603"
         d="m 1797.64,1889.74 v 19.05 h -3.25 v -19.05 h 3.25"
         style="fill:#ffffff;fill-opacity:1;fill-rule:nonzero;stroke:none" />
  <path
         id="path604"
         d="m 1797.64,1800.54 v 19.05 h -3.25 v -19.05 h 3.25"
         style="fill:#ffffff;fill-opacity:1;fill-rule:nonzero;stroke:none" />
  <path
         id="path605"
         d="m 1797.64,1822.84 v 19.05 h -3.25 v -19.05 h 3.25"
         style="fill:#ffffff;fill-opacity:1;fill-rule:nonzero;stroke:none" />
  <path
         id="path606"
         d="m 1797.64,1733.63 v 19.06 h -3.25 v -19.06 h 3.25"
         style="fill:#ffffff;fill-opacity:1;fill-rule:nonzero;stroke:none" />
  <path
         id="path607"
         d="m 1797.64,1778.24 v 19.05 h -3.25 v -19.05 h 3.25"
         style="fill:#ffffff;fill-opacity:1;fill-rule:nonzero;stroke:none" />
  <path
         id="path608"
         d="m 1797.64,1755.94 v 19.05 h -3.25 v -19.05 h 3.25"
         style="fill:#ffffff;fill-opacity:1;fill-rule:nonzero;stroke:none" />
  <path
         id="path609"
         d="m 1797.64,1867.43 v 19.06 h -3.25 v -19.06 h 3.25"
         style="fill:#ffffff;fill-opacity:1;fill-rule:nonzero;stroke:none" />
  <path
         id="path610"
         d="m 1797.64,1689.03 v 19.06 h -3.25 v -19.06 h 3.25"
         style="fill:#ffffff;fill-opacity:1;fill-rule:nonzero;stroke:none" />
  <path
         id="path611"
         d="m 1797.64,1622.14 v 19.05 h -3.25 v -19.05 h 3.25"
         style="fill:#ffffff;fill-opacity:1;fill-rule:nonzero;stroke:none" />
  <path
         id="path612"
         d="m 1797.64,1644.43 v 19.06 h -3.25 v -19.06 h 3.25"
         style="fill:#ffffff;fill-opacity:1;fill-rule:nonzero;stroke:none" />
  <path
         id="path613"
         d="m 1797.64,1666.73 v 19.06 h -3.25 v -19.06 h 3.25"
         style="fill:#ffffff;fill-opacity:1;fill-rule:nonzero;stroke:none" />
  <path
         id="path614"
         d="m 1797.64,1599.83 v 19.06 h -3.25 v -19.06 h 3.25"
         style="fill:#ffffff;fill-opacity:1;fill-rule:nonzero;stroke:none" />
  <path
         id="path615"
         d="m 1794.39,1596.58 v -10.11 l 3.25,3.25 v 6.86 h -3.25"
         style="fill:#ffffff;fill-opacity:1;fill-rule:nonzero;stroke:none" />
  <path
         id="path616"
         d="m 1819.95,1867.43 v 19.06 h -3.26 v -19.06 h 3.26"
         style="fill:#ffffff;fill-opacity:1;fill-rule:nonzero;stroke:none" />
  <path
         id="path617"
         d="m 1819.95,1711.34 v 19.05 h -3.26 v -19.05 h 3.26"
         style="fill:#ffffff;fill-opacity:1;fill-rule:nonzero;stroke:none" />
  <path
         id="path618"
         d="m 1819.95,1689.03 v 19.06 h -3.26 v -19.06 h 3.26"
         style="fill:#ffffff;fill-opacity:1;fill-rule:nonzero;stroke:none" />
  <path
         id="path619"
         d="m 1819.95,1800.54 v 19.05 h -3.26 v -19.05 h 3.26"
         style="fill:#ffffff;fill-opacity:1;fill-rule:nonzero;stroke:none" />
  <path
         id="path620"
         d="m 1816.69,1618.89 v -10.12 l 3.26,3.25 v 6.87 h -3.26"
         style="fill:#ffffff;fill-opacity:1;fill-rule:nonzero;stroke:none" />
  <path
         id="path621"
         d="m 1819.95,1666.73 v 19.06 h -3.26 v -19.06 h 3.26"
         style="fill:#ffffff;fill-opacity:1;fill-rule:nonzero;stroke:none" />
  <path
         id="path622"
         d="m 1819.95,1889.74 v 6.3 l -3.26,3.26 v -9.56 h 3.26"
         style="fill:#ffffff;fill-opacity:1;fill-rule:nonzero;stroke:none" />
  <path
         id="path623"
         d="m 1819.95,1778.24 v 19.05 h -3.26 v -19.05 h 3.26"
         style="fill:#ffffff;fill-opacity:1;fill-rule:nonzero;stroke:none" />
  <path
         id="path624"
         d="m 1819.95,1644.43 v 19.06 h -3.26 v -19.06 h 3.26"
         style="fill:#ffffff;fill-opacity:1;fill-rule:nonzero;stroke:none" />
  <path
         id="path625"
         d="m 1819.95,1733.63 v 19.06 h -3.26 v -19.06 h 3.26"
         style="fill:#ffffff;fill-opacity:1;fill-rule:nonzero;stroke:none" />
  <path
         id="path626"
         d="m 1819.95,1755.94 v 19.05 h -3.26 v -19.05 h 3.26"
         style="fill:#ffffff;fill-opacity:1;fill-rule:nonzero;stroke:none" />
  <path
         id="path627"
         d="m 1819.95,1845.14 v 19.05 h -3.26 v -19.05 h 3.26"
         style="fill:#ffffff;fill-opacity:1;fill-rule:nonzero;stroke:none" />
  <path
         id="path628"
         d="m 1819.95,1622.14 v 19.05 h -3.26 v -19.05 h 3.26"
         style="fill:#ffffff;fill-opacity:1;fill-rule:nonzero;stroke:none" />
  <path
         id="path629"
         d="m 1819.95,1822.84 v 19.05 h -3.26 v -19.05 h 3.26"
         style="fill:#ffffff;fill-opacity:1;fill-rule:nonzero;stroke:none" />
  <path
         id="path630"
         d="m 1842.25,1733.63 v 19.06 H 1839 v -19.06 h 3.25"
         style="fill:#ffffff;fill-opacity:1;fill-rule:nonzero;stroke:none" />
  <path
         id="path631"
         d="m 1842.25,1778.24 v 19.05 H 1839 v -19.05 h 3.25"
         style="fill:#ffffff;fill-opacity:1;fill-rule:nonzero;stroke:none" />
  <path
         id="path632"
         d="m 1842.25,1644.43 v 19.06 H 1839 v -19.06 h 3.25"
         style="fill:#ffffff;fill-opacity:1;fill-rule:nonzero;stroke:none" />
  <path
         id="path633"
         d="m 1842.25,1755.94 v 19.05 H 1839 v -19.05 h 3.25"
         style="fill:#ffffff;fill-opacity:1;fill-rule:nonzero;stroke:none" />
  <path
         id="path634"
         d="m 1842.25,1800.54 v 19.05 H 1839 v -19.05 h 3.25"
         style="fill:#ffffff;fill-opacity:1;fill-rule:nonzero;stroke:none" />
  <path
         id="path635"
         d="m 1839,1641.19 v -10.12 l 3.25,3.26 v 6.86 H 1839"
         style="fill:#ffffff;fill-opacity:1;fill-rule:nonzero;stroke:none" />
  <path
         id="path636"
         d="m 1842.25,1845.14 v 19.05 H 1839 v -19.05 h 3.25"
         style="fill:#ffffff;fill-opacity:1;fill-rule:nonzero;stroke:none" />
  <path
         id="path637"
         d="m 1842.25,1822.84 v 19.05 H 1839 v -19.05 h 3.25"
         style="fill:#ffffff;fill-opacity:1;fill-rule:nonzero;stroke:none" />
  <path
         id="path638"
         d="m 1842.25,1689.03 v 19.06 H 1839 v -19.06 h 3.25"
         style="fill:#ffffff;fill-opacity:1;fill-rule:nonzero;stroke:none" />
  <path
         id="path639"
         d="m 1842.25,1867.43 v 6.32 l -3.25,3.24 v -9.56 h 3.25"
         style="fill:#ffffff;fill-opacity:1;fill-rule:nonzero;stroke:none" />
  <path
         id="path640"
         d="m 1842.25,1711.34 v 19.05 H 1839 v -19.05 h 3.25"
         style="fill:#ffffff;fill-opacity:1;fill-rule:nonzero;stroke:none" />
  <path
         id="path641"
         d="m 1842.25,1666.73 v 19.06 H 1839 v -19.06 h 3.25"
         style="fill:#ffffff;fill-opacity:1;fill-rule:nonzero;stroke:none" />
  <path
         id="path642"
         d="m 1864.54,1800.54 v 19.05 h -3.25 v -19.05 h 3.25"
         style="fill:#ffffff;fill-opacity:1;fill-rule:nonzero;stroke:none" />
  <path
         id="path643"
         d="m 1864.54,1755.94 v 19.05 h -3.25 v -19.05 h 3.25"
         style="fill:#ffffff;fill-opacity:1;fill-rule:nonzero;stroke:none" />
  <path
         id="path644"
         d="m 1864.54,1666.73 v 19.06 h -3.25 v -19.06 h 3.25"
         style="fill:#ffffff;fill-opacity:1;fill-rule:nonzero;stroke:none" />
  <path
         id="path645"
         d="m 1864.54,1733.63 v 19.06 h -3.25 v -19.06 h 3.25"
         style="fill:#ffffff;fill-opacity:1;fill-rule:nonzero;stroke:none" />
  <path
         id="path646"
         d="m 1864.54,1689.03 v 19.06 h -3.25 v -19.06 h 3.25"
         style="fill:#ffffff;fill-opacity:1;fill-rule:nonzero;stroke:none" />
  <path
         id="path647"
         d="m 1864.54,1711.34 v 19.05 h -3.25 v -19.05 h 3.25"
         style="fill:#ffffff;fill-opacity:1;fill-rule:nonzero;stroke:none" />
  <path
         id="path648"
         d="m 1864.54,1822.84 v 19.05 h -3.25 v -19.05 h 3.25"
         style="fill:#ffffff;fill-opacity:1;fill-rule:nonzero;stroke:none" />
  <path
         id="path649"
         d="m 1861.29,1663.49 v -10.12 l 3.25,3.25 v 6.87 h -3.25"
         style="fill:#ffffff;fill-opacity:1;fill-rule:nonzero;stroke:none" />
  <path
         id="path650"
         d="m 1864.54,1845.14 v 6.31 l -3.25,3.25 v -9.56 h 3.25"
         style="fill:#ffffff;fill-opacity:1;fill-rule:nonzero;stroke:none" />
  <path
         id="path651"
         d="m 1864.54,1778.24 v 19.05 h -3.25 v -19.05 h 3.25"
         style="fill:#ffffff;fill-opacity:1;fill-rule:nonzero;stroke:none" />
  <path
         id="path652"
         d="m 1886.85,1689.03 v 19.06 h -3.25 v -19.06 h 3.25"
         style="fill:#ffffff;fill-opacity:1;fill-rule:nonzero;stroke:none" />
  <path
         id="path653"
         d="m 1886.85,1755.94 v 19.05 h -3.25 v -19.05 h 3.25"
         style="fill:#ffffff;fill-opacity:1;fill-rule:nonzero;stroke:none" />
  <path
         id="path654"
         d="m 1886.85,1800.54 v 19.05 h -3.25 v -19.05 h 3.25"
         style="fill:#ffffff;fill-opacity:1;fill-rule:nonzero;stroke:none" />
  <path
         id="path655"
         d="m 1886.85,1733.63 v 19.06 h -3.25 v -19.06 h 3.25"
         style="fill:#ffffff;fill-opacity:1;fill-rule:nonzero;stroke:none" />
  <path
         id="path656"
         d="m 1886.85,1711.34 v 19.05 h -3.25 v -19.05 h 3.25"
         style="fill:#ffffff;fill-opacity:1;fill-rule:nonzero;stroke:none" />
  <path
         id="path657"
         d="m 1886.85,1822.84 v 6.31 l -3.25,3.24 v -9.55 h 3.25"
         style="fill:#ffffff;fill-opacity:1;fill-rule:nonzero;stroke:none" />
  <path
         id="path658"
         d="m 1883.6,1685.79 v -10.12 l 3.25,3.26 v 6.86 h -3.25"
         style="fill:#ffffff;fill-opacity:1;fill-rule:nonzero;stroke:none" />
  <path
         id="path659"
         d="m 1886.85,1778.24 v 19.05 h -3.25 v -19.05 h 3.25"
         style="fill:#ffffff;fill-opacity:1;fill-rule:nonzero;stroke:none" />
  <path
         id="path660"
         d="m 1909.15,1778.24 v 19.05 h -3.25 v -19.05 h 3.25"
         style="fill:#ffffff;fill-opacity:1;fill-rule:nonzero;stroke:none" />
  <path
         id="path661"
         d="m 1905.9,1708.09 v -10.11 l 3.25,3.24 v 6.87 h -3.25"
         style="fill:#ffffff;fill-opacity:1;fill-rule:nonzero;stroke:none" />
  <path
         id="path662"
         d="m 1909.15,1711.34 v 19.05 h -3.25 v -19.05 h 3.25"
         style="fill:#ffffff;fill-opacity:1;fill-rule:nonzero;stroke:none" />
  <path
         id="path663"
         d="m 1909.15,1755.94 v 19.05 h -3.25 v -19.05 h 3.25"
         style="fill:#ffffff;fill-opacity:1;fill-rule:nonzero;stroke:none" />
  <path
         id="path664"
         d="m 1909.15,1733.63 v 19.06 h -3.25 v -19.06 h 3.25"
         style="fill:#ffffff;fill-opacity:1;fill-rule:nonzero;stroke:none" />
  <path
         id="path665"
         d="m 1909.15,1800.54 v 6.31 l -3.25,3.24 v -9.55 h 3.25"
         style="fill:#ffffff;fill-opacity:1;fill-rule:nonzero;stroke:none" />
  <path
         id="path666"
         d="m 1931.45,1755.94 v 19.05 h -3.25 v -19.05 h 3.25"
         style="fill:#ffffff;fill-opacity:1;fill-rule:nonzero;stroke:none" />
  <path
         id="path667"
         d="m 1928.2,1730.39 v -10.12 l 3.25,3.26 v 6.86 h -3.25"
         style="fill:#ffffff;fill-opacity:1;fill-rule:nonzero;stroke:none" />
  <path
         id="path668"
         d="m 1931.45,1733.63 v 19.06 h -3.25 v -19.06 h 3.25"
         style="fill:#ffffff;fill-opacity:1;fill-rule:nonzero;stroke:none" />
  <path
         id="path669"
         d="m 1931.45,1778.24 v 6.31 l -3.25,3.24 v -9.55 h 3.25"
         style="fill:#ffffff;fill-opacity:1;fill-rule:nonzero;stroke:none" />
  <path
         id="path670"
         d="m 1950.5,1752.69 v -10.11 l 3.25,3.24 v 6.87 h -3.25"
         style="fill:#ffffff;fill-opacity:1;fill-rule:nonzero;stroke:none" />
  <path
         id="path671"
         d="m 1953.75,1755.94 v 6.31 l -3.25,3.24 v -9.55 h 3.25"
         style="fill:#ffffff;fill-opacity:1;fill-rule:nonzero;stroke:none" />
  <path
         id="path672"
         d="m 1717.93,1997.99 h 0.07 l -0.03,0.04 z"
         style="fill:#ffffff;fill-opacity:1;fill-rule:nonzero;stroke:none" />
  <path
         id="path673"
         d="m 1727.5,1978.95 h -28.61 l -3.25,-3.26 h 44.66 l -3.25,3.26 h -6.31 -3.24"
         style="fill:#ffffff;fill-opacity:1;fill-rule:nonzero;stroke:none" />
  <path
         id="path674"
         d="m 1749.79,1956.64 h -73.21 l -3.25,-3.25 h 89.27 l -3.25,3.25 h -6.31 -3.25"
         style="fill:#ffffff;fill-opacity:1;fill-rule:nonzero;stroke:none" />
  <path
         id="path675"
         d="m 1772.09,1934.34 h -117.81 l -3.24,-3.25 h 133.86 l -3.24,3.25 h -6.31 -3.26"
         style="fill:#ffffff;fill-opacity:1;fill-rule:nonzero;stroke:none" />
  <path
         id="path676"
         d="m 1794.39,1912.04 h -162.4 l -3.25,-3.25 h 178.46 l -3.25,3.25 h -6.31 -3.25"
         style="fill:#ffffff;fill-opacity:1;fill-rule:nonzero;stroke:none" />
  <path
         id="path677"
         d="m 1816.69,1889.74 h -207.01 l -3.24,-3.25 h 223.06 l -3.25,3.25 h -6.3 -3.26"
         style="fill:#ffffff;fill-opacity:1;fill-rule:nonzero;stroke:none" />
  <path
         id="path678"
         d="m 1839,1867.43 h -251.62 l -3.25,-3.24 h 267.67 l -3.25,3.24 h -6.3 -3.25"
         style="fill:#ffffff;fill-opacity:1;fill-rule:nonzero;stroke:none" />
  <path
         id="path679"
         d="m 1861.29,1845.14 h -296.21 l -3.24,-3.25 h 312.26 l -3.25,3.25 h -6.31 -3.25"
         style="fill:#ffffff;fill-opacity:1;fill-rule:nonzero;stroke:none" />
  <path
         id="path680"
         d="m 1883.6,1822.84 h -340.82 l -3.24,-3.25 h 356.86 l -3.25,3.25 h -6.3 -3.25"
         style="fill:#ffffff;fill-opacity:1;fill-rule:nonzero;stroke:none" />
  <path
         id="path681"
         d="m 1905.9,1800.54 h -385.42 l -3.25,-3.25 h 401.48 l -3.26,3.25 h -6.3 -3.25"
         style="fill:#ffffff;fill-opacity:1;fill-rule:nonzero;stroke:none" />
  <path
         id="path682"
         d="m 1928.2,1778.24 h -430.02 l -3.24,-3.25 H 1941 l -3.25,3.25 h -6.3 -3.25"
         style="fill:#ffffff;fill-opacity:1;fill-rule:nonzero;stroke:none" />
  <path
         id="path683"
         d="m 1950.5,1755.94 h -474.62 l -1.9,-1.91 1.35,-1.34 h 6.86 3.25 19.05 3.25 19.05 3.25 19.05 3.25 19.05 3.25 19.05 3.25 19.05 3.25 19.06 3.24 19.05 3.25 19.06 3.24 19.06 3.24 19.06 3.24 19.05 3.25 19.05 3.26 19.04 3.25 19.05 3.26 19.05 3.25 19.04 3.25 19.06 3.25 19.05 3.25 19.05 3.25 19.05 3.25 6.86 l 1.35,1.34 -1.91,1.91 h -6.3 -3.25"
         style="fill:#ffffff;fill-opacity:1;fill-rule:nonzero;stroke:none" />
  <path
         id="path684"
         d="m 1928.2,1733.63 h -433.82 l 3.25,-3.24 h 440.68 l 3.25,3.24 h -10.11 -3.25"
         style="fill:#ffffff;fill-opacity:1;fill-rule:nonzero;stroke:none" />
  <path
         id="path685"
         d="m 1905.9,1711.34 h -389.23 l 3.26,-3.25 h 396.08 l 3.25,3.25 h -10.11 -3.25"
         style="fill:#ffffff;fill-opacity:1;fill-rule:nonzero;stroke:none" />
  <path
         id="path686"
         d="m 1883.6,1689.03 h -344.62 l 3.25,-3.24 h 351.48 l 3.25,3.24 h -10.11 -3.25"
         style="fill:#ffffff;fill-opacity:1;fill-rule:nonzero;stroke:none" />
  <path
         id="path687"
         d="m 1861.29,1666.73 h -300.01 l 3.25,-3.24 h 306.88 l 3.25,3.24 h -10.12 -3.25"
         style="fill:#ffffff;fill-opacity:1;fill-rule:nonzero;stroke:none" />
  <path
         id="path688"
         d="m 1839,1644.43 h -255.42 l 3.25,-3.24 h 262.28 l 3.25,3.24 h -10.11 -3.25"
         style="fill:#ffffff;fill-opacity:1;fill-rule:nonzero;stroke:none" />
  <path
         id="path689"
         d="m 1816.69,1622.14 h -210.81 l 3.25,-3.25 h 217.68 l 3.24,3.25 h -10.1 -3.26"
         style="fill:#ffffff;fill-opacity:1;fill-rule:nonzero;stroke:none" />
  <path
         id="path690"
         d="m 1794.39,1599.83 h -166.21 l 3.25,-3.25 h 173.08 l 3.24,3.25 h -10.11 -3.25"
         style="fill:#ffffff;fill-opacity:1;fill-rule:nonzero;stroke:none" />
  <path
         id="path691"
         d="m 1772.09,1577.53 h -121.61 l 3.25,-3.25 h 128.48 l 3.24,3.25 h -10.1 -3.26"
         style="fill:#ffffff;fill-opacity:1;fill-rule:nonzero;stroke:none" />
  <path
         id="path692"
         d="m 1749.79,1555.23 h -77.01 l 3.25,-3.25 h 83.88 l 3.24,3.25 h -10.11 -3.25"
         style="fill:#ffffff;fill-opacity:1;fill-rule:nonzero;stroke:none" />
  <path
         id="path693"
         d="m 1727.5,1532.94 h -32.42 l 3.25,-3.25 h 39.28 l 3.25,3.25 h -10.12 -3.24"
         style="fill:#ffffff;fill-opacity:1;fill-rule:nonzero;stroke:none" />
  <path
         id="path694"
         d="m 1717.97,1510.05 0.58,0.57 h -1.17 z"
         style="fill:#ffffff;fill-opacity:1;fill-rule:nonzero;stroke:none" />
  <path
         id="path695"
         d="m 1476.39,1754.03 241.58,-241.58 241.58,241.58 -241.58,241.59 z m 241.58,-246.39 -1.2,1.21 -245.19,245.18 246.39,246.4 1.2,-1.2 245.19,-245.2 -246.39,-246.39"
         style="fill:#ffffff;fill-opacity:1;fill-rule:nonzero;stroke:none" />
  <path
         id="path696"
         d="m 1448.93,1754.03 269.04,-269.03 269.04,269.03 -269.04,269.05 z m 269.04,-273.84 -1.2,1.2 -272.65,272.64 273.85,273.86 1.2,-1.21 272.65,-272.65 -273.85,-273.84"
         style="fill:#ffffff;fill-opacity:1;fill-rule:nonzero;stroke:none" />
  <path
         id="path697"
         d="m 1353.57,1754.03 364.4,-364.38 364.39,364.38 -364.39,364.4 z m 364.4,-369.2 -1.2,1.21 -368,367.99 369.2,369.21 1.2,-1.21 368,-368 -369.2,-369.2"
         style="fill:#ffffff;fill-opacity:1;fill-rule:nonzero;stroke:none" />
  <path
         id="path698"
         d="m 1419.61,1455.67 h 596.72 v 596.72 h -596.72 z m 606.64,-9.92 h -616.56 v 616.56 h 616.56 v -616.56"
         style="fill:#ffffff;fill-opacity:1;fill-rule:nonzero;stroke:none" />
  <path
         id="path699"
         d="m 1434.76,1470.82 h 566.42 v 566.43 h -566.42 z m 569.82,-3.4 h -573.22 v 573.22 h 573.22 v -573.22"
         style="fill:#ffffff;fill-opacity:1;fill-rule:nonzero;stroke:none" />
  <path
         id="path700"
         d="m 1433.06,2038.95 h 55.24 l -55.07,-55.07 z"
         style="fill:#ffffff;fill-opacity:1;fill-rule:nonzero;stroke:none" />
  <path
         id="path701"
         d="m 2002.96,2038.95 h -55.24 l 55.07,-55.07 z"
         style="fill:#ffffff;fill-opacity:1;fill-rule:nonzero;stroke:none" />
  <path
         id="path702"
         d="m 1433.06,1467.75 h 55.24 l -55.07,55.07 z"
         style="fill:#ffffff;fill-opacity:1;fill-rule:nonzero;stroke:none" />
  <path
         id="path703"
         d="m 2002.96,1467.75 h -55.24 l 55.07,55.07 z"
         style="fill:#ffffff;fill-opacity:1;fill-rule:nonzero;stroke:none" />
  <path
         id="path704"
         d="m 1446.52,1752.33 h -95.35 v 3.4 h 95.35 v -3.4"
         style="fill:#ffffff;fill-opacity:1;fill-rule:nonzero;stroke:none" />
  <path
         id="path705"
         d="m 1719.67,2025.48 h -3.4 v 95.35 h 3.4 v -95.35"
         style="fill:#ffffff;fill-opacity:1;fill-rule:nonzero;stroke:none" />
  <path
         id="path706"
         d="m 1719.67,1387.25 h -3.4 v 95.34 h 3.4 v -95.34"
         style="fill:#ffffff;fill-opacity:1;fill-rule:nonzero;stroke:none" />
  <path
         id="path707"
         d="m 2084.77,1752.33 h -95.36 v 3.4 h 95.36 v -3.4"
         style="fill:#ffffff;fill-opacity:1;fill-rule:nonzero;stroke:none" />
  <path
         id="path708"
         d="m 1902.61,1936.19 -2.4,2.4 101.56,101.56 2.4,-2.41 -101.56,-101.55"
         style="fill:#ffffff;fill-opacity:1;fill-rule:nonzero;stroke:none" />
  <path
         id="path709"
         d="m 1433.56,1750.49 c -0.43,0 -0.85,0.16 -1.19,0.49 l -0.5,0.48 -0.02,2.43 0.49,0.49 c 0.66,0.67 1.74,0.69 2.42,0.01 0.45,-0.44 0.6,-1.11 0.43,-1.68 0.18,-0.58 0.04,-1.25 -0.41,-1.71 -0.34,-0.34 -0.78,-0.51 -1.22,-0.51"
         style="fill:#ffffff;fill-opacity:1;fill-rule:nonzero;stroke:none" />
  <path
         id="path710"
         d="m 1710.49,2029.76 c -0.43,0 -0.87,0.16 -1.2,0.49 -0.67,0.67 -0.67,1.74 0,2.41 l 0.99,0.99 c 0.66,0.67 1.73,0.7 2.41,0.01 0.66,-0.66 0.66,-1.74 0,-2.4 l -1,-1.01 c -0.33,-0.33 -0.76,-0.49 -1.2,-0.49 z m -6.95,-6.98 c -0.42,0 -0.86,0.16 -1.2,0.49 -0.66,0.67 -0.66,1.74 -0.01,2.4 l 0.99,1 c 0.65,0.66 1.74,0.67 2.41,0.02 0.67,-0.66 0.67,-1.74 0.01,-2.41 l -0.98,-1 c -0.34,-0.33 -0.78,-0.5 -1.22,-0.5 z m -6.95,-6.98 c -0.44,0 -0.87,0.17 -1.2,0.5 -0.66,0.65 -0.66,1.73 0,2.4 l 1,1 c 0.66,0.66 1.74,0.66 2.4,0 0.66,-0.67 0.66,-1.75 0,-2.41 l -1,-0.99 c -0.33,-0.33 -0.76,-0.5 -1.2,-0.5 z m -6.94,-6.98 c -0.43,0 -0.87,0.15 -1.2,0.49 -0.67,0.66 -0.67,1.73 -0.01,2.4 l 0.98,1 c 0.66,0.66 1.74,0.67 2.42,0.01 0.66,-0.66 0.66,-1.73 0.01,-2.41 l -0.99,-0.99 c -0.33,-0.34 -0.77,-0.5 -1.21,-0.5 z m -6.95,-6.98 c -0.44,0 -0.87,0.15 -1.21,0.48 -0.66,0.67 -0.66,1.75 0,2.42 l 1,0.99 c 0.66,0.67 1.74,0.67 2.4,0 0.67,-0.66 0.67,-1.75 0,-2.41 l -0.99,-1 c -0.34,-0.33 -0.77,-0.48 -1.2,-0.48 z m -6.95,-6.99 c -0.43,0 -0.86,0.16 -1.19,0.49 -0.67,0.66 -0.68,1.73 -0.02,2.39 l 0.99,1.01 c 0.65,0.68 1.73,0.68 2.4,0.02 0.67,-0.65 0.68,-1.73 0.02,-2.4 l -0.99,-1 c -0.33,-0.34 -0.77,-0.51 -1.21,-0.51 z m -6.95,-6.99 c -0.43,0 -0.87,0.17 -1.2,0.5 -0.67,0.66 -0.67,1.74 0,2.41 l 0.99,1 c 0.66,0.66 1.73,0.67 2.41,0.01 0.66,-0.67 0.66,-1.75 0,-2.41 l -1,-1.01 c -0.33,-0.33 -0.76,-0.5 -1.2,-0.5 z m -6.94,-6.97 c -0.43,0 -0.87,0.16 -1.21,0.49 -0.66,0.66 -0.66,1.74 -0.01,2.4 l 0.99,1.01 c 0.66,0.66 1.74,0.67 2.41,0 0.67,-0.66 0.67,-1.73 0.01,-2.4 l -0.98,-0.99 c -0.34,-0.35 -0.78,-0.51 -1.21,-0.51 z m -6.96,-6.98 c -0.44,0 -0.87,0.16 -1.2,0.49 -0.66,0.67 -0.66,1.74 0,2.41 l 1,0.99 c 0.66,0.67 1.74,0.67 2.4,0 0.66,-0.66 0.66,-1.74 0,-2.4 l -1,-1 c -0.33,-0.33 -0.76,-0.49 -1.2,-0.49 z m -6.94,-6.99 c -0.43,0 -0.87,0.17 -1.2,0.49 -0.67,0.67 -0.67,1.74 -0.01,2.41 l 0.98,1 c 0.66,0.65 1.74,0.67 2.42,0.01 0.66,-0.66 0.66,-1.74 0.01,-2.4 l -0.99,-1 c -0.33,-0.34 -0.77,-0.51 -1.21,-0.51 z m -6.95,-6.98 c -0.44,0 -0.87,0.17 -1.21,0.5 -0.66,0.66 -0.66,1.74 0,2.4 l 1,1 c 0.66,0.66 1.74,0.66 2.4,0 0.67,-0.67 0.67,-1.74 0,-2.4 l -0.99,-1 c -0.33,-0.33 -0.76,-0.5 -1.2,-0.5 z m -6.95,-6.98 c -0.43,0 -0.86,0.16 -1.19,0.49 -0.67,0.66 -0.68,1.74 -0.02,2.4 l 0.99,1.01 c 0.65,0.67 1.73,0.67 2.4,0.01 0.67,-0.66 0.68,-1.73 0.02,-2.4 l -0.99,-1 c -0.33,-0.35 -0.77,-0.51 -1.21,-0.51 z m -6.95,-6.98 c -0.43,0 -0.87,0.16 -1.2,0.49 -0.67,0.67 -0.67,1.73 0,2.41 l 0.99,1 c 0.66,0.66 1.73,0.68 2.41,0 0.66,-0.66 0.66,-1.74 0,-2.4 l -1,-1.01 c -0.33,-0.33 -0.76,-0.49 -1.2,-0.49 z m -6.94,-6.98 c -0.43,0 -0.87,0.16 -1.21,0.49 -0.66,0.67 -0.66,1.74 0,2.4 l 0.98,1 c 0.66,0.66 1.74,0.67 2.41,0.02 0.67,-0.67 0.67,-1.74 0.01,-2.41 l -0.98,-1 c -0.34,-0.34 -0.77,-0.5 -1.21,-0.5 z m -6.96,-6.98 c -0.44,0 -0.87,0.17 -1.2,0.5 -0.66,0.66 -0.66,1.74 0,2.4 l 1,1 c 0.66,0.66 1.74,0.66 2.4,0 0.66,-0.67 0.66,-1.74 0,-2.4 l -1,-1 c -0.33,-0.33 -0.76,-0.5 -1.2,-0.5 z m -6.94,-6.98 c -0.43,0 -0.87,0.16 -1.2,0.49 -0.67,0.66 -0.67,1.74 -0.01,2.4 l 0.98,1 c 0.66,0.66 1.74,0.67 2.42,0.02 0.66,-0.67 0.66,-1.74 0.01,-2.42 l -0.99,-0.99 c -0.33,-0.34 -0.77,-0.5 -1.21,-0.5 z m -6.95,-6.98 c -0.44,0 -0.87,0.16 -1.2,0.49 -0.67,0.67 -0.67,1.74 0,2.41 l 0.99,0.98 c 0.67,0.68 1.74,0.68 2.4,0 0.67,-0.65 0.67,-1.73 0,-2.39 l -0.99,-1 c -0.33,-0.33 -0.76,-0.49 -1.2,-0.49 z m -6.95,-6.99 c -0.43,0 -0.86,0.16 -1.19,0.49 -0.67,0.66 -0.68,1.73 -0.02,2.4 l 0.99,1 c 0.65,0.68 1.73,0.68 2.4,0.02 0.67,-0.65 0.68,-1.74 0.02,-2.4 l -0.99,-1 c -0.33,-0.34 -0.77,-0.51 -1.21,-0.51 z m -6.95,-6.99 c -0.43,0 -0.87,0.17 -1.2,0.5 -0.67,0.66 -0.67,1.74 0,2.41 l 0.99,1 c 0.66,0.66 1.73,0.68 2.41,0 0.66,-0.67 0.66,-1.73 0,-2.4 l -1,-1 c -0.33,-0.33 -0.76,-0.51 -1.2,-0.51 z m -6.94,-6.97 c -0.43,0 -0.87,0.17 -1.2,0.49 -0.67,0.66 -0.67,1.74 -0.01,2.41 l 0.98,0.99 c 0.66,0.68 1.74,0.68 2.41,0.02 0.67,-0.67 0.67,-1.74 0.01,-2.41 l -0.98,-0.99 c -0.33,-0.34 -0.77,-0.51 -1.21,-0.51 z m -6.96,-6.98 c -0.44,0 -0.87,0.16 -1.2,0.49 -0.66,0.67 -0.66,1.74 0,2.41 l 1,0.99 c 0.66,0.67 1.74,0.67 2.4,0 0.66,-0.66 0.66,-1.73 0,-2.4 l -1,-1 c -0.33,-0.33 -0.76,-0.49 -1.2,-0.49 z m -6.94,-6.99 c -0.43,0 -0.87,0.17 -1.2,0.49 -0.67,0.67 -0.67,1.74 -0.01,2.41 l 0.99,0.99 c 0.65,0.68 1.73,0.68 2.41,0.02 0.66,-0.66 0.66,-1.74 0.01,-2.4 l -0.99,-1 c -0.33,-0.34 -0.77,-0.51 -1.21,-0.51 z m -6.95,-6.98 c -0.44,0 -0.87,0.17 -1.2,0.5 -0.67,0.66 -0.67,1.74 0,2.4 l 0.99,1 c 0.67,0.66 1.74,0.66 2.4,0 0.67,-0.67 0.67,-1.74 0,-2.4 l -0.99,-1 c -0.33,-0.33 -0.76,-0.5 -1.2,-0.5 z m -6.95,-6.98 c -0.43,0 -0.87,0.17 -1.2,0.5 -0.66,0.65 -0.66,1.73 0,2.4 l 1,1.01 c 0.65,0.65 1.73,0.67 2.4,0 0.66,-0.67 0.66,-1.74 0,-2.41 l -1,-1 c -0.33,-0.33 -0.76,-0.5 -1.2,-0.5 z m -6.95,-6.98 c -0.43,0 -0.87,0.16 -1.2,0.5 -0.66,0.66 -0.66,1.73 0,2.4 l 1,1 c 0.65,0.66 1.72,0.68 2.4,0 0.66,-0.66 0.66,-1.73 0,-2.4 l -1,-1 c -0.33,-0.34 -0.76,-0.5 -1.2,-0.5 z m -6.94,-6.99 c -0.44,0 -0.87,0.18 -1.2,0.51 -0.67,0.67 -0.67,1.74 0,2.4 l 0.99,1 c 0.67,0.67 1.74,0.67 2.4,0 0.67,-0.66 0.67,-1.74 0,-2.4 l -0.99,-1 c -0.33,-0.33 -0.76,-0.51 -1.2,-0.51 z m -6.96,-6.97 c -0.44,0 -0.87,0.17 -1.2,0.5 -0.66,0.66 -0.66,1.74 0,2.4 l 1,1 c 0.66,0.66 1.74,0.66 2.4,0 0.67,-0.68 0.67,-1.74 0,-2.4 l -0.99,-1 c -0.34,-0.33 -0.77,-0.5 -1.21,-0.5 z m -6.94,-6.98 c -0.44,0 -0.87,0.17 -1.2,0.5 -0.66,0.66 -0.66,1.74 0,2.4 l 1,1 c 0.66,0.66 1.73,0.66 2.4,0 0.66,-0.67 0.66,-1.74 0,-2.41 l -1,-0.99 c -0.33,-0.33 -0.76,-0.5 -1.2,-0.5 z m -6.95,-6.98 c -0.44,0 -0.87,0.16 -1.2,0.5 -0.67,0.66 -0.67,1.73 0,2.4 l 0.99,0.98 c 0.67,0.67 1.74,0.67 2.4,0 0.67,-0.65 0.67,-1.72 0,-2.39 l -0.99,-0.99 c -0.33,-0.34 -0.76,-0.5 -1.2,-0.5 z m -6.95,-6.99 c -0.43,0 -0.86,0.16 -1.2,0.49 -0.66,0.67 -0.66,1.74 0,2.42 l 1,0.99 c 0.65,0.67 1.73,0.68 2.4,0.01 0.67,-0.67 0.67,-1.75 0,-2.41 l -0.99,-1 c -0.34,-0.33 -0.77,-0.5 -1.21,-0.5 z m -6.95,-6.98 c -0.43,0 -0.87,0.16 -1.2,0.49 -0.66,0.66 -0.66,1.74 0,2.4 l 1,1.01 c 0.65,0.65 1.72,0.68 2.4,0.01 0.66,-0.67 0.66,-1.74 0,-2.41 l -1,-1 c -0.33,-0.33 -0.76,-0.5 -1.2,-0.5 z m -6.94,-6.98 c -0.44,0 -0.87,0.17 -1.2,0.5 -0.67,0.66 -0.67,1.74 0,2.4 l 0.99,1 c 0.67,0.66 1.74,0.66 2.4,0 0.67,-0.67 0.67,-1.74 0,-2.41 l -0.99,-0.99 c -0.33,-0.33 -0.76,-0.5 -1.2,-0.5 z m -6.96,-6.98 c -0.43,0 -0.86,0.16 -1.2,0.5 -0.66,0.66 -0.66,1.73 0,2.4 l 1,0.99 c 0.66,0.67 1.74,0.67 2.4,0 0.67,-0.66 0.67,-1.73 0,-2.4 l -0.99,-0.99 c -0.34,-0.34 -0.77,-0.5 -1.21,-0.5 z m -6.94,-6.98 c -0.44,0 -0.87,0.16 -1.2,0.49 -0.66,0.67 -0.66,1.74 0,2.41 l 1,0.99 c 0.66,0.67 1.73,0.67 2.4,0 0.66,-0.66 0.66,-1.74 0,-2.4 l -1,-1 c -0.33,-0.33 -0.76,-0.49 -1.2,-0.49 z m -6.95,-6.99 c -0.44,0 -0.87,0.17 -1.2,0.5 -0.67,0.66 -0.67,1.74 0,2.4 l 0.99,1 c 0.67,0.66 1.74,0.66 2.41,0 0.66,-0.66 0.66,-1.74 0,-2.4 l -1,-1 c -0.33,-0.33 -0.76,-0.5 -1.2,-0.5 z m -6.95,-6.98 c -0.42,0 -0.86,0.17 -1.2,0.5 -0.66,0.66 -0.66,1.74 0,2.4 l 1,1.01 c 0.65,0.65 1.73,0.67 2.4,0 0.67,-0.67 0.67,-1.74 0,-2.41 l -0.99,-1 c -0.34,-0.33 -0.77,-0.5 -1.21,-0.5 z m -6.95,-6.98 c -0.43,0 -0.87,0.15 -1.2,0.49 -0.66,0.66 -0.66,1.74 0,2.41 l 1,1 c 0.65,0.66 1.73,0.68 2.4,0 0.66,-0.66 0.66,-1.73 0,-2.4 l -1,-1 c -0.33,-0.34 -0.76,-0.5 -1.2,-0.5 z m -6.94,-6.97 c -0.44,0 -0.87,0.16 -1.2,0.49 -0.67,0.67 -0.67,1.74 0,2.41 l 0.99,0.99 c 0.67,0.66 1.74,0.66 2.41,0 0.66,-0.66 0.66,-1.74 0,-2.4 l -1,-1 c -0.33,-0.33 -0.76,-0.49 -1.2,-0.49 z m -6.95,-7 c -0.44,0 -0.87,0.18 -1.21,0.51 -0.66,0.66 -0.66,1.74 0,2.4 l 1,1 c 0.66,0.66 1.74,0.66 2.4,0 0.67,-0.66 0.67,-1.74 0,-2.4 l -0.99,-1 c -0.34,-0.33 -0.77,-0.51 -1.2,-0.51 z m -6.95,-6.97 c -0.44,0 -0.87,0.17 -1.2,0.5 -0.66,0.66 -0.66,1.74 0,2.39 l 1,1 c 0.66,0.66 1.73,0.66 2.4,0 0.66,-0.67 0.66,-1.73 0,-2.41 l -1,-0.98 c -0.33,-0.33 -0.76,-0.5 -1.2,-0.5"
         style="fill:#ffffff;fill-opacity:1;fill-rule:nonzero;stroke:none" />
  <path
         id="path711"
         d="m 1718.44,2036.74 c -0.17,0 -0.34,0.03 -0.51,0.08 -0.58,-0.17 -1.26,-0.04 -1.71,0.43 -0.65,0.66 -0.65,1.73 0.01,2.4 l 0.51,0.51 2.41,-0.01 0.5,-0.51 c 0.65,-0.67 0.65,-1.74 -0.01,-2.4 -0.33,-0.34 -0.77,-0.5 -1.2,-0.5"
         style="fill:#ffffff;fill-opacity:1;fill-rule:nonzero;stroke:none" />
  <path
         id="path712"
         d="m 1725.4,2029.78 c -0.44,0 -0.87,0.16 -1.2,0.49 l -1,1 c -0.66,0.66 -0.66,1.74 0,2.4 0.67,0.67 1.74,0.67 2.41,0 l 0.99,-0.99 c 0.67,-0.67 0.67,-1.74 0,-2.41 -0.33,-0.33 -0.76,-0.49 -1.2,-0.49 z m 6.96,-6.97 c -0.44,0 -0.87,0.17 -1.2,0.5 l -0.99,1 c -0.67,0.66 -0.67,1.73 0,2.39 0.66,0.66 1.73,0.66 2.4,0 l 0.99,-1 c 0.67,-0.65 0.67,-1.73 0,-2.39 -0.33,-0.33 -0.76,-0.5 -1.2,-0.5 z m 6.98,-6.96 c -0.43,0 -0.87,0.16 -1.21,0.49 l -0.99,0.98 c -0.67,0.67 -0.67,1.75 0,2.42 0.65,0.66 1.73,0.67 2.4,0 l 1,-0.99 c 0.66,-0.66 0.66,-1.74 0,-2.4 -0.33,-0.33 -0.76,-0.5 -1.2,-0.5 z m 6.96,-6.97 c -0.44,0 -0.87,0.16 -1.2,0.49 l -1,1 c -0.66,0.67 -0.66,1.74 0,2.4 0.67,0.67 1.74,0.67 2.4,0 l 1,-0.99 c 0.66,-0.67 0.66,-1.74 0,-2.41 -0.33,-0.33 -0.76,-0.49 -1.2,-0.49 z m 6.96,-6.98 c -0.44,0 -0.88,0.17 -1.21,0.51 l -0.99,1 c -0.65,0.66 -0.65,1.75 0.01,2.41 0.68,0.65 1.75,0.65 2.42,-0.02 l 0.98,-1 c 0.66,-0.66 0.66,-1.73 -0.01,-2.4 -0.33,-0.33 -0.77,-0.5 -1.2,-0.5 z m 6.97,-6.96 c -0.44,0 -0.86,0.17 -1.2,0.5 l -0.99,1 c -0.67,0.66 -0.67,1.73 0,2.4 0.66,0.66 1.74,0.66 2.4,0 l 1,-1 c 0.66,-0.66 0.66,-1.74 0,-2.4 -0.34,-0.33 -0.77,-0.5 -1.21,-0.5 z m 6.97,-6.96 c -0.44,0 -0.87,0.16 -1.2,0.5 l -1,0.99 c -0.66,0.67 -0.66,1.74 0,2.4 0.66,0.66 1.74,0.66 2.4,0 l 1,-0.99 c 0.66,-0.67 0.66,-1.74 0,-2.4 -0.33,-0.34 -0.76,-0.5 -1.2,-0.5 z m 6.97,-6.96 c -0.43,0 -0.87,0.15 -1.2,0.48 l -1,1 c -0.66,0.65 -0.66,1.74 0,2.4 0.66,0.66 1.73,0.68 2.41,0 l 0.99,-0.98 c 0.67,-0.67 0.67,-1.74 0,-2.41 -0.33,-0.33 -0.76,-0.49 -1.2,-0.49 z m 6.96,-6.98 c -0.44,0 -0.87,0.17 -1.2,0.5 l -0.99,1 c -0.67,0.66 -0.67,1.74 0,2.4 0.66,0.66 1.73,0.66 2.4,0 l 0.99,-1 c 0.67,-0.66 0.67,-1.73 0,-2.4 -0.33,-0.33 -0.76,-0.5 -1.2,-0.5 z m 6.97,-6.97 c -0.44,0 -0.88,0.17 -1.22,0.51 l -0.98,0.99 c -0.66,0.67 -0.66,1.75 0.01,2.42 0.67,0.65 1.76,0.64 2.41,-0.02 l 0.99,-1 c 0.65,-0.66 0.65,-1.74 -0.01,-2.4 -0.34,-0.33 -0.77,-0.5 -1.2,-0.5 z m 6.97,-6.96 c -0.44,0 -0.87,0.16 -1.2,0.5 l -1,0.99 c -0.66,0.67 -0.66,1.74 0,2.4 0.67,0.67 1.74,0.67 2.4,0 l 1,-0.99 c 0.66,-0.67 0.66,-1.74 0,-2.4 -0.33,-0.34 -0.76,-0.5 -1.2,-0.5 z m 6.96,-6.97 c -0.44,0 -0.87,0.17 -1.2,0.5 l -1,1 c -0.66,0.66 -0.66,1.73 0,2.39 0.67,0.67 1.74,0.67 2.41,0 l 0.99,-0.99 c 0.67,-0.66 0.67,-1.73 0,-2.4 -0.33,-0.33 -0.76,-0.5 -1.2,-0.5 z m 6.97,-6.96 c -0.44,0 -0.87,0.17 -1.2,0.5 l -0.99,1 c -0.67,0.66 -0.67,1.72 0,2.39 0.66,0.67 1.73,0.67 2.4,0 l 1,-1 c 0.66,-0.65 0.66,-1.73 0,-2.39 -0.34,-0.33 -0.77,-0.5 -1.21,-0.5 z m 6.97,-6.97 c -0.44,0 -0.87,0.16 -1.2,0.5 l -1,0.99 c -0.66,0.67 -0.66,1.74 0,2.41 0.66,0.66 1.74,0.66 2.4,0 l 1,-1 c 0.66,-0.66 0.66,-1.74 0,-2.4 -0.33,-0.34 -0.76,-0.5 -1.2,-0.5 z m 6.96,-6.96 c -0.44,0 -0.88,0.15 -1.21,0.49 l -0.99,1 c -0.65,0.67 -0.65,1.75 0.01,2.41 0.68,0.66 1.76,0.66 2.41,-0.02 l 0.99,-0.99 c 0.65,-0.67 0.65,-1.74 -0.01,-2.41 -0.33,-0.33 -0.77,-0.48 -1.2,-0.48 z m 6.97,-6.98 c -0.44,0 -0.87,0.17 -1.2,0.5 l -0.99,1 c -0.67,0.66 -0.67,1.74 0,2.4 0.66,0.66 1.73,0.66 2.4,0 l 0.99,-1 c 0.67,-0.66 0.67,-1.73 0,-2.4 -0.33,-0.33 -0.76,-0.5 -1.2,-0.5 z m 6.97,-6.96 c -0.43,0 -0.87,0.17 -1.21,0.5 l -0.99,0.98 c -0.67,0.67 -0.67,1.74 0,2.42 0.65,0.65 1.73,0.67 2.4,0 l 1,-0.99 c 0.66,-0.66 0.66,-1.74 0,-2.41 -0.34,-0.33 -0.77,-0.5 -1.2,-0.5 z m 6.97,-6.96 c -0.44,0 -0.87,0.16 -1.2,0.5 l -1,0.98 c -0.66,0.67 -0.66,1.74 0,2.4 0.66,0.68 1.74,0.68 2.4,0 l 1,-0.99 c 0.66,-0.67 0.66,-1.73 0,-2.39 -0.33,-0.34 -0.76,-0.5 -1.2,-0.5 z m 6.96,-6.98 c -0.44,0 -0.87,0.17 -1.2,0.5 l -1,1 c -0.66,0.66 -0.66,1.74 0,2.4 0.67,0.67 1.74,0.67 2.41,0 l 0.99,-0.99 c 0.67,-0.67 0.67,-1.74 0,-2.41 -0.33,-0.33 -0.76,-0.5 -1.2,-0.5 z m 6.96,-6.97 c -0.44,0 -0.87,0.17 -1.2,0.51 l -0.99,1 c -0.67,0.66 -0.67,1.73 0,2.4 0.66,0.66 1.73,0.66 2.4,0 l 0.99,-1 c 0.67,-0.66 0.67,-1.74 0,-2.4 -0.33,-0.34 -0.76,-0.51 -1.2,-0.51 z m 6.98,-6.96 c -0.44,0 -0.87,0.17 -1.2,0.5 l -1,0.99 c -0.66,0.67 -0.66,1.74 0,2.41 0.66,0.66 1.74,0.66 2.4,0 l 1,-1 c 0.66,-0.66 0.66,-1.74 0,-2.4 -0.33,-0.33 -0.76,-0.5 -1.2,-0.5 z m 6.96,-6.96 c -0.43,0 -0.87,0.16 -1.2,0.48 l -1,1 c -0.66,0.66 -0.66,1.74 0,2.4 0.66,0.66 1.73,0.69 2.4,0.01 l 1,-0.98 c 0.66,-0.67 0.66,-1.74 0,-2.42 -0.33,-0.33 -0.76,-0.49 -1.2,-0.49 z m 6.97,-6.97 c -0.44,0 -0.87,0.17 -1.2,0.5 l -1,1 c -0.66,0.66 -0.66,1.74 0,2.4 0.67,0.66 1.74,0.66 2.41,0 l 0.99,-1 c 0.67,-0.66 0.67,-1.73 0,-2.4 -0.33,-0.33 -0.76,-0.5 -1.2,-0.5 z m 6.96,-6.97 c -0.43,0 -0.86,0.17 -1.2,0.5 l -0.99,1 c -0.67,0.66 -0.67,1.73 0,2.4 0.66,0.66 1.74,0.66 2.4,0 l 1,-1 c 0.66,-0.66 0.66,-1.74 0,-2.4 -0.34,-0.33 -0.77,-0.5 -1.21,-0.5 z m 6.97,-6.97 c -0.44,0 -0.87,0.16 -1.2,0.51 l -1,0.99 c -0.66,0.67 -0.66,1.74 0,2.39 0.66,0.68 1.74,0.68 2.4,0 l 1,-0.98 c 0.66,-0.67 0.66,-1.74 0,-2.4 -0.33,-0.35 -0.76,-0.51 -1.2,-0.51 z m 6.97,-6.96 c -0.44,0 -0.87,0.16 -1.2,0.49 l -1,1 c -0.66,0.66 -0.66,1.74 0,2.4 0.67,0.67 1.74,0.67 2.41,0 l 0.99,-0.99 c 0.67,-0.67 0.67,-1.74 0,-2.41 -0.33,-0.33 -0.76,-0.49 -1.2,-0.49 z m 6.96,-6.97 c -0.43,0 -0.87,0.17 -1.2,0.5 l -0.99,0.99 c -0.67,0.66 -0.67,1.74 0,2.41 0.65,0.65 1.72,0.67 2.4,0 l 0.99,-0.99 c 0.67,-0.66 0.67,-1.74 0,-2.41 -0.33,-0.33 -0.76,-0.5 -1.2,-0.5 z m 6.98,-6.96 c -0.44,0 -0.87,0.17 -1.21,0.5 l -0.99,0.98 c -0.67,0.67 -0.67,1.74 0,2.42 0.66,0.66 1.74,0.66 2.4,0 l 1,-1.01 c 0.66,-0.66 0.66,-1.73 0,-2.39 -0.33,-0.33 -0.76,-0.5 -1.2,-0.5 z m 6.96,-6.97 c -0.44,0 -0.87,0.16 -1.2,0.5 l -1,0.99 c -0.66,0.67 -0.66,1.74 0,2.4 0.67,0.67 1.74,0.67 2.4,0 l 1,-0.99 c 0.66,-0.67 0.66,-1.74 0,-2.4 -0.33,-0.34 -0.76,-0.5 -1.2,-0.5 z m 6.96,-6.98 c -0.44,0 -0.87,0.18 -1.2,0.51 l -1,1 c -0.66,0.66 -0.66,1.74 0,2.4 0.67,0.66 1.74,0.66 2.41,0 l 0.99,-1 c 0.67,-0.66 0.67,-1.73 0,-2.4 -0.33,-0.33 -0.76,-0.51 -1.2,-0.51 z m 6.97,-6.96 c -0.44,0 -0.86,0.17 -1.2,0.5 l -0.99,1 c -0.67,0.66 -0.67,1.73 0,2.4 0.66,0.66 1.74,0.66 2.4,0 l 1,-1 c 0.66,-0.66 0.66,-1.74 0,-2.4 -0.34,-0.33 -0.77,-0.5 -1.21,-0.5 z m 6.97,-6.96 c -0.44,0 -0.87,0.16 -1.2,0.5 l -1,0.99 c -0.66,0.67 -0.66,1.74 0,2.41 0.66,0.66 1.74,0.66 2.4,0 l 1,-1 c 0.66,-0.67 0.66,-1.74 0,-2.4 -0.33,-0.34 -0.76,-0.5 -1.2,-0.5 z m 6.97,-6.96 c -0.44,0 -0.87,0.16 -1.2,0.49 l -1,1 c -0.66,0.66 -0.66,1.73 0,2.4 0.67,0.67 1.74,0.67 2.4,0 l 1,-0.99 c 0.67,-0.67 0.67,-1.74 0,-2.41 -0.33,-0.33 -0.76,-0.49 -1.2,-0.49 z m 6.96,-6.98 c -0.44,0 -0.87,0.17 -1.2,0.5 l -0.99,1 c -0.67,0.66 -0.67,1.74 0,2.4 0.66,0.66 1.73,0.66 2.4,0 l 0.99,-1 c 0.67,-0.66 0.67,-1.73 0,-2.4 -0.33,-0.33 -0.76,-0.5 -1.2,-0.5 z m 6.97,-6.96 c -0.44,0 -0.87,0.17 -1.21,0.5 l -0.99,0.99 c -0.67,0.67 -0.67,1.74 0,2.41 0.66,0.66 1.74,0.66 2.4,0 l 1,-1 c 0.66,-0.66 0.66,-1.74 0,-2.4 -0.34,-0.33 -0.76,-0.5 -1.2,-0.5 z m 6.97,-6.96 c -0.43,0 -0.87,0.15 -1.2,0.49 l -1,0.99 c -0.66,0.67 -0.66,1.73 0,2.4 0.66,0.66 1.73,0.69 2.4,0.01 l 1,-0.99 c 0.66,-0.67 0.66,-1.74 0,-2.4 -0.33,-0.34 -0.76,-0.5 -1.2,-0.5 z m 6.96,-6.98 c -0.44,0 -0.87,0.17 -1.2,0.5 l -1,1 c -0.66,0.66 -0.66,1.74 0,2.4 0.67,0.67 1.74,0.67 2.41,0 l 0.99,-1 c 0.67,-0.66 0.67,-1.73 0,-2.4 -0.33,-0.33 -0.76,-0.5 -1.2,-0.5 z m 6.97,-6.96 c -0.44,0 -0.87,0.17 -1.2,0.5 l -0.99,0.99 c -0.67,0.66 -0.67,1.73 0,2.41 0.66,0.66 1.73,0.66 2.4,0 l 1,-1.01 c 0.66,-0.66 0.66,-1.74 0,-2.39 -0.34,-0.33 -0.77,-0.5 -1.21,-0.5 z m 6.97,-6.97 c -0.44,0 -0.87,0.17 -1.2,0.5 l -1,0.99 c -0.66,0.67 -0.66,1.74 0,2.41 0.66,0.66 1.74,0.66 2.4,0 l 1,-1 c 0.66,-0.66 0.66,-1.74 0,-2.4 -0.33,-0.33 -0.76,-0.5 -1.2,-0.5 z m 6.96,-6.96 c -0.44,0 -0.87,0.16 -1.2,0.49 l -1,1 c -0.66,0.66 -0.66,1.74 0,2.4 0.67,0.67 1.74,0.67 2.4,0 l 1,-0.99 c 0.66,-0.67 0.66,-1.74 0,-2.41 -0.33,-0.33 -0.76,-0.49 -1.2,-0.49"
         style="fill:#ffffff;fill-opacity:1;fill-rule:nonzero;stroke:none" />
  <path
         id="path713"
         d="m 2003.08,1751.1 c -0.44,0 -0.88,0.17 -1.21,0.5 -0.46,0.46 -0.6,1.11 -0.41,1.7 -0.19,0.59 -0.05,1.24 0.41,1.7 0.65,0.66 1.73,0.68 2.41,0.01 l 0.51,-0.5 v -2.41 l -0.51,-0.51 c -0.33,-0.33 -0.77,-0.49 -1.2,-0.49"
         style="fill:#ffffff;fill-opacity:1;fill-rule:nonzero;stroke:none" />
  <path
         id="path714"
         d="m 1996.15,1744.17 c -0.43,0 -0.87,0.17 -1.2,0.5 -0.66,0.66 -0.66,1.74 0,2.4 l 0.99,1 c 0.65,0.66 1.74,0.67 2.4,0 0.66,-0.67 0.66,-1.74 0,-2.41 l -0.99,-0.99 c -0.33,-0.33 -0.76,-0.5 -1.2,-0.5 z m -6.93,-6.92 c -0.43,0 -0.87,0.15 -1.2,0.48 -0.67,0.67 -0.67,1.74 0,2.42 l 0.98,0.98 c 0.66,0.67 1.74,0.69 2.41,0.01 0.66,-0.66 0.66,-1.74 0,-2.41 l -0.99,-1 c -0.33,-0.33 -0.76,-0.48 -1.2,-0.48 z m -6.93,-6.94 c -0.44,0 -0.87,0.17 -1.21,0.5 -0.66,0.66 -0.66,1.74 0,2.4 l 1,0.99 c 0.66,0.68 1.74,0.66 2.4,0 0.67,-0.66 0.67,-1.74 0,-2.4 l -0.99,-1 c -0.34,-0.33 -0.78,-0.49 -1.2,-0.49 z m -6.94,-6.93 c -0.44,0 -0.87,0.16 -1.2,0.5 -0.66,0.67 -0.66,1.74 0,2.41 l 1,0.99 c 0.66,0.67 1.73,0.65 2.4,0 0.66,-0.68 0.66,-1.75 0,-2.42 l -1,-0.99 c -0.33,-0.33 -0.77,-0.49 -1.2,-0.49 z m -6.92,-6.93 c -0.43,0 -0.87,0.16 -1.2,0.49 -0.67,0.67 -0.67,1.74 0,2.41 l 0.98,0.99 c 0.67,0.66 1.74,0.68 2.41,0 0.66,-0.66 0.66,-1.74 0,-2.4 l -0.99,-1 c -0.33,-0.33 -0.76,-0.49 -1.2,-0.49 z m -6.94,-6.93 c -0.43,0 -0.86,0.16 -1.2,0.49 -0.66,0.66 -0.66,1.74 0,2.41 l 0.99,0.99 c 0.65,0.65 1.73,0.67 2.4,0.01 0.67,-0.67 0.67,-1.74 0,-2.41 l -0.98,-0.99 c -0.34,-0.33 -0.77,-0.5 -1.21,-0.5 z m -6.93,-6.93 c -0.44,0 -0.88,0.16 -1.21,0.51 -0.65,0.66 -0.65,1.73 0.01,2.4 l 1,0.98 c 0.67,0.67 1.74,0.66 2.41,-0.02 0.65,-0.66 0.65,-1.73 -0.01,-2.4 l -1,-0.98 c -0.33,-0.33 -0.77,-0.49 -1.2,-0.49 z m -6.92,-6.94 c -0.43,0 -0.87,0.17 -1.2,0.5 -0.67,0.67 -0.67,1.74 0,2.4 l 0.98,1 c 0.66,0.66 1.73,0.67 2.4,0 0.67,-0.66 0.67,-1.74 0,-2.4 l -0.98,-1 c -0.33,-0.33 -0.76,-0.5 -1.2,-0.5 z m -6.94,-6.92 c -0.44,0 -0.87,0.17 -1.2,0.5 -0.66,0.66 -0.66,1.74 0,2.39 l 0.99,1 c 0.66,0.66 1.74,0.66 2.4,0 0.66,-0.68 0.66,-1.74 0,-2.41 l -0.99,-0.98 c -0.33,-0.33 -0.76,-0.5 -1.2,-0.5 z m -6.93,-6.93 c -0.44,0 -0.87,0.15 -1.2,0.49 -0.67,0.67 -0.67,1.74 0,2.41 l 0.99,0.99 c 0.68,0.67 1.74,0.65 2.41,-0.01 0.66,-0.66 0.66,-1.73 0,-2.4 l -1,-0.99 c -0.33,-0.34 -0.77,-0.49 -1.2,-0.49 z m -6.93,-6.94 c -0.44,0 -0.87,0.17 -1.21,0.5 -0.66,0.68 -0.66,1.75 0,2.41 l 1,0.99 c 0.67,0.67 1.74,0.64 2.4,0 0.67,-0.67 0.67,-1.75 0,-2.41 l -0.99,-0.99 c -0.33,-0.33 -0.77,-0.5 -1.2,-0.5 z m -6.93,-6.93 c -0.43,0 -0.87,0.17 -1.2,0.5 -0.66,0.66 -0.66,1.73 0,2.4 l 0.99,1 c 0.65,0.64 1.73,0.67 2.4,0 0.66,-0.67 0.66,-1.74 0,-2.42 l -0.99,-0.98 c -0.33,-0.33 -0.76,-0.5 -1.2,-0.5 z m -6.93,-6.93 c -0.43,0 -0.87,0.16 -1.2,0.49 -0.67,0.67 -0.67,1.74 0,2.42 l 0.98,0.98 c 0.66,0.66 1.73,0.68 2.41,0.01 0.66,-0.66 0.66,-1.74 0,-2.41 l -0.99,-0.99 c -0.33,-0.33 -0.76,-0.5 -1.2,-0.5 z m -6.94,-6.93 c -0.43,0 -0.86,0.17 -1.2,0.5 -0.66,0.66 -0.66,1.74 0,2.4 l 1,1 c 0.67,0.66 1.75,0.64 2.4,-0.01 0.67,-0.67 0.67,-1.74 0,-2.4 l -0.99,-1 c -0.34,-0.33 -0.78,-0.49 -1.21,-0.49 z m -6.92,-6.93 c -0.43,0 -0.87,0.16 -1.2,0.5 -0.66,0.66 -0.66,1.73 0,2.4 l 0.99,1 c 0.65,0.65 1.72,0.67 2.4,0 0.66,-0.67 0.66,-1.74 0,-2.41 l -0.99,-0.99 c -0.33,-0.34 -0.76,-0.5 -1.2,-0.5 z m -6.93,-6.93 c -0.44,0 -0.87,0.16 -1.2,0.49 -0.67,0.67 -0.67,1.75 0,2.42 l 0.98,0.98 c 0.67,0.67 1.74,0.67 2.41,0 0.66,-0.66 0.66,-1.74 0,-2.4 l -0.99,-1 c -0.33,-0.33 -0.76,-0.49 -1.2,-0.49 z m -6.94,-6.93 c -0.43,0 -0.87,0.16 -1.2,0.49 -0.66,0.66 -0.66,1.74 0,2.41 l 0.99,0.99 c 0.65,0.65 1.73,0.67 2.4,0.01 0.67,-0.67 0.67,-1.74 0,-2.41 l -0.98,-0.99 c -0.34,-0.33 -0.77,-0.5 -1.21,-0.5 z m -6.93,-6.93 c -0.44,0 -0.87,0.16 -1.2,0.5 -0.66,0.67 -0.66,1.74 0,2.41 l 1,0.98 c 0.67,0.68 1.74,0.66 2.4,-0.01 0.66,-0.66 0.66,-1.73 0,-2.4 l -1,-0.98 c -0.33,-0.34 -0.77,-0.5 -1.2,-0.5 z m -6.92,-6.94 c -0.43,0 -0.87,0.16 -1.2,0.49 -0.67,0.68 -0.67,1.75 0,2.41 l 0.98,1 c 0.66,0.65 1.73,0.67 2.4,0 0.67,-0.66 0.67,-1.74 0,-2.4 l -0.98,-1 c -0.33,-0.33 -0.76,-0.5 -1.2,-0.5 z m -6.94,-6.92 c -0.43,0 -0.87,0.16 -1.2,0.49 -0.66,0.66 -0.66,1.74 0,2.41 l 0.99,0.99 c 0.65,0.66 1.73,0.67 2.4,0.01 0.66,-0.67 0.66,-1.74 0,-2.42 l -0.99,-0.98 c -0.33,-0.33 -0.76,-0.5 -1.2,-0.5 z m -6.93,-6.93 c -0.44,0 -0.87,0.16 -1.2,0.49 -0.67,0.67 -0.67,1.74 0,2.41 l 0.99,0.98 c 0.68,0.68 1.75,0.67 2.41,0 0.66,-0.66 0.66,-1.74 0,-2.41 l -1,-0.99 c -0.33,-0.33 -0.77,-0.48 -1.2,-0.48 z m -6.93,-6.94 c -0.44,0 -0.87,0.17 -1.21,0.5 -0.66,0.67 -0.66,1.74 0,2.41 l 1,0.99 c 0.67,0.67 1.75,0.65 2.4,0 0.67,-0.67 0.67,-1.75 0,-2.41 l -0.99,-0.99 c -0.34,-0.33 -0.77,-0.5 -1.2,-0.5 z m -6.93,-6.92 c -0.44,0 -0.87,0.17 -1.2,0.5 -0.66,0.66 -0.66,1.74 0,2.4 l 0.99,0.99 c 0.66,0.66 1.74,0.66 2.4,0 0.66,-0.67 0.66,-1.74 0,-2.41 l -0.99,-0.98 c -0.33,-0.33 -0.76,-0.5 -1.2,-0.5 z m -6.93,-6.93 c -0.43,0 -0.87,0.15 -1.2,0.48 -0.67,0.67 -0.67,1.74 0,2.41 l 0.98,0.99 c 0.66,0.66 1.73,0.69 2.41,0 0.66,-0.66 0.66,-1.74 0,-2.4 l -0.99,-0.99 c -0.33,-0.33 -0.76,-0.49 -1.2,-0.49 z m -6.94,-6.94 c -0.43,0 -0.87,0.17 -1.21,0.51 -0.65,0.66 -0.65,1.74 0.01,2.4 l 1,0.99 c 0.67,0.66 1.76,0.65 2.41,-0.01 0.66,-0.68 0.66,-1.75 -0.01,-2.41 l -0.99,-0.99 c -0.34,-0.33 -0.78,-0.49 -1.21,-0.49 z m -6.92,-6.93 c -0.43,0 -0.87,0.16 -1.2,0.5 -0.66,0.66 -0.66,1.72 0,2.4 l 0.99,0.99 c 0.65,0.66 1.72,0.68 2.4,0 0.66,-0.66 0.66,-1.73 0,-2.4 l -0.99,-0.99 c -0.33,-0.34 -0.76,-0.5 -1.2,-0.5 z m -6.93,-6.94 c -0.43,0 -0.87,0.17 -1.2,0.5 -0.67,0.67 -0.67,1.74 0,2.41 l 0.98,0.99 c 0.66,0.67 1.73,0.68 2.4,0.01 0.67,-0.66 0.67,-1.74 0,-2.41 l -0.98,-0.99 c -0.33,-0.33 -0.76,-0.51 -1.2,-0.51 z m -6.94,-6.93 c -0.44,0 -0.87,0.18 -1.2,0.51 -0.66,0.66 -0.66,1.74 0,2.4 l 1,1 c 0.67,0.67 1.75,0.65 2.4,-0.01 0.67,-0.67 0.67,-1.74 0,-2.4 l -1,-1 c -0.33,-0.33 -0.77,-0.5 -1.2,-0.5 z m -6.93,-6.92 c -0.44,0 -0.87,0.16 -1.2,0.5 -0.67,0.67 -0.67,1.74 0,2.41 l 1,0.98 c 0.67,0.68 1.74,0.66 2.4,0 0.66,-0.67 0.66,-1.74 0,-2.41 l -1,-0.98 c -0.33,-0.34 -0.77,-0.5 -1.2,-0.5 z m -6.92,-6.94 c -0.43,0 -0.87,0.17 -1.2,0.5 -0.67,0.67 -0.67,1.74 0,2.4 l 0.98,1 c 0.67,0.64 1.73,0.66 2.4,0 0.67,-0.66 0.67,-1.74 0,-2.4 l -0.98,-1 c -0.33,-0.33 -0.76,-0.5 -1.2,-0.5 z m -6.94,-6.92 c -0.43,0 -0.87,0.16 -1.2,0.49 -0.66,0.66 -0.66,1.74 0,2.41 l 0.99,0.99 c 0.66,0.64 1.73,0.68 2.4,0.01 0.66,-0.67 0.66,-1.74 0,-2.42 l -0.99,-0.99 c -0.33,-0.33 -0.76,-0.49 -1.2,-0.49 z m -6.93,-6.93 c -0.44,0 -0.88,0.16 -1.21,0.5 -0.66,0.67 -0.66,1.74 0.01,2.41 l 0.99,0.98 c 0.68,0.66 1.76,0.66 2.42,-0.02 0.65,-0.66 0.65,-1.73 -0.01,-2.4 l -1,-0.99 c -0.33,-0.32 -0.77,-0.48 -1.2,-0.48 z m -6.92,-6.94 c -0.43,0 -0.87,0.16 -1.21,0.49 -0.66,0.67 -0.66,1.74 0,2.41 l 0.99,1 c 0.65,0.65 1.73,0.66 2.4,0 0.67,-0.66 0.67,-1.74 0,-2.41 l -0.98,-0.99 c -0.34,-0.33 -0.77,-0.5 -1.2,-0.5 z m -6.94,-6.93 c -0.44,0 -0.87,0.17 -1.2,0.51 -0.66,0.66 -0.66,1.74 0,2.4 l 0.99,0.99 c 0.66,0.66 1.74,0.66 2.4,0 0.66,-0.67 0.66,-1.74 0,-2.41 l -0.99,-0.98 c -0.33,-0.34 -0.76,-0.51 -1.2,-0.51 z m -6.93,-6.92 c -0.43,0 -0.87,0.15 -1.2,0.48 -0.67,0.67 -0.67,1.74 0,2.42 l 0.98,0.98 c 0.66,0.67 1.73,0.69 2.41,0.01 0.66,-0.66 0.66,-1.74 0,-2.41 l -0.99,-0.99 c -0.33,-0.33 -0.76,-0.49 -1.2,-0.49 z m -6.94,-6.94 c -0.43,0 -0.86,0.17 -1.2,0.5 -0.66,0.67 -0.66,1.74 0,2.4 l 1,1 c 0.66,0.66 1.74,0.65 2.4,0 0.67,-0.68 0.67,-1.75 0,-2.41 l -0.99,-0.99 c -0.34,-0.33 -0.78,-0.5 -1.21,-0.5 z m -6.92,-6.93 c -0.43,0 -0.87,0.16 -1.2,0.5 -0.66,0.66 -0.66,1.73 0,2.4 l 0.99,0.99 c 0.66,0.65 1.73,0.68 2.4,0 0.66,-0.66 0.66,-1.73 0,-2.4 l -0.99,-0.99 c -0.33,-0.34 -0.76,-0.5 -1.2,-0.5 z m -6.93,-6.93 c -0.43,0 -0.87,0.16 -1.2,0.49 -0.67,0.67 -0.67,1.74 0,2.4 l 0.98,1 c 0.67,0.67 1.74,0.68 2.4,0 0.67,-0.65 0.67,-1.73 0,-2.4 l -0.98,-0.99 c -0.33,-0.33 -0.76,-0.5 -1.2,-0.5 z m -6.94,-6.93 c -0.44,0 -0.87,0.17 -1.2,0.49 -0.66,0.67 -0.66,1.75 0,2.41 l 1,1 c 0.66,0.67 1.75,0.65 2.4,-0.01 0.66,-0.67 0.66,-1.74 0,-2.4 l -1,-1 c -0.33,-0.33 -0.77,-0.49 -1.2,-0.49 z m -6.92,-6.93 c -0.43,0 -0.87,0.16 -1.2,0.5 -0.67,0.66 -0.67,1.73 0,2.4 l 0.98,0.99 c 0.66,0.67 1.74,0.68 2.41,0 0.66,-0.66 0.66,-1.73 0,-2.4 l -0.99,-0.99 c -0.33,-0.34 -0.76,-0.5 -1.2,-0.5"
         style="fill:#ffffff;fill-opacity:1;fill-rule:nonzero;stroke:none" />
  <path
         id="path715"
         d="m 1718.2,1467.91 -0.5,0.51 c -0.67,0.66 -0.67,1.74 -0.01,2.4 0.45,0.47 1.12,0.62 1.71,0.43 0.57,0.16 1.25,0.04 1.7,-0.42 0.67,-0.65 0.67,-1.73 0.01,-2.4 l -0.49,-0.5 -2.42,-0.02"
         style="fill:#ffffff;fill-opacity:1;fill-rule:nonzero;stroke:none" />
  <path
         id="path716"
         d="m 1440.54,1743.57 c -0.43,0 -0.87,0.17 -1.2,0.49 l -1,0.99 c -0.66,0.66 -0.66,1.74 -0.01,2.41 0.65,0.66 1.74,0.67 2.41,0.01 l 1,-0.99 c 0.66,-0.66 0.66,-1.73 0.01,-2.4 -0.33,-0.34 -0.77,-0.51 -1.21,-0.51 z m 6.99,-6.91 c -0.43,0 -0.86,0.17 -1.19,0.49 l -1.01,0.97 c -0.67,0.67 -0.68,1.74 -0.02,2.42 0.66,0.66 1.73,0.67 2.4,0.03 l 1.01,-1 c 0.67,-0.65 0.68,-1.73 0.02,-2.4 -0.33,-0.33 -0.77,-0.51 -1.21,-0.51 z m 6.98,-6.91 c -0.43,0 -0.87,0.15 -1.2,0.48 l -1,1 c -0.66,0.66 -0.66,1.74 0,2.4 0.66,0.67 1.73,0.68 2.41,0.01 l 0.99,-0.99 c 0.67,-0.67 0.67,-1.74 0,-2.42 -0.33,-0.33 -0.76,-0.48 -1.2,-0.48 z m 6.98,-6.92 c -0.43,0 -0.86,0.16 -1.2,0.49 l -0.99,0.99 c -0.67,0.66 -0.67,1.73 -0.01,2.4 0.65,0.67 1.74,0.67 2.41,0.02 l 1,-0.99 c 0.66,-0.67 0.66,-1.74 0.01,-2.41 -0.34,-0.34 -0.78,-0.5 -1.22,-0.5 z m 6.99,-6.92 c -0.43,0 -0.87,0.16 -1.2,0.5 l -1,0.98 c -0.66,0.67 -0.66,1.74 0,2.41 0.65,0.66 1.73,0.68 2.4,0 l 1,-0.98 c 0.66,-0.67 0.66,-1.75 0,-2.41 -0.33,-0.34 -0.76,-0.5 -1.2,-0.5 z m 6.98,-6.92 c -0.43,0 -0.87,0.17 -1.2,0.49 l -1,0.99 c -0.66,0.66 -0.66,1.74 -0.01,2.4 0.66,0.67 1.74,0.68 2.41,0.02 l 1,-0.99 c 0.66,-0.66 0.66,-1.73 0.01,-2.41 -0.33,-0.33 -0.77,-0.5 -1.21,-0.5 z m 6.98,-6.91 c -0.43,0 -0.87,0.17 -1.2,0.49 l -1,0.98 c -0.66,0.67 -0.66,1.74 -0.01,2.42 0.67,0.66 1.74,0.67 2.42,0.01 l 0.99,-0.99 c 0.67,-0.66 0.67,-1.74 0.01,-2.41 -0.33,-0.33 -0.77,-0.5 -1.21,-0.5 z m 6.98,-6.92 c -0.43,0 -0.87,0.16 -1.2,0.49 l -0.99,1 c -0.67,0.66 -0.67,1.74 0,2.4 0.66,0.66 1.73,0.69 2.4,0.01 l 1,-0.99 c 0.66,-0.67 0.66,-1.74 0,-2.41 -0.34,-0.33 -0.77,-0.5 -1.21,-0.5 z m 7,-6.92 c -0.43,0 -0.86,0.17 -1.2,0.49 l -1,0.99 c -0.68,0.65 -0.68,1.74 -0.02,2.41 0.66,0.66 1.73,0.67 2.4,0.02 l 1.01,-0.99 c 0.67,-0.65 0.68,-1.74 0.02,-2.4 -0.34,-0.34 -0.77,-0.52 -1.21,-0.52 z m 6.98,-6.91 c -0.43,0 -0.87,0.16 -1.2,0.5 l -1,0.98 c -0.66,0.67 -0.66,1.74 -0.01,2.4 0.67,0.67 1.74,0.69 2.41,0.02 l 1,-0.99 c 0.66,-0.67 0.66,-1.73 0.01,-2.4 -0.33,-0.34 -0.77,-0.51 -1.21,-0.51 z m 6.98,-6.92 c -0.43,0 -0.87,0.16 -1.2,0.49 l -1,0.99 c -0.66,0.66 -0.66,1.74 -0.01,2.41 0.66,0.66 1.74,0.66 2.42,0.01 l 0.99,-0.99 c 0.67,-0.66 0.67,-1.73 0.01,-2.4 -0.33,-0.34 -0.77,-0.51 -1.21,-0.51 z m 6.98,-6.91 c -0.43,0 -0.87,0.16 -1.2,0.49 l -0.99,0.98 c -0.67,0.67 -0.67,1.74 -0.01,2.42 0.66,0.66 1.73,0.67 2.41,0.01 l 0.99,-0.99 c 0.67,-0.66 0.67,-1.74 0.01,-2.4 -0.33,-0.34 -0.77,-0.51 -1.21,-0.51 z m 6.99,-6.91 c -0.43,0 -0.87,0.15 -1.21,0.48 l -0.99,1 c -0.67,0.66 -0.67,1.74 0,2.4 0.66,0.67 1.73,0.69 2.4,0.01 l 1,-0.99 c 0.66,-0.67 0.66,-1.74 0,-2.42 -0.34,-0.33 -0.76,-0.48 -1.2,-0.48 z m 6.98,-6.92 c -0.43,0 -0.87,0.16 -1.2,0.49 l -1,0.99 c -0.66,0.66 -0.66,1.72 -0.01,2.4 0.67,0.67 1.75,0.68 2.41,0.02 l 1,-0.99 c 0.66,-0.66 0.66,-1.74 0.01,-2.41 -0.33,-0.34 -0.77,-0.5 -1.21,-0.5 z m 6.98,-6.91 c -0.43,0 -0.87,0.15 -1.2,0.49 l -1,0.98 c -0.66,0.67 -0.66,1.74 -0.01,2.4 0.66,0.68 1.75,0.69 2.42,0.02 l 0.99,-0.98 c 0.67,-0.67 0.67,-1.74 0.01,-2.41 -0.33,-0.35 -0.77,-0.5 -1.21,-0.5 z m 6.99,-6.93 c -0.43,0 -0.86,0.17 -1.19,0.49 l -1,1 c -0.68,0.65 -0.69,1.73 -0.02,2.4 0.66,0.67 1.73,0.68 2.4,0.02 l 1,-1 c 0.68,-0.65 0.69,-1.72 0.02,-2.4 -0.33,-0.34 -0.77,-0.51 -1.21,-0.51 z m 6.99,-6.91 c -0.43,0 -0.87,0.17 -1.21,0.49 l -0.99,0.98 c -0.67,0.67 -0.67,1.74 -0.01,2.42 0.66,0.67 1.75,0.67 2.41,0.01 l 1,-0.99 c 0.66,-0.66 0.66,-1.74 0.01,-2.4 -0.34,-0.34 -0.78,-0.51 -1.21,-0.51 z m 6.98,-6.92 c -0.43,0 -0.87,0.16 -1.2,0.49 l -1,1 c -0.66,0.66 -0.66,1.74 0,2.4 0.66,0.67 1.74,0.69 2.4,0.01 l 1,-0.99 c 0.66,-0.67 0.66,-1.74 0,-2.41 -0.33,-0.33 -0.76,-0.5 -1.2,-0.5 z m 6.98,-6.91 c -0.43,0 -0.87,0.16 -1.2,0.48 l -1,1 c -0.66,0.66 -0.66,1.73 -0.01,2.4 0.67,0.67 1.75,0.68 2.42,0.02 l 0.99,-1 c 0.67,-0.66 0.67,-1.73 0.01,-2.4 -0.33,-0.33 -0.77,-0.5 -1.21,-0.5 z m 6.98,-6.91 c -0.43,0 -0.87,0.15 -1.2,0.48 l -0.99,0.99 c -0.67,0.67 -0.67,1.74 -0.01,2.4 0.65,0.67 1.73,0.68 2.41,0.02 l 0.99,-0.99 c 0.67,-0.67 0.67,-1.73 0.01,-2.4 -0.33,-0.34 -0.77,-0.5 -1.21,-0.5 z m 6.98,-6.93 c -0.42,0 -0.86,0.16 -1.2,0.49 l -0.99,1 c -0.67,0.66 -0.67,1.74 0,2.41 0.65,0.64 1.73,0.67 2.4,0 l 1,-0.99 c 0.66,-0.66 0.66,-1.73 0,-2.41 -0.34,-0.33 -0.77,-0.5 -1.21,-0.5 z m 6.99,-6.91 c -0.43,0 -0.87,0.16 -1.2,0.49 l -1,0.98 c -0.66,0.67 -0.66,1.74 -0.01,2.42 0.65,0.65 1.74,0.67 2.41,0.01 l 1,-0.99 c 0.66,-0.66 0.66,-1.74 0.01,-2.4 -0.33,-0.34 -0.77,-0.51 -1.21,-0.51 z m 6.99,-6.91 c -0.43,0 -0.86,0.16 -1.19,0.48 l -1.01,0.99 c -0.67,0.65 -0.68,1.74 -0.02,2.4 0.66,0.67 1.73,0.68 2.41,0.03 l 1,-0.98 c 0.67,-0.67 0.68,-1.74 0.02,-2.42 -0.33,-0.33 -0.77,-0.5 -1.21,-0.5 z m 6.98,-6.92 c -0.43,0 -0.87,0.16 -1.2,0.49 l -1,0.99 c -0.66,0.66 -0.66,1.72 -0.01,2.4 0.66,0.66 1.74,0.67 2.42,0.02 l 0.99,-0.99 c 0.67,-0.66 0.67,-1.74 0.01,-2.41 -0.33,-0.33 -0.77,-0.5 -1.21,-0.5 z m 6.98,-6.91 c -0.43,0 -0.86,0.15 -1.2,0.49 l -0.99,0.98 c -0.67,0.67 -0.67,1.74 -0.01,2.4 0.65,0.67 1.74,0.68 2.41,0.01 l 1,-0.97 c 0.66,-0.67 0.66,-1.74 0.01,-2.41 -0.34,-0.34 -0.78,-0.5 -1.22,-0.5 z m 6.99,-6.93 c -0.43,0 -0.87,0.17 -1.2,0.5 l -1,0.99 c -0.66,0.66 -0.66,1.74 0,2.41 0.65,0.65 1.73,0.67 2.4,0 l 1,-1 c 0.66,-0.66 0.66,-1.72 0,-2.4 -0.33,-0.33 -0.76,-0.5 -1.2,-0.5 z m 6.98,-6.91 c -0.43,0 -0.87,0.17 -1.2,0.49 l -1,0.98 c -0.66,0.67 -0.66,1.74 -0.01,2.42 0.66,0.66 1.74,0.67 2.41,0.01 l 1,-0.99 c 0.66,-0.66 0.66,-1.74 0.01,-2.4 -0.33,-0.34 -0.77,-0.51 -1.21,-0.51 z m 6.98,-6.91 c -0.43,0 -0.87,0.16 -1.2,0.48 l -1,0.99 c -0.66,0.66 -0.66,1.74 -0.01,2.41 0.66,0.67 1.74,0.68 2.42,0.01 l 0.99,-0.98 c 0.67,-0.67 0.67,-1.74 0.01,-2.41 -0.33,-0.34 -0.77,-0.5 -1.21,-0.5 z m 6.98,-6.92 c -0.43,0 -0.87,0.16 -1.2,0.49 l -0.99,0.99 c -0.67,0.66 -0.67,1.74 0,2.41 0.65,0.66 1.73,0.67 2.4,0 l 1,-0.99 c 0.66,-0.66 0.66,-1.74 0,-2.4 -0.34,-0.33 -0.77,-0.5 -1.21,-0.5 z m 7,-6.91 c -0.43,0 -0.86,0.15 -1.2,0.48 l -1,0.98 c -0.67,0.67 -0.68,1.74 -0.02,2.41 0.65,0.67 1.73,0.68 2.4,0.02 l 1.01,-0.98 c 0.67,-0.66 0.68,-1.74 0.02,-2.4 -0.33,-0.35 -0.77,-0.51 -1.21,-0.51 z m 6.98,-6.93 c -0.43,0 -0.87,0.17 -1.2,0.5 l -1,0.99 c -0.66,0.66 -0.66,1.74 0,2.41 0.66,0.65 1.73,0.67 2.4,0 l 1,-0.99 c 0.66,-0.66 0.66,-1.73 0,-2.41 -0.33,-0.33 -0.76,-0.5 -1.2,-0.5 z m 6.98,-6.91 c -0.43,0 -0.87,0.17 -1.2,0.49 l -1,0.98 c -0.66,0.67 -0.66,1.74 -0.01,2.42 0.66,0.66 1.74,0.67 2.42,0.01 l 0.99,-0.99 c 0.67,-0.66 0.67,-1.74 0.01,-2.4 -0.33,-0.34 -0.77,-0.51 -1.21,-0.51 z m 6.98,-6.91 c -0.43,0 -0.87,0.16 -1.2,0.48 l -0.99,0.99 c -0.67,0.66 -0.67,1.74 -0.01,2.41 0.65,0.67 1.73,0.68 2.41,0.01 l 0.99,-0.98 c 0.67,-0.67 0.67,-1.74 0.01,-2.41 -0.33,-0.34 -0.77,-0.5 -1.21,-0.5 z m 6.99,-6.92 c -0.43,0 -0.87,0.16 -1.21,0.49 l -0.99,1 c -0.67,0.66 -0.67,1.73 0,2.4 0.65,0.65 1.73,0.68 2.4,0 l 1,-0.99 c 0.66,-0.66 0.66,-1.74 0,-2.4 -0.33,-0.33 -0.76,-0.5 -1.2,-0.5 z m 6.98,-6.91 c -0.43,0 -0.87,0.15 -1.2,0.49 l -1,0.97 c -0.66,0.68 -0.66,1.75 -0.01,2.41 0.66,0.67 1.74,0.68 2.41,0.01 l 1,-0.97 c 0.66,-0.67 0.66,-1.74 0.01,-2.41 -0.33,-0.34 -0.77,-0.5 -1.21,-0.5 z m 6.98,-6.92 c -0.43,0 -0.87,0.16 -1.2,0.49 l -1,0.98 c -0.66,0.66 -0.66,1.75 -0.01,2.41 0.67,0.66 1.74,0.67 2.42,0.01 l 0.99,-0.98 c 0.67,-0.66 0.67,-1.73 0.01,-2.41 -0.33,-0.33 -0.77,-0.5 -1.21,-0.5 z m 6.99,-6.92 c -0.43,0 -0.86,0.17 -1.19,0.48 l -1,0.99 c -0.68,0.66 -0.69,1.74 -0.02,2.41 0.65,0.67 1.72,0.68 2.4,0.02 l 1,-0.98 c 0.68,-0.66 0.69,-1.74 0.02,-2.41 -0.33,-0.33 -0.77,-0.51 -1.21,-0.51 z m 6.99,-6.91 c -0.43,0 -0.87,0.16 -1.21,0.48 l -0.99,0.99 c -0.67,0.66 -0.67,1.74 -0.01,2.41 0.65,0.67 1.74,0.68 2.41,0.01 l 1,-0.98 c 0.66,-0.67 0.66,-1.74 0.01,-2.41 -0.34,-0.34 -0.78,-0.5 -1.21,-0.5 z m 6.98,-6.92 c -0.43,0 -0.87,0.16 -1.2,0.49 l -1,0.99 c -0.66,0.66 -0.66,1.73 0,2.41 0.65,0.66 1.73,0.68 2.4,0.01 l 1,-1 c 0.66,-0.66 0.66,-1.74 0,-2.4 -0.33,-0.33 -0.76,-0.5 -1.2,-0.5 z m 6.98,-6.91 c -0.43,0 -0.87,0.15 -1.2,0.49 l -1,0.98 c -0.66,0.67 -0.66,1.74 -0.01,2.4 0.66,0.68 1.74,0.69 2.42,0.02 l 0.99,-0.98 c 0.67,-0.67 0.67,-1.74 0.01,-2.41 -0.33,-0.34 -0.77,-0.5 -1.21,-0.5"
         style="fill:#ffffff;fill-opacity:1;fill-rule:nonzero;stroke:none" />
  <path
         id="path717"
         d="m 1542.63,1939.12 c 0,-5.39 -4.36,-9.75 -9.74,-9.75 -5.39,0 -9.75,4.36 -9.75,9.75 0,5.37 4.36,9.74 9.75,9.74 5.38,0 9.74,-4.37 9.74,-9.74"
         style="fill:#ffffff;fill-opacity:1;fill-rule:nonzero;stroke:none" />
  <path
         id="path718"
         d="m 1544.32,1570.63 c 0,-5.38 -4.37,-9.74 -9.75,-9.74 -5.38,0 -9.74,4.36 -9.74,9.74 0,5.39 4.36,9.75 9.74,9.75 5.38,0 9.75,-4.36 9.75,-9.75"
         style="fill:#ffffff;fill-opacity:1;fill-rule:nonzero;stroke:none" />
  <path
         id="path719"
         d="m 1910.89,1570.63 c 0,-5.38 -4.36,-9.74 -9.74,-9.74 -5.38,0 -9.74,4.36 -9.74,9.74 0,5.39 4.36,9.75 9.74,9.75 5.38,0 9.74,-4.36 9.74,-9.75"
         style="fill:#ffffff;fill-opacity:1;fill-rule:nonzero;stroke:none" />
  <path
         id="path720"
         d="m 1910.89,1937.49 c 0,-5.38 -4.36,-9.75 -9.74,-9.75 -5.38,0 -9.74,4.37 -9.74,9.75 0,5.38 4.36,9.75 9.74,9.75 5.38,0 9.74,-4.37 9.74,-9.75"
         style="fill:#ffffff;fill-opacity:1;fill-rule:nonzero;stroke:none" />
  <path
         id="path721"
         d="m 1738.86,1754.32 c 0,-5.39 -4.36,-9.75 -9.74,-9.75 -5.38,0 -9.74,4.36 -9.74,9.75 0,5.38 4.36,9.73 9.74,9.73 5.38,0 9.74,-4.35 9.74,-9.73"
         style="fill:#ffffff;fill-opacity:1;fill-rule:nonzero;stroke:none" />
  <path
         id="path722"
         d="m 1531.69,1937.91 -99.83,99.83 2.4,2.41 99.83,-99.83 -2.4,-2.41"
         style="fill:#ffffff;fill-opacity:1;fill-rule:nonzero;stroke:none" />
  <path
         id="path723"
         d="m 1518.22,1921.42 -86.52,114.52 2.71,2.05 86.53,-114.52 -2.72,-2.05"
         style="fill:#ffffff;fill-opacity:1;fill-rule:nonzero;stroke:none" />
  <path
         id="path724"
         d="m 1501.09,1904.65 -69.53,129.53 2.99,1.6 69.53,-129.52 -2.99,-1.61"
         style="fill:#ffffff;fill-opacity:1;fill-rule:nonzero;stroke:none" />
  <path
         id="path725"
         d="m 1481.25,1885.95 -49.8,146.5 3.22,1.09 49.8,-146.51 -3.22,-1.08"
         style="fill:#ffffff;fill-opacity:1;fill-rule:nonzero;stroke:none" />
  <path
         id="path726"
         d="m 1458.55,1862.83 -27.17,167.91 3.36,0.55 27.17,-167.91 -3.36,-0.55"
         style="fill:#ffffff;fill-opacity:1;fill-rule:nonzero;stroke:none" />
  <path
         id="path727"
         d="m 1434.76,1835.92 h -3.4 v 193.12 h 3.4 v -193.12"
         style="fill:#ffffff;fill-opacity:1;fill-rule:nonzero;stroke:none" />
  <path
         id="path728"
         d="m 1547.59,1951.06 -114.52,86.53 2.05,2.71 114.52,-86.52 -2.05,-2.72"
         style="fill:#ffffff;fill-opacity:1;fill-rule:nonzero;stroke:none" />
  <path
         id="path729"
         d="m 1564.8,1967.91 -129.53,69.54 1.61,3 129.53,-69.53 -1.61,-3.01"
         style="fill:#ffffff;fill-opacity:1;fill-rule:nonzero;stroke:none" />
  <path
         id="path730"
         d="m 1584.02,1987.53 -146.51,49.8 1.09,3.23 146.52,-49.81 -1.1,-3.22"
         style="fill:#ffffff;fill-opacity:1;fill-rule:nonzero;stroke:none" />
  <path
         id="path731"
         d="m 1607.69,2010.08 -167.92,27.19 0.54,3.35 167.92,-27.17 -0.54,-3.37"
         style="fill:#ffffff;fill-opacity:1;fill-rule:nonzero;stroke:none" />
  <path
         id="path732"
         d="m 1635.14,2037.25 h -193.12 v 3.39 h 193.12 v -3.39"
         style="fill:#ffffff;fill-opacity:1;fill-rule:nonzero;stroke:none" />
  <path
         id="path733"
         d="m 1902.62,1936.19 -2.42,2.39 100.78,101.57 2.42,-2.4 -100.78,-101.56"
         style="fill:#ffffff;fill-opacity:1;fill-rule:nonzero;stroke:none" />
  <path
         id="path734"
         d="m 1917.03,1921.42 -2.71,2.05 86.51,114.52 2.71,-2.05 -86.51,-114.52"
         style="fill:#ffffff;fill-opacity:1;fill-rule:nonzero;stroke:none" />
  <path
         id="path735"
         d="m 1934.16,1904.65 -2.99,1.61 69.52,129.52 2.99,-1.6 -69.52,-129.53"
         style="fill:#ffffff;fill-opacity:1;fill-rule:nonzero;stroke:none" />
  <path
         id="path736"
         d="m 1953.99,1885.95 -3.22,1.08 49.81,146.51 3.22,-1.09 -49.81,-146.5"
         style="fill:#ffffff;fill-opacity:1;fill-rule:nonzero;stroke:none" />
  <path
         id="path737"
         d="m 1976.69,1862.83 -3.36,0.55 27.18,167.91 3.36,-0.55 -27.18,-167.91"
         style="fill:#ffffff;fill-opacity:1;fill-rule:nonzero;stroke:none" />
  <path
         id="path738"
         d="m 2003.89,1835.92 h -3.4 v 193.12 h 3.4 v -193.12"
         style="fill:#ffffff;fill-opacity:1;fill-rule:nonzero;stroke:none" />
  <path
         id="path739"
         d="m 1887.66,1951.06 -2.05,2.72 114.52,86.52 2.05,-2.71 -114.52,-86.53"
         style="fill:#ffffff;fill-opacity:1;fill-rule:nonzero;stroke:none" />
  <path
         id="path740"
         d="m 1870.44,1967.91 -1.6,3.01 129.53,69.53 1.6,-3 -129.53,-69.54"
         style="fill:#ffffff;fill-opacity:1;fill-rule:nonzero;stroke:none" />
  <path
         id="path741"
         d="m 1851.23,1987.53 -1.09,3.22 146.5,49.81 1.09,-3.23 -146.5,-49.8"
         style="fill:#ffffff;fill-opacity:1;fill-rule:nonzero;stroke:none" />
  <path
         id="path742"
         d="m 1827.57,2010.08 -0.55,3.37 167.91,27.17 0.55,-3.35 -167.91,-27.19"
         style="fill:#ffffff;fill-opacity:1;fill-rule:nonzero;stroke:none" />
  <path
         id="path743"
         d="m 1993.23,2037.25 h -193.12 v 3.39 h 193.12 v -3.39"
         style="fill:#ffffff;fill-opacity:1;fill-rule:nonzero;stroke:none" />
  <path
         id="path744"
         d="m 1434.26,1467.92 -2.4,2.4 99.83,99.84 2.4,-2.41 -99.83,-99.83"
         style="fill:#ffffff;fill-opacity:1;fill-rule:nonzero;stroke:none" />
  <path
         id="path745"
         d="m 1434.41,1470.08 -2.71,2.05 86.52,114.52 2.72,-2.05 -86.53,-114.52"
         style="fill:#ffffff;fill-opacity:1;fill-rule:nonzero;stroke:none" />
  <path
         id="path746"
         d="m 1434.55,1472.29 -2.99,1.61 69.53,129.53 2.99,-1.61 -69.53,-129.53"
         style="fill:#ffffff;fill-opacity:1;fill-rule:nonzero;stroke:none" />
  <path
         id="path747"
         d="m 1434.67,1474.52 -3.22,1.1 49.8,146.51 3.22,-1.09 -49.8,-146.52"
         style="fill:#ffffff;fill-opacity:1;fill-rule:nonzero;stroke:none" />
  <path
         id="path748"
         d="m 1434.74,1476.78 -3.36,0.54 27.17,167.92 3.36,-0.54 -27.17,-167.92"
         style="fill:#ffffff;fill-opacity:1;fill-rule:nonzero;stroke:none" />
  <path
         id="path749"
         d="m 1434.76,1479.03 h -3.4 v 193.12 h 3.4 v -193.12"
         style="fill:#ffffff;fill-opacity:1;fill-rule:nonzero;stroke:none" />
  <path
         id="path750"
         d="m 1435.12,1467.76 -2.05,2.72 114.52,86.52 2.05,-2.71 -114.52,-86.53"
         style="fill:#ffffff;fill-opacity:1;fill-rule:nonzero;stroke:none" />
  <path
         id="path751"
         d="m 1436.88,1467.62 -1.61,3 129.53,69.54 1.61,-3 -129.53,-69.54"
         style="fill:#ffffff;fill-opacity:1;fill-rule:nonzero;stroke:none" />
  <path
         id="path752"
         d="m 1438.6,1467.51 -1.09,3.22 146.51,49.81 1.1,-3.23 -146.52,-49.8"
         style="fill:#ffffff;fill-opacity:1;fill-rule:nonzero;stroke:none" />
  <path
         id="path753"
         d="m 1440.31,1467.44 -0.54,3.36 167.92,27.19 0.54,-3.36 -167.92,-27.19"
         style="fill:#ffffff;fill-opacity:1;fill-rule:nonzero;stroke:none" />
  <path
         id="path754"
         d="m 2000.98,1467.93 -100.78,101.55 2.42,2.39 100.78,-101.55 -2.42,-2.39"
         style="fill:#ffffff;fill-opacity:1;fill-rule:nonzero;stroke:none" />
  <path
         id="path755"
         d="m 2000.83,1470.08 -86.51,114.52 2.71,2.05 86.51,-114.52 -2.71,-2.05"
         style="fill:#ffffff;fill-opacity:1;fill-rule:nonzero;stroke:none" />
  <path
         id="path756"
         d="m 2000.69,1472.29 -69.52,129.53 2.99,1.61 69.52,-129.53 -2.99,-1.61"
         style="fill:#ffffff;fill-opacity:1;fill-rule:nonzero;stroke:none" />
  <path
         id="path757"
         d="m 2000.58,1474.52 -49.81,146.52 3.22,1.09 49.81,-146.51 -3.22,-1.1"
         style="fill:#ffffff;fill-opacity:1;fill-rule:nonzero;stroke:none" />
  <path
         id="path758"
         d="m 2000.51,1476.78 -27.18,167.92 3.36,0.54 27.18,-167.92 -3.36,-0.54"
         style="fill:#ffffff;fill-opacity:1;fill-rule:nonzero;stroke:none" />
  <path
         id="path759"
         d="m 2003.89,1479.03 h -3.4 v 193.12 h 3.4 v -193.12"
         style="fill:#ffffff;fill-opacity:1;fill-rule:nonzero;stroke:none" />
  <path
         id="path760"
         d="m 2000.13,1467.76 -114.52,86.53 2.05,2.71 114.52,-86.52 -2.05,-2.72"
         style="fill:#ffffff;fill-opacity:1;fill-rule:nonzero;stroke:none" />
  <path
         id="path761"
         d="m 1998.37,1467.62 -129.53,69.54 1.6,3 129.53,-69.54 -1.6,-3"
         style="fill:#ffffff;fill-opacity:1;fill-rule:nonzero;stroke:none" />
  <path
         id="path762"
         d="m 1996.64,1467.51 -146.5,49.8 1.09,3.23 146.5,-49.81 -1.09,-3.22"
         style="fill:#ffffff;fill-opacity:1;fill-rule:nonzero;stroke:none" />
  <path
         id="path763"
         d="m 1994.93,1467.44 -167.91,27.19 0.55,3.36 167.91,-27.19 -0.55,-3.36"
         style="fill:#ffffff;fill-opacity:1;fill-rule:nonzero;stroke:none" />
  <path
         id="path764"
         d="m 1993.23,1467.42 h -193.12 v 3.4 h 193.12 v -3.4"
         style="fill:#ffffff;fill-opacity:1;fill-rule:nonzero;stroke:none" />
</svg>