<?xml version="1.0" encoding="UTF-8" standalone="no"?>
<svg
   version="1.1"
   width="600"
   height="600"
   viewBox="1253.87 193.53 945.48 945.48"
   xmlns="http://www.w3.org/2000/svg">
  <rect x="1253.87" y="193.53" width="945.48" height="945.48" fill="#000000"/>
  <path
         id="path379"
         d="m 1545.56,349.789 h 364.33 l 182.16,315.52 -182.16,315.523 H 1545.56 L 1363.4,665.309 Z m 370.06,-9.93 h -375.79 l -187.9,325.45 187.9,325.441 h 375.79 l 187.9,-325.441 -187.9,-325.45"
         style="fill:#ffffff;fill-opacity:1;fill-rule:nonzero;stroke:none" />
  <path
         id="path380"
         d="m 1532.4,326.992 h 390.65 l 195.33,338.317 -195.33,338.311 H 1532.4 L 1337.07,665.309 Z m 392.62,-3.402 h -394.59 l -0.49,0.851 -196.8,340.868 0.49,0.851 196.8,340.86 h 394.59 l 0.49,-0.85 196.79,-340.861 -0.48,-0.848 -196.8,-340.871"
         style="fill:#ffffff;fill-opacity:1;fill-rule:nonzero;stroke:none" />
  <path
         id="path381"
         d="M 1361.06,665.309 1911.05,347.77 v 635.082 z m 551.69,-322.188 c -0.29,0 -0.58,0.078 -0.85,0.231 L 1356.82,663.84 c -0.53,0.301 -0.85,0.871 -0.85,1.469 0,0.613 0.32,1.16 0.85,1.48 L 1911.9,987.27 c 0.53,0.3 1.18,0.3 1.7,0 0.53,-0.309 0.85,-0.872 0.85,-1.481 V 344.82 c 0,-0.601 -0.32,-1.16 -0.85,-1.468 -0.26,-0.153 -0.55,-0.231 -0.85,-0.231"
         style="fill:#ffffff;fill-opacity:1;fill-rule:nonzero;stroke:none" />
  <path
         id="path382"
         d="M 1544.39,982.852 V 347.77 l 549.99,317.539 z m -1.69,-639.731 c -0.3,0 -0.59,0.078 -0.85,0.231 -0.53,0.308 -0.85,0.867 -0.85,1.468 v 640.969 c 0,0.609 0.32,1.172 0.85,1.481 0.52,0.3 1.17,0.3 1.69,0 l 555.09,-320.481 c 0.53,-0.32 0.85,-0.867 0.85,-1.48 0,-0.598 -0.32,-1.168 -0.85,-1.469 L 1543.54,343.352 c -0.26,-0.153 -0.55,-0.231 -0.84,-0.231"
         style="fill:#ffffff;fill-opacity:1;fill-rule:nonzero;stroke:none" />
  <path
         id="path383"
         d="m 1911.28,343.969 -370.06,640.972 2.95,1.7 370.06,-640.969 -2.95,-1.703"
         style="fill:#ffffff;fill-opacity:1;fill-rule:nonzero;stroke:none" />
  <path
         id="path384"
         d="m 2097.78,663.609 h -740.11 v 3.403 h 740.11 v -3.403"
         style="fill:#ffffff;fill-opacity:1;fill-rule:nonzero;stroke:none" />
  <path
         id="path385"
         d="m 1544.17,343.969 -2.95,1.703 370.06,640.969 2.95,-1.7 -370.06,-640.972"
         style="fill:#ffffff;fill-opacity:1;fill-rule:nonzero;stroke:none" />
  <path
         id="path386"
         d="m 1726.42,847.52 c -100.92,0 -183.03,-82.098 -183.03,-183.032 0,-100.918 82.11,-183.027 183.03,-183.027 100.91,0 183.02,82.109 183.02,183.027 0,100.934 -82.11,183.032 -183.02,183.032 z m 0,-369.45 c -102.8,0 -186.43,83.629 -186.43,186.418 0,102.801 83.63,186.434 186.43,186.434 102.79,0 186.42,-83.633 186.42,-186.434 0,-102.789 -83.63,-186.418 -186.42,-186.418"
         style="fill:#ffffff;fill-opacity:1;fill-rule:nonzero;stroke:none" />
  <path
         id="path387"
         d="m 1726.42,796.211 c -72.63,0 -131.72,-59.09 -131.72,-131.723 0,-72.617 59.09,-131.707 131.72,-131.707 72.62,0 131.71,59.09 131.71,131.707 0,72.633 -59.09,131.723 -131.71,131.723 z m 0,-266.832 c -74.51,0 -135.12,60.609 -135.12,135.109 0,74.5 60.61,135.121 135.12,135.121 74.5,0 135.1,-60.621 135.1,-135.121 0,-74.5 -60.6,-135.109 -135.1,-135.109"
         style="fill:#ffffff;fill-opacity:1;fill-rule:nonzero;stroke:none" />
  <path
         id="path388"
         d="m 1726.42,778.738 c -63,0 -114.25,-51.25 -114.25,-114.25 0,-62.988 51.25,-114.238 114.25,-114.238 62.98,0 114.23,51.25 114.23,114.238 0,63 -51.25,114.25 -114.23,114.25 z m 0,-231.879 c -64.88,0 -117.65,52.77 -117.65,117.629 0,64.883 52.77,117.653 117.65,117.653 64.86,0 117.63,-52.77 117.63,-117.653 0,-64.859 -52.77,-117.629 -117.63,-117.629"
         style="fill:#ffffff;fill-opacity:1;fill-rule:nonzero;stroke:none" />
  <path
         id="path389"
         d="m 1744.38,664.488 c 0,-9.918 -8.04,-17.957 -17.96,-17.957 -9.93,0 -17.97,8.039 -17.97,17.957 0,9.922 8.04,17.973 17.97,17.973 9.92,0 17.96,-8.051 17.96,-17.973"
         style="fill:#ffffff;fill-opacity:1;fill-rule:nonzero;stroke:none" />
  <path
         id="path390"
         d="m 1489.84,826.27 c 0,-4.848 -3.94,-8.801 -8.8,-8.801 -4.85,0 -8.79,3.953 -8.79,8.801 0,4.859 3.94,8.8 8.79,8.8 4.86,0 8.8,-3.941 8.8,-8.8"
         style="fill:#ffffff;fill-opacity:1;fill-rule:nonzero;stroke:none" />
  <path
         id="path391"
         d="m 1739.01,962.102 c 0,-4.852 -3.94,-8.793 -8.8,-8.793 -4.86,0 -8.79,3.941 -8.79,8.793 0,4.859 3.93,8.796 8.79,8.796 4.86,0 8.8,-3.937 8.8,-8.796"
         style="fill:#ffffff;fill-opacity:1;fill-rule:nonzero;stroke:none" />
  <path
         id="path392"
         d="m 1994.84,815.441 c 0,-4.859 -3.94,-8.8 -8.8,-8.8 -4.85,0 -8.79,3.941 -8.79,8.8 0,4.848 3.94,8.801 8.79,8.801 4.86,0 8.8,-3.953 8.8,-8.801"
         style="fill:#ffffff;fill-opacity:1;fill-rule:nonzero;stroke:none" />
  <path
         id="path393"
         d="m 1999.01,523.77 c 0,-4.848 -3.94,-8.801 -8.8,-8.801 -4.86,0 -8.79,3.953 -8.79,8.801 0,4.859 3.93,8.8 8.79,8.8 4.86,0 8.8,-3.941 8.8,-8.8"
         style="fill:#ffffff;fill-opacity:1;fill-rule:nonzero;stroke:none" />
  <path
         id="path394"
         d="m 1474.01,523.77 c 0,-4.848 -3.94,-8.801 -8.8,-8.801 -4.86,0 -8.79,3.953 -8.79,8.801 0,4.859 3.93,8.8 8.79,8.8 4.86,0 8.8,-3.941 8.8,-8.8"
         style="fill:#ffffff;fill-opacity:1;fill-rule:nonzero;stroke:none" />
  <path
         id="path395"
         d="m 1738.17,366.27 c 0,-4.848 -3.93,-8.801 -8.79,-8.801 -4.86,0 -8.8,3.953 -8.8,8.801 0,4.859 3.94,8.8 8.8,8.8 4.86,0 8.79,-3.941 8.79,-8.8"
         style="fill:#ffffff;fill-opacity:1;fill-rule:nonzero;stroke:none" />
  <path
         id="path396"
         d="m 1541.04,1005.32 c 0,-5.31 -4.31,-9.629 -9.62,-9.629 -5.32,0 -9.63,4.319 -9.63,9.629 0,5.32 4.31,9.63 9.63,9.63 5.31,0 9.62,-4.31 9.62,-9.63"
         style="fill:#ffffff;fill-opacity:1;fill-rule:nonzero;stroke:none" />
  <path
         id="path397"
         d="m 1933.54,1005.32 c 0,-5.31 -4.31,-9.629 -9.62,-9.629 -5.32,0 -9.63,4.319 -9.63,9.629 0,5.32 4.31,9.63 9.63,9.63 5.31,0 9.62,-4.31 9.62,-9.63"
         style="fill:#ffffff;fill-opacity:1;fill-rule:nonzero;stroke:none" />
  <path
         id="path398"
         d="m 2130.21,664.488 c 0,-5.316 -4.31,-9.629 -9.62,-9.629 -5.32,0 -9.63,4.313 -9.63,9.629 0,5.313 4.31,9.633 9.63,9.633 5.31,0 9.62,-4.32 9.62,-9.633"
         style="fill:#ffffff;fill-opacity:1;fill-rule:nonzero;stroke:none" />
  <path
         id="path399"
         d="m 1343.54,664.488 c 0,-5.316 -4.31,-9.629 -9.62,-9.629 -5.32,0 -9.63,4.313 -9.63,9.629 0,5.313 4.31,9.633 9.63,9.633 5.31,0 9.62,-4.32 9.62,-9.633"
         style="fill:#ffffff;fill-opacity:1;fill-rule:nonzero;stroke:none" />
  <path
         id="path400"
         d="m 1540.21,325.32 c 0,-5.308 -4.31,-9.629 -9.62,-9.629 -5.32,0 -9.63,4.321 -9.63,9.629 0,5.321 4.31,9.629 9.63,9.629 5.31,0 9.62,-4.308 9.62,-9.629"
         style="fill:#ffffff;fill-opacity:1;fill-rule:nonzero;stroke:none" />
  <path
         id="path401"
         d="m 1932.71,325.32 c 0,-5.308 -4.31,-9.629 -9.62,-9.629 -5.32,0 -9.63,4.321 -9.63,9.629 0,5.321 4.31,9.629 9.63,9.629 5.31,0 9.62,-4.308 9.62,-9.629"
         style="fill:#ffffff;fill-opacity:1;fill-rule:nonzero;stroke:none" />
  <path
         id="path402"
         d="m 1544.84,1042.9 c -31.71,0 -57.51,-25.79 -57.51,-57.502 0,-31.707 25.8,-57.507 57.51,-57.507 31.71,0 57.51,25.8 57.51,57.507 0,31.712 -25.8,57.502 -57.51,57.502 z m 0,-118.412 c -33.58,0 -60.9,27.332 -60.9,60.91 0,33.582 27.32,60.902 60.9,60.902 33.59,0 60.91,-27.32 60.91,-60.902 0,-33.578 -27.32,-60.91 -60.91,-60.91"
         style="fill:#ffffff;fill-opacity:1;fill-rule:nonzero;stroke:none" />
  <path
         id="path403"
         d="m 1911.93,1042.9 c -31.71,0 -57.51,-25.79 -57.51,-57.502 0,-31.707 25.8,-57.507 57.51,-57.507 31.71,0 57.5,25.8 57.5,57.507 0,31.712 -25.79,57.502 -57.5,57.502 z m 0,-118.412 c -33.58,0 -60.9,27.332 -60.9,60.91 0,33.582 27.32,60.902 60.9,60.902 33.59,0 60.9,-27.32 60.9,-60.902 0,-33.578 -27.31,-60.91 -60.9,-60.91"
         style="fill:#ffffff;fill-opacity:1;fill-rule:nonzero;stroke:none" />
  <path
         id="path404"
         d="m 1357.75,722 c -31.71,0 -57.51,-25.801 -57.51,-57.512 0,-31.707 25.8,-57.508 57.51,-57.508 31.71,0 57.51,25.801 57.51,57.508 0,31.711 -25.8,57.512 -57.51,57.512 z m 0,-118.418 c -33.58,0 -60.9,27.328 -60.9,60.906 0,33.594 27.32,60.91 60.9,60.91 33.59,0 60.91,-27.316 60.91,-60.91 0,-33.578 -27.32,-60.906 -60.91,-60.906"
         style="fill:#ffffff;fill-opacity:1;fill-rule:nonzero;stroke:none" />
  <path
         id="path405"
         d="m 2095.47,722 c -31.71,0 -57.5,-25.801 -57.5,-57.512 0,-31.707 25.79,-57.508 57.5,-57.508 31.71,0 57.51,25.801 57.51,57.508 0,31.711 -25.8,57.512 -57.51,57.512 z m 0,-118.418 c -33.59,0 -60.9,27.328 -60.9,60.906 0,33.594 27.31,60.91 60.9,60.91 33.58,0 60.91,-27.316 60.91,-60.91 0,-33.578 -27.33,-60.906 -60.91,-60.906"
         style="fill:#ffffff;fill-opacity:1;fill-rule:nonzero;stroke:none" />
  <path
         id="path406"
         d="m 1546.04,404.648 c -31.71,0 -57.51,-25.789 -57.51,-57.5 0,-31.707 25.8,-57.507 57.51,-57.507 31.7,0 57.5,25.8 57.5,57.507 0,31.711 -25.8,57.5 -57.5,57.5 z m 0,-118.41 c -33.59,0 -60.91,27.321 -60.91,60.91 0,33.582 27.32,60.903 60.91,60.903 33.58,0 60.89,-27.321 60.89,-60.903 0,-33.589 -27.31,-60.91 -60.89,-60.91"
         style="fill:#ffffff;fill-opacity:1;fill-rule:nonzero;stroke:none" />
  <path
         id="path407"
         d="m 1909.56,404.648 c -31.71,0 -57.51,-25.789 -57.51,-57.5 0,-31.707 25.8,-57.507 57.51,-57.507 31.71,0 57.51,25.8 57.51,57.507 0,31.711 -25.8,57.5 -57.51,57.5 z m 0,-118.41 c -33.58,0 -60.91,27.321 -60.91,60.91 0,33.582 27.33,60.903 60.91,60.903 33.58,0 60.91,-27.321 60.91,-60.903 0,-33.589 -27.33,-60.91 -60.91,-60.91"
         style="fill:#ffffff;fill-opacity:1;fill-rule:nonzero;stroke:none" />
</svg>