<?xml version="1.0" encoding="UTF-8" standalone="no"?>
<svg
   version="1.1"
   width="600"
   height="600"
   viewBox="226.67 220.18 888.79 888.79"
   xmlns="http://www.w3.org/2000/svg">
  <rect x="226.67" y="220.18" width="888.79" height="888.79" fill="#000000"/>
  <path
         id="path879"
         d="m 397.473,692.211 h -9.922 v 255.891 h 255.883 v -9.93 H 397.473 V 692.211"
         style="fill:#ffffff;fill-opacity:1;fill-rule:nonzero;stroke:none" />
  <path
         id="path880"
         d="M 642.633,381.051 H 387.551 v 255.89 h 9.922 V 390.98 h 245.16 v -9.929"
         style="fill:#ffffff;fill-opacity:1;fill-rule:nonzero;stroke:none" />
  <path
         id="path881"
         d="M 954.586,381.051 H 698.699 v 9.929 h 245.965 v 245.961 h 9.922 v -255.89"
         style="fill:#ffffff;fill-opacity:1;fill-rule:nonzero;stroke:none" />
  <path
         id="path882"
         d="m 954.586,692.211 h -9.922 V 938.172 H 699.801 v 9.93 H 954.586 V 692.211"
         style="fill:#ffffff;fill-opacity:1;fill-rule:nonzero;stroke:none" />
  <path
         id="path883"
         d="M 435.117,428.621 H 907.012 V 900.52 H 435.117 Z M 910.41,425.219 H 431.719 V 903.922 H 910.41 V 425.219"
         style="fill:#ffffff;fill-opacity:1;fill-rule:nonzero;stroke:none" />
  <path
         id="path884"
         d="m 477.191,470.699 h 387.75 v 387.75 H 477.191 Z M 868.34,467.301 H 473.793 V 861.852 H 868.34 V 467.301"
         style="fill:#ffffff;fill-opacity:1;fill-rule:nonzero;stroke:none" />
  <path
         id="path885"
         d="M 516.66,510.172 H 825.469 V 818.969 H 516.66 Z M 828.867,506.77 H 513.262 V 822.371 H 828.867 V 506.77"
         style="fill:#ffffff;fill-opacity:1;fill-rule:nonzero;stroke:none" />
  <path
         id="path886"
         d="m 846.695,487.039 h -0.711 c -0.933,0 -1.699,0.762 -1.699,1.699 0,0.653 0.367,1.223 0.91,1.5 0.289,0.543 0.852,0.903 1.5,0.903 0.938,0 1.7,-0.762 1.7,-1.7 v -0.703 l -1.7,-1.699"
         style="fill:#ffffff;fill-opacity:1;fill-rule:nonzero;stroke:none" />
  <path
         id="path887"
         d="m 502.488,487.039 h -1.402 c -0.941,0 -1.699,0.762 -1.699,1.699 0,0.942 0.758,1.703 1.699,1.703 h 1.402 c 0.942,0 1.7,-0.761 1.7,-1.703 0,-0.937 -0.758,-1.699 -1.7,-1.699 z m 9.856,0 h -1.406 c -0.938,0 -1.7,0.762 -1.7,1.699 0,0.942 0.762,1.703 1.7,1.703 h 1.406 c 0.937,0 1.699,-0.761 1.699,-1.703 0,-0.937 -0.762,-1.699 -1.699,-1.699 z m 9.851,0 h -1.402 c -0.938,0 -1.699,0.762 -1.699,1.699 0,0.942 0.761,1.703 1.699,1.703 h 1.402 c 0.942,0 1.7,-0.761 1.7,-1.703 0,-0.937 -0.758,-1.699 -1.7,-1.699 z m 9.86,0 h -1.41 c -0.938,0 -1.7,0.762 -1.7,1.699 0,0.942 0.762,1.703 1.7,1.703 h 1.41 c 0.937,0 1.699,-0.761 1.699,-1.703 0,-0.937 -0.762,-1.699 -1.699,-1.699 z m 9.855,0 h -1.414 c -0.933,0 -1.695,0.762 -1.695,1.699 0,0.942 0.762,1.703 1.695,1.703 h 1.414 c 0.938,0 1.699,-0.761 1.699,-1.703 0,-0.937 -0.761,-1.699 -1.699,-1.699 z m 9.852,0 h -1.407 c -0.937,0 -1.699,0.762 -1.699,1.699 0,0.942 0.762,1.703 1.699,1.703 h 1.407 c 0.937,0 1.699,-0.761 1.699,-1.703 0,-0.937 -0.762,-1.699 -1.699,-1.699 z m 9.855,0 h -1.406 c -0.938,0 -1.699,0.762 -1.699,1.699 0,0.942 0.761,1.703 1.699,1.703 h 1.406 c 0.938,0 1.699,-0.761 1.699,-1.703 0,-0.937 -0.761,-1.699 -1.699,-1.699 z m 9.852,0 h -1.406 c -0.938,0 -1.7,0.762 -1.7,1.699 0,0.942 0.762,1.703 1.7,1.703 h 1.406 c 0.937,0 1.699,-0.761 1.699,-1.703 0,-0.937 -0.762,-1.699 -1.699,-1.699 z m 9.855,0 h -1.406 c -0.938,0 -1.699,0.762 -1.699,1.699 0,0.942 0.761,1.703 1.699,1.703 h 1.406 c 0.938,0 1.699,-0.761 1.699,-1.703 0,-0.937 -0.761,-1.699 -1.699,-1.699 z m 9.86,0 h -1.414 c -0.938,0 -1.7,0.762 -1.7,1.699 0,0.942 0.762,1.703 1.7,1.703 h 1.414 c 0.933,0 1.699,-0.761 1.699,-1.703 0,-0.937 -0.766,-1.699 -1.699,-1.699 z m 9.851,0 h -1.41 c -0.937,0 -1.699,0.762 -1.699,1.699 0,0.942 0.762,1.703 1.699,1.703 h 1.41 c 0.938,0 1.699,-0.761 1.699,-1.703 0,-0.937 -0.761,-1.699 -1.699,-1.699 z m 9.856,0 h -1.411 c -0.933,0 -1.699,0.762 -1.699,1.699 0,0.942 0.766,1.703 1.699,1.703 h 1.411 c 0.933,0 1.699,-0.761 1.699,-1.703 0,-0.937 -0.766,-1.699 -1.699,-1.699 z m 9.851,0 h -1.406 c -0.938,0 -1.699,0.762 -1.699,1.699 0,0.942 0.761,1.703 1.699,1.703 h 1.406 c 0.938,0 1.699,-0.761 1.699,-1.703 0,-0.937 -0.761,-1.699 -1.699,-1.699 z m 9.856,0 h -1.41 c -0.934,0 -1.7,0.762 -1.7,1.699 0,0.942 0.766,1.703 1.7,1.703 h 1.41 c 0.933,0 1.699,-0.761 1.699,-1.703 0,-0.937 -0.766,-1.699 -1.699,-1.699 z m 9.855,0 h -1.41 c -0.938,0 -1.699,0.762 -1.699,1.699 0,0.942 0.761,1.703 1.699,1.703 h 1.41 c 0.938,0 1.699,-0.761 1.699,-1.703 0,-0.937 -0.761,-1.699 -1.699,-1.699 z m 9.856,0 h -1.414 c -0.934,0 -1.7,0.762 -1.7,1.699 0,0.942 0.766,1.703 1.7,1.703 h 1.414 c 0.937,0 1.699,-0.761 1.699,-1.703 0,-0.937 -0.762,-1.699 -1.699,-1.699 z m 9.851,0 h -1.406 c -0.938,0 -1.699,0.762 -1.699,1.699 0,0.942 0.761,1.703 1.699,1.703 h 1.406 c 0.938,0 1.699,-0.761 1.699,-1.703 0,-0.937 -0.761,-1.699 -1.699,-1.699 z m 9.856,0 h -1.407 c -0.937,0 -1.699,0.762 -1.699,1.699 0,0.942 0.762,1.703 1.699,1.703 h 1.407 c 0.937,0 1.699,-0.761 1.699,-1.703 0,-0.937 -0.762,-1.699 -1.699,-1.699 z m 9.851,0 h -1.406 c -0.938,0 -1.699,0.762 -1.699,1.699 0,0.942 0.761,1.703 1.699,1.703 h 1.406 c 0.938,0 1.699,-0.761 1.699,-1.703 0,-0.937 -0.761,-1.699 -1.699,-1.699 z m 9.856,0 h -1.407 c -0.937,0 -1.699,0.762 -1.699,1.699 0,0.942 0.762,1.703 1.699,1.703 h 1.407 c 0.937,0 1.699,-0.761 1.699,-1.703 0,-0.937 -0.762,-1.699 -1.699,-1.699 z m 9.855,0 h -1.41 c -0.938,0 -1.699,0.762 -1.699,1.699 0,0.942 0.761,1.703 1.699,1.703 h 1.41 c 0.942,0 1.699,-0.761 1.699,-1.703 0,-0.937 -0.757,-1.699 -1.699,-1.699 z m 9.856,0 h -1.411 c -0.937,0 -1.699,0.762 -1.699,1.699 0,0.942 0.762,1.703 1.699,1.703 h 1.411 c 0.937,0 1.699,-0.761 1.699,-1.703 0,-0.937 -0.762,-1.699 -1.699,-1.699 z m 9.851,0 h -1.402 c -0.942,0 -1.699,0.762 -1.699,1.699 0,0.942 0.757,1.703 1.699,1.703 h 1.402 c 0.942,0 1.699,-0.761 1.699,-1.703 0,-0.937 -0.757,-1.699 -1.699,-1.699 z m 9.856,0 h -1.407 c -0.937,0 -1.699,0.762 -1.699,1.699 0,0.942 0.762,1.703 1.699,1.703 h 1.407 c 0.937,0 1.699,-0.761 1.699,-1.703 0,-0.937 -0.762,-1.699 -1.699,-1.699 z m 9.851,0 h -1.402 c -0.942,0 -1.699,0.762 -1.699,1.699 0,0.942 0.757,1.703 1.699,1.703 h 1.402 c 0.942,0 1.699,-0.761 1.699,-1.703 0,-0.937 -0.757,-1.699 -1.699,-1.699 z m 9.856,0 h -1.407 c -0.937,0 -1.699,0.762 -1.699,1.699 0,0.942 0.762,1.703 1.699,1.703 h 1.407 c 0.937,0 1.699,-0.761 1.699,-1.703 0,-0.937 -0.762,-1.699 -1.699,-1.699 z m 9.859,0 h -1.41 c -0.942,0 -1.699,0.762 -1.699,1.699 0,0.942 0.757,1.703 1.699,1.703 h 1.41 c 0.938,0 1.699,-0.761 1.699,-1.703 0,-0.937 -0.761,-1.699 -1.699,-1.699 z m 9.852,0 h -1.411 c -0.937,0 -1.699,0.762 -1.699,1.699 0,0.942 0.762,1.703 1.699,1.703 h 1.411 c 0.937,0 1.699,-0.761 1.699,-1.703 0,-0.937 -0.762,-1.699 -1.699,-1.699 z m 9.855,0 h -1.406 c -0.938,0 -1.699,0.762 -1.699,1.699 0,0.942 0.761,1.703 1.699,1.703 h 1.406 c 0.938,0 1.699,-0.761 1.699,-1.703 0,-0.937 -0.761,-1.699 -1.699,-1.699 z m 9.852,0 h -1.407 c -0.937,0 -1.699,0.762 -1.699,1.699 0,0.942 0.762,1.703 1.699,1.703 h 1.407 c 0.937,0 1.699,-0.761 1.699,-1.703 0,-0.937 -0.762,-1.699 -1.699,-1.699 z m 9.855,0 h -1.406 c -0.938,0 -1.699,0.762 -1.699,1.699 0,0.942 0.761,1.703 1.699,1.703 h 1.406 c 0.938,0 1.699,-0.761 1.699,-1.703 0,-0.937 -0.761,-1.699 -1.699,-1.699 z m 9.852,0 h -1.407 c -0.937,0 -1.699,0.762 -1.699,1.699 0,0.942 0.762,1.703 1.699,1.703 h 1.407 c 0.937,0 1.699,-0.761 1.699,-1.703 0,-0.937 -0.762,-1.699 -1.699,-1.699 z m 9.859,0 h -1.41 c -0.938,0 -1.699,0.762 -1.699,1.699 0,0.942 0.761,1.703 1.699,1.703 h 1.41 c 0.938,0 1.699,-0.761 1.699,-1.703 0,-0.937 -0.761,-1.699 -1.699,-1.699 z m 9.856,0 h -1.411 c -0.933,0 -1.699,0.762 -1.699,1.699 0,0.942 0.766,1.703 1.699,1.703 h 1.411 c 0.933,0 1.699,-0.761 1.699,-1.703 0,-0.937 -0.766,-1.699 -1.699,-1.699 z m 9.851,0 h -1.406 c -0.938,0 -1.699,0.762 -1.699,1.699 0,0.942 0.761,1.703 1.699,1.703 h 1.406 c 0.938,0 1.699,-0.761 1.699,-1.703 0,-0.937 -0.761,-1.699 -1.699,-1.699"
         style="fill:#ffffff;fill-opacity:1;fill-rule:nonzero;stroke:none" />
  <path
         id="path888"
         d="m 492.637,487.039 h -0.707 l -1.7,1.699 v 0.703 c 0,0.938 0.762,1.7 1.7,1.7 0.648,0 1.211,-0.36 1.5,-0.903 0.539,-0.277 0.906,-0.847 0.906,-1.5 0,-0.937 -0.762,-1.699 -1.699,-1.699"
         style="fill:#ffffff;fill-opacity:1;fill-rule:nonzero;stroke:none" />
  <path
         id="path889"
         d="m 491.93,831.238 c -0.938,0 -1.7,0.762 -1.7,1.703 v 1.411 c 0,0.929 0.762,1.687 1.7,1.687 0.937,0 1.699,-0.758 1.699,-1.687 v -1.411 c 0,-0.941 -0.762,-1.703 -1.699,-1.703 z m 0,-9.847 c -0.938,0 -1.7,0.757 -1.7,1.699 v 1.398 c 0,0.942 0.762,1.703 1.7,1.703 0.937,0 1.699,-0.761 1.699,-1.703 v -1.398 c 0,-0.942 -0.762,-1.699 -1.699,-1.699 z m 0,-9.86 c -0.938,0 -1.7,0.758 -1.7,1.699 v 1.411 c 0,0.941 0.762,1.699 1.7,1.699 0.937,0 1.699,-0.758 1.699,-1.699 v -1.411 c 0,-0.941 -0.762,-1.699 -1.699,-1.699 z m 0,-9.851 c -0.938,0 -1.7,0.761 -1.7,1.699 v 1.41 c 0,0.93 0.762,1.691 1.7,1.691 0.937,0 1.699,-0.761 1.699,-1.691 v -1.41 c 0,-0.938 -0.762,-1.699 -1.699,-1.699 z m 0,-9.848 c -0.938,0 -1.7,0.758 -1.7,1.699 v 1.399 c 0,0.941 0.762,1.699 1.7,1.699 0.937,0 1.699,-0.758 1.699,-1.699 v -1.399 c 0,-0.941 -0.762,-1.699 -1.699,-1.699 z m 0,-9.863 c -0.938,0 -1.7,0.761 -1.7,1.703 v 1.41 c 0,0.938 0.762,1.699 1.7,1.699 0.937,0 1.699,-0.761 1.699,-1.699 v -1.41 c 0,-0.942 -0.762,-1.703 -1.699,-1.703 z m 0,-9.86 c -0.938,0 -1.7,0.762 -1.7,1.7 v 1.41 c 0,0.941 0.762,1.703 1.7,1.703 0.937,0 1.699,-0.762 1.699,-1.703 v -1.41 c 0,-0.938 -0.762,-1.7 -1.699,-1.7 z m 0,-9.847 c -0.938,0 -1.7,0.758 -1.7,1.699 v 1.41 c 0,0.938 0.762,1.699 1.7,1.699 0.937,0 1.699,-0.761 1.699,-1.699 v -1.41 c 0,-0.941 -0.762,-1.699 -1.699,-1.699 z m 0,-9.864 c -0.938,0 -1.7,0.762 -1.7,1.704 v 1.41 c 0,0.937 0.762,1.699 1.7,1.699 0.937,0 1.699,-0.762 1.699,-1.699 v -1.41 c 0,-0.942 -0.762,-1.704 -1.699,-1.704 z m 0,-9.847 c -0.938,0 -1.7,0.758 -1.7,1.699 v 1.398 c 0,0.942 0.762,1.704 1.7,1.704 0.937,0 1.699,-0.762 1.699,-1.704 v -1.398 c 0,-0.941 -0.762,-1.699 -1.699,-1.699 z m 0,-9.852 c -0.938,0 -1.7,0.762 -1.7,1.692 v 1.41 c 0,0.941 0.762,1.699 1.7,1.699 0.937,0 1.699,-0.758 1.699,-1.699 v -1.41 c 0,-0.93 -0.762,-1.692 -1.699,-1.692 z m 0,-9.859 c -0.938,0 -1.7,0.762 -1.7,1.699 v 1.41 c 0,0.93 0.762,1.699 1.7,1.699 0.937,0 1.699,-0.769 1.699,-1.699 v -1.41 c 0,-0.937 -0.762,-1.699 -1.699,-1.699 z m 0,-9.848 c -0.938,0 -1.7,0.758 -1.7,1.699 v 1.399 c 0,0.941 0.762,1.699 1.7,1.699 0.937,0 1.699,-0.758 1.699,-1.699 v -1.399 c 0,-0.941 -0.762,-1.699 -1.699,-1.699 z m 0,-9.863 c -0.938,0 -1.7,0.769 -1.7,1.703 v 1.406 c 0,0.942 0.762,1.703 1.7,1.703 0.937,0 1.699,-0.761 1.699,-1.703 v -1.406 c 0,-0.934 -0.762,-1.703 -1.699,-1.703 z m 0,-9.848 c -0.938,0 -1.7,0.758 -1.7,1.699 v 1.411 c 0,0.929 0.762,1.699 1.7,1.699 0.937,0 1.699,-0.77 1.699,-1.699 v -1.411 c 0,-0.941 -0.762,-1.699 -1.699,-1.699 z m 0,-9.851 c -0.938,0 -1.7,0.761 -1.7,1.699 v 1.402 c 0,0.938 0.762,1.699 1.7,1.699 0.937,0 1.699,-0.761 1.699,-1.699 v -1.402 c 0,-0.938 -0.762,-1.699 -1.699,-1.699 z m 0,-9.86 c -0.938,0 -1.7,0.77 -1.7,1.7 v 1.41 c 0,0.941 0.762,1.699 1.7,1.699 0.937,0 1.699,-0.758 1.699,-1.699 v -1.41 c 0,-0.93 -0.762,-1.7 -1.699,-1.7 z m 0,-9.859 c -0.938,0 -1.7,0.758 -1.7,1.699 v 1.422 c 0,0.93 0.762,1.699 1.7,1.699 0.937,0 1.699,-0.769 1.699,-1.699 v -1.422 c 0,-0.941 -0.762,-1.699 -1.699,-1.699 z m 0,-9.852 c -0.938,0 -1.7,0.762 -1.7,1.7 v 1.41 c 0,0.941 0.762,1.703 1.7,1.703 0.937,0 1.699,-0.762 1.699,-1.703 v -1.41 c 0,-0.938 -0.762,-1.7 -1.699,-1.7 z m 0,-9.859 c -0.938,0 -1.7,0.77 -1.7,1.699 v 1.41 c 0,0.942 0.762,1.7 1.7,1.7 0.937,0 1.699,-0.758 1.699,-1.7 v -1.41 c 0,-0.929 -0.762,-1.699 -1.699,-1.699 z m 0,-9.852 c -0.938,0 -1.7,0.762 -1.7,1.704 v 1.41 c 0,0.929 0.762,1.699 1.7,1.699 0.937,0 1.699,-0.77 1.699,-1.699 v -1.41 c 0,-0.942 -0.762,-1.704 -1.699,-1.704 z m 0,-9.847 c -0.938,0 -1.7,0.758 -1.7,1.699 v 1.398 c 0,0.942 0.762,1.704 1.7,1.704 0.937,0 1.699,-0.762 1.699,-1.704 V 626 c 0,-0.941 -0.762,-1.699 -1.699,-1.699 z m 0,-9.86 c -0.938,0 -1.7,0.77 -1.7,1.7 v 1.41 c 0,0.937 0.762,1.699 1.7,1.699 0.937,0 1.699,-0.762 1.699,-1.699 v -1.41 c 0,-0.93 -0.762,-1.7 -1.699,-1.7 z m 0,-9.851 c -0.938,0 -1.7,0.762 -1.7,1.699 v 1.41 c 0,0.93 0.762,1.692 1.7,1.692 0.937,0 1.699,-0.762 1.699,-1.692 v -1.41 c 0,-0.937 -0.762,-1.699 -1.699,-1.699 z m 0,-9.852 c -0.938,0 -1.7,0.762 -1.7,1.703 v 1.399 c 0,0.941 0.762,1.699 1.7,1.699 0.937,0 1.699,-0.758 1.699,-1.699 v -1.399 c 0,-0.941 -0.762,-1.703 -1.699,-1.703 z m 0,-9.859 c -0.938,0 -1.7,0.762 -1.7,1.699 v 1.414 c 0,0.938 0.762,1.699 1.7,1.699 0.937,0 1.699,-0.761 1.699,-1.699 v -1.414 c 0,-0.937 -0.762,-1.699 -1.699,-1.699 z m 0,-9.848 c -0.938,0 -1.7,0.758 -1.7,1.699 v 1.399 c 0,0.941 0.762,1.703 1.7,1.703 0.937,0 1.699,-0.762 1.699,-1.703 v -1.399 c 0,-0.941 -0.762,-1.699 -1.699,-1.699 z m 0,-9.851 c -0.938,0 -1.7,0.761 -1.7,1.691 v 1.41 c 0,0.938 0.762,1.699 1.7,1.699 0.937,0 1.699,-0.761 1.699,-1.699 v -1.41 c 0,-0.93 -0.762,-1.691 -1.699,-1.691 z m 0,-9.86 c -0.938,0 -1.7,0.762 -1.7,1.7 v 1.41 c 0,0.941 0.762,1.699 1.7,1.699 0.937,0 1.699,-0.758 1.699,-1.699 v -1.41 c 0,-0.938 -0.762,-1.7 -1.699,-1.7 z m 0,-9.859 c -0.938,0 -1.7,0.758 -1.7,1.699 v 1.41 c 0,0.942 0.762,1.7 1.7,1.7 0.937,0 1.699,-0.758 1.699,-1.7 v -1.41 c 0,-0.941 -0.762,-1.699 -1.699,-1.699 z m 0,-9.852 c -0.938,0 -1.7,0.762 -1.7,1.692 v 1.418 c 0,0.941 0.762,1.703 1.7,1.703 0.937,0 1.699,-0.762 1.699,-1.703 v -1.418 c 0,-0.93 -0.762,-1.692 -1.699,-1.692 z m 0,-9.859 c -0.938,0 -1.7,0.762 -1.7,1.699 v 1.41 c 0,0.93 0.762,1.7 1.7,1.7 0.937,0 1.699,-0.77 1.699,-1.7 v -1.41 c 0,-0.937 -0.762,-1.699 -1.699,-1.699 z m 0,-9.852 c -0.938,0 -1.7,0.762 -1.7,1.704 V 519 c 0,0.941 0.762,1.699 1.7,1.699 0.937,0 1.699,-0.758 1.699,-1.699 v -1.398 c 0,-0.942 -0.762,-1.704 -1.699,-1.704 z m 0,-9.859 c -0.938,0 -1.7,0.77 -1.7,1.699 v 1.41 c 0,0.942 0.762,1.704 1.7,1.704 0.937,0 1.699,-0.762 1.699,-1.704 v -1.41 c 0,-0.929 -0.762,-1.699 -1.699,-1.699 z m 0,-9.848 c -0.938,0 -1.7,0.758 -1.7,1.7 v 1.41 c 0,0.929 0.762,1.699 1.7,1.699 0.937,0 1.699,-0.77 1.699,-1.699 v -1.41 c 0,-0.942 -0.762,-1.7 -1.699,-1.7"
         style="fill:#ffffff;fill-opacity:1;fill-rule:nonzero;stroke:none" />
  <path
         id="path890"
         d="m 491.93,841.09 c -0.938,0 -1.7,0.769 -1.7,1.699 v 0.723 l 1.7,1.699 h 0.707 c 0.937,0 1.699,-0.77 1.699,-1.699 0,-0.66 -0.359,-1.223 -0.898,-1.512 -0.29,-0.539 -0.856,-0.91 -1.508,-0.91"
         style="fill:#ffffff;fill-opacity:1;fill-rule:nonzero;stroke:none" />
  <path
         id="path891"
         d="m 502.488,841.809 h -1.402 c -0.941,0 -1.699,0.761 -1.699,1.703 0,0.929 0.758,1.699 1.699,1.699 h 1.402 c 0.942,0 1.7,-0.77 1.7,-1.699 0,-0.942 -0.758,-1.703 -1.7,-1.703 z m 9.856,0 h -1.406 c -0.938,0 -1.7,0.761 -1.7,1.703 0,0.929 0.762,1.699 1.7,1.699 h 1.406 c 0.937,0 1.699,-0.77 1.699,-1.699 0,-0.942 -0.762,-1.703 -1.699,-1.703 z m 9.859,0 h -1.41 c -0.938,0 -1.699,0.761 -1.699,1.703 0,0.929 0.761,1.699 1.699,1.699 h 1.41 c 0.938,0 1.699,-0.77 1.699,-1.699 0,-0.942 -0.761,-1.703 -1.699,-1.703 z m 9.852,0 h -1.407 c -0.937,0 -1.699,0.761 -1.699,1.703 0,0.929 0.762,1.699 1.699,1.699 h 1.407 c 0.937,0 1.699,-0.77 1.699,-1.699 0,-0.942 -0.762,-1.703 -1.699,-1.703 z m 9.855,0 h -1.406 c -0.938,0 -1.699,0.761 -1.699,1.703 0,0.929 0.761,1.699 1.699,1.699 h 1.406 c 0.938,0 1.699,-0.77 1.699,-1.699 0,-0.942 -0.761,-1.703 -1.699,-1.703 z m 9.852,0 h -1.407 c -0.937,0 -1.699,0.761 -1.699,1.703 0,0.929 0.762,1.699 1.699,1.699 h 1.407 c 0.937,0 1.699,-0.77 1.699,-1.699 0,-0.942 -0.762,-1.703 -1.699,-1.703 z m 9.855,0 h -1.406 c -0.938,0 -1.699,0.761 -1.699,1.703 0,0.929 0.761,1.699 1.699,1.699 h 1.406 c 0.938,0 1.699,-0.77 1.699,-1.699 0,-0.942 -0.761,-1.703 -1.699,-1.703 z m 9.86,0 h -1.414 c -0.938,0 -1.7,0.761 -1.7,1.703 0,0.929 0.762,1.699 1.7,1.699 h 1.414 c 0.933,0 1.699,-0.77 1.699,-1.699 0,-0.942 -0.766,-1.703 -1.699,-1.703 z m 9.851,0 h -1.41 c -0.938,0 -1.699,0.761 -1.699,1.703 0,0.929 0.761,1.699 1.699,1.699 h 1.41 c 0.938,0 1.699,-0.77 1.699,-1.699 0,-0.942 -0.761,-1.703 -1.699,-1.703 z m 9.856,0 h -1.411 c -0.933,0 -1.699,0.761 -1.699,1.703 0,0.929 0.766,1.699 1.699,1.699 h 1.411 c 0.933,0 1.699,-0.77 1.699,-1.699 0,-0.942 -0.766,-1.703 -1.699,-1.703 z m 9.851,0 h -1.406 c -0.938,0 -1.699,0.761 -1.699,1.703 0,0.929 0.761,1.699 1.699,1.699 h 1.406 c 0.938,0 1.699,-0.77 1.699,-1.699 0,-0.942 -0.761,-1.703 -1.699,-1.703 z m 9.856,0 h -1.411 c -0.933,0 -1.699,0.761 -1.699,1.703 0,0.929 0.766,1.699 1.699,1.699 h 1.411 c 0.933,0 1.699,-0.77 1.699,-1.699 0,-0.942 -0.766,-1.703 -1.699,-1.703 z m 9.851,0 h -1.406 c -0.938,0 -1.699,0.761 -1.699,1.703 0,0.929 0.761,1.699 1.699,1.699 h 1.406 c 0.938,0 1.699,-0.77 1.699,-1.699 0,-0.942 -0.761,-1.703 -1.699,-1.703 z m 9.86,0 h -1.414 c -0.934,0 -1.7,0.761 -1.7,1.703 0,0.929 0.766,1.699 1.7,1.699 h 1.414 c 0.937,0 1.699,-0.77 1.699,-1.699 0,-0.942 -0.762,-1.703 -1.699,-1.703 z m 9.851,0 h -1.41 c -0.938,0 -1.699,0.761 -1.699,1.703 0,0.929 0.761,1.699 1.699,1.699 h 1.41 c 0.938,0 1.699,-0.77 1.699,-1.699 0,-0.942 -0.761,-1.703 -1.699,-1.703 z m 9.856,0 h -1.407 c -0.937,0 -1.699,0.761 -1.699,1.703 0,0.929 0.762,1.699 1.699,1.699 h 1.407 c 0.937,0 1.699,-0.77 1.699,-1.699 0,-0.942 -0.762,-1.703 -1.699,-1.703 z m 9.851,0 h -1.406 c -0.938,0 -1.699,0.761 -1.699,1.703 0,0.929 0.761,1.699 1.699,1.699 h 1.406 c 0.938,0 1.699,-0.77 1.699,-1.699 0,-0.942 -0.761,-1.703 -1.699,-1.703 z m 9.856,0 h -1.407 c -0.937,0 -1.699,0.761 -1.699,1.703 0,0.929 0.762,1.699 1.699,1.699 h 1.407 c 0.937,0 1.699,-0.77 1.699,-1.699 0,-0.942 -0.762,-1.703 -1.699,-1.703 z m 9.851,0 h -1.406 c -0.938,0 -1.699,0.761 -1.699,1.703 0,0.929 0.761,1.699 1.699,1.699 h 1.406 c 0.938,0 1.699,-0.77 1.699,-1.699 0,-0.942 -0.761,-1.703 -1.699,-1.703 z m 9.86,0 h -1.411 c -0.937,0 -1.699,0.761 -1.699,1.703 0,0.929 0.762,1.699 1.699,1.699 h 1.411 c 0.937,0 1.699,-0.77 1.699,-1.699 0,-0.942 -0.762,-1.703 -1.699,-1.703 z m 9.851,0 h -1.41 c -0.938,0 -1.699,0.761 -1.699,1.703 0,0.929 0.761,1.699 1.699,1.699 h 1.41 c 0.942,0 1.699,-0.77 1.699,-1.699 0,-0.942 -0.757,-1.703 -1.699,-1.703 z m 9.856,0 h -1.407 c -0.937,0 -1.699,0.761 -1.699,1.703 0,0.929 0.762,1.699 1.699,1.699 h 1.407 c 0.937,0 1.699,-0.77 1.699,-1.699 0,-0.942 -0.762,-1.703 -1.699,-1.703 z m 9.851,0 h -1.402 c -0.942,0 -1.699,0.761 -1.699,1.703 0,0.929 0.757,1.699 1.699,1.699 h 1.402 c 0.942,0 1.699,-0.77 1.699,-1.699 0,-0.942 -0.757,-1.703 -1.699,-1.703 z m 9.856,0 h -1.407 c -0.937,0 -1.699,0.761 -1.699,1.703 0,0.929 0.762,1.699 1.699,1.699 h 1.407 c 0.937,0 1.699,-0.77 1.699,-1.699 0,-0.942 -0.762,-1.703 -1.699,-1.703 z m 9.859,0 h -1.41 c -0.942,0 -1.699,0.761 -1.699,1.703 0,0.929 0.757,1.699 1.699,1.699 H 739 c 0.938,0 1.699,-0.77 1.699,-1.699 0,-0.942 -0.761,-1.703 -1.699,-1.703 z m 9.852,0 h -1.411 c -0.937,0 -1.699,0.761 -1.699,1.703 0,0.929 0.762,1.699 1.699,1.699 h 1.411 c 0.937,0 1.699,-0.77 1.699,-1.699 0,-0.942 -0.762,-1.703 -1.699,-1.703 z m 9.855,0 h -1.406 c -0.938,0 -1.699,0.761 -1.699,1.703 0,0.929 0.761,1.699 1.699,1.699 h 1.406 c 0.938,0 1.699,-0.77 1.699,-1.699 0,-0.942 -0.761,-1.703 -1.699,-1.703 z m 9.852,0 h -1.407 c -0.937,0 -1.699,0.761 -1.699,1.703 0,0.929 0.762,1.699 1.699,1.699 h 1.407 c 0.937,0 1.699,-0.77 1.699,-1.699 0,-0.942 -0.762,-1.703 -1.699,-1.703 z m 9.855,0 h -1.406 c -0.938,0 -1.699,0.761 -1.699,1.703 0,0.929 0.761,1.699 1.699,1.699 h 1.406 c 0.938,0 1.699,-0.77 1.699,-1.699 0,-0.942 -0.761,-1.703 -1.699,-1.703 z m 9.852,0 h -1.407 c -0.937,0 -1.699,0.761 -1.699,1.703 0,0.929 0.762,1.699 1.699,1.699 h 1.407 c 0.937,0 1.699,-0.77 1.699,-1.699 0,-0.942 -0.762,-1.703 -1.699,-1.703 z m 9.859,0 h -1.41 c -0.938,0 -1.699,0.761 -1.699,1.703 0,0.929 0.761,1.699 1.699,1.699 h 1.41 c 0.938,0 1.699,-0.77 1.699,-1.699 0,-0.942 -0.761,-1.703 -1.699,-1.703 z m 9.855,0 h -1.414 c -0.937,0 -1.699,0.761 -1.699,1.703 0,0.929 0.762,1.699 1.699,1.699 h 1.414 c 0.938,0 1.7,-0.77 1.7,-1.699 0,-0.942 -0.762,-1.703 -1.7,-1.703 z m 9.852,0 h -1.406 c -0.938,0 -1.699,0.761 -1.699,1.703 0,0.929 0.761,1.699 1.699,1.699 h 1.406 c 0.938,0 1.699,-0.77 1.699,-1.699 0,-0.942 -0.761,-1.703 -1.699,-1.703 z m 9.856,0 h -1.411 c -0.933,0 -1.699,0.761 -1.699,1.703 0,0.929 0.766,1.699 1.699,1.699 h 1.411 c 0.933,0 1.699,-0.77 1.699,-1.699 0,-0.942 -0.766,-1.703 -1.699,-1.703 z m 9.851,0 h -1.406 c -0.938,0 -1.699,0.761 -1.699,1.703 0,0.929 0.761,1.699 1.699,1.699 h 1.406 c 0.938,0 1.699,-0.77 1.699,-1.699 0,-0.942 -0.761,-1.703 -1.699,-1.703"
         style="fill:#ffffff;fill-opacity:1;fill-rule:nonzero;stroke:none" />
  <path
         id="path892"
         d="m 846.695,841.09 c -0.656,0 -1.222,0.371 -1.507,0.91 -0.54,0.289 -0.903,0.852 -0.903,1.512 0,0.929 0.766,1.699 1.699,1.699 h 0.711 l 1.7,-1.699 v -0.723 c 0,-0.93 -0.762,-1.699 -1.7,-1.699"
         style="fill:#ffffff;fill-opacity:1;fill-rule:nonzero;stroke:none" />
  <path
         id="path893"
         d="m 846.695,831.238 c -0.937,0 -1.699,0.762 -1.699,1.703 v 1.411 c 0,0.929 0.762,1.687 1.699,1.687 0.938,0 1.7,-0.758 1.7,-1.687 v -1.411 c 0,-0.941 -0.762,-1.703 -1.7,-1.703 z m 0,-9.847 c -0.937,0 -1.699,0.757 -1.699,1.699 v 1.398 c 0,0.942 0.762,1.703 1.699,1.703 0.938,0 1.7,-0.761 1.7,-1.703 v -1.398 c 0,-0.942 -0.762,-1.699 -1.7,-1.699 z m 0,-9.86 c -0.937,0 -1.699,0.758 -1.699,1.699 v 1.411 c 0,0.941 0.762,1.699 1.699,1.699 0.938,0 1.7,-0.758 1.7,-1.699 v -1.411 c 0,-0.941 -0.762,-1.699 -1.7,-1.699 z m 0,-9.851 c -0.937,0 -1.699,0.761 -1.699,1.699 v 1.41 c 0,0.93 0.762,1.691 1.699,1.691 0.938,0 1.7,-0.761 1.7,-1.691 v -1.41 c 0,-0.938 -0.762,-1.699 -1.7,-1.699 z m 0,-9.86 c -0.937,0 -1.699,0.762 -1.699,1.7 v 1.41 c 0,0.941 0.762,1.699 1.699,1.699 0.938,0 1.7,-0.758 1.7,-1.699 v -1.41 c 0,-0.938 -0.762,-1.7 -1.7,-1.7 z m 0,-9.859 c -0.937,0 -1.699,0.758 -1.699,1.699 v 1.422 c 0,0.938 0.762,1.699 1.699,1.699 0.938,0 1.7,-0.761 1.7,-1.699 v -1.422 c 0,-0.941 -0.762,-1.699 -1.7,-1.699 z m 0,-9.852 c -0.937,0 -1.699,0.762 -1.699,1.7 v 1.402 c 0,0.937 0.762,1.699 1.699,1.699 0.938,0 1.7,-0.762 1.7,-1.699 v -1.402 c 0,-0.938 -0.762,-1.7 -1.7,-1.7 z m 0,-9.847 c -0.937,0 -1.699,0.758 -1.699,1.699 v 1.398 c 0,0.942 0.762,1.7 1.699,1.7 0.938,0 1.7,-0.758 1.7,-1.7 v -1.398 c 0,-0.941 -0.762,-1.699 -1.7,-1.699 z m 0,-9.864 c -0.937,0 -1.699,0.762 -1.699,1.704 v 1.41 c 0,0.937 0.762,1.699 1.699,1.699 0.938,0 1.7,-0.762 1.7,-1.699 v -1.41 c 0,-0.942 -0.762,-1.704 -1.7,-1.704 z m 0,-9.847 c -0.937,0 -1.699,0.758 -1.699,1.699 v 1.398 c 0,0.942 0.762,1.704 1.699,1.704 0.938,0 1.7,-0.762 1.7,-1.704 v -1.398 c 0,-0.941 -0.762,-1.699 -1.7,-1.699 z m 0,-9.852 c -0.937,0 -1.699,0.762 -1.699,1.692 v 1.41 c 0,0.941 0.762,1.699 1.699,1.699 0.938,0 1.7,-0.758 1.7,-1.699 v -1.41 c 0,-0.93 -0.762,-1.692 -1.7,-1.692 z m 0,-9.859 c -0.937,0 -1.699,0.762 -1.699,1.699 v 1.41 c 0,0.93 0.762,1.699 1.699,1.699 0.938,0 1.7,-0.769 1.7,-1.699 v -1.41 c 0,-0.937 -0.762,-1.699 -1.7,-1.699 z m 0,-9.848 c -0.937,0 -1.699,0.758 -1.699,1.699 v 1.399 c 0,0.941 0.762,1.699 1.699,1.699 0.938,0 1.7,-0.758 1.7,-1.699 v -1.399 c 0,-0.941 -0.762,-1.699 -1.7,-1.699 z m 0,-9.863 c -0.937,0 -1.699,0.769 -1.699,1.703 v 1.406 c 0,0.942 0.762,1.703 1.699,1.703 0.938,0 1.7,-0.761 1.7,-1.703 v -1.406 c 0,-0.934 -0.762,-1.703 -1.7,-1.703 z m 0,-9.848 c -0.937,0 -1.699,0.758 -1.699,1.699 v 1.411 c 0,0.929 0.762,1.699 1.699,1.699 0.938,0 1.7,-0.77 1.7,-1.699 v -1.411 c 0,-0.941 -0.762,-1.699 -1.7,-1.699 z m 0,-9.851 c -0.937,0 -1.699,0.761 -1.699,1.699 v 1.402 c 0,0.938 0.762,1.699 1.699,1.699 0.938,0 1.7,-0.761 1.7,-1.699 v -1.402 c 0,-0.938 -0.762,-1.699 -1.7,-1.699 z m 0,-9.871 c -0.937,0 -1.699,0.773 -1.699,1.703 v 1.418 c 0,0.941 0.762,1.699 1.699,1.699 0.938,0 1.7,-0.758 1.7,-1.699 v -1.418 c 0,-0.93 -0.762,-1.703 -1.7,-1.703 z m 0,-9.848 c -0.937,0 -1.699,0.758 -1.699,1.699 v 1.422 c 0,0.93 0.762,1.699 1.699,1.699 0.938,0 1.7,-0.769 1.7,-1.699 v -1.422 c 0,-0.941 -0.762,-1.699 -1.7,-1.699 z m 0,-9.852 c -0.937,0 -1.699,0.762 -1.699,1.7 v 1.402 c 0,0.937 0.762,1.699 1.699,1.699 0.938,0 1.7,-0.762 1.7,-1.699 v -1.402 c 0,-0.938 -0.762,-1.7 -1.7,-1.7 z m 0,-9.859 c -0.937,0 -1.699,0.77 -1.699,1.699 v 1.41 c 0,0.942 0.762,1.7 1.699,1.7 0.938,0 1.7,-0.758 1.7,-1.7 v -1.41 c 0,-0.929 -0.762,-1.699 -1.7,-1.699 z m 0,-9.852 c -0.937,0 -1.699,0.762 -1.699,1.704 v 1.41 c 0,0.929 0.762,1.699 1.699,1.699 0.938,0 1.7,-0.77 1.7,-1.699 v -1.41 c 0,-0.942 -0.762,-1.704 -1.7,-1.704 z m 0,-9.847 c -0.937,0 -1.699,0.758 -1.699,1.699 v 1.398 c 0,0.942 0.762,1.704 1.699,1.704 0.938,0 1.7,-0.762 1.7,-1.704 V 626 c 0,-0.941 -0.762,-1.699 -1.7,-1.699 z m 0,-9.86 c -0.937,0 -1.699,0.77 -1.699,1.7 v 1.41 c 0,0.937 0.762,1.699 1.699,1.699 0.938,0 1.7,-0.762 1.7,-1.699 v -1.41 c 0,-0.93 -0.762,-1.7 -1.7,-1.7 z m 0,-9.851 c -0.937,0 -1.699,0.762 -1.699,1.699 v 1.41 c 0,0.93 0.762,1.692 1.699,1.692 0.938,0 1.7,-0.762 1.7,-1.692 v -1.41 c 0,-0.937 -0.762,-1.699 -1.7,-1.699 z m 0,-9.852 c -0.937,0 -1.699,0.762 -1.699,1.703 v 1.399 c 0,0.941 0.762,1.699 1.699,1.699 0.938,0 1.7,-0.758 1.7,-1.699 v -1.399 c 0,-0.941 -0.762,-1.703 -1.7,-1.703 z m 0,-9.859 c -0.937,0 -1.699,0.762 -1.699,1.699 v 1.414 c 0,0.938 0.762,1.699 1.699,1.699 0.938,0 1.7,-0.761 1.7,-1.699 v -1.414 c 0,-0.937 -0.762,-1.699 -1.7,-1.699 z m 0,-9.848 c -0.937,0 -1.699,0.758 -1.699,1.699 v 1.399 c 0,0.941 0.762,1.703 1.699,1.703 0.938,0 1.7,-0.762 1.7,-1.703 v -1.399 c 0,-0.941 -0.762,-1.699 -1.7,-1.699 z m 0,-9.859 c -0.937,0 -1.699,0.758 -1.699,1.699 v 1.41 c 0,0.938 0.762,1.699 1.699,1.699 0.938,0 1.7,-0.761 1.7,-1.699 v -1.41 c 0,-0.941 -0.762,-1.699 -1.7,-1.699 z m 0,-9.863 c -0.937,0 -1.699,0.761 -1.699,1.703 v 1.418 c 0,0.941 0.762,1.699 1.699,1.699 0.938,0 1.7,-0.758 1.7,-1.699 v -1.418 c 0,-0.942 -0.762,-1.703 -1.7,-1.703 z m 0,-9.848 c -0.937,0 -1.699,0.758 -1.699,1.699 v 1.399 c 0,0.941 0.762,1.703 1.699,1.703 0.938,0 1.7,-0.762 1.7,-1.703 v -1.399 c 0,-0.941 -0.762,-1.699 -1.7,-1.699 z m 0,-9.852 c -0.937,0 -1.699,0.762 -1.699,1.692 v 1.41 c 0,0.937 0.762,1.699 1.699,1.699 0.938,0 1.7,-0.762 1.7,-1.699 v -1.41 c 0,-0.93 -0.762,-1.692 -1.7,-1.692 z m 0,-9.859 c -0.937,0 -1.699,0.762 -1.699,1.699 v 1.41 c 0,0.93 0.762,1.7 1.699,1.7 0.938,0 1.7,-0.77 1.7,-1.7 v -1.41 c 0,-0.937 -0.762,-1.699 -1.7,-1.699 z m 0,-9.852 c -0.937,0 -1.699,0.762 -1.699,1.704 V 519 c 0,0.941 0.762,1.699 1.699,1.699 0.938,0 1.7,-0.758 1.7,-1.699 v -1.398 c 0,-0.942 -0.762,-1.704 -1.7,-1.704 z m 0,-9.859 c -0.937,0 -1.699,0.77 -1.699,1.699 v 1.41 c 0,0.942 0.762,1.704 1.699,1.704 0.938,0 1.7,-0.762 1.7,-1.704 v -1.41 c 0,-0.929 -0.762,-1.699 -1.7,-1.699 z m 0,-9.848 c -0.937,0 -1.699,0.758 -1.699,1.7 v 1.41 c 0,0.929 0.762,1.699 1.699,1.699 0.938,0 1.7,-0.77 1.7,-1.699 v -1.41 c 0,-0.942 -0.762,-1.7 -1.7,-1.7"
         style="fill:#ffffff;fill-opacity:1;fill-rule:nonzero;stroke:none" />
  <path
         id="path894"
         d="M 559.391,552.898 H 782.742 V 776.25 H 559.391 Z M 792.668,542.98 H 549.469 V 786.172 H 792.668 V 542.98"
         style="fill:#ffffff;fill-opacity:1;fill-rule:nonzero;stroke:none" />
  <path
         id="path895"
         d="m 714.027,621.609 h -85.925 v 85.93 h 85.925 v -85.93"
         style="fill:#ffffff;fill-opacity:1;fill-rule:nonzero;stroke:none" />
  <path
         id="path896"
         d="m 630.273,702.961 -155.98,155.988 2.402,2.403 155.981,-155.993 -2.403,-2.398"
         style="fill:#ffffff;fill-opacity:1;fill-rule:nonzero;stroke:none" />
  <path
         id="path897"
         d="m 711.012,702.121 -2.403,2.399 156.829,156.832 2.406,-2.403 -156.832,-156.828"
         style="fill:#ffffff;fill-opacity:1;fill-rule:nonzero;stroke:none" />
  <path
         id="path898"
         d="m 476.695,467.801 -2.402,2.41 155.98,155.969 2.403,-2.399 -155.981,-155.98"
         style="fill:#ffffff;fill-opacity:1;fill-rule:nonzero;stroke:none" />
  <path
         id="path899"
         d="m 865.438,467.801 -155.985,155.98 2.402,2.399 155.989,-155.969 -2.406,-2.41"
         style="fill:#ffffff;fill-opacity:1;fill-rule:nonzero;stroke:none" />
  <path
         id="path900"
         d="m 635.992,903.922 h 70.145 l -35.074,149.738 z m 74.434,-3.402 h -78.723 l 39.36,168.05 39.363,-168.05"
         style="fill:#ffffff;fill-opacity:1;fill-rule:nonzero;stroke:none" />
  <path
         id="path901"
         d="m 350.277,983.582 41.903,-67.531 25.629,25.629 z"
         style="fill:#ffffff;fill-opacity:1;fill-rule:nonzero;stroke:none" />
  <path
         id="path902"
         d="M 990.449,983.582 948.551,916.051 922.914,941.68 Z"
         style="fill:#ffffff;fill-opacity:1;fill-rule:nonzero;stroke:none" />
  <path
         id="path903"
         d="m 350.277,344.98 41.903,67.532 25.629,-25.633 z"
         style="fill:#ffffff;fill-opacity:1;fill-rule:nonzero;stroke:none" />
  <path
         id="path904"
         d="m 990.449,344.98 -41.898,67.532 -25.637,-25.633 z"
         style="fill:#ffffff;fill-opacity:1;fill-rule:nonzero;stroke:none" />
  <path
         id="path905"
         d="m 672.766,902.219 h -3.403 v 158.891 h 3.403 V 902.219"
         style="fill:#ffffff;fill-opacity:1;fill-rule:nonzero;stroke:none" />
  <path
         id="path906"
         d="M 635.992,425.219 671.063,275.5 706.137,425.219 Z m 35.071,-164.637 -39.36,168.039 h 78.723 L 671.063,260.582"
         style="fill:#ffffff;fill-opacity:1;fill-rule:nonzero;stroke:none" />
  <path
         id="path907"
         d="m 672.766,268.039 h -3.403 v 158.883 h 3.403 V 268.039"
         style="fill:#ffffff;fill-opacity:1;fill-rule:nonzero;stroke:none" />
  <path
         id="path908"
         d="M 281.98,664.57 431.719,629.5 v 70.141 z M 435.117,625.211 267.07,664.57 435.117,703.941 v -78.73"
         style="fill:#ffffff;fill-opacity:1;fill-rule:nonzero;stroke:none" />
  <path
         id="path909"
         d="M 433.418,662.871 H 274.527 v 3.399 h 158.891 v -3.399"
         style="fill:#ffffff;fill-opacity:1;fill-rule:nonzero;stroke:none" />
  <path
         id="path910"
         d="M 910.41,699.641 V 629.5 l 149.74,35.07 z m -3.398,-74.43 v 78.73 L 1075.06,664.57 907.012,625.211"
         style="fill:#ffffff;fill-opacity:1;fill-rule:nonzero;stroke:none" />
  <path
         id="path911"
         d="M 1067.6,662.871 H 908.711 v 3.399 H 1067.6 v -3.399"
         style="fill:#ffffff;fill-opacity:1;fill-rule:nonzero;stroke:none" />
  <path
         id="path912"
         d="m 672.766,546.988 h -3.403 v 234.223 h 3.403 V 546.988"
         style="fill:#ffffff;fill-opacity:1;fill-rule:nonzero;stroke:none" />
  <path
         id="path913"
         d="M 787.703,662.398 H 554.43 v 3.403 h 233.273 v -3.403"
         style="fill:#ffffff;fill-opacity:1;fill-rule:nonzero;stroke:none" />
  <path
         id="path914"
         d="m 433.418,902.219 h 55.238 L 433.594,847.16 Z"
         style="fill:#ffffff;fill-opacity:1;fill-rule:nonzero;stroke:none" />
  <path
         id="path915"
         d="M 909.172,902.219 H 853.93 L 909,847.16 Z"
         style="fill:#ffffff;fill-opacity:1;fill-rule:nonzero;stroke:none" />
  <path
         id="path916"
         d="m 433.418,426.922 h 55.238 l -55.062,55.066 z"
         style="fill:#ffffff;fill-opacity:1;fill-rule:nonzero;stroke:none" />
  <path
         id="path917"
         d="M 909.172,426.922 H 853.93 L 909,481.988 Z"
         style="fill:#ffffff;fill-opacity:1;fill-rule:nonzero;stroke:none" />
</svg>