<?xml version="1.0" encoding="UTF-8" standalone="no"?>
<svg
   version="1.1"
   width="600"
   height="600"
   viewBox="1254.02 2309.21 985.18 985.18"
   xmlns="http://www.w3.org/2000/svg">
  <rect x="1254.02" y="2309.21" width="985.18" height="985.18" fill="#000000"/>
  <path
         id="path765"
         d="m 1691.24,3120.89 c -59.52,-10.57 -112.4,-42.61 -149.29,-90.55 -36.88,-47.96 -54.29,-107.29 -49.24,-167.51 z m -201.1,-266.96 -0.43,4.25 c -6.34,62.57 11.25,124.44 49.54,174.23 38.3,49.78 93.61,82.65 155.72,92.56 l 4.22,0.67 -209.05,-271.71"
         style="fill:#ffffff;fill-opacity:1;fill-rule:nonzero;stroke:none" />
  <path
         id="path766"
         d="m 1801.88,3120.89 198.53,-258.06 c 5.05,60.22 -12.36,119.55 -49.25,167.51 -36.9,47.94 -89.78,79.98 -149.28,90.55 z m 201.08,-266.96 -2.6,3.39 -206.44,268.32 4.22,-0.67 c 62.11,-9.91 117.41,-42.78 155.72,-92.56 38.29,-49.79 55.89,-111.66 49.54,-174.23 l -0.44,-4.25"
         style="fill:#ffffff;fill-opacity:1;fill-rule:nonzero;stroke:none" />
  <path
         id="path767"
         d="m 1661.98,3087.22 c -0.69,0 -1.33,0.41 -1.58,1.08 -0.35,0.87 0.09,1.86 0.97,2.2 l 1.31,0.52 c 0.88,0.34 1.87,-0.1 2.2,-0.98 0.34,-0.87 -0.09,-1.86 -0.96,-2.2 l -1.33,-0.51 c -0.2,-0.08 -0.41,-0.11 -0.61,-0.11 z m -9.16,-3.81 c -0.65,0 -1.27,0.37 -1.56,1.01 -0.38,0.86 0.02,1.86 0.87,2.24 l 1.33,0.58 c 0.84,0.38 1.85,-0.03 2.22,-0.91 0.37,-0.86 -0.04,-1.86 -0.89,-2.22 l -1.28,-0.56 c -0.22,-0.1 -0.46,-0.14 -0.69,-0.14 z m -8.98,-4.2 c -0.63,0 -1.22,0.34 -1.53,0.94 -0.42,0.84 -0.07,1.86 0.77,2.28 l 1.3,0.64 c 0.85,0.4 1.86,0.04 2.26,-0.8 0.41,-0.85 0.05,-1.86 -0.81,-2.27 l -1.24,-0.62 c -0.23,-0.12 -0.5,-0.17 -0.75,-0.17 z m -8.8,-4.6 c -0.6,0 -1.17,0.32 -1.49,0.87 -0.46,0.82 -0.17,1.86 0.66,2.32 l 1.25,0.69 c 0.83,0.45 1.84,0.15 2.31,-0.68 0.45,-0.82 0.15,-1.86 -0.68,-2.31 l -1.22,-0.67 c -0.26,-0.15 -0.55,-0.22 -0.83,-0.22 z m -8.58,-4.96 c -0.58,0 -1.14,0.29 -1.46,0.81 -0.49,0.8 -0.24,1.85 0.57,2.34 l 1.23,0.74 c 0.79,0.5 1.84,0.22 2.33,-0.59 0.48,-0.81 0.21,-1.85 -0.59,-2.33 l -1.2,-0.72 c -0.28,-0.17 -0.59,-0.25 -0.88,-0.25 z m -8.37,-5.34 c -0.55,0 -1.08,0.26 -1.4,0.74 -0.53,0.78 -0.32,1.84 0.46,2.37 l 1.19,0.8 c 0.81,0.5 1.86,0.29 2.36,-0.51 0.51,-0.78 0.29,-1.84 -0.49,-2.35 l -1.17,-0.77 c -0.29,-0.19 -0.62,-0.28 -0.95,-0.28 z m -8.11,-5.72 c -0.53,0 -1.05,0.24 -1.38,0.7 -0.55,0.76 -0.38,1.82 0.37,2.38 l 1.15,0.83 c 0.75,0.57 1.82,0.4 2.38,-0.37 0.55,-0.76 0.38,-1.82 -0.37,-2.37 l -1.14,-0.84 c -0.31,-0.22 -0.66,-0.33 -1.01,-0.33 z m -7.87,-6.05 c -0.5,0 -0.99,0.21 -1.33,0.63 -0.58,0.74 -0.47,1.81 0.26,2.4 l 1.09,0.88 c 0.75,0.59 1.82,0.48 2.4,-0.25 0.6,-0.73 0.47,-1.8 -0.24,-2.4 l -1.12,-0.89 c -0.31,-0.25 -0.69,-0.37 -1.06,-0.37 z m -7.58,-6.4 c -0.47,0 -0.94,0.19 -1.27,0.57 -0.63,0.7 -0.56,1.78 0.14,2.4 l 1.09,0.96 c 0.72,0.6 1.79,0.53 2.4,-0.19 0.61,-0.72 0.52,-1.79 -0.19,-2.4 l -1.04,-0.91 c -0.32,-0.29 -0.73,-0.43 -1.13,-0.43 z m -7.29,-6.72 c -0.45,0 -0.9,0.18 -1.24,0.53 -0.64,0.67 -0.62,1.75 0.06,2.4 l 1.02,0.98 c 0.68,0.65 1.76,0.62 2.41,-0.05 0.64,-0.68 0.63,-1.76 -0.06,-2.41 l -1.02,-0.98 c -0.32,-0.31 -0.75,-0.47 -1.17,-0.47 z m -7.02,-7.04 c -0.42,0 -0.84,0.15 -1.16,0.46 -0.68,0.65 -0.73,1.72 -0.08,2.4 l 0.98,1.03 c 0.67,0.69 1.74,0.72 2.4,0.07 0.69,-0.65 0.73,-1.72 0.08,-2.4 l -0.98,-1.03 c -0.34,-0.36 -0.79,-0.53 -1.24,-0.53 z m -6.68,-7.34 c -0.41,0 -0.81,0.14 -1.13,0.42 -0.7,0.62 -0.77,1.7 -0.16,2.41 l 0.94,1.07 c 0.61,0.69 1.71,0.77 2.4,0.15 0.7,-0.62 0.78,-1.69 0.16,-2.4 l -0.94,-1.07 c -0.33,-0.38 -0.81,-0.58 -1.27,-0.58 z m -6.36,-7.62 c -0.36,0 -0.73,0.12 -1.05,0.37 -0.73,0.58 -0.86,1.65 -0.29,2.39 l 0.92,1.13 c 0.6,0.72 1.66,0.82 2.4,0.23 0.72,-0.6 0.83,-1.67 0.22,-2.39 l -0.85,-1.08 c -0.35,-0.43 -0.85,-0.65 -1.35,-0.65 z m -6.03,-7.88 c -0.34,0 -0.69,0.1 -0.99,0.31 -0.77,0.55 -0.95,1.61 -0.38,2.38 l 0.83,1.14 c 0.55,0.76 1.6,0.93 2.36,0.39 0.77,-0.55 0.95,-1.61 0.39,-2.37 l -0.83,-1.15 c -0.33,-0.46 -0.86,-0.7 -1.38,-0.7 z m -5.65,-8.13 c -0.33,0 -0.67,0.09 -0.95,0.28 -0.79,0.53 -0.99,1.59 -0.46,2.37 l 0.75,1.14 c 0.53,0.79 1.58,1.03 2.36,0.51 0.79,-0.5 1.02,-1.55 0.51,-2.35 l -0.81,-1.21 c -0.32,-0.48 -0.86,-0.74 -1.4,-0.74 z m -5.33,-8.38 c -0.3,0 -0.6,0.08 -0.87,0.25 -0.8,0.48 -1.07,1.52 -0.58,2.33 l 0.73,1.21 c 0.49,0.8 1.55,1.05 2.34,0.58 0.8,-0.49 1.06,-1.53 0.57,-2.34 l -0.73,-1.21 c -0.33,-0.52 -0.88,-0.82 -1.46,-0.82 z m -4.95,-8.59 c -0.27,0 -0.55,0.06 -0.81,0.2 -0.82,0.45 -1.13,1.48 -0.68,2.31 l 0.67,1.24 c 0.45,0.83 1.47,1.14 2.31,0.68 0.83,-0.45 1.13,-1.49 0.68,-2.31 l -0.68,-1.23 c -0.29,-0.57 -0.88,-0.89 -1.49,-0.89 z m -4.56,-8.81 c -0.25,0 -0.49,0.05 -0.74,0.17 -0.84,0.41 -1.2,1.42 -0.79,2.27 l 0.65,1.3 c 0.43,0.84 1.47,1.16 2.28,0.74 0.84,-0.43 1.17,-1.45 0.74,-2.29 l -0.6,-1.23 c -0.3,-0.61 -0.91,-0.96 -1.54,-0.96 z m -4.16,-8.99 c -0.22,0 -0.46,0.04 -0.67,0.13 -0.86,0.37 -1.26,1.37 -0.89,2.24 l 0.57,1.32 c 0.4,0.85 1.41,1.23 2.25,0.85 0.86,-0.38 1.24,-1.39 0.86,-2.25 l -0.55,-1.27 c -0.29,-0.64 -0.91,-1.02 -1.57,-1.02 z m -3.77,-9.17 c -0.19,0 -0.4,0.03 -0.6,0.1 -0.88,0.34 -1.32,1.32 -0.99,2.2 l 0.51,1.31 c 0.33,0.88 1.26,1.33 2.19,1 0.88,-0.34 1.33,-1.32 0.99,-2.2 l -0.5,-1.32 c -0.26,-0.68 -0.91,-1.09 -1.6,-1.09 z m -3.37,-9.33 c -0.19,0 -0.36,0.02 -0.53,0.08 -0.89,0.29 -1.38,1.25 -1.1,2.15 l 0.45,1.34 c 0.28,0.9 1.25,1.39 2.15,1.09 0.89,-0.29 1.38,-1.25 1.09,-2.15 l -0.45,-1.34 c -0.23,-0.72 -0.9,-1.17 -1.61,-1.17 z m -2.94,-9.47 c -0.16,0 -0.31,0.02 -0.46,0.07 -0.92,0.24 -1.44,1.19 -1.18,2.09 l 0.39,1.36 c 0.25,0.9 1.26,1.42 2.09,1.17 0.91,-0.25 1.44,-1.19 1.19,-2.1 l -0.4,-1.35 c -0.21,-0.75 -0.89,-1.24 -1.63,-1.24 z m -2.55,-9.58 c -0.13,0 -0.26,0.01 -0.4,0.04 -0.9,0.22 -1.47,1.13 -1.26,2.04 l 0.33,1.41 c 0.24,0.91 1.2,1.47 2.08,1.23 0.91,-0.23 1.46,-1.16 1.22,-2.07 l -0.31,-1.34 c -0.19,-0.79 -0.9,-1.31 -1.66,-1.31 z m -2.12,-9.7 c -0.11,0 -0.21,0.01 -0.32,0.03 -0.93,0.18 -1.53,1.07 -1.35,1.99 l 0.28,1.43 c 0.19,0.92 1.11,1.51 2.01,1.31 0.92,-0.19 1.51,-1.1 1.31,-2.02 l -0.26,-1.35 c -0.16,-0.82 -0.88,-1.39 -1.67,-1.39 z m -1.68,-9.77 c -0.08,0 -0.17,0 -0.25,0.01 -0.93,0.14 -1.57,1 -1.44,1.93 l 0.22,1.44 c 0.15,0.92 0.93,1.63 1.97,1.39 0.92,-0.15 1.55,-1.03 1.39,-1.95 l -0.21,-1.37 c -0.12,-0.85 -0.85,-1.45 -1.68,-1.45 z m -1.28,-9.83 c -0.05,0 -0.11,0 -0.17,0 -0.94,0.1 -1.61,0.94 -1.51,1.87 l 0.14,1.41 c 0.09,0.93 0.95,1.72 1.87,1.51 0.93,-0.09 1.61,-0.93 1.51,-1.87 l -0.14,-1.4 c -0.09,-0.88 -0.83,-1.52 -1.7,-1.52"
         style="fill:#ffffff;fill-opacity:1;fill-rule:nonzero;stroke:none" />
  <path
         id="path768"
         d="m 1833.63,3087.22 c -0.21,0 -0.41,0.03 -0.62,0.11 l -1.31,0.51 c -0.88,0.34 -1.31,1.33 -0.97,2.2 0.33,0.88 1.31,1.32 2.19,0.98 l 1.33,-0.52 c 0.88,-0.34 1.3,-1.33 0.96,-2.2 -0.25,-0.67 -0.89,-1.08 -1.58,-1.08 z m 9.16,-3.82 c -0.24,0 -0.47,0.05 -0.7,0.15 l -1.26,0.55 c -0.86,0.37 -1.27,1.36 -0.9,2.23 0.36,0.87 1.39,1.28 2.23,0.91 l 1.33,-0.58 c 0.85,-0.38 1.23,-1.39 0.85,-2.25 -0.28,-0.63 -0.89,-1.01 -1.55,-1.01 z m 9,-4.2 c -0.26,0 -0.53,0.06 -0.76,0.18 l -1.24,0.62 c -0.86,0.4 -1.22,1.41 -0.81,2.26 0.41,0.84 1.43,1.21 2.27,0.8 l 1.29,-0.63 c 0.84,-0.42 1.19,-1.45 0.77,-2.29 -0.31,-0.59 -0.9,-0.94 -1.52,-0.94 z m 8.8,-4.59 c -0.29,0 -0.58,0.07 -0.84,0.22 l -1.22,0.67 c -0.82,0.45 -1.13,1.49 -0.68,2.31 0.45,0.83 1.48,1.13 2.32,0.68 l 1.25,-0.69 c 0.82,-0.46 1.11,-1.5 0.65,-2.32 -0.32,-0.55 -0.89,-0.87 -1.48,-0.87 z m 8.58,-4.96 c -0.3,0 -0.61,0.08 -0.89,0.25 l -1.2,0.72 c -0.8,0.48 -1.07,1.52 -0.59,2.33 0.49,0.81 1.51,1.09 2.34,0.59 l 1.22,-0.74 c 0.81,-0.49 1.06,-1.54 0.58,-2.34 -0.33,-0.52 -0.88,-0.81 -1.46,-0.81 z m 8.36,-5.34 c -0.33,0 -0.66,0.09 -0.95,0.28 l -1.16,0.77 c -0.79,0.51 -1.01,1.57 -0.5,2.35 0.5,0.79 1.56,1 2.36,0.51 l 1.19,-0.8 c 0.78,-0.53 0.99,-1.59 0.46,-2.37 -0.32,-0.48 -0.85,-0.74 -1.4,-0.74 z m 8.12,-5.72 c -0.35,0 -0.7,0.11 -1,0.33 l -1.15,0.84 c -0.75,0.55 -0.91,1.61 -0.37,2.37 0.56,0.77 1.63,0.94 2.38,0.37 l 1.15,-0.83 c 0.75,-0.56 0.92,-1.62 0.37,-2.38 -0.33,-0.46 -0.85,-0.7 -1.38,-0.7 z m 7.86,-6.05 c -0.37,0 -0.75,0.12 -1.06,0.37 l -1.11,0.89 c -0.72,0.6 -0.84,1.67 -0.25,2.4 0.58,0.73 1.65,0.84 2.4,0.25 l 1.09,-0.88 c 0.73,-0.59 0.84,-1.66 0.26,-2.4 -0.34,-0.42 -0.83,-0.63 -1.33,-0.63 z m 7.58,-6.4 c -0.4,0 -0.81,0.14 -1.13,0.43 l -1.04,0.91 c -0.71,0.61 -0.79,1.68 -0.19,2.4 0.63,0.72 1.69,0.79 2.4,0.19 l 1.09,-0.96 c 0.7,-0.62 0.77,-1.7 0.14,-2.4 -0.33,-0.38 -0.8,-0.57 -1.27,-0.57 z m 7.29,-6.72 c -0.42,0 -0.84,0.16 -1.17,0.47 l -1.02,0.98 c -0.69,0.65 -0.7,1.73 -0.06,2.41 0.63,0.67 1.74,0.7 2.41,0.05 l 1.02,-0.98 c 0.68,-0.65 0.7,-1.73 0.06,-2.4 -0.33,-0.35 -0.78,-0.53 -1.24,-0.53 z m 7.02,-7.04 c -0.45,0 -0.9,0.17 -1.24,0.53 l -0.98,1.03 c -0.64,0.68 -0.6,1.75 0.08,2.4 0.67,0.65 1.74,0.62 2.4,-0.07 l 0.98,-1.03 c 0.65,-0.68 0.61,-1.75 -0.08,-2.4 -0.32,-0.31 -0.74,-0.46 -1.16,-0.46 z m 6.68,-7.34 c -0.46,0 -0.94,0.2 -1.27,0.58 l -0.94,1.07 c -0.62,0.71 -0.54,1.78 0.16,2.4 0.7,0.62 1.79,0.54 2.4,-0.15 l 0.94,-1.07 c 0.61,-0.71 0.55,-1.79 -0.16,-2.41 -0.32,-0.28 -0.72,-0.42 -1.13,-0.42 z m 6.35,-7.62 c -0.49,0 -0.99,0.22 -1.34,0.65 l -0.85,1.08 c -0.61,0.72 -0.5,1.79 0.22,2.39 0.75,0.59 1.81,0.49 2.4,-0.23 l 0.92,-1.13 c 0.57,-0.74 0.44,-1.81 -0.29,-2.39 -0.32,-0.25 -0.69,-0.37 -1.06,-0.37 z m 6.04,-7.88 c -0.52,0 -1.05,0.24 -1.38,0.7 l -0.83,1.15 c -0.55,0.76 -0.38,1.82 0.38,2.37 0.78,0.54 1.83,0.37 2.37,-0.39 l 0.83,-1.14 c 0.57,-0.77 0.39,-1.83 -0.38,-2.38 -0.29,-0.21 -0.65,-0.31 -0.99,-0.31 z m 5.66,-8.13 c -0.55,0 -1.09,0.26 -1.41,0.74 l -0.81,1.21 c -0.51,0.8 -0.28,1.85 0.51,2.35 0.78,0.53 1.83,0.29 2.36,-0.51 l 0.75,-1.14 c 0.53,-0.78 0.32,-1.84 -0.46,-2.37 -0.28,-0.19 -0.61,-0.28 -0.94,-0.28 z m 5.32,-8.38 c -0.58,0 -1.13,0.3 -1.46,0.82 l -0.73,1.21 c -0.49,0.81 -0.22,1.85 0.58,2.34 0.79,0.48 1.83,0.23 2.33,-0.58 l 0.73,-1.21 c 0.49,-0.81 0.23,-1.85 -0.57,-2.33 -0.28,-0.17 -0.58,-0.25 -0.88,-0.25 z m 4.95,-8.59 c -0.61,0 -1.19,0.32 -1.49,0.89 l -0.68,1.23 c -0.45,0.82 -0.14,1.86 0.68,2.31 0.84,0.46 1.85,0.15 2.31,-0.68 l 0.67,-1.24 c 0.45,-0.83 0.14,-1.86 -0.68,-2.31 -0.25,-0.14 -0.54,-0.2 -0.81,-0.2 z m 4.56,-8.81 c -0.63,0 -1.24,0.35 -1.54,0.96 l -0.6,1.23 c -0.43,0.84 -0.1,1.86 0.74,2.29 0.82,0.43 1.85,0.1 2.28,-0.74 l 0.65,-1.3 c 0.41,-0.85 0.05,-1.86 -0.79,-2.27 -0.24,-0.12 -0.49,-0.17 -0.74,-0.17 z m 4.16,-8.99 c -0.66,0 -1.28,0.38 -1.57,1.02 l -0.55,1.27 c -0.38,0.86 0,1.87 0.86,2.25 0.84,0.39 1.85,0.01 2.25,-0.85 l 0.57,-1.32 c 0.37,-0.87 -0.03,-1.87 -0.89,-2.24 -0.21,-0.09 -0.45,-0.13 -0.67,-0.13 z m 3.77,-9.17 c -0.68,0 -1.34,0.41 -1.6,1.09 l -0.5,1.32 c -0.33,0.88 0.11,1.86 0.99,2.2 0.92,0.33 1.86,-0.12 2.19,-1 l 0.51,-1.31 c 0.33,-0.88 -0.1,-1.86 -0.98,-2.2 -0.21,-0.07 -0.41,-0.1 -0.61,-0.1 z m 3.37,-9.33 c -0.71,0 -1.38,0.45 -1.61,1.17 l -0.45,1.34 c -0.28,0.9 0.2,1.86 1.09,2.15 0.87,0.3 1.86,-0.19 2.15,-1.09 l 0.45,-1.34 c 0.28,-0.9 -0.21,-1.86 -1.09,-2.15 -0.18,-0.06 -0.35,-0.08 -0.54,-0.08 z m 2.95,-9.47 c -0.75,0 -1.43,0.49 -1.64,1.24 l -0.4,1.35 c -0.25,0.91 0.28,1.85 1.19,2.1 0.84,0.25 1.85,-0.27 2.1,-1.17 l 0.38,-1.36 c 0.26,-0.9 -0.26,-1.85 -1.17,-2.09 -0.16,-0.05 -0.32,-0.07 -0.46,-0.07 z m 2.54,-9.58 c -0.76,0 -1.47,0.52 -1.66,1.31 l -0.31,1.34 c -0.24,0.91 0.31,1.84 1.22,2.07 0.93,0.23 1.84,-0.32 2.08,-1.23 l 0.34,-1.41 c 0.2,-0.91 -0.37,-1.82 -1.27,-2.04 -0.14,-0.03 -0.27,-0.04 -0.4,-0.04 z m 2.13,-9.7 c -0.8,0 -1.52,0.57 -1.67,1.39 l -0.27,1.35 c -0.19,0.92 0.39,1.83 1.31,2.02 0.89,0.19 1.83,-0.4 2.01,-1.31 l 0.29,-1.43 c 0.17,-0.92 -0.43,-1.81 -1.36,-1.99 -0.11,-0.02 -0.21,-0.03 -0.31,-0.03 z m 1.67,-9.77 c -0.83,0 -1.56,0.6 -1.67,1.45 l -0.22,1.37 c -0.16,0.92 0.47,1.8 1.39,1.95 1.04,0.2 1.82,-0.47 1.97,-1.39 l 0.22,-1.44 c 0.13,-0.93 -0.52,-1.79 -1.44,-1.93 -0.08,-0.01 -0.17,-0.01 -0.25,-0.01 z m 1.28,-9.83 c -0.87,0 -1.61,0.64 -1.7,1.52 l -0.14,1.4 c -0.1,0.94 0.58,1.78 1.51,1.87 0.93,0.2 1.77,-0.58 1.87,-1.51 l 0.14,-1.41 c 0.1,-0.93 -0.57,-1.77 -1.51,-1.87 -0.06,0 -0.12,0 -0.17,0"
         style="fill:#ffffff;fill-opacity:1;fill-rule:nonzero;stroke:none" />
  <path
         id="path769"
         d="m 1492.71,2736.93 c -5.05,-60.22 12.36,-119.55 49.24,-167.51 36.89,-47.95 89.77,-79.99 149.29,-90.55 z m 206.48,-262.81 -4.22,0.67 c -62.11,9.9 -117.42,42.77 -155.72,92.56 -38.29,49.79 -55.88,111.66 -49.54,174.23 l 0.43,4.25 209.05,-271.71"
         style="fill:#ffffff;fill-opacity:1;fill-rule:nonzero;stroke:none" />
  <path
         id="path770"
         d="m 2000.41,2736.93 -198.53,-258.06 c 59.5,10.56 112.38,42.6 149.28,90.55 36.89,47.96 54.3,107.29 49.25,167.51 z m -206.49,-262.81 209.04,271.71 0.44,-4.25 c 6.35,-62.57 -11.25,-124.44 -49.54,-174.23 -38.31,-49.79 -93.61,-82.66 -155.72,-92.56 l -4.22,-0.67"
         style="fill:#ffffff;fill-opacity:1;fill-rule:nonzero;stroke:none" />
  <path
         id="path771"
         d="m 1518.95,2695.17 c -0.86,0 -1.61,0.65 -1.7,1.52 l -0.14,1.41 c -0.1,0.93 0.57,1.77 1.51,1.86 0.89,0.19 1.77,-0.58 1.87,-1.51 l 0.14,-1.41 c 0.1,-0.93 -0.58,-1.77 -1.51,-1.86 -0.06,-0.01 -0.12,-0.01 -0.17,-0.01 z m 1.33,-9.83 c -0.82,0 -1.53,0.58 -1.68,1.41 l -0.22,1.44 c -0.13,0.93 0.51,1.8 1.44,1.93 0.86,0.13 1.8,-0.51 1.93,-1.44 l 0.21,-1.36 c 0.16,-0.93 -0.47,-1.81 -1.39,-1.96 -0.11,-0.02 -0.2,-0.02 -0.29,-0.02 z m 1.74,-9.77 c -0.79,0 -1.49,0.55 -1.66,1.35 l -0.28,1.42 c -0.18,0.93 0.42,1.82 1.35,1.99 0.9,0.16 1.81,-0.42 1.99,-1.35 l 0.26,-1.36 c 0.2,-0.92 -0.39,-1.82 -1.31,-2.01 -0.12,-0.03 -0.24,-0.04 -0.35,-0.04 z m 2.18,-9.67 c -0.77,0 -1.46,0.51 -1.66,1.28 l -0.33,1.41 c -0.22,0.91 0.36,1.83 1.26,2.04 1,0.18 1.84,-0.36 2.06,-1.27 l 0.31,-1.34 c 0.24,-0.91 -0.31,-1.84 -1.22,-2.07 -0.14,-0.04 -0.28,-0.05 -0.42,-0.05 z m 2.6,-9.57 c -0.74,0 -1.42,0.49 -1.63,1.23 l -0.39,1.37 c -0.26,0.9 0.26,1.84 1.18,2.09 0.94,0.29 1.83,-0.28 2.09,-1.18 l 0.4,-1.35 c 0.25,-0.9 -0.28,-1.84 -1.19,-2.1 -0.14,-0.04 -0.3,-0.06 -0.46,-0.06 z m 3,-9.46 c -0.71,0 -1.38,0.46 -1.62,1.18 l -0.45,1.34 c -0.28,0.89 0.21,1.86 1.1,2.14 0.88,0.31 1.85,-0.19 2.14,-1.09 l 0.45,-1.34 c 0.29,-0.89 -0.2,-1.85 -1.09,-2.14 -0.17,-0.06 -0.35,-0.09 -0.53,-0.09 z m 3.44,-9.3 c -0.69,0 -1.34,0.41 -1.59,1.1 l -0.51,1.32 c -0.33,0.87 0.11,1.86 0.99,2.19 0.92,0.32 1.87,-0.11 2.2,-0.99 l 0.5,-1.32 c 0.34,-0.88 -0.11,-1.86 -0.99,-2.19 -0.2,-0.08 -0.41,-0.11 -0.6,-0.11 z m 3.83,-9.15 c -0.65,0 -1.27,0.37 -1.56,1 l -0.57,1.32 c -0.37,0.87 0.03,1.87 0.89,2.24 0.84,0.36 1.85,-0.02 2.24,-0.89 l 0.55,-1.27 c 0.38,-0.86 0,-1.86 -0.86,-2.25 -0.22,-0.1 -0.46,-0.15 -0.69,-0.15 z m 4.22,-8.97 c -0.61,0 -1.2,0.34 -1.5,0.93 l -0.65,1.3 c -0.41,0.85 -0.05,1.86 0.79,2.28 0.85,0.39 1.87,0.06 2.28,-0.8 l 0.6,-1.23 c 0.43,-0.84 0.1,-1.86 -0.74,-2.29 -0.24,-0.13 -0.51,-0.19 -0.78,-0.19 z m 4.62,-8.77 c -0.6,0 -1.19,0.32 -1.5,0.88 l -0.67,1.25 c -0.45,0.82 -0.14,1.86 0.68,2.3 0.81,0.47 1.87,0.14 2.3,-0.68 l 0.68,-1.24 c 0.45,-0.82 0.14,-1.85 -0.68,-2.31 -0.26,-0.14 -0.54,-0.2 -0.81,-0.2 z m 5,-8.57 c -0.58,0 -1.13,0.3 -1.46,0.82 l -0.73,1.22 c -0.49,0.8 -0.22,1.85 0.58,2.33 0.79,0.48 1.83,0.23 2.33,-0.58 l 0.73,-1.21 c 0.49,-0.8 0.23,-1.85 -0.57,-2.33 -0.28,-0.17 -0.58,-0.25 -0.88,-0.25 z m 5.37,-8.33 c -0.56,0 -1.11,0.27 -1.44,0.78 l -0.75,1.14 c -0.53,0.78 -0.33,1.84 0.46,2.37 0.74,0.52 1.83,0.33 2.35,-0.46 l 0.81,-1.21 c 0.51,-0.79 0.28,-1.84 -0.51,-2.35 -0.29,-0.19 -0.61,-0.27 -0.92,-0.27 z m 5.7,-8.1 c -0.52,0 -1.05,0.25 -1.37,0.71 l -0.83,1.14 c -0.57,0.77 -0.39,1.83 0.38,2.38 0.76,0.54 1.82,0.37 2.37,-0.39 l 0.83,-1.15 c 0.56,-0.76 0.38,-1.82 -0.39,-2.37 -0.3,-0.21 -0.65,-0.32 -0.99,-0.32 z m 6.1,-7.85 c -0.49,0 -0.99,0.21 -1.32,0.61 l -0.92,1.14 c -0.57,0.74 -0.44,1.81 0.29,2.39 0.75,0.57 1.79,0.46 2.4,-0.28 l 0.85,-1.08 c 0.61,-0.72 0.5,-1.8 -0.22,-2.39 -0.32,-0.27 -0.7,-0.39 -1.08,-0.39 z m 6.39,-7.59 c -0.47,0 -0.94,0.2 -1.28,0.58 l -0.94,1.07 c -0.61,0.71 -0.54,1.78 0.16,2.4 0.7,0.61 1.79,0.55 2.4,-0.15 l 0.94,-1.07 c 0.62,-0.71 0.54,-1.79 -0.16,-2.41 -0.32,-0.28 -0.72,-0.42 -1.12,-0.42 z m 6.73,-7.29 c -0.45,0 -0.9,0.18 -1.24,0.54 l -0.98,1.02 c -0.65,0.69 -0.6,1.76 0.08,2.4 0.66,0.65 1.74,0.62 2.4,-0.06 l 0.98,-1.03 c 0.65,-0.68 0.61,-1.76 -0.08,-2.4 -0.32,-0.31 -0.74,-0.47 -1.16,-0.47 z m 7.06,-6.99 c -0.42,0 -0.85,0.15 -1.18,0.47 l -1.02,0.98 c -0.68,0.65 -0.7,1.73 -0.06,2.4 0.64,0.67 1.74,0.7 2.41,0.06 l 1.02,-0.98 c 0.69,-0.65 0.7,-1.73 0.06,-2.41 -0.33,-0.35 -0.78,-0.52 -1.23,-0.52 z m 7.33,-6.68 c -0.38,0 -0.78,0.13 -1.1,0.41 l -1.09,0.95 c -0.7,0.62 -0.77,1.7 -0.14,2.4 0.62,0.71 1.7,0.77 2.4,0.14 l 1.04,-0.9 c 0.71,-0.61 0.8,-1.68 0.19,-2.4 -0.34,-0.4 -0.82,-0.6 -1.3,-0.6 z m 7.62,-6.36 c -0.38,0 -0.75,0.13 -1.08,0.38 l -1.09,0.88 c -0.73,0.6 -0.84,1.66 -0.26,2.4 0.6,0.72 1.67,0.84 2.39,0.26 l 1.12,-0.89 c 0.71,-0.6 0.84,-1.67 0.24,-2.4 -0.33,-0.41 -0.82,-0.63 -1.32,-0.63 z m 7.91,-5.99 c -0.35,0 -0.7,0.1 -1,0.33 l -1.15,0.83 c -0.75,0.55 -0.92,1.62 -0.37,2.38 0.55,0.76 1.63,0.93 2.39,0.36 l 1.14,-0.83 c 0.75,-0.55 0.92,-1.62 0.37,-2.38 -0.33,-0.45 -0.85,-0.69 -1.38,-0.69 z m 8.16,-5.67 c -0.32,0 -0.64,0.09 -0.94,0.27 l -1.19,0.81 c -0.78,0.53 -0.99,1.58 -0.46,2.36 0.52,0.78 1.6,0.97 2.35,0.46 l 1.17,-0.77 c 0.78,-0.51 1,-1.56 0.49,-2.35 -0.32,-0.5 -0.87,-0.78 -1.42,-0.78 z m 8.39,-5.28 c -0.3,0 -0.6,0.07 -0.87,0.24 l -1.23,0.74 c -0.81,0.49 -1.06,1.54 -0.57,2.34 0.5,0.79 1.53,1.05 2.34,0.56 l 1.2,-0.72 c 0.8,-0.48 1.07,-1.52 0.59,-2.33 -0.33,-0.54 -0.89,-0.83 -1.46,-0.83 z m 8.62,-4.92 c -0.28,0 -0.56,0.07 -0.83,0.21 l -1.25,0.69 c -0.81,0.46 -1.1,1.49 -0.65,2.31 0.46,0.82 1.51,1.12 2.32,0.66 l 1.23,-0.67 c 0.81,-0.46 1.12,-1.49 0.67,-2.31 -0.31,-0.57 -0.9,-0.89 -1.49,-0.89 z m 8.82,-4.53 c -0.25,0 -0.5,0.05 -0.73,0.16 l -1.3,0.64 c -0.84,0.42 -1.19,1.44 -0.77,2.28 0.43,0.85 1.43,1.2 2.28,0.77 l 1.24,-0.62 c 0.86,-0.4 1.22,-1.42 0.81,-2.26 -0.3,-0.62 -0.9,-0.97 -1.53,-0.97 z m 9.01,-4.14 c -0.23,0 -0.45,0.04 -0.66,0.13 l -1.33,0.58 c -0.87,0.38 -1.25,1.38 -0.87,2.24 0.39,0.87 1.4,1.26 2.25,0.87 l 1.28,-0.56 c 0.85,-0.36 1.26,-1.36 0.89,-2.22 -0.27,-0.65 -0.89,-1.04 -1.56,-1.04 z m 9.2,-3.76 c -0.2,0 -0.41,0.03 -0.61,0.11 l -1.33,0.51 c -0.88,0.34 -1.3,1.33 -0.96,2.21 0.33,0.87 1.3,1.31 2.2,0.97 l 1.31,-0.52 c 0.88,-0.34 1.31,-1.32 0.97,-2.2 -0.25,-0.67 -0.9,-1.08 -1.58,-1.08"
         style="fill:#ffffff;fill-opacity:1;fill-rule:nonzero;stroke:none" />
  <path
         id="path772"
         d="m 1976.67,2695.17 c -0.05,0 -0.11,0 -0.17,0.01 -0.93,0.09 -1.61,0.93 -1.51,1.86 l 0.14,1.41 c 0.1,0.93 0.91,1.71 1.87,1.51 0.94,-0.09 1.61,-0.93 1.51,-1.86 l -0.14,-1.41 c -0.09,-0.87 -0.83,-1.52 -1.7,-1.52 z m -1.33,-9.83 c -0.09,0 -0.18,0 -0.29,0.02 -0.92,0.15 -1.55,1.03 -1.39,1.96 l 0.22,1.36 c 0.12,0.93 1.03,1.55 1.92,1.44 0.92,-0.13 1.57,-1 1.44,-1.93 l -0.22,-1.44 c -0.14,-0.83 -0.86,-1.41 -1.68,-1.41 z m -1.74,-9.77 c -0.11,0 -0.23,0.01 -0.35,0.04 -0.92,0.19 -1.5,1.09 -1.31,2.01 l 0.27,1.36 c 0.17,0.93 1.08,1.52 1.98,1.35 0.93,-0.17 1.53,-1.06 1.36,-1.99 l -0.29,-1.42 c -0.17,-0.8 -0.87,-1.35 -1.66,-1.35 z m -2.18,-9.67 c -0.13,0 -0.28,0.01 -0.42,0.05 -0.91,0.23 -1.46,1.16 -1.22,2.07 l 0.31,1.34 c 0.22,0.91 1.1,1.45 2.06,1.27 0.9,-0.21 1.47,-1.13 1.27,-2.04 l -0.34,-1.41 c -0.2,-0.77 -0.9,-1.28 -1.66,-1.28 z m -2.6,-9.57 c -0.16,0 -0.32,0.02 -0.46,0.06 -0.91,0.26 -1.44,1.2 -1.19,2.1 l 0.4,1.35 c 0.25,0.9 1.15,1.47 2.1,1.18 0.91,-0.25 1.43,-1.19 1.17,-2.09 l -0.38,-1.37 c -0.22,-0.74 -0.9,-1.23 -1.64,-1.23 z m -3,-9.46 c -0.18,0 -0.36,0.03 -0.53,0.09 -0.89,0.29 -1.37,1.25 -1.09,2.14 l 0.45,1.34 c 0.29,0.9 1.23,1.4 2.15,1.09 0.88,-0.28 1.37,-1.25 1.09,-2.14 l -0.45,-1.34 c -0.23,-0.72 -0.91,-1.18 -1.62,-1.18 z m -3.44,-9.3 c -0.2,0 -0.4,0.03 -0.6,0.11 -0.88,0.33 -1.32,1.31 -0.99,2.19 l 0.5,1.32 c 0.33,0.88 1.28,1.31 2.21,0.99 0.88,-0.33 1.31,-1.32 0.98,-2.19 l -0.51,-1.32 c -0.25,-0.69 -0.9,-1.1 -1.59,-1.1 z m -3.83,-9.15 c -0.23,0 -0.46,0.05 -0.69,0.15 -0.86,0.39 -1.24,1.39 -0.86,2.25 l 0.55,1.27 c 0.39,0.86 1.41,1.24 2.24,0.89 0.86,-0.37 1.26,-1.37 0.89,-2.24 l -0.57,-1.32 c -0.29,-0.63 -0.91,-1 -1.56,-1 z m -4.22,-8.97 c -0.27,0 -0.54,0.06 -0.78,0.19 -0.84,0.43 -1.17,1.45 -0.74,2.29 l 0.61,1.23 c 0.41,0.86 1.4,1.19 2.27,0.8 0.84,-0.42 1.2,-1.43 0.79,-2.28 l -0.65,-1.3 c -0.29,-0.59 -0.89,-0.93 -1.5,-0.93 z m -4.62,-8.77 c -0.27,0 -0.55,0.06 -0.82,0.2 -0.81,0.46 -1.12,1.49 -0.67,2.31 l 0.67,1.24 c 0.45,0.83 1.48,1.15 2.31,0.68 0.82,-0.44 1.13,-1.48 0.68,-2.3 l -0.67,-1.25 c -0.31,-0.56 -0.9,-0.88 -1.5,-0.88 z m -5,-8.57 c -0.3,0 -0.6,0.08 -0.87,0.25 -0.8,0.48 -1.07,1.53 -0.58,2.33 l 0.73,1.21 c 0.49,0.81 1.56,1.06 2.34,0.58 0.8,-0.48 1.06,-1.53 0.57,-2.33 l -0.73,-1.22 c -0.33,-0.52 -0.88,-0.82 -1.46,-0.82 z m -5.37,-8.33 c -0.31,0 -0.63,0.08 -0.92,0.27 -0.79,0.51 -1.02,1.56 -0.51,2.35 l 0.81,1.21 c 0.52,0.78 1.61,0.96 2.35,0.46 0.78,-0.53 0.99,-1.59 0.46,-2.37 l -0.75,-1.14 c -0.33,-0.51 -0.88,-0.78 -1.44,-0.78 z m -5.7,-8.1 c -0.34,0 -0.69,0.11 -1,0.32 -0.76,0.55 -0.93,1.61 -0.38,2.37 l 0.83,1.15 c 0.55,0.76 1.61,0.93 2.37,0.39 0.77,-0.55 0.95,-1.61 0.38,-2.38 l -0.83,-1.14 c -0.33,-0.46 -0.84,-0.71 -1.37,-0.71 z m -6.1,-7.85 c -0.37,0 -0.75,0.12 -1.08,0.39 -0.72,0.59 -0.83,1.67 -0.22,2.39 l 0.85,1.08 c 0.61,0.74 1.66,0.86 2.4,0.28 0.73,-0.58 0.86,-1.65 0.29,-2.39 l -0.92,-1.14 c -0.33,-0.4 -0.82,-0.61 -1.32,-0.61 z m -6.39,-7.59 c -0.4,0 -0.8,0.14 -1.12,0.42 -0.7,0.62 -0.78,1.7 -0.16,2.41 l 0.94,1.07 c 0.61,0.7 1.7,0.76 2.4,0.15 0.71,-0.62 0.77,-1.69 0.16,-2.4 l -0.94,-1.07 c -0.34,-0.38 -0.81,-0.58 -1.28,-0.58 z m -6.73,-7.29 c -0.42,0 -0.84,0.16 -1.16,0.47 -0.68,0.64 -0.72,1.72 -0.08,2.4 l 0.98,1.03 c 0.65,0.68 1.72,0.71 2.4,0.06 0.69,-0.64 0.73,-1.71 0.08,-2.4 l -0.98,-1.02 c -0.34,-0.36 -0.79,-0.54 -1.24,-0.54 z m -7.06,-6.99 c -0.45,0 -0.9,0.17 -1.23,0.52 -0.64,0.68 -0.63,1.76 0.06,2.41 l 1.02,0.98 c 0.68,0.64 1.77,0.61 2.41,-0.06 0.64,-0.67 0.62,-1.75 -0.06,-2.4 l -1.02,-0.98 c -0.33,-0.32 -0.76,-0.47 -1.18,-0.47 z m -7.33,-6.68 c -0.48,0 -0.96,0.2 -1.3,0.6 -0.6,0.72 -0.52,1.79 0.19,2.4 l 1.04,0.9 c 0.69,0.63 1.79,0.57 2.4,-0.14 0.63,-0.7 0.56,-1.78 -0.14,-2.4 l -1.09,-0.95 c -0.32,-0.28 -0.71,-0.41 -1.1,-0.41 z m -7.62,-6.36 c -0.5,0 -0.99,0.22 -1.32,0.63 -0.59,0.73 -0.47,1.8 0.25,2.4 l 1.11,0.89 c 0.74,0.57 1.8,0.46 2.39,-0.26 0.58,-0.74 0.47,-1.8 -0.26,-2.4 l -1.09,-0.88 c -0.33,-0.25 -0.7,-0.38 -1.08,-0.38 z m -7.91,-5.99 c -0.53,0 -1.04,0.24 -1.37,0.69 -0.55,0.76 -0.39,1.83 0.37,2.38 l 1.13,0.83 c 0.76,0.58 1.83,0.4 2.39,-0.36 0.55,-0.76 0.38,-1.83 -0.37,-2.38 l -1.15,-0.83 c -0.29,-0.23 -0.65,-0.33 -1,-0.33 z m -8.16,-5.67 c -0.55,0 -1.1,0.28 -1.42,0.78 -0.51,0.79 -0.29,1.84 0.5,2.35 l 1.16,0.77 c 0.74,0.52 1.83,0.33 2.35,-0.46 0.53,-0.78 0.32,-1.83 -0.46,-2.36 l -1.19,-0.81 c -0.3,-0.18 -0.61,-0.27 -0.94,-0.27 z m -8.38,-5.28 c -0.58,0 -1.14,0.29 -1.47,0.83 -0.48,0.81 -0.21,1.85 0.59,2.33 l 1.2,0.72 c 0.82,0.5 1.85,0.24 2.35,-0.56 0.48,-0.8 0.23,-1.85 -0.58,-2.34 l -1.22,-0.74 c -0.28,-0.17 -0.58,-0.24 -0.87,-0.24 z m -8.62,-4.91 c -0.59,0 -1.18,0.32 -1.49,0.88 -0.45,0.82 -0.14,1.86 0.68,2.31 l 1.22,0.67 c 0.82,0.46 1.86,0.17 2.32,-0.65 0.46,-0.82 0.17,-1.86 -0.65,-2.32 l -1.25,-0.69 c -0.27,-0.14 -0.55,-0.2 -0.83,-0.2 z m -8.83,-4.54 c -0.63,0 -1.23,0.35 -1.53,0.97 -0.41,0.84 -0.05,1.86 0.81,2.26 l 1.24,0.62 c 0.83,0.43 1.85,0.08 2.28,-0.77 0.42,-0.84 0.07,-1.86 -0.77,-2.28 l -1.29,-0.64 c -0.24,-0.11 -0.49,-0.16 -0.74,-0.16 z m -9.02,-4.14 c -0.66,0 -1.28,0.39 -1.56,1.04 -0.37,0.86 0.04,1.86 0.9,2.22 l 1.26,0.56 c 0.85,0.39 1.87,0 2.25,-0.87 0.38,-0.86 0,-1.86 -0.85,-2.24 l -1.33,-0.58 c -0.22,-0.09 -0.45,-0.13 -0.67,-0.13 z m -9.18,-3.75 c -0.68,0 -1.32,0.41 -1.58,1.08 -0.34,0.88 0.09,1.86 0.97,2.2 l 1.31,0.52 c 0.88,0.33 1.87,-0.1 2.2,-0.98 0.34,-0.87 -0.08,-1.86 -0.96,-2.2 l -1.33,-0.51 c -0.2,-0.08 -0.41,-0.11 -0.61,-0.11"
         style="fill:#ffffff;fill-opacity:1;fill-rule:nonzero;stroke:none" />
  <path
         id="path773"
         d="m 1753.65,3242.57 c 0,-3.88 -3.15,-7.04 -7.04,-7.04 -3.89,0 -7.03,3.16 -7.03,7.04 0,3.89 3.14,7.04 7.03,7.04 3.89,0 7.04,-3.15 7.04,-7.04"
         style="fill:#ffffff;fill-opacity:1;fill-rule:nonzero;stroke:none" />
  <path
         id="path774"
         d="m 1753.65,2361.03 c 0,-3.89 -3.15,-7.04 -7.04,-7.04 -3.89,0 -7.03,3.15 -7.03,7.04 0,3.89 3.14,7.04 7.03,7.04 3.89,0 7.04,-3.15 7.04,-7.04"
         style="fill:#ffffff;fill-opacity:1;fill-rule:nonzero;stroke:none" />
  <path
         id="path775"
         d="m 1394.91,2800.24 c 0,-3.88 -3.15,-7.03 -7.04,-7.03 -3.89,0 -7.04,3.15 -7.04,7.03 0,3.89 3.15,7.05 7.04,7.05 3.89,0 7.04,-3.16 7.04,-7.05"
         style="fill:#ffffff;fill-opacity:1;fill-rule:nonzero;stroke:none" />
  <path
         id="path776"
         d="m 2112.39,2800.24 c 0,-3.88 -3.15,-7.03 -7.04,-7.03 -3.89,0 -7.03,3.15 -7.03,7.03 0,3.89 3.14,7.05 7.03,7.05 3.89,0 7.04,-3.16 7.04,-7.05"
         style="fill:#ffffff;fill-opacity:1;fill-rule:nonzero;stroke:none" />
  <path
         id="path777"
         d="m 1464.9,2800.24 281.71,-364.66 281.72,364.66 -281.72,364.67 z m 281.71,-370.23 -286,370.23 0.8,1.04 285.2,369.2 286.02,-370.24 -0.8,-1.04 -285.22,-369.19"
         style="fill:#ffffff;fill-opacity:1;fill-rule:nonzero;stroke:none" />
  <path
         id="path778"
         d="m 1452.37,2800.24 294.24,-380.87 294.23,380.87 -294.23,380.88 z m 294.24,-397.1 -306.78,397.1 306.78,397.11 306.77,-397.11 -306.77,-397.1"
         style="fill:#ffffff;fill-opacity:1;fill-rule:nonzero;stroke:none" />
  <path
         id="path779"
         d="m 1496.42,2756.59 -2.72,2.05 281.17,371.75 2.72,-2.05 -281.17,-371.75"
         style="fill:#ffffff;fill-opacity:1;fill-rule:nonzero;stroke:none" />
  <path
         id="path780"
         d="m 1528.2,2714.58 -2.71,2.06 281.16,371.75 2.72,-2.05 -281.17,-371.76"
         style="fill:#ffffff;fill-opacity:1;fill-rule:nonzero;stroke:none" />
  <path
         id="path781"
         d="m 1559.98,2672.58 -2.72,2.05 281.17,371.76 2.72,-2.05 -281.17,-371.76"
         style="fill:#ffffff;fill-opacity:1;fill-rule:nonzero;stroke:none" />
  <path
         id="path782"
         d="m 1593.03,2632.25 -2.72,2.05 281.17,371.75 2.72,-2.05 -281.17,-371.75"
         style="fill:#ffffff;fill-opacity:1;fill-rule:nonzero;stroke:none" />
  <path
         id="path783"
         d="m 1625.17,2590.72 -2.71,2.05 280.13,370.39 2.72,-2.05 -280.14,-370.39"
         style="fill:#ffffff;fill-opacity:1;fill-rule:nonzero;stroke:none" />
  <path
         id="path784"
         d="m 1657.29,2549.16 -2.72,2.05 280.85,371.34 2.72,-2.05 -280.85,-371.34"
         style="fill:#ffffff;fill-opacity:1;fill-rule:nonzero;stroke:none" />
  <path
         id="path785"
         d="m 1689.4,2507.59 -2.71,2.05 280.85,371.34 2.72,-2.05 -280.86,-371.34"
         style="fill:#ffffff;fill-opacity:1;fill-rule:nonzero;stroke:none" />
  <path
         id="path786"
         d="m 1721.51,2466.02 -2.72,2.05 280.87,371.34 2.71,-2.05 -280.86,-371.34"
         style="fill:#ffffff;fill-opacity:1;fill-rule:nonzero;stroke:none" />
  <path
         id="path787"
         d="m 1994.63,2756.59 -280.09,370.32 2.71,2.05 280.1,-370.32 -2.72,-2.05"
         style="fill:#ffffff;fill-opacity:1;fill-rule:nonzero;stroke:none" />
  <path
         id="path788"
         d="m 1962.85,2714.58 -281.18,371.76 2.72,2.05 281.18,-371.75 -2.72,-2.06"
         style="fill:#ffffff;fill-opacity:1;fill-rule:nonzero;stroke:none" />
  <path
         id="path789"
         d="m 1931.06,2672.58 -281.16,371.76 2.72,2.05 281.16,-371.76 -2.72,-2.05"
         style="fill:#ffffff;fill-opacity:1;fill-rule:nonzero;stroke:none" />
  <path
         id="path790"
         d="m 1899.06,2630.87 -280.86,371.34 2.72,2.05 280.86,-371.34 -2.72,-2.05"
         style="fill:#ffffff;fill-opacity:1;fill-rule:nonzero;stroke:none" />
  <path
         id="path791"
         d="m 1866.95,2589.3 -281.21,371.81 2.72,2.05 281.21,-371.81 -2.72,-2.05"
         style="fill:#ffffff;fill-opacity:1;fill-rule:nonzero;stroke:none" />
  <path
         id="path792"
         d="m 1834.84,2547.73 -280.86,371.35 2.72,2.05 280.85,-371.34 -2.71,-2.06"
         style="fill:#ffffff;fill-opacity:1;fill-rule:nonzero;stroke:none" />
  <path
         id="path793"
         d="m 1802.72,2506.17 -280.25,370.54 2.71,2.05 280.26,-370.54 -2.72,-2.05"
         style="fill:#ffffff;fill-opacity:1;fill-rule:nonzero;stroke:none" />
  <path
         id="path794"
         d="m 1770.62,2464.59 -280.87,371.35 2.72,2.05 280.86,-371.34 -2.71,-2.06"
         style="fill:#ffffff;fill-opacity:1;fill-rule:nonzero;stroke:none" />
  <path
         id="path795"
         d="m 1746.61,2936.35 c -75.05,0 -136.11,-61.06 -136.11,-136.11 0,-75.04 61.06,-136.09 136.11,-136.09 75.05,0 136.1,61.05 136.1,136.09 0,75.05 -61.05,136.11 -136.1,136.11 z m 0,-282.13 c -80.52,0 -146.02,65.51 -146.02,146.02 0,80.52 65.5,146.03 146.02,146.03 80.52,0 146.02,-65.51 146.02,-146.03 0,-80.51 -65.5,-146.02 -146.02,-146.02"
         style="fill:#ffffff;fill-opacity:1;fill-rule:nonzero;stroke:none" />
  <path
         id="path796"
         d="m 1762.22,2794.5 c 0,-8.62 -6.99,-15.6 -15.61,-15.6 -8.62,0 -15.61,6.98 -15.61,15.6 0,8.62 6.99,15.61 15.61,15.61 8.62,0 15.61,-6.99 15.61,-15.61"
         style="fill:#ffffff;fill-opacity:1;fill-rule:nonzero;stroke:none" />
  <path
         id="path797"
         d="m 1746.61,3240.87 c -40.36,0 -73.18,-32.82 -73.18,-73.17 0,-40.36 32.82,-73.18 73.18,-73.18 40.35,0 73.18,32.82 73.18,73.18 0,40.35 -32.83,73.17 -73.18,73.17 z m 0,-149.75 c -42.23,0 -76.57,34.35 -76.57,76.58 0,42.22 34.34,76.57 76.57,76.57 42.23,0 76.58,-34.35 76.58,-76.57 0,-42.23 -34.35,-76.58 -76.58,-76.58"
         style="fill:#ffffff;fill-opacity:1;fill-rule:nonzero;stroke:none" />
  <path
         id="path798"
         d="m 1746.61,2509.09 c -40.36,0 -73.18,-32.83 -73.18,-73.18 0,-40.35 32.82,-73.18 73.18,-73.18 40.35,0 73.18,32.83 73.18,73.18 0,40.35 -32.83,73.18 -73.18,73.18 z m 0,-149.75 c -42.23,0 -76.57,34.35 -76.57,76.57 0,42.22 34.34,76.58 76.57,76.58 42.23,0 76.58,-34.36 76.58,-76.58 0,-42.22 -34.35,-76.57 -76.58,-76.57"
         style="fill:#ffffff;fill-opacity:1;fill-rule:nonzero;stroke:none" />
  <path
         id="path799"
         d="m 1462.75,2873.42 c -40.35,0 -73.18,-32.82 -73.18,-73.18 0,-40.34 32.83,-73.17 73.18,-73.17 40.36,0 73.17,32.83 73.17,73.17 0,40.36 -32.81,73.18 -73.17,73.18 z m 0,-149.75 c -42.22,0 -76.58,34.35 -76.58,76.57 0,42.23 34.36,76.58 76.58,76.58 42.23,0 76.58,-34.35 76.58,-76.58 0,-42.22 -34.35,-76.57 -76.58,-76.57"
         style="fill:#ffffff;fill-opacity:1;fill-rule:nonzero;stroke:none" />
  <path
         id="path800"
         d="m 2030.47,2873.42 c -40.34,0 -73.17,-32.82 -73.17,-73.18 0,-40.34 32.83,-73.17 73.17,-73.17 40.36,0 73.18,32.83 73.18,73.17 0,40.36 -32.82,73.18 -73.18,73.18 z m 0,-149.75 c -42.22,0 -76.56,34.35 -76.56,76.57 0,42.23 34.34,76.58 76.56,76.58 42.24,0 76.58,-34.35 76.58,-76.58 0,-42.22 -34.34,-76.57 -76.58,-76.57"
         style="fill:#ffffff;fill-opacity:1;fill-rule:nonzero;stroke:none" />
  <path
         id="path801"
         d="m 1748.31,2368.07 h -3.4 v 43.18 h 3.4 v -43.18"
         style="fill:#ffffff;fill-opacity:1;fill-rule:nonzero;stroke:none" />
  <path
         id="path802"
         d="m 1446.1,2798.54 h -58.23 v 3.4 h 58.23 v -3.4"
         style="fill:#ffffff;fill-opacity:1;fill-rule:nonzero;stroke:none" />
  <path
         id="path803"
         d="m 2105.35,2798.54 h -58.23 v 3.4 h 58.23 v -3.4"
         style="fill:#ffffff;fill-opacity:1;fill-rule:nonzero;stroke:none" />
  <path
         id="path804"
         d="m 1748.31,3185.1 -43.64,44.18 2.42,2.39 37.82,-38.29 v 42.16 h 3.4 v -50.44"
         style="fill:#ffffff;fill-opacity:1;fill-rule:nonzero;stroke:none" />
  <path
         id="path805"
         d="m 1747.15,3188.7 -2.4,2.4 40.88,40.89 2.41,-2.41 -40.89,-40.88"
         style="fill:#ffffff;fill-opacity:1;fill-rule:nonzero;stroke:none" />
  <path
         id="path806"
         d="m 1401.24,2759.02 -2.38,2.42 41.23,40.73 2.38,-2.42 -41.23,-40.73"
         style="fill:#ffffff;fill-opacity:1;fill-rule:nonzero;stroke:none" />
  <path
         id="path807"
         d="m 1439.41,2799.09 -40.87,40.89 2.39,2.4 40.89,-40.89 -2.41,-2.4"
         style="fill:#ffffff;fill-opacity:1;fill-rule:nonzero;stroke:none" />
  <path
         id="path808"
         d="m 2091.99,2759.02 -41.24,40.73 2.38,2.42 41.25,-40.73 -2.39,-2.42"
         style="fill:#ffffff;fill-opacity:1;fill-rule:nonzero;stroke:none" />
  <path
         id="path809"
         d="m 2053.8,2799.09 -2.39,2.4 40.88,40.89 2.41,-2.4 -40.9,-40.89"
         style="fill:#ffffff;fill-opacity:1;fill-rule:nonzero;stroke:none" />
  <path
         id="path810"
         d="m 1748.31,2366.51 h -3.4 v 42.16 l -37.82,-38.29 -2.42,2.39 43.64,44.18 v -50.44"
         style="fill:#ffffff;fill-opacity:1;fill-rule:nonzero;stroke:none" />
  <path
         id="path811"
         d="m 1785.63,2370.06 -40.88,40.89 2.4,2.4 40.89,-40.88 -2.41,-2.41"
         style="fill:#ffffff;fill-opacity:1;fill-rule:nonzero;stroke:none" />
</svg>