<?xml version="1.0" encoding="UTF-8" standalone="no"?>
<svg
   version="1.1"
   width="600"
   height="600"
   viewBox="2346.35 2349.02 891.62 891.62"
   xmlns="http://www.w3.org/2000/svg">
  <rect x="2346.35" y="2349.02" width="891.62" height="891.62" fill="#000000"/>
  <path
         id="path1011"
         d="m 2638.48,2423.81 h 307.36 l 217.34,217.33 v 307.38 l -217.34,217.33 h -307.36 l -217.35,-217.33 v -307.38 z m 308.77,-3.4 h -310.18 l -219.34,219.33 v 310.18 l 219.34,219.33 h 310.18 l 219.33,-219.33 v -310.18 l -219.33,-219.33"
         style="fill:#ffffff;fill-opacity:1;fill-rule:nonzero;stroke:none" />
  <path
         id="path1012"
         d="m 2638.48,2423.81 h 307.36 l 217.34,217.33 v 307.38 l -217.34,217.33 h -307.36 l -217.35,-217.33 v -307.38 z m 308.77,-3.4 h -310.18 l -219.34,219.33 v 310.18 l 219.34,219.33 h 310.18 l 219.33,-219.33 v -310.18 l -219.33,-219.33"
         style="fill:#ffffff;fill-opacity:1;fill-rule:nonzero;stroke:none" />
  <path
         id="path1013"
         d="m 2691.96,2552.94 h 200.39 l 141.7,141.69 v 200.4 l -141.7,141.69 h -200.39 l -141.7,-141.69 v -200.4 z m 204.5,-9.92 h -208.6 l -147.52,147.51 v 208.6 l 147.52,147.51 h 208.6 l 147.51,-147.51 v -208.6 l -147.51,-147.51"
         style="fill:#ffffff;fill-opacity:1;fill-rule:nonzero;stroke:none" />
  <path
         id="path1014"
         d="m 2709.52,2595.33 h 165.27 l 116.86,116.87 v 165.26 l -116.86,116.87 H 2709.52 L 2592.67,2877.46 V 2712.2 Z m 166.68,-3.4 h -168.08 l -118.85,118.86 v 168.08 l 118.85,118.85 h 168.08 l 118.85,-118.85 V 2710.79 L 2876.2,2591.93"
         style="fill:#ffffff;fill-opacity:1;fill-rule:nonzero;stroke:none" />
  <path
         id="path1015"
         d="m 2730.23,2645.33 h 123.85 l 87.57,87.58 v 123.85 l -87.57,87.57 h -123.85 l -87.56,-87.57 v -123.85 z m 125.26,-3.4 h -126.66 l -89.56,89.57 v 126.66 l 89.56,89.56 h 126.66 l 89.56,-89.56 V 2731.5 l -89.56,-89.57"
         style="fill:#ffffff;fill-opacity:1;fill-rule:nonzero;stroke:none" />
  <path
         id="path1016"
         d="m 2748.71,2689.93 h 86.9 l 61.45,61.45 v 86.9 l -61.45,61.46 h -86.9 l -61.45,-61.46 v -86.9 z m 88.3,-3.4 h -89.71 l -63.44,63.44 v 89.72 l 63.44,63.44 h 89.71 l 63.45,-63.44 v -89.72 l -63.45,-63.44"
         style="fill:#ffffff;fill-opacity:1;fill-rule:nonzero;stroke:none" />
  <path
         id="path1017"
         d="m 2769.92,2741.16 h 44.47 l 31.43,31.44 v 44.46 l -31.43,31.44 h -44.47 l -31.42,-31.44 v -44.46 z m 48.58,-9.92 h -52.68 l -37.25,37.26 v 52.66 l 37.25,37.26 h 52.68 l 37.24,-37.26 v -52.66 l -37.24,-37.26"
         style="fill:#ffffff;fill-opacity:1;fill-rule:nonzero;stroke:none" />
  <path
         id="path1018"
         d="m 2508.18,2510.86 283.98,-117.62 283.97,117.62 117.61,283.97 -117.61,283.97 -283.97,117.62 -283.98,-117.62 -117.6,-283.97 z m 283.98,-121.31 -0.66,0.27 -285.91,118.44 -0.28,0.65 -118.43,285.92 0.28,0.66 118.43,285.91 0.64,0.27 285.93,118.44 0.65,-0.28 285.92,-118.43 0.27,-0.65 118.43,-285.92 -0.27,-0.65 -118.43,-285.92 -0.64,-0.27 -285.93,-118.44"
         style="fill:#ffffff;fill-opacity:1;fill-rule:nonzero;stroke:none" />
  <path
         id="path1019"
         d="m 2808.28,2794.83 c 0,-8.91 -7.22,-16.13 -16.12,-16.13 -8.91,0 -16.12,7.22 -16.12,16.13 0,8.91 7.21,16.13 16.12,16.13 8.9,0 16.12,-7.22 16.12,-16.13"
         style="fill:#ffffff;fill-opacity:1;fill-rule:nonzero;stroke:none" />
  <path
         id="path1020"
         d="m 2538.84,3058.8 c 0,-5.75 -4.66,-10.42 -10.41,-10.42 -5.75,0 -10.42,4.67 -10.42,10.42 0,5.75 4.67,10.42 10.42,10.42 5.75,0 10.41,-4.67 10.41,-10.42"
         style="fill:#ffffff;fill-opacity:1;fill-rule:nonzero;stroke:none" />
  <path
         id="path1021"
         d="m 2429.85,2794.83 c 0,-5.75 -4.66,-10.42 -10.42,-10.42 -5.75,0 -10.41,4.67 -10.41,10.42 0,5.75 4.66,10.42 10.41,10.42 5.76,0 10.42,-4.67 10.42,-10.42"
         style="fill:#ffffff;fill-opacity:1;fill-rule:nonzero;stroke:none" />
  <path
         id="path1022"
         d="m 2539.43,2531.5 c 0,-5.75 -4.65,-10.42 -10.41,-10.42 -5.76,0 -10.42,4.67 -10.42,10.42 0,5.75 4.66,10.41 10.42,10.41 5.76,0 10.41,-4.66 10.41,-10.41"
         style="fill:#ffffff;fill-opacity:1;fill-rule:nonzero;stroke:none" />
  <path
         id="path1023"
         d="m 2802.58,2422.11 c 0,-5.75 -4.67,-10.42 -10.42,-10.42 -5.75,0 -10.42,4.67 -10.42,10.42 0,5.75 4.67,10.41 10.42,10.41 5.75,0 10.42,-4.66 10.42,-10.41"
         style="fill:#ffffff;fill-opacity:1;fill-rule:nonzero;stroke:none" />
  <path
         id="path1024"
         d="m 3066.33,2531.27 c 0,-5.75 -4.67,-10.41 -10.42,-10.41 -5.75,0 -10.42,4.66 -10.42,10.41 0,5.76 4.67,10.42 10.42,10.42 5.75,0 10.42,-4.66 10.42,-10.42"
         style="fill:#ffffff;fill-opacity:1;fill-rule:nonzero;stroke:none" />
  <path
         id="path1025"
         d="m 3175.29,2794.83 c 0,-5.75 -4.66,-10.42 -10.41,-10.42 -5.75,0 -10.42,4.67 -10.42,10.42 0,5.75 4.67,10.42 10.42,10.42 5.75,0 10.41,-4.67 10.41,-10.42"
         style="fill:#ffffff;fill-opacity:1;fill-rule:nonzero;stroke:none" />
  <path
         id="path1026"
         d="m 3066.13,3057.75 c 0,-5.75 -4.67,-10.42 -10.42,-10.42 -5.75,0 -10.42,4.67 -10.42,10.42 0,5.75 4.67,10.41 10.42,10.41 5.75,0 10.42,-4.66 10.42,-10.41"
         style="fill:#ffffff;fill-opacity:1;fill-rule:nonzero;stroke:none" />
  <path
         id="path1027"
         d="m 2802.58,3167.55 c 0,-5.75 -4.67,-10.42 -10.42,-10.42 -5.75,0 -10.42,4.67 -10.42,10.42 0,5.76 4.67,10.42 10.42,10.42 5.75,0 10.42,-4.66 10.42,-10.42"
         style="fill:#ffffff;fill-opacity:1;fill-rule:nonzero;stroke:none" />
  <path
         id="path1028"
         d="m 2793.86,3041.68 h -3.4 v 156.58 h 3.4 v -156.58"
         style="fill:#ffffff;fill-opacity:1;fill-rule:nonzero;stroke:none" />
  <path
         id="path1029"
         d="m 2620.42,2972.12 -114.7,106.74 2.33,2.48 114.69,-106.74 -2.32,-2.48"
         style="fill:#ffffff;fill-opacity:1;fill-rule:nonzero;stroke:none" />
  <path
         id="path1030"
         d="m 2545.3,2793.13 h -156.57 v 3.4 h 156.57 v -3.4"
         style="fill:#ffffff;fill-opacity:1;fill-rule:nonzero;stroke:none" />
  <path
         id="path1031"
         d="m 3195.59,2793.13 h -156.58 v 3.4 h 156.58 v -3.4"
         style="fill:#ffffff;fill-opacity:1;fill-rule:nonzero;stroke:none" />
  <path
         id="path1032"
         d="m 2967.91,2968.18 -2.4,2.41 110.72,110.71 2.4,-2.4 -110.72,-110.72"
         style="fill:#ffffff;fill-opacity:1;fill-rule:nonzero;stroke:none" />
  <path
         id="path1033"
         d="m 2793.86,2391.4 h -3.4 v 156.58 h 3.4 V 2391.4"
         style="fill:#ffffff;fill-opacity:1;fill-rule:nonzero;stroke:none" />
  <path
         id="path1034"
         d="m 2508.09,2508.36 -2.41,2.4 110.73,110.72 2.4,-2.4 -110.72,-110.72"
         style="fill:#ffffff;fill-opacity:1;fill-rule:nonzero;stroke:none" />
  <path
         id="path1035"
         d="m 3076.23,2508.36 -110.72,110.72 2.4,2.4 110.72,-110.72 -2.4,-2.4"
         style="fill:#ffffff;fill-opacity:1;fill-rule:nonzero;stroke:none" />
  <path
         id="path1036"
         d="m 2792.16,3155.44 c -29.34,0 -53.2,-23.87 -53.2,-53.2 0,-29.34 23.86,-53.21 53.2,-53.21 29.33,0 53.2,23.87 53.2,53.21 0,29.33 -23.87,53.2 -53.2,53.2 z m 0,-109.81 c -31.21,0 -56.6,25.4 -56.6,56.61 0,31.21 25.39,56.6 56.6,56.6 31.21,0 56.6,-25.39 56.6,-56.6 0,-31.21 -25.39,-56.61 -56.6,-56.61"
         style="fill:#ffffff;fill-opacity:1;fill-rule:nonzero;stroke:none" />
  <path
         id="path1037"
         d="m 2673.99,3165.85 c -47.84,0 -86.75,-38.92 -86.75,-86.75 0,-47.84 38.91,-86.76 86.75,-86.76 47.85,0 86.76,38.92 86.76,86.76 0,47.83 -38.91,86.75 -86.76,86.75 z m 0,-176.9 c -49.71,0 -90.15,40.43 -90.15,90.15 0,49.71 40.44,90.15 90.15,90.15 49.72,0 90.16,-40.44 90.16,-90.15 0,-49.72 -40.44,-90.15 -90.16,-90.15"
         style="fill:#ffffff;fill-opacity:1;fill-rule:nonzero;stroke:none" />
  <path
         id="path1038"
         d="m 2507.6,2999 c -22.22,0 -44.44,-8.45 -61.35,-25.37 -33.82,-33.83 -33.82,-88.87 0,-122.69 33.83,-33.83 88.87,-33.83 122.7,0 33.81,33.82 33.81,88.86 0,122.69 -16.92,16.92 -39.14,25.37 -61.35,25.37 z m 0,-176.83 c -23.09,0 -46.17,8.79 -63.75,26.37 -35.15,35.14 -35.15,92.34 0,127.5 35.15,35.15 92.34,35.15 127.5,0 v 0 c 35.14,-35.16 35.14,-92.36 0,-127.5 -17.58,-17.58 -40.67,-26.37 -63.75,-26.37"
         style="fill:#ffffff;fill-opacity:1;fill-rule:nonzero;stroke:none" />
  <path
         id="path1039"
         d="m 2507.89,2763.43 c -47.84,0 -86.76,-38.92 -86.76,-86.76 0,-47.84 38.92,-86.76 86.76,-86.76 47.84,0 86.76,38.92 86.76,86.76 0,47.84 -38.92,86.76 -86.76,86.76 z m 0,-176.92 c -49.72,0 -90.16,40.44 -90.16,90.16 0,49.72 40.44,90.16 90.16,90.16 49.72,0 90.16,-40.44 90.16,-90.16 0,-49.72 -40.44,-90.16 -90.16,-90.16"
         style="fill:#ffffff;fill-opacity:1;fill-rule:nonzero;stroke:none" />
  <path
         id="path1040"
         d="m 2613.36,2571.62 v 0 c -33.82,-33.83 -33.82,-88.88 0,-122.69 16.39,-16.39 38.17,-25.41 61.35,-25.41 23.17,0 44.96,9.02 61.34,25.41 33.82,33.81 33.82,88.86 0,122.69 -33.82,33.83 -88.86,33.83 -122.69,0 z m 61.35,-151.51 c -24.08,0 -46.73,9.38 -63.75,26.41 -35.15,35.15 -35.15,92.35 0,127.5 v 0 c 35.12,35.15 92.33,35.17 127.5,0 35.14,-35.15 35.14,-92.35 0,-127.5 -17.03,-17.03 -39.67,-26.41 -63.75,-26.41"
         style="fill:#ffffff;fill-opacity:1;fill-rule:nonzero;stroke:none" />
  <path
         id="path1041"
         d="m 2910.32,2597.32 c -47.84,0 -86.76,-38.91 -86.76,-86.75 0,-47.85 38.92,-86.76 86.76,-86.76 47.84,0 86.76,38.91 86.76,86.76 0,47.84 -38.92,86.75 -86.76,86.75 z m 0,-176.91 c -49.71,0 -90.15,40.44 -90.15,90.16 0,49.71 40.44,90.15 90.15,90.15 49.72,0 90.16,-40.44 90.16,-90.15 0,-49.72 -40.44,-90.16 -90.16,-90.16"
         style="fill:#ffffff;fill-opacity:1;fill-rule:nonzero;stroke:none" />
  <path
         id="path1042"
         d="m 3076.72,2764.13 c -23.18,0 -44.96,-9.02 -61.35,-25.41 -33.82,-33.83 -33.82,-88.86 0,-122.68 v 0 c 16.39,-16.39 38.17,-25.42 61.35,-25.42 23.17,0 44.96,9.03 61.35,25.42 33.81,33.82 33.81,88.85 0,122.68 -16.39,16.39 -38.18,25.41 -61.35,25.41 z m 0,-176.91 c -24.08,0 -46.73,9.38 -63.75,26.41 v 0 c -35.16,35.15 -35.16,92.35 0,127.49 17.02,17.03 39.67,26.42 63.75,26.42 24.08,0 46.73,-9.39 63.75,-26.42 35.16,-35.14 35.16,-92.34 0,-127.49 -17.02,-17.03 -39.67,-26.41 -63.75,-26.41"
         style="fill:#ffffff;fill-opacity:1;fill-rule:nonzero;stroke:none" />
  <path
         id="path1043"
         d="m 3076.43,2999.75 c -47.85,0 -86.76,-38.92 -86.76,-86.76 0,-47.83 38.91,-86.75 86.76,-86.75 47.84,0 86.75,38.92 86.75,86.75 0,47.84 -38.91,86.76 -86.75,86.76 z m 0,-176.91 c -49.72,0 -90.16,40.44 -90.16,90.15 0,49.72 40.44,90.15 90.16,90.15 49.71,0 90.15,-40.43 90.15,-90.15 0,-49.71 -40.44,-90.15 -90.15,-90.15"
         style="fill:#ffffff;fill-opacity:1;fill-rule:nonzero;stroke:none" />
  <path
         id="path1044"
         d="m 2909.61,3166.1 c -22.22,0 -44.42,-8.44 -61.35,-25.36 -33.82,-33.83 -33.82,-88.87 0,-122.69 16.39,-16.39 38.18,-25.41 61.35,-25.41 23.17,0 44.96,9.02 61.35,25.41 v 0 c 33.82,33.82 33.82,88.86 0,122.69 -16.92,16.91 -39.13,25.36 -61.35,25.36 z m 0,-176.87 c -24.08,0 -46.72,9.38 -63.75,26.41 -35.15,35.15 -35.15,92.35 0,127.5 35.16,35.17 92.36,35.16 127.5,0 35.15,-35.15 35.15,-92.35 0,-127.5 v 0 c -17.02,-17.03 -39.67,-26.41 -63.75,-26.41"
         style="fill:#ffffff;fill-opacity:1;fill-rule:nonzero;stroke:none" />
  <path
         id="path1045"
         d="m 2578.17,3067.52 c -14.21,0 -27.56,-5.54 -37.61,-15.59 -10.05,-10.05 -15.59,-23.4 -15.59,-37.61 0,-14.21 5.54,-27.58 15.59,-37.63 20.75,-20.75 54.49,-20.75 75.24,0 20.74,20.75 20.74,54.5 0,75.24 -10.05,10.05 -23.42,15.59 -37.63,15.59 z m 0,-109.79 c -14.49,0 -28.98,5.52 -40.02,16.56 -10.69,10.69 -16.58,24.91 -16.58,40.03 0,15.11 5.89,29.33 16.58,40.02 10.69,10.69 24.91,16.58 40.02,16.58 15.12,0 29.34,-5.89 40.03,-16.58 22.07,-22.06 22.07,-57.98 0,-80.05 -11.03,-11.04 -25.53,-16.56 -40.03,-16.56"
         style="fill:#ffffff;fill-opacity:1;fill-rule:nonzero;stroke:none" />
  <path
         id="path1046"
         d="m 2484.76,2848.04 c -29.34,0 -53.21,-23.87 -53.21,-53.21 0,-29.33 23.87,-53.2 53.21,-53.2 29.33,0 53.2,23.87 53.2,53.2 0,29.34 -23.87,53.21 -53.2,53.21 z m 0,-109.81 c -31.22,0 -56.61,25.39 -56.61,56.6 0,31.21 25.39,56.61 56.61,56.61 31.21,0 56.6,-25.4 56.6,-56.61 0,-31.21 -25.39,-56.6 -56.6,-56.6"
         style="fill:#ffffff;fill-opacity:1;fill-rule:nonzero;stroke:none" />
  <path
         id="path1047"
         d="m 2537.17,2615.09 c -20.74,-20.75 -20.74,-54.5 0,-75.25 10.05,-10.05 23.42,-15.58 37.62,-15.58 14.21,0 27.57,5.53 37.62,15.58 10.05,10.05 15.59,23.41 15.59,37.62 0,14.21 -5.54,27.58 -15.59,37.63 -20.74,20.74 -54.48,20.74 -75.24,0 z m 37.62,-94.23 c -15.11,0 -29.33,5.89 -40.02,16.58 -22.07,22.06 -22.07,57.98 0,80.05 v 0 c 22.07,22.07 57.97,22.07 80.04,0 10.7,-10.69 16.59,-24.91 16.59,-40.03 0,-15.12 -5.89,-29.34 -16.59,-40.02 -10.68,-10.69 -24.9,-16.58 -40.02,-16.58"
         style="fill:#ffffff;fill-opacity:1;fill-rule:nonzero;stroke:none" />
  <path
         id="path1048"
         d="m 2792.16,2540.63 c -29.34,0 -53.2,-23.86 -53.2,-53.2 0,-29.33 23.86,-53.2 53.2,-53.2 29.33,0 53.2,23.87 53.2,53.2 0,29.34 -23.87,53.2 -53.2,53.2 z m 0,-109.8 c -31.21,0 -56.6,25.39 -56.6,56.6 0,31.21 25.39,56.6 56.6,56.6 31.21,0 56.6,-25.39 56.6,-56.6 0,-31.21 -25.39,-56.6 -56.6,-56.6"
         style="fill:#ffffff;fill-opacity:1;fill-rule:nonzero;stroke:none" />
  <path
         id="path1049"
         d="m 3009.52,2630.64 c -13.62,0 -27.24,-5.18 -37.62,-15.55 -10.04,-10.05 -15.58,-23.42 -15.58,-37.63 0,-14.21 5.54,-27.57 15.58,-37.62 v 0 c 10.05,-10.05 23.41,-15.58 37.62,-15.58 14.21,0 27.58,5.53 37.63,15.58 20.74,20.75 20.74,54.5 0,75.25 -10.37,10.37 -24.01,15.55 -37.63,15.55 z m 0,-109.78 c -15.12,0 -29.33,5.89 -40.02,16.58 v 0 0 c -10.69,10.68 -16.58,24.9 -16.58,40.02 0,15.12 5.89,29.34 16.58,40.03 22.07,22.07 57.98,22.07 80.05,0 22.07,-22.07 22.07,-57.99 0,-80.05 -10.69,-10.69 -24.91,-16.58 -40.03,-16.58"
         style="fill:#ffffff;fill-opacity:1;fill-rule:nonzero;stroke:none" />
  <path
         id="path1050"
         d="m 3099.56,2848.04 c -29.34,0 -53.2,-23.87 -53.2,-53.21 0,-29.33 23.86,-53.2 53.2,-53.2 29.34,0 53.2,23.87 53.2,53.2 0,29.34 -23.86,53.21 -53.2,53.21 z m 0,-109.81 c -31.21,0 -56.6,25.39 -56.6,56.6 0,31.21 25.39,56.61 56.6,56.61 31.21,0 56.6,-25.4 56.6,-56.61 0,-31.21 -25.39,-56.6 -56.6,-56.6"
         style="fill:#ffffff;fill-opacity:1;fill-rule:nonzero;stroke:none" />
  <path
         id="path1051"
         d="m 3009.52,3065.4 c -14.21,0 -27.57,-5.54 -37.62,-15.59 -10.04,-10.04 -15.58,-23.4 -15.58,-37.61 0,-14.21 5.54,-27.57 15.58,-37.62 10.05,-10.05 23.41,-15.59 37.62,-15.59 14.21,0 27.58,5.54 37.63,15.59 10.05,10.05 15.57,23.41 15.57,37.62 0,14.21 -5.52,27.57 -15.57,37.61 -10.05,10.05 -23.42,15.59 -37.63,15.59 z m 0,-109.8 c -15.12,0 -29.33,5.88 -40.02,16.58 -10.69,10.68 -16.58,24.9 -16.58,40.02 0,15.11 5.89,29.33 16.58,40.02 10.69,10.69 24.9,16.58 40.02,16.58 15.12,0 29.34,-5.89 40.03,-16.58 22.07,-22.07 22.07,-57.97 0,-80.04 -10.69,-10.7 -24.91,-16.58 -40.03,-16.58"
         style="fill:#ffffff;fill-opacity:1;fill-rule:nonzero;stroke:none" />
  <path
         id="path1052"
         d="m 2766.1,2857.03 -77.75,183.99 3.12,1.32 77.76,-183.98 -3.13,-1.33"
         style="fill:#ffffff;fill-opacity:1;fill-rule:nonzero;stroke:none" />
  <path
         id="path1053"
         d="m 2818.02,2852.8 -3.15,1.31 77.96,188.22 3.15,-1.3 -77.96,-188.23"
         style="fill:#ffffff;fill-opacity:1;fill-rule:nonzero;stroke:none" />
  <path
         id="path1054"
         d="m 2732.88,2817.54 -188.23,77.97 1.31,3.14 188.23,-77.97 -1.31,-3.14"
         style="fill:#ffffff;fill-opacity:1;fill-rule:nonzero;stroke:none" />
  <path
         id="path1055"
         d="m 2545.96,2691.01 -1.31,3.14 188.23,77.97 1.31,-3.15 -188.23,-77.96"
         style="fill:#ffffff;fill-opacity:1;fill-rule:nonzero;stroke:none" />
  <path
         id="path1056"
         d="m 2691.48,2547.32 -3.14,1.31 77.96,188.23 3.14,-1.31 -77.96,-188.23"
         style="fill:#ffffff;fill-opacity:1;fill-rule:nonzero;stroke:none" />
  <path
         id="path1057"
         d="m 2892.83,2547.32 -77.96,188.23 3.15,1.31 77.96,-188.23 -3.15,-1.31"
         style="fill:#ffffff;fill-opacity:1;fill-rule:nonzero;stroke:none" />
  <path
         id="path1058"
         d="m 3038.36,2691.01 -188.23,77.96 1.31,3.15 188.23,-77.97 -1.31,-3.14"
         style="fill:#ffffff;fill-opacity:1;fill-rule:nonzero;stroke:none" />
  <path
         id="path1059"
         d="m 2851.44,2817.54 -1.31,3.14 188.23,77.97 1.31,-3.14 -188.23,-77.97"
         style="fill:#ffffff;fill-opacity:1;fill-rule:nonzero;stroke:none" />
</svg>