<?xml version="1.0" encoding="UTF-8" standalone="no"?>
<svg
   version="1.1"
   width="600"
   height="600"
   viewBox="1313.29 3446.24 866.66 866.66"
   xmlns="http://www.w3.org/2000/svg">
  <rect x="1313.29" y="3446.24" width="866.66" height="866.66" fill="#000000"/>
  <path
         id="path812"
         d="m 1746.61,4223.82 c -189.89,0 -344.38,-154.49 -344.38,-344.38 0,-189.89 154.49,-344.39 344.38,-344.39 189.9,0 344.39,154.5 344.39,344.39 0,189.89 -154.49,344.38 -344.39,344.38 z m 0,-698.69 c -195.36,0 -354.31,158.94 -354.31,354.31 0,195.36 158.95,354.31 354.31,354.31 195.37,0 354.31,-158.95 354.31,-354.31 0,-195.37 -158.94,-354.31 -354.31,-354.31"
         style="fill:#ffffff;fill-opacity:1;fill-rule:nonzero;stroke:none" />
  <path
         id="path813"
         d="m 1447.72,3708.86 h 597.81 l -298.9,377.19 z m 604.84,-3.4 h -611.87 l 305.94,386.06 1.33,-1.68 304.6,-384.38"
         style="fill:#ffffff;fill-opacity:1;fill-rule:nonzero;stroke:none" />
  <path
         id="path814"
         d="m 1447.71,4050.74 298.9,-377.19 298.91,377.19 z m 298.9,-382.67 -1.33,1.69 -304.6,384.38 h 611.87 l -305.94,-386.07"
         style="fill:#ffffff;fill-opacity:1;fill-rule:nonzero;stroke:none" />
  <path
         id="path815"
         d="m 1746.61,4224.08 c -35.61,0 -64.58,-28.97 -64.58,-64.58 0,-35.61 28.97,-64.58 64.58,-64.58 35.61,0 64.59,28.97 64.59,64.58 0,35.61 -28.98,64.58 -64.59,64.58 z m 0,-139.08 c -41.08,0 -74.5,33.42 -74.5,74.5 0,41.08 33.42,74.5 74.5,74.5 41.09,0 74.51,-33.42 74.51,-74.5 0,-41.08 -33.42,-74.5 -74.51,-74.5"
         style="fill:#ffffff;fill-opacity:1;fill-rule:nonzero;stroke:none" />
  <path
         id="path816"
         d="m 1565.87,4219.02 c -22.71,0 -41.19,-18.48 -41.19,-41.19 0,-22.71 18.48,-41.19 41.19,-41.19 22.71,0 41.19,18.48 41.19,41.19 0,22.71 -18.48,41.19 -41.19,41.19 z m 0,-85.78 c -24.59,0 -44.59,20 -44.59,44.59 0,24.59 20,44.59 44.59,44.59 24.58,0 44.58,-20 44.58,-44.59 0,-24.59 -20,-44.59 -44.58,-44.59"
         style="fill:#ffffff;fill-opacity:1;fill-rule:nonzero;stroke:none" />
  <path
         id="path817"
         d="m 1397.27,3920.87 c -22.71,0 -41.2,-18.48 -41.2,-41.19 0,-22.71 18.49,-41.2 41.2,-41.2 22.71,0 41.19,18.49 41.19,41.2 0,22.71 -18.48,41.19 -41.19,41.19 z m 0,-85.78 c -24.59,0 -44.59,20 -44.59,44.59 0,24.59 20,44.59 44.59,44.59 24.59,0 44.59,-20 44.59,-44.59 0,-24.59 -20,-44.59 -44.59,-44.59"
         style="fill:#ffffff;fill-opacity:1;fill-rule:nonzero;stroke:none" />
  <path
         id="path818"
         d="m 2095.96,3920.87 c -22.71,0 -41.19,-18.48 -41.19,-41.19 0,-22.71 18.48,-41.2 41.19,-41.2 22.71,0 41.19,18.49 41.19,41.2 0,22.71 -18.48,41.19 -41.19,41.19 z m 0,-85.78 c -24.59,0 -44.59,20 -44.59,44.59 0,24.59 20,44.59 44.59,44.59 24.59,0 44.59,-20 44.59,-44.59 0,-24.59 -20,-44.59 -44.59,-44.59"
         style="fill:#ffffff;fill-opacity:1;fill-rule:nonzero;stroke:none" />
  <path
         id="path819"
         d="m 1931.01,4219.02 c -22.71,0 -41.2,-18.48 -41.2,-41.19 0,-22.71 18.49,-41.19 41.2,-41.19 22.71,0 41.18,18.48 41.18,41.19 0,22.71 -18.47,41.19 -41.18,41.19 z m 0,-85.78 c -24.59,0 -44.59,20 -44.59,44.59 0,24.59 20,44.59 44.59,44.59 24.58,0 44.58,-20 44.58,-44.59 0,-24.59 -20,-44.59 -44.58,-44.59"
         style="fill:#ffffff;fill-opacity:1;fill-rule:nonzero;stroke:none" />
  <path
         id="path820"
         d="m 1565.87,3622.26 c -22.71,0 -41.19,-18.49 -41.19,-41.2 0,-22.7 18.48,-41.18 41.19,-41.18 22.71,0 41.19,18.48 41.19,41.18 0,22.71 -18.48,41.2 -41.19,41.2 z m 0,-85.78 c -24.59,0 -44.59,20 -44.59,44.58 0,24.59 20,44.59 44.59,44.59 24.58,0 44.58,-20 44.58,-44.59 0,-24.58 -20,-44.58 -44.58,-44.58"
         style="fill:#ffffff;fill-opacity:1;fill-rule:nonzero;stroke:none" />
  <path
         id="path821"
         d="m 1931.01,3622.26 c -22.71,0 -41.2,-18.49 -41.2,-41.2 0,-22.7 18.49,-41.18 41.2,-41.18 22.71,0 41.18,18.48 41.18,41.18 0,22.71 -18.47,41.2 -41.18,41.2 z m 0,-85.78 c -24.59,0 -44.59,20 -44.59,44.58 0,24.59 20,44.59 44.59,44.59 24.58,0 44.58,-20 44.58,-44.59 0,-24.58 -20,-44.58 -44.58,-44.58"
         style="fill:#ffffff;fill-opacity:1;fill-rule:nonzero;stroke:none" />
  <path
         id="path822"
         d="m 1522.98,3922.43 c -23.71,0 -42.99,-19.29 -42.99,-42.99 0,-23.71 19.28,-42.99 42.99,-42.99 23.7,0 42.99,19.28 42.99,42.99 0,23.7 -19.29,42.99 -42.99,42.99 z m 0,-89.38 c -25.58,0 -46.39,20.81 -46.39,46.39 0,25.58 20.81,46.39 46.39,46.39 25.58,0 46.39,-20.81 46.39,-46.39 0,-25.58 -20.81,-46.39 -46.39,-46.39"
         style="fill:#ffffff;fill-opacity:1;fill-rule:nonzero;stroke:none" />
  <path
         id="path823"
         d="m 1970.41,3922.43 c -23.71,0 -42.99,-19.29 -42.99,-42.99 0,-23.71 19.28,-42.99 42.99,-42.99 23.71,0 42.99,19.28 42.99,42.99 0,23.7 -19.28,42.99 -42.99,42.99 z m 0,-89.38 c -25.58,0 -46.39,20.81 -46.39,46.39 0,25.58 20.81,46.39 46.39,46.39 25.58,0 46.39,-20.81 46.39,-46.39 0,-25.58 -20.81,-46.39 -46.39,-46.39"
         style="fill:#ffffff;fill-opacity:1;fill-rule:nonzero;stroke:none" />
  <path
         id="path824"
         d="m 1746.61,3664.44 c -35.61,0 -64.58,-28.51 -64.58,-63.54 0,-35.04 28.97,-63.54 64.58,-63.54 35.61,0 64.59,28.5 64.59,63.54 0,35.03 -28.98,63.54 -64.59,63.54 z m 0,-137 c -41.08,0 -74.5,32.95 -74.5,73.46 0,40.51 33.42,73.46 74.5,73.46 41.09,0 74.51,-32.95 74.51,-73.46 0,-40.51 -33.42,-73.46 -74.51,-73.46"
         style="fill:#ffffff;fill-opacity:1;fill-rule:nonzero;stroke:none" />
  <path
         id="path825"
         d="M 1748.39,3879.68 H 1745 v 172.76 h 3.39 v -172.76"
         style="fill:#ffffff;fill-opacity:1;fill-rule:nonzero;stroke:none" />
  <path
         id="path826"
         d="m 1745.05,3879.24 -41.89,156.33 3.29,0.88 41.88,-156.33 -3.28,-0.88"
         style="fill:#ffffff;fill-opacity:1;fill-rule:nonzero;stroke:none" />
  <path
         id="path827"
         d="m 1745.22,3878.83 -69.87,121.02 2.95,1.7 69.87,-121.02 -2.95,-1.7"
         style="fill:#ffffff;fill-opacity:1;fill-rule:nonzero;stroke:none" />
  <path
         id="path828"
         d="m 1745.49,3878.48 -92.48,92.48 2.4,2.4 92.49,-92.48 -2.41,-2.4"
         style="fill:#ffffff;fill-opacity:1;fill-rule:nonzero;stroke:none" />
  <path
         id="path829"
         d="m 1745.84,3878.2 -113.74,65.67 1.7,2.95 113.74,-65.67 -1.7,-2.95"
         style="fill:#ffffff;fill-opacity:1;fill-rule:nonzero;stroke:none" />
  <path
         id="path830"
         d="m 1746.25,3878.04 -135.36,36.27 0.88,3.28 135.36,-36.27 -0.88,-3.28"
         style="fill:#ffffff;fill-opacity:1;fill-rule:nonzero;stroke:none" />
  <path
         id="path831"
         d="m 1745,3881.49 h 162.11 l -160.5,205.71 -162.1,-205.71 z m 169.09,-3.4 H 1577.5 l 169.12,214.62 1.33,-1.71 166.14,-212.91"
         style="fill:#ffffff;fill-opacity:1;fill-rule:nonzero;stroke:none" />
  <path
         id="path832"
         d="m 1746.55,3879.24 -3.28,0.88 41.89,156.33 3.28,-0.88 -41.89,-156.33"
         style="fill:#ffffff;fill-opacity:1;fill-rule:nonzero;stroke:none" />
  <path
         id="path833"
         d="m 1746.39,3878.83 -2.95,1.7 69.87,121.02 2.95,-1.7 -69.87,-121.02"
         style="fill:#ffffff;fill-opacity:1;fill-rule:nonzero;stroke:none" />
  <path
         id="path834"
         d="m 1746.11,3878.48 -2.4,2.4 92.49,92.48 2.4,-2.4 -92.49,-92.48"
         style="fill:#ffffff;fill-opacity:1;fill-rule:nonzero;stroke:none" />
  <path
         id="path835"
         d="m 1745.76,3878.2 -1.7,2.95 113.74,65.67 1.7,-2.95 -113.74,-65.67"
         style="fill:#ffffff;fill-opacity:1;fill-rule:nonzero;stroke:none" />
  <path
         id="path836"
         d="m 1745.33,3878.03 -0.83,3.3 138.96,35.03 0.83,-3.3 -138.96,-35.03"
         style="fill:#ffffff;fill-opacity:1;fill-rule:nonzero;stroke:none" />
  <path
         id="path837"
         d="M 1748.39,3708.5 H 1745 v 172.76 h 3.39 V 3708.5"
         style="fill:#ffffff;fill-opacity:1;fill-rule:nonzero;stroke:none" />
  <path
         id="path838"
         d="m 1706.45,3724.49 -3.29,0.88 41.89,156.33 3.28,-0.88 -41.88,-156.33"
         style="fill:#ffffff;fill-opacity:1;fill-rule:nonzero;stroke:none" />
  <path
         id="path839"
         d="m 1678.3,3759.39 -2.95,1.7 69.87,121.02 2.95,-1.7 -69.87,-121.02"
         style="fill:#ffffff;fill-opacity:1;fill-rule:nonzero;stroke:none" />
  <path
         id="path840"
         d="m 1655.41,3787.57 -2.4,2.41 92.48,92.48 2.41,-2.4 -92.49,-92.49"
         style="fill:#ffffff;fill-opacity:1;fill-rule:nonzero;stroke:none" />
  <path
         id="path841"
         d="m 1633.8,3814.12 -1.7,2.95 113.74,65.66 1.7,-2.94 -113.74,-65.67"
         style="fill:#ffffff;fill-opacity:1;fill-rule:nonzero;stroke:none" />
  <path
         id="path842"
         d="m 1611.77,3843.35 -0.88,3.28 135.36,36.27 0.88,-3.28 -135.36,-36.27"
         style="fill:#ffffff;fill-opacity:1;fill-rule:nonzero;stroke:none" />
  <path
         id="path843"
         d="m 1786.91,3723.28 -43.64,157.52 3.28,0.91 43.64,-157.52 -3.28,-0.91"
         style="fill:#ffffff;fill-opacity:1;fill-rule:nonzero;stroke:none" />
  <path
         id="path844"
         d="m 1814.45,3757.42 -71.01,122.99 2.95,1.7 71.01,-122.99 -2.95,-1.7"
         style="fill:#ffffff;fill-opacity:1;fill-rule:nonzero;stroke:none" />
  <path
         id="path845"
         d="m 1837.7,3786.07 -93.99,93.99 2.4,2.4 93.99,-93.99 -2.4,-2.4"
         style="fill:#ffffff;fill-opacity:1;fill-rule:nonzero;stroke:none" />
  <path
         id="path846"
         d="m 1859.18,3813.32 -113.73,65.66 1.7,2.95 113.73,-65.66 -1.7,-2.95"
         style="fill:#ffffff;fill-opacity:1;fill-rule:nonzero;stroke:none" />
  <path
         id="path847"
         d="m 1883.44,3842.38 -138.97,37.24 0.88,3.28 138.97,-37.24 -0.88,-3.28"
         style="fill:#ffffff;fill-opacity:1;fill-rule:nonzero;stroke:none" />
  <path
         id="path848"
         d="m 1764.21,3879.68 c 0,-9.68 -7.84,-17.52 -17.52,-17.52 -9.67,0 -17.52,7.84 -17.52,17.52 0,9.67 7.85,17.51 17.52,17.51 9.68,0 17.52,-7.84 17.52,-17.51"
         style="fill:#ffffff;fill-opacity:1;fill-rule:nonzero;stroke:none" />
  <path
         id="path849"
         d="m 1535.04,3879.44 c 0,-6.66 -5.4,-12.06 -12.06,-12.06 -6.66,0 -12.07,5.4 -12.07,12.06 0,6.66 5.41,12.06 12.07,12.06 6.66,0 12.06,-5.4 12.06,-12.06"
         style="fill:#ffffff;fill-opacity:1;fill-rule:nonzero;stroke:none" />
  <path
         id="path850"
         d="m 1982.47,3879.44 c 0,-6.66 -5.4,-12.06 -12.06,-12.06 -6.66,0 -12.06,5.4 -12.06,12.06 0,6.66 5.4,12.06 12.06,12.06 6.66,0 12.06,-5.4 12.06,-12.06"
         style="fill:#ffffff;fill-opacity:1;fill-rule:nonzero;stroke:none" />
  <path
         id="path851"
         d="m 1758.75,3600.9 c 0,-6.66 -5.4,-12.06 -12.06,-12.06 -6.66,0 -12.06,5.4 -12.06,12.06 0,6.66 5.4,12.06 12.06,12.06 6.66,0 12.06,-5.4 12.06,-12.06"
         style="fill:#ffffff;fill-opacity:1;fill-rule:nonzero;stroke:none" />
  <path
         id="path852"
         d="m 1758.75,4159.5 c 0,-6.66 -5.4,-12.06 -12.06,-12.06 -6.66,0 -12.06,5.4 -12.06,12.06 0,6.66 5.4,12.06 12.06,12.06 6.66,0 12.06,-5.4 12.06,-12.06"
         style="fill:#ffffff;fill-opacity:1;fill-rule:nonzero;stroke:none" />
  <path
         id="path853"
         d="m 1579.73,4177.83 c 0,-6.66 -5.4,-12.06 -12.06,-12.06 -6.66,0 -12.06,5.4 -12.06,12.06 0,6.66 5.4,12.06 12.06,12.06 6.66,0 12.06,-5.4 12.06,-12.06"
         style="fill:#ffffff;fill-opacity:1;fill-rule:nonzero;stroke:none" />
  <path
         id="path854"
         d="m 1943.07,4177.83 c 0,-6.66 -5.4,-12.06 -12.07,-12.06 -6.66,0 -12.06,5.4 -12.06,12.06 0,6.66 5.4,12.06 12.06,12.06 6.67,0 12.07,-5.4 12.07,-12.06"
         style="fill:#ffffff;fill-opacity:1;fill-rule:nonzero;stroke:none" />
  <path
         id="path855"
         d="m 1579.73,3581.06 c 0,-6.66 -5.4,-12.06 -12.06,-12.06 -6.66,0 -12.06,5.4 -12.06,12.06 0,6.67 5.4,12.07 12.06,12.07 6.66,0 12.06,-5.4 12.06,-12.07"
         style="fill:#ffffff;fill-opacity:1;fill-rule:nonzero;stroke:none" />
  <path
         id="path856"
         d="m 1409.33,3881.26 c 0,-6.66 -5.4,-12.06 -12.06,-12.06 -6.66,0 -12.06,5.4 -12.06,12.06 0,6.66 5.4,12.06 12.06,12.06 6.66,0 12.06,-5.4 12.06,-12.06"
         style="fill:#ffffff;fill-opacity:1;fill-rule:nonzero;stroke:none" />
  <path
         id="path857"
         d="m 2108.02,3881.26 c 0,-6.66 -5.4,-12.06 -12.06,-12.06 -6.66,0 -12.06,5.4 -12.06,12.06 0,6.66 5.4,12.06 12.06,12.06 6.66,0 12.06,-5.4 12.06,-12.06"
         style="fill:#ffffff;fill-opacity:1;fill-rule:nonzero;stroke:none" />
  <path
         id="path858"
         d="m 1943.07,3581.06 c 0,-6.66 -5.4,-12.06 -12.07,-12.06 -6.66,0 -12.06,5.4 -12.06,12.06 0,6.67 5.4,12.07 12.06,12.07 6.67,0 12.07,-5.4 12.07,-12.07"
         style="fill:#ffffff;fill-opacity:1;fill-rule:nonzero;stroke:none" />
  <path
         id="path859"
         d="m 1465.77,3879.44 280.84,-346.65 281.03,346.65 -281.03,346.65 z m 280.84,-352.05 -1.32,1.63 -283.9,350.42 0.87,1.07 284.35,350.97 285.41,-352.04 -0.87,-1.07 -284.54,-350.98"
         style="fill:#ffffff;fill-opacity:1;fill-rule:nonzero;stroke:none" />
  <path
         id="path860"
         d="m 1587.32,3879.79 159.27,-202.34 157.72,202.34 -157.72,202.13 z m 155.39,-213.46 -165.6,210.39 v 6.14 l 165.6,210.17 7.81,-0.02 163.99,-210.17 v -6.1 l -163.99,-210.39 -7.81,-0.02"
         style="fill:#ffffff;fill-opacity:1;fill-rule:nonzero;stroke:none" />
</svg>