<?xml version="1.0" encoding="UTF-8" standalone="no"?>
<svg
   version="1.1"
   width="600"
   height="600"
   viewBox="372.85 79.51 214.31 214.31"
   xmlns="http://www.w3.org/2000/svg">
  <defs
     id="defs1">
    <clipPath
       clipPathUnits="userSpaceOnUse"
       id="clipPath14">
      <path
         d="m 1651.04,3912.83 -52.73,91.32 -52.72,-91.32 z"
         transform="translate(0,2.5e-5)"
         id="path14" />
    </clipPath>
    <clipPath
       clipPathUnits="userSpaceOnUse"
       id="clipPath16">
      <path
         d="m 1651.04,3912.83 -52.73,91.32 -52.72,-91.32 z"
         transform="translate(0,2.5e-5)"
         id="path16" />
    </clipPath>
    <clipPath
       clipPathUnits="userSpaceOnUse"
       id="clipPath18">
      <path
         d="m 1651.04,3912.83 -52.73,91.32 -52.72,-91.32 z"
         transform="translate(0,2.5e-5)"
         id="path18" />
    </clipPath>
    <clipPath
       clipPathUnits="userSpaceOnUse"
       id="clipPath20">
      <path
         d="m 1651.04,3912.83 -52.73,91.32 -52.72,-91.32 z"
         transform="translate(0,2.5e-5)"
         id="path20" />
    </clipPath>
    <clipPath
       clipPathUnits="userSpaceOnUse"
       id="clipPath22">
      <path
         d="m 1651.04,3912.83 -52.73,91.32 -52.72,-91.32 z"
         transform="translate(0,2.5e-5)"
         id="path22" />
    </clipPath>
    <clipPath
       clipPathUnits="userSpaceOnUse"
       id="clipPath24">
      <path
         d="m 1651.04,3912.83 -52.73,91.32 -52.72,-91.32 z"
         transform="translate(0,2.5e-5)"
         id="path24" />
    </clipPath>
    <clipPath
       clipPathUnits="userSpaceOnUse"
       id="clipPath26">
      <path
         d="m 1651.04,3912.83 -52.73,91.32 -52.72,-91.32 z"
         transform="translate(0,2.5e-5)"
         id="path26" />
    </clipPath>
    <clipPath
       clipPathUnits="userSpaceOnUse"
       id="clipPath28">
      <path
         d="m 1651.04,3912.83 -52.73,91.32 -52.72,-91.32 z"
         transform="translate(0,2.5e-5)"
         id="path28" />
    </clipPath>
    <clipPath
       clipPathUnits="userSpaceOnUse"
       id="clipPath30">
      <path
         d="m 1651.04,3912.83 -52.73,91.32 -52.72,-91.32 z"
         transform="translate(0,2.5e-5)"
         id="path30" />
    </clipPath>
    <clipPath
       clipPathUnits="userSpaceOnUse"
       id="clipPath32">
      <path
         d="m 1651.04,3912.83 -52.73,91.32 -52.72,-91.32 z"
         transform="translate(0,2.5e-5)"
         id="path32" />
    </clipPath>
    <clipPath
       clipPathUnits="userSpaceOnUse"
       id="clipPath34">
      <path
         d="m 1651.04,3912.83 -52.73,91.32 -52.72,-91.32 z"
         transform="translate(0,2.5e-5)"
         id="path34" />
    </clipPath>
    <clipPath
       clipPathUnits="userSpaceOnUse"
       id="clipPath36">
      <path
         d="m 1651.04,3912.83 -52.73,91.32 -52.72,-91.32 z"
         transform="translate(0,2.5e-5)"
         id="path36" />
    </clipPath>
    <clipPath
       clipPathUnits="userSpaceOnUse"
       id="clipPath47">
      <path
         d="m 1849.09,3569.57 -52.73,91.32 -52.72,-91.32 z"
         transform="translate(0,2.5e-5)"
         id="path47" />
    </clipPath>
    <clipPath
       clipPathUnits="userSpaceOnUse"
       id="clipPath49">
      <path
         d="m 1849.09,3569.57 -52.73,91.32 -52.72,-91.32 z"
         transform="translate(0,2.5e-5)"
         id="path49" />
    </clipPath>
    <clipPath
       clipPathUnits="userSpaceOnUse"
       id="clipPath51">
      <path
         d="m 1849.09,3569.57 -52.73,91.32 -52.72,-91.32 z"
         transform="translate(0,2.5e-5)"
         id="path51" />
    </clipPath>
    <clipPath
       clipPathUnits="userSpaceOnUse"
       id="clipPath53">
      <path
         d="m 1849.09,3569.57 -52.73,91.32 -52.72,-91.32 z"
         transform="translate(0,2.5e-5)"
         id="path53" />
    </clipPath>
    <clipPath
       clipPathUnits="userSpaceOnUse"
       id="clipPath55">
      <path
         d="m 1849.09,3569.57 -52.73,91.32 -52.72,-91.32 z"
         transform="translate(0,2.5e-5)"
         id="path55" />
    </clipPath>
    <clipPath
       clipPathUnits="userSpaceOnUse"
       id="clipPath57">
      <path
         d="m 1849.09,3569.57 -52.73,91.32 -52.72,-91.32 z"
         transform="translate(0,2.5e-5)"
         id="path57" />
    </clipPath>
    <clipPath
       clipPathUnits="userSpaceOnUse"
       id="clipPath59">
      <path
         d="m 1849.09,3569.57 -52.73,91.32 -52.72,-91.32 z"
         transform="translate(0,2.5e-5)"
         id="path59" />
    </clipPath>
    <clipPath
       clipPathUnits="userSpaceOnUse"
       id="clipPath61">
      <path
         d="m 1849.09,3569.57 -52.73,91.32 -52.72,-91.32 z"
         transform="translate(0,2.5e-5)"
         id="path61" />
    </clipPath>
    <clipPath
       clipPathUnits="userSpaceOnUse"
       id="clipPath63">
      <path
         d="m 1849.09,3569.57 -52.73,91.32 -52.72,-91.32 z"
         transform="translate(0,2.5e-5)"
         id="path63" />
    </clipPath>
    <clipPath
       clipPathUnits="userSpaceOnUse"
       id="clipPath65">
      <path
         d="m 1849.09,3569.57 -52.73,91.32 -52.72,-91.32 z"
         transform="translate(0,2.5e-5)"
         id="path65" />
    </clipPath>
    <clipPath
       clipPathUnits="userSpaceOnUse"
       id="clipPath67">
      <path
         d="m 1849.09,3569.57 -52.73,91.32 -52.72,-91.32 z"
         transform="translate(0,2.5e-5)"
         id="path67" />
    </clipPath>
    <clipPath
       clipPathUnits="userSpaceOnUse"
       id="clipPath69">
      <path
         d="m 1849.09,3569.57 -52.73,91.32 -52.72,-91.32 z"
         transform="translate(0,2.5e-5)"
         id="path69" />
    </clipPath>
    <clipPath
       clipPathUnits="userSpaceOnUse"
       id="clipPath75">
      <path
         d="m 1651.04,3226.3 -52.73,91.33 -52.72,-91.33 z"
         transform="translate(0,2.5e-5)"
         id="path75" />
    </clipPath>
    <clipPath
       clipPathUnits="userSpaceOnUse"
       id="clipPath77">
      <path
         d="m 1651.04,3226.3 -52.73,91.33 -52.72,-91.33 z"
         transform="translate(0,2.5e-5)"
         id="path77" />
    </clipPath>
    <clipPath
       clipPathUnits="userSpaceOnUse"
       id="clipPath79">
      <path
         d="m 1651.04,3226.3 -52.73,91.33 -52.72,-91.33 z"
         transform="translate(0,2.5e-5)"
         id="path79" />
    </clipPath>
    <clipPath
       clipPathUnits="userSpaceOnUse"
       id="clipPath81">
      <path
         d="m 1651.04,3226.3 -52.73,91.33 -52.72,-91.33 z"
         transform="translate(0,2.5e-5)"
         id="path81" />
    </clipPath>
    <clipPath
       clipPathUnits="userSpaceOnUse"
       id="clipPath83">
      <path
         d="m 1651.04,3226.3 -52.73,91.33 -52.72,-91.33 z"
         transform="translate(0,2.5e-5)"
         id="path83" />
    </clipPath>
    <clipPath
       clipPathUnits="userSpaceOnUse"
       id="clipPath85">
      <path
         d="m 1651.04,3226.3 -52.73,91.33 -52.72,-91.33 z"
         transform="translate(0,2.5e-5)"
         id="path85" />
    </clipPath>
    <clipPath
       clipPathUnits="userSpaceOnUse"
       id="clipPath87">
      <path
         d="m 1651.04,3226.3 -52.73,91.33 -52.72,-91.33 z"
         transform="translate(0,2.5e-5)"
         id="path87" />
    </clipPath>
    <clipPath
       clipPathUnits="userSpaceOnUse"
       id="clipPath89">
      <path
         d="m 1651.04,3226.3 -52.73,91.33 -52.72,-91.33 z"
         transform="translate(0,2.5e-5)"
         id="path89" />
    </clipPath>
    <clipPath
       clipPathUnits="userSpaceOnUse"
       id="clipPath91">
      <path
         d="m 1651.04,3226.3 -52.73,91.33 -52.72,-91.33 z"
         transform="translate(0,2.5e-5)"
         id="path91" />
    </clipPath>
    <clipPath
       clipPathUnits="userSpaceOnUse"
       id="clipPath93">
      <path
         d="m 1651.04,3226.3 -52.73,91.33 -52.72,-91.33 z"
         transform="translate(0,2.5e-5)"
         id="path93" />
    </clipPath>
    <clipPath
       clipPathUnits="userSpaceOnUse"
       id="clipPath95">
      <path
         d="m 1651.04,3226.3 -52.73,91.33 -52.72,-91.33 z"
         transform="translate(0,2.5e-5)"
         id="path95" />
    </clipPath>
    <clipPath
       clipPathUnits="userSpaceOnUse"
       id="clipPath97">
      <path
         d="m 1651.04,3226.3 -52.73,91.33 -52.72,-91.33 z"
         transform="translate(0,2.5e-5)"
         id="path97" />
    </clipPath>
    <clipPath
       clipPathUnits="userSpaceOnUse"
       id="clipPath103">
      <path
         d="m 1056.36,3569.57 -52.72,91.32 -52.734,-91.32 z"
         transform="translate(0,2.5e-5)"
         id="path103" />
    </clipPath>
    <clipPath
       clipPathUnits="userSpaceOnUse"
       id="clipPath105">
      <path
         d="m 1056.36,3569.57 -52.72,91.32 -52.734,-91.32 z"
         transform="translate(0,2.5e-5)"
         id="path105" />
    </clipPath>
    <clipPath
       clipPathUnits="userSpaceOnUse"
       id="clipPath107">
      <path
         d="m 1056.36,3569.57 -52.72,91.32 -52.734,-91.32 z"
         transform="translate(0,2.5e-5)"
         id="path107" />
    </clipPath>
    <clipPath
       clipPathUnits="userSpaceOnUse"
       id="clipPath109">
      <path
         d="m 1056.36,3569.57 -52.72,91.32 -52.734,-91.32 z"
         transform="translate(0,2.5e-5)"
         id="path109" />
    </clipPath>
    <clipPath
       clipPathUnits="userSpaceOnUse"
       id="clipPath111">
      <path
         d="m 1056.36,3569.57 -52.72,91.32 -52.734,-91.32 z"
         transform="translate(0,2.5e-5)"
         id="path111" />
    </clipPath>
    <clipPath
       clipPathUnits="userSpaceOnUse"
       id="clipPath113">
      <path
         d="m 1056.36,3569.57 -52.72,91.32 -52.734,-91.32 z"
         transform="translate(0,2.5e-5)"
         id="path113" />
    </clipPath>
    <clipPath
       clipPathUnits="userSpaceOnUse"
       id="clipPath115">
      <path
         d="m 1056.36,3569.57 -52.72,91.32 -52.734,-91.32 z"
         transform="translate(0,2.5e-5)"
         id="path115" />
    </clipPath>
    <clipPath
       clipPathUnits="userSpaceOnUse"
       id="clipPath117">
      <path
         d="m 1056.36,3569.57 -52.72,91.32 -52.734,-91.32 z"
         transform="translate(0,2.5e-5)"
         id="path117" />
    </clipPath>
    <clipPath
       clipPathUnits="userSpaceOnUse"
       id="clipPath119">
      <path
         d="m 1056.36,3569.57 -52.72,91.32 -52.734,-91.32 z"
         transform="translate(0,2.5e-5)"
         id="path119" />
    </clipPath>
    <clipPath
       clipPathUnits="userSpaceOnUse"
       id="clipPath121">
      <path
         d="m 1056.36,3569.57 -52.72,91.32 -52.734,-91.32 z"
         transform="translate(0,2.5e-5)"
         id="path121" />
    </clipPath>
    <clipPath
       clipPathUnits="userSpaceOnUse"
       id="clipPath123">
      <path
         d="m 1056.36,3569.57 -52.72,91.32 -52.734,-91.32 z"
         transform="translate(0,2.5e-5)"
         id="path123" />
    </clipPath>
    <clipPath
       clipPathUnits="userSpaceOnUse"
       id="clipPath125">
      <path
         d="m 1056.36,3569.57 -52.72,91.32 -52.734,-91.32 z"
         transform="translate(0,2.5e-5)"
         id="path125" />
    </clipPath>
    <clipPath
       clipPathUnits="userSpaceOnUse"
       id="clipPath131">
      <path
         d="m 1254.49,3226.3 -52.72,91.33 -52.73,-91.33 z"
         transform="translate(0,2.5e-5)"
         id="path131" />
    </clipPath>
    <clipPath
       clipPathUnits="userSpaceOnUse"
       id="clipPath133">
      <path
         d="m 1254.49,3226.3 -52.72,91.33 -52.73,-91.33 z"
         transform="translate(0,2.5e-5)"
         id="path133" />
    </clipPath>
    <clipPath
       clipPathUnits="userSpaceOnUse"
       id="clipPath135">
      <path
         d="m 1254.49,3226.3 -52.72,91.33 -52.73,-91.33 z"
         transform="translate(0,2.5e-5)"
         id="path135" />
    </clipPath>
    <clipPath
       clipPathUnits="userSpaceOnUse"
       id="clipPath137">
      <path
         d="m 1254.49,3226.3 -52.72,91.33 -52.73,-91.33 z"
         transform="translate(0,2.5e-5)"
         id="path137" />
    </clipPath>
    <clipPath
       clipPathUnits="userSpaceOnUse"
       id="clipPath139">
      <path
         d="m 1254.49,3226.3 -52.72,91.33 -52.73,-91.33 z"
         transform="translate(0,2.5e-5)"
         id="path139" />
    </clipPath>
    <clipPath
       clipPathUnits="userSpaceOnUse"
       id="clipPath141">
      <path
         d="m 1254.49,3226.3 -52.72,91.33 -52.73,-91.33 z"
         transform="translate(0,2.5e-5)"
         id="path141" />
    </clipPath>
    <clipPath
       clipPathUnits="userSpaceOnUse"
       id="clipPath143">
      <path
         d="m 1254.49,3226.3 -52.72,91.33 -52.73,-91.33 z"
         transform="translate(0,2.5e-5)"
         id="path143" />
    </clipPath>
    <clipPath
       clipPathUnits="userSpaceOnUse"
       id="clipPath145">
      <path
         d="m 1254.49,3226.3 -52.72,91.33 -52.73,-91.33 z"
         transform="translate(0,2.5e-5)"
         id="path145" />
    </clipPath>
    <clipPath
       clipPathUnits="userSpaceOnUse"
       id="clipPath147">
      <path
         d="m 1254.49,3226.3 -52.72,91.33 -52.73,-91.33 z"
         transform="translate(0,2.5e-5)"
         id="path147" />
    </clipPath>
    <clipPath
       clipPathUnits="userSpaceOnUse"
       id="clipPath149">
      <path
         d="m 1254.49,3226.3 -52.72,91.33 -52.73,-91.33 z"
         transform="translate(0,2.5e-5)"
         id="path149" />
    </clipPath>
    <clipPath
       clipPathUnits="userSpaceOnUse"
       id="clipPath151">
      <path
         d="m 1254.49,3226.3 -52.72,91.33 -52.73,-91.33 z"
         transform="translate(0,2.5e-5)"
         id="path151" />
    </clipPath>
    <clipPath
       clipPathUnits="userSpaceOnUse"
       id="clipPath153">
      <path
         d="m 1254.49,3226.3 -52.72,91.33 -52.73,-91.33 z"
         transform="translate(0,2.5e-5)"
         id="path153" />
    </clipPath>
    <clipPath
       clipPathUnits="userSpaceOnUse"
       id="clipPath162">
      <path
         d="m 1254.49,3912.83 -52.72,91.32 -52.73,-91.32 z"
         transform="translate(0,2.5e-5)"
         id="path162" />
    </clipPath>
    <clipPath
       clipPathUnits="userSpaceOnUse"
       id="clipPath164">
      <path
         d="m 1254.49,3912.83 -52.72,91.32 -52.73,-91.32 z"
         transform="translate(0,2.5e-5)"
         id="path164" />
    </clipPath>
    <clipPath
       clipPathUnits="userSpaceOnUse"
       id="clipPath166">
      <path
         d="m 1254.49,3912.83 -52.72,91.32 -52.73,-91.32 z"
         transform="translate(0,2.5e-5)"
         id="path166" />
    </clipPath>
    <clipPath
       clipPathUnits="userSpaceOnUse"
       id="clipPath168">
      <path
         d="m 1254.49,3912.83 -52.72,91.32 -52.73,-91.32 z"
         transform="translate(0,2.5e-5)"
         id="path168" />
    </clipPath>
    <clipPath
       clipPathUnits="userSpaceOnUse"
       id="clipPath170">
      <path
         d="m 1254.49,3912.83 -52.72,91.32 -52.73,-91.32 z"
         transform="translate(0,2.5e-5)"
         id="path170" />
    </clipPath>
    <clipPath
       clipPathUnits="userSpaceOnUse"
       id="clipPath172">
      <path
         d="m 1254.49,3912.83 -52.72,91.32 -52.73,-91.32 z"
         transform="translate(0,2.5e-5)"
         id="path172" />
    </clipPath>
    <clipPath
       clipPathUnits="userSpaceOnUse"
       id="clipPath174">
      <path
         d="m 1254.49,3912.83 -52.72,91.32 -52.73,-91.32 z"
         transform="translate(0,2.5e-5)"
         id="path174" />
    </clipPath>
    <clipPath
       clipPathUnits="userSpaceOnUse"
       id="clipPath176">
      <path
         d="m 1254.49,3912.83 -52.72,91.32 -52.73,-91.32 z"
         transform="translate(0,2.5e-5)"
         id="path176" />
    </clipPath>
    <clipPath
       clipPathUnits="userSpaceOnUse"
       id="clipPath178">
      <path
         d="m 1254.49,3912.83 -52.72,91.32 -52.73,-91.32 z"
         transform="translate(0,2.5e-5)"
         id="path178" />
    </clipPath>
    <clipPath
       clipPathUnits="userSpaceOnUse"
       id="clipPath180">
      <path
         d="m 1254.49,3912.83 -52.72,91.32 -52.73,-91.32 z"
         transform="translate(0,2.5e-5)"
         id="path180" />
    </clipPath>
    <clipPath
       clipPathUnits="userSpaceOnUse"
       id="clipPath182">
      <path
         d="m 1254.49,3912.83 -52.72,91.32 -52.73,-91.32 z"
         transform="translate(0,2.5e-5)"
         id="path182" />
    </clipPath>
    <clipPath
       clipPathUnits="userSpaceOnUse"
       id="clipPath184">
      <path
         d="m 1254.49,3912.83 -52.72,91.32 -52.73,-91.32 z"
         transform="translate(0,2.5e-5)"
         id="path184" />
    </clipPath>
    <clipPath
       clipPathUnits="userSpaceOnUse"
       id="clipPath240">
      <path
         d="m 3600,3861.08 c -24.18,0 -43.77,-19.59 -43.77,-43.77 0,-24.18 19.59,-43.77 43.77,-43.77 24.18,0 43.77,19.59 43.77,43.77 0,24.18 -19.59,43.77 -43.77,43.77 z"
         transform="translate(0,2.5e-5)"
         id="path240" />
    </clipPath>
    <clipPath
       clipPathUnits="userSpaceOnUse"
       id="clipPath242">
      <path
         d="m 3600,3861.08 c -24.18,0 -43.77,-19.59 -43.77,-43.77 0,-24.18 19.59,-43.77 43.77,-43.77 24.18,0 43.77,19.59 43.77,43.77 0,24.18 -19.59,43.77 -43.77,43.77 z"
         transform="translate(0,2.5e-5)"
         id="path242" />
    </clipPath>
    <clipPath
       clipPathUnits="userSpaceOnUse"
       id="clipPath244">
      <path
         d="m 3600,3861.08 c -24.18,0 -43.77,-19.59 -43.77,-43.77 0,-24.18 19.59,-43.77 43.77,-43.77 24.18,0 43.77,19.59 43.77,43.77 0,24.18 -19.59,43.77 -43.77,43.77 z"
         transform="translate(0,2.5e-5)"
         id="path244" />
    </clipPath>
    <clipPath
       clipPathUnits="userSpaceOnUse"
       id="clipPath246">
      <path
         d="m 3600,3861.08 c -24.18,0 -43.77,-19.59 -43.77,-43.77 0,-24.18 19.59,-43.77 43.77,-43.77 24.18,0 43.77,19.59 43.77,43.77 0,24.18 -19.59,43.77 -43.77,43.77 z"
         transform="translate(0,2.5e-5)"
         id="path246" />
    </clipPath>
    <clipPath
       clipPathUnits="userSpaceOnUse"
       id="clipPath248">
      <path
         d="m 3600,3861.08 c -24.18,0 -43.77,-19.59 -43.77,-43.77 0,-24.18 19.59,-43.77 43.77,-43.77 24.18,0 43.77,19.59 43.77,43.77 0,24.18 -19.59,43.77 -43.77,43.77 z"
         transform="translate(0,2.5e-5)"
         id="path248" />
    </clipPath>
    <clipPath
       clipPathUnits="userSpaceOnUse"
       id="clipPath250">
      <path
         d="m 3600,3861.08 c -24.18,0 -43.77,-19.59 -43.77,-43.77 0,-24.18 19.59,-43.77 43.77,-43.77 24.18,0 43.77,19.59 43.77,43.77 0,24.18 -19.59,43.77 -43.77,43.77 z"
         transform="translate(0,2.5e-5)"
         id="path250" />
    </clipPath>
    <clipPath
       clipPathUnits="userSpaceOnUse"
       id="clipPath254">
      <path
         d="m 3600,3427.03 c -24.18,0 -43.77,-19.6 -43.77,-43.78 0,-24.17 19.59,-43.77 43.77,-43.77 24.18,0 43.77,19.6 43.77,43.77 0,24.18 -19.59,43.78 -43.77,43.78 z"
         transform="translate(0,2.5e-5)"
         id="path254" />
    </clipPath>
    <clipPath
       clipPathUnits="userSpaceOnUse"
       id="clipPath256">
      <path
         d="m 3600,3427.03 c -24.18,0 -43.77,-19.6 -43.77,-43.78 0,-24.17 19.59,-43.77 43.77,-43.77 24.18,0 43.77,19.6 43.77,43.77 0,24.18 -19.59,43.78 -43.77,43.78 z"
         transform="translate(0,2.5e-5)"
         id="path256" />
    </clipPath>
    <clipPath
       clipPathUnits="userSpaceOnUse"
       id="clipPath258">
      <path
         d="m 3600,3427.03 c -24.18,0 -43.77,-19.6 -43.77,-43.78 0,-24.17 19.59,-43.77 43.77,-43.77 24.18,0 43.77,19.6 43.77,43.77 0,24.18 -19.59,43.78 -43.77,43.78 z"
         transform="translate(0,2.5e-5)"
         id="path258" />
    </clipPath>
    <clipPath
       clipPathUnits="userSpaceOnUse"
       id="clipPath260">
      <path
         d="m 3600,3427.03 c -24.18,0 -43.77,-19.6 -43.77,-43.78 0,-24.17 19.59,-43.77 43.77,-43.77 24.18,0 43.77,19.6 43.77,43.77 0,24.18 -19.59,43.78 -43.77,43.78 z"
         transform="translate(0,2.5e-5)"
         id="path260" />
    </clipPath>
    <clipPath
       clipPathUnits="userSpaceOnUse"
       id="clipPath262">
      <path
         d="m 3600,3427.03 c -24.18,0 -43.77,-19.6 -43.77,-43.78 0,-24.17 19.59,-43.77 43.77,-43.77 24.18,0 43.77,19.6 43.77,43.77 0,24.18 -19.59,43.78 -43.77,43.78 z"
         transform="translate(0,2.5e-5)"
         id="path262" />
    </clipPath>
    <clipPath
       clipPathUnits="userSpaceOnUse"
       id="clipPath264">
      <path
         d="m 3600,3427.03 c -24.18,0 -43.77,-19.6 -43.77,-43.78 0,-24.17 19.59,-43.77 43.77,-43.77 24.18,0 43.77,19.6 43.77,43.77 0,24.18 -19.59,43.78 -43.77,43.78 z"
         transform="translate(0,2.5e-5)"
         id="path264" />
    </clipPath>
    <clipPath
       clipPathUnits="userSpaceOnUse"
       id="clipPath367">
      <path
         d="m 1507.28,1400 c 0,59.25 -48.03,107.29 -107.28,107.29 -59.25,0 -107.28,-48.04 -107.28,-107.29 0,-59.25 48.03,-107.28 107.28,-107.28 59.25,0 107.28,48.03 107.28,107.28 z"
         transform="translate(0,2.5e-5)"
         id="path367" />
    </clipPath>
    <clipPath
       clipPathUnits="userSpaceOnUse"
       id="clipPath369">
      <path
         d="m 1507.28,1400 c 0,59.25 -48.03,107.29 -107.28,107.29 -59.25,0 -107.28,-48.04 -107.28,-107.29 0,-59.25 48.03,-107.28 107.28,-107.28 59.25,0 107.28,48.03 107.28,107.28 z"
         transform="translate(0,2.5e-5)"
         id="path369" />
    </clipPath>
    <clipPath
       clipPathUnits="userSpaceOnUse"
       id="clipPath371">
      <path
         d="m 1507.28,1400 c 0,59.25 -48.03,107.29 -107.28,107.29 -59.25,0 -107.28,-48.04 -107.28,-107.29 0,-59.25 48.03,-107.28 107.28,-107.28 59.25,0 107.28,48.03 107.28,107.28 z"
         transform="translate(0,2.5e-5)"
         id="path371" />
    </clipPath>
    <clipPath
       clipPathUnits="userSpaceOnUse"
       id="clipPath373">
      <path
         d="m 1507.28,1400 c 0,59.25 -48.03,107.29 -107.28,107.29 -59.25,0 -107.28,-48.04 -107.28,-107.29 0,-59.25 48.03,-107.28 107.28,-107.28 59.25,0 107.28,48.03 107.28,107.28 z"
         transform="translate(0,2.5e-5)"
         id="path373" />
    </clipPath>
    <clipPath
       clipPathUnits="userSpaceOnUse"
       id="clipPath375">
      <path
         d="m 1507.28,1400 c 0,59.25 -48.03,107.29 -107.28,107.29 -59.25,0 -107.28,-48.04 -107.28,-107.29 0,-59.25 48.03,-107.28 107.28,-107.28 59.25,0 107.28,48.03 107.28,107.28 z"
         transform="translate(0,2.5e-5)"
         id="path375" />
    </clipPath>
    <clipPath
       clipPathUnits="userSpaceOnUse"
       id="clipPath377">
      <path
         d="m 1507.28,1400 c 0,59.25 -48.03,107.29 -107.28,107.29 -59.25,0 -107.28,-48.04 -107.28,-107.29 0,-59.25 48.03,-107.28 107.28,-107.28 59.25,0 107.28,48.03 107.28,107.28 z"
         transform="translate(0,2.5e-5)"
         id="path377" />
    </clipPath>
    <clipPath
       clipPathUnits="userSpaceOnUse"
       id="clipPath379">
      <path
         d="m 1507.28,1400 c 0,59.25 -48.03,107.29 -107.28,107.29 -59.25,0 -107.28,-48.04 -107.28,-107.29 0,-59.25 48.03,-107.28 107.28,-107.28 59.25,0 107.28,48.03 107.28,107.28 z"
         transform="translate(0,2.5e-5)"
         id="path379" />
    </clipPath>
    <clipPath
       clipPathUnits="userSpaceOnUse"
       id="clipPath381">
      <path
         d="m 1507.28,1400 c 0,59.25 -48.03,107.29 -107.28,107.29 -59.25,0 -107.28,-48.04 -107.28,-107.29 0,-59.25 48.03,-107.28 107.28,-107.28 59.25,0 107.28,48.03 107.28,107.28 z"
         transform="translate(0,2.5e-5)"
         id="path381" />
    </clipPath>
    <clipPath
       clipPathUnits="userSpaceOnUse"
       id="clipPath383">
      <path
         d="m 1507.28,1400 c 0,59.25 -48.03,107.29 -107.28,107.29 -59.25,0 -107.28,-48.04 -107.28,-107.29 0,-59.25 48.03,-107.28 107.28,-107.28 59.25,0 107.28,48.03 107.28,107.28 z"
         transform="translate(0,2.5e-5)"
         id="path383" />
    </clipPath>
    <clipPath
       clipPathUnits="userSpaceOnUse"
       id="clipPath385">
      <path
         d="m 1507.28,1400 c 0,59.25 -48.03,107.29 -107.28,107.29 -59.25,0 -107.28,-48.04 -107.28,-107.29 0,-59.25 48.03,-107.28 107.28,-107.28 59.25,0 107.28,48.03 107.28,107.28 z"
         transform="translate(0,2.5e-5)"
         id="path385" />
    </clipPath>
    <clipPath
       clipPathUnits="userSpaceOnUse"
       id="clipPath387">
      <path
         d="m 1507.28,1400 c 0,59.25 -48.03,107.29 -107.28,107.29 -59.25,0 -107.28,-48.04 -107.28,-107.29 0,-59.25 48.03,-107.28 107.28,-107.28 59.25,0 107.28,48.03 107.28,107.28 z"
         transform="translate(0,2.5e-5)"
         id="path387" />
    </clipPath>
    <clipPath
       clipPathUnits="userSpaceOnUse"
       id="clipPath389">
      <path
         d="m 1507.28,1400 c 0,59.25 -48.03,107.29 -107.28,107.29 -59.25,0 -107.28,-48.04 -107.28,-107.29 0,-59.25 48.03,-107.28 107.28,-107.28 59.25,0 107.28,48.03 107.28,107.28 z"
         transform="translate(0,2.5e-5)"
         id="path389" />
    </clipPath>
    <clipPath
       clipPathUnits="userSpaceOnUse"
       id="clipPath396">
      <path
         d="M 1470.13,1690.64 1400,1812.09 1329.87,1690.64 Z"
         transform="translate(0,2.5e-5)"
         id="path396" />
    </clipPath>
    <clipPath
       clipPathUnits="userSpaceOnUse"
       id="clipPath398">
      <path
         d="M 1470.13,1690.64 1400,1812.09 1329.87,1690.64 Z"
         transform="translate(0,2.5e-5)"
         id="path398" />
    </clipPath>
    <clipPath
       clipPathUnits="userSpaceOnUse"
       id="clipPath400">
      <path
         d="M 1470.13,1690.64 1400,1812.09 1329.87,1690.64 Z"
         transform="translate(0,2.5e-5)"
         id="path400" />
    </clipPath>
    <clipPath
       clipPathUnits="userSpaceOnUse"
       id="clipPath402">
      <path
         d="M 1470.13,1690.64 1400,1812.09 1329.87,1690.64 Z"
         transform="translate(0,2.5e-5)"
         id="path402" />
    </clipPath>
    <clipPath
       clipPathUnits="userSpaceOnUse"
       id="clipPath404">
      <path
         d="M 1470.13,1690.64 1400,1812.09 1329.87,1690.64 Z"
         transform="translate(0,2.5e-5)"
         id="path404" />
    </clipPath>
    <clipPath
       clipPathUnits="userSpaceOnUse"
       id="clipPath406">
      <path
         d="M 1470.13,1690.64 1400,1812.09 1329.87,1690.64 Z"
         transform="translate(0,2.5e-5)"
         id="path406" />
    </clipPath>
    <clipPath
       clipPathUnits="userSpaceOnUse"
       id="clipPath408">
      <path
         d="M 1470.13,1690.64 1400,1812.09 1329.87,1690.64 Z"
         transform="translate(0,2.5e-5)"
         id="path408" />
    </clipPath>
    <clipPath
       clipPathUnits="userSpaceOnUse"
       id="clipPath410">
      <path
         d="M 1470.13,1690.64 1400,1812.09 1329.87,1690.64 Z"
         transform="translate(0,2.5e-5)"
         id="path410" />
    </clipPath>
    <clipPath
       clipPathUnits="userSpaceOnUse"
       id="clipPath412">
      <path
         d="M 1470.13,1690.64 1400,1812.09 1329.87,1690.64 Z"
         transform="translate(0,2.5e-5)"
         id="path412" />
    </clipPath>
    <clipPath
       clipPathUnits="userSpaceOnUse"
       id="clipPath414">
      <path
         d="M 1470.13,1690.64 1400,1812.09 1329.87,1690.64 Z"
         transform="translate(0,2.5e-5)"
         id="path414" />
    </clipPath>
    <clipPath
       clipPathUnits="userSpaceOnUse"
       id="clipPath416">
      <path
         d="M 1470.13,1690.64 1400,1812.09 1329.87,1690.64 Z"
         transform="translate(0,2.5e-5)"
         id="path416" />
    </clipPath>
    <clipPath
       clipPathUnits="userSpaceOnUse"
       id="clipPath418">
      <path
         d="M 1470.13,1690.64 1400,1812.09 1329.87,1690.64 Z"
         transform="translate(0,2.5e-5)"
         id="path418" />
    </clipPath>
    <clipPath
       clipPathUnits="userSpaceOnUse"
       id="clipPath422">
      <path
         d="m 1183.37,1193.96 -70.13,121.45 -70.12,-121.45 z"
         transform="translate(0,2.5e-5)"
         id="path422" />
    </clipPath>
    <clipPath
       clipPathUnits="userSpaceOnUse"
       id="clipPath424">
      <path
         d="m 1183.37,1193.96 -70.13,121.45 -70.12,-121.45 z"
         transform="translate(0,2.5e-5)"
         id="path424" />
    </clipPath>
    <clipPath
       clipPathUnits="userSpaceOnUse"
       id="clipPath426">
      <path
         d="m 1183.37,1193.96 -70.13,121.45 -70.12,-121.45 z"
         transform="translate(0,2.5e-5)"
         id="path426" />
    </clipPath>
    <clipPath
       clipPathUnits="userSpaceOnUse"
       id="clipPath428">
      <path
         d="m 1183.37,1193.96 -70.13,121.45 -70.12,-121.45 z"
         transform="translate(0,2.5e-5)"
         id="path428" />
    </clipPath>
    <clipPath
       clipPathUnits="userSpaceOnUse"
       id="clipPath430">
      <path
         d="m 1183.37,1193.96 -70.13,121.45 -70.12,-121.45 z"
         transform="translate(0,2.5e-5)"
         id="path430" />
    </clipPath>
    <clipPath
       clipPathUnits="userSpaceOnUse"
       id="clipPath432">
      <path
         d="m 1183.37,1193.96 -70.13,121.45 -70.12,-121.45 z"
         transform="translate(0,2.5e-5)"
         id="path432" />
    </clipPath>
    <clipPath
       clipPathUnits="userSpaceOnUse"
       id="clipPath434">
      <path
         d="m 1183.37,1193.96 -70.13,121.45 -70.12,-121.45 z"
         transform="translate(0,2.5e-5)"
         id="path434" />
    </clipPath>
    <clipPath
       clipPathUnits="userSpaceOnUse"
       id="clipPath436">
      <path
         d="m 1183.37,1193.96 -70.13,121.45 -70.12,-121.45 z"
         transform="translate(0,2.5e-5)"
         id="path436" />
    </clipPath>
    <clipPath
       clipPathUnits="userSpaceOnUse"
       id="clipPath438">
      <path
         d="m 1183.37,1193.96 -70.13,121.45 -70.12,-121.45 z"
         transform="translate(0,2.5e-5)"
         id="path438" />
    </clipPath>
    <clipPath
       clipPathUnits="userSpaceOnUse"
       id="clipPath440">
      <path
         d="m 1183.37,1193.96 -70.13,121.45 -70.12,-121.45 z"
         transform="translate(0,2.5e-5)"
         id="path440" />
    </clipPath>
    <clipPath
       clipPathUnits="userSpaceOnUse"
       id="clipPath442">
      <path
         d="m 1183.37,1193.96 -70.13,121.45 -70.12,-121.45 z"
         transform="translate(0,2.5e-5)"
         id="path442" />
    </clipPath>
    <clipPath
       clipPathUnits="userSpaceOnUse"
       id="clipPath444">
      <path
         d="m 1183.37,1193.96 -70.13,121.45 -70.12,-121.45 z"
         transform="translate(0,2.5e-5)"
         id="path444" />
    </clipPath>
    <clipPath
       clipPathUnits="userSpaceOnUse"
       id="clipPath448">
      <path
         d="m 1756.88,1193.96 -70.12,121.45 -70.13,-121.45 z"
         transform="translate(0,2.5e-5)"
         id="path448" />
    </clipPath>
    <clipPath
       clipPathUnits="userSpaceOnUse"
       id="clipPath450">
      <path
         d="m 1756.88,1193.96 -70.12,121.45 -70.13,-121.45 z"
         transform="translate(0,2.5e-5)"
         id="path450" />
    </clipPath>
    <clipPath
       clipPathUnits="userSpaceOnUse"
       id="clipPath452">
      <path
         d="m 1756.88,1193.96 -70.12,121.45 -70.13,-121.45 z"
         transform="translate(0,2.5e-5)"
         id="path452" />
    </clipPath>
    <clipPath
       clipPathUnits="userSpaceOnUse"
       id="clipPath454">
      <path
         d="m 1756.88,1193.96 -70.12,121.45 -70.13,-121.45 z"
         transform="translate(0,2.5e-5)"
         id="path454" />
    </clipPath>
    <clipPath
       clipPathUnits="userSpaceOnUse"
       id="clipPath456">
      <path
         d="m 1756.88,1193.96 -70.12,121.45 -70.13,-121.45 z"
         transform="translate(0,2.5e-5)"
         id="path456" />
    </clipPath>
    <clipPath
       clipPathUnits="userSpaceOnUse"
       id="clipPath458">
      <path
         d="m 1756.88,1193.96 -70.12,121.45 -70.13,-121.45 z"
         transform="translate(0,2.5e-5)"
         id="path458" />
    </clipPath>
    <clipPath
       clipPathUnits="userSpaceOnUse"
       id="clipPath460">
      <path
         d="m 1756.88,1193.96 -70.12,121.45 -70.13,-121.45 z"
         transform="translate(0,2.5e-5)"
         id="path460" />
    </clipPath>
    <clipPath
       clipPathUnits="userSpaceOnUse"
       id="clipPath462">
      <path
         d="m 1756.88,1193.96 -70.12,121.45 -70.13,-121.45 z"
         transform="translate(0,2.5e-5)"
         id="path462" />
    </clipPath>
    <clipPath
       clipPathUnits="userSpaceOnUse"
       id="clipPath464">
      <path
         d="m 1756.88,1193.96 -70.12,121.45 -70.13,-121.45 z"
         transform="translate(0,2.5e-5)"
         id="path464" />
    </clipPath>
    <clipPath
       clipPathUnits="userSpaceOnUse"
       id="clipPath466">
      <path
         d="m 1756.88,1193.96 -70.12,121.45 -70.13,-121.45 z"
         transform="translate(0,2.5e-5)"
         id="path466" />
    </clipPath>
    <clipPath
       clipPathUnits="userSpaceOnUse"
       id="clipPath468">
      <path
         d="m 1756.88,1193.96 -70.12,121.45 -70.13,-121.45 z"
         transform="translate(0,2.5e-5)"
         id="path468" />
    </clipPath>
    <clipPath
       clipPathUnits="userSpaceOnUse"
       id="clipPath470">
      <path
         d="m 1756.88,1193.96 -70.12,121.45 -70.13,-121.45 z"
         transform="translate(0,2.5e-5)"
         id="path470" />
    </clipPath>
    <clipPath
       clipPathUnits="userSpaceOnUse"
       id="clipPath494">
      <path
         d="m 3844.95,1486.08 c 0,135.34 -109.71,245.03 -245.03,245.03 -135.33,0 -245.04,-109.69 -245.04,-245.03 0,-135.33 109.71,-245.03 245.04,-245.03 135.32,0 245.03,109.7 245.03,245.03 z"
         transform="translate(0,2.5e-5)"
         id="path494" />
    </clipPath>
    <clipPath
       clipPathUnits="userSpaceOnUse"
       id="clipPath496">
      <path
         d="m 3844.95,1486.08 c 0,135.34 -109.71,245.03 -245.03,245.03 -135.33,0 -245.04,-109.69 -245.04,-245.03 0,-135.33 109.71,-245.03 245.04,-245.03 135.32,0 245.03,109.7 245.03,245.03 z"
         transform="translate(0,2.5e-5)"
         id="path496" />
    </clipPath>
    <clipPath
       clipPathUnits="userSpaceOnUse"
       id="clipPath498">
      <path
         d="m 3844.95,1486.08 c 0,135.34 -109.71,245.03 -245.03,245.03 -135.33,0 -245.04,-109.69 -245.04,-245.03 0,-135.33 109.71,-245.03 245.04,-245.03 135.32,0 245.03,109.7 245.03,245.03 z"
         transform="translate(0,2.5e-5)"
         id="path498" />
    </clipPath>
    <clipPath
       clipPathUnits="userSpaceOnUse"
       id="clipPath500">
      <path
         d="m 3844.95,1486.08 c 0,135.34 -109.71,245.03 -245.03,245.03 -135.33,0 -245.04,-109.69 -245.04,-245.03 0,-135.33 109.71,-245.03 245.04,-245.03 135.32,0 245.03,109.7 245.03,245.03 z"
         transform="translate(0,2.5e-5)"
         id="path500" />
    </clipPath>
    <clipPath
       clipPathUnits="userSpaceOnUse"
       id="clipPath502">
      <path
         d="m 3844.95,1486.08 c 0,135.34 -109.71,245.03 -245.03,245.03 -135.33,0 -245.04,-109.69 -245.04,-245.03 0,-135.33 109.71,-245.03 245.04,-245.03 135.32,0 245.03,109.7 245.03,245.03 z"
         transform="translate(0,2.5e-5)"
         id="path502" />
    </clipPath>
    <clipPath
       clipPathUnits="userSpaceOnUse"
       id="clipPath504">
      <path
         d="m 3844.95,1486.08 c 0,135.34 -109.71,245.03 -245.03,245.03 -135.33,0 -245.04,-109.69 -245.04,-245.03 0,-135.33 109.71,-245.03 245.04,-245.03 135.32,0 245.03,109.7 245.03,245.03 z"
         transform="translate(0,2.5e-5)"
         id="path504" />
    </clipPath>
    <clipPath
       clipPathUnits="userSpaceOnUse"
       id="clipPath506">
      <path
         d="m 3844.95,1486.08 c 0,135.34 -109.71,245.03 -245.03,245.03 -135.33,0 -245.04,-109.69 -245.04,-245.03 0,-135.33 109.71,-245.03 245.04,-245.03 135.32,0 245.03,109.7 245.03,245.03 z"
         transform="translate(0,2.5e-5)"
         id="path506" />
    </clipPath>
    <clipPath
       clipPathUnits="userSpaceOnUse"
       id="clipPath508">
      <path
         d="m 3844.95,1486.08 c 0,135.34 -109.71,245.03 -245.03,245.03 -135.33,0 -245.04,-109.69 -245.04,-245.03 0,-135.33 109.71,-245.03 245.04,-245.03 135.32,0 245.03,109.7 245.03,245.03 z"
         transform="translate(0,2.5e-5)"
         id="path508" />
    </clipPath>
    <clipPath
       clipPathUnits="userSpaceOnUse"
       id="clipPath510">
      <path
         d="m 3844.95,1486.08 c 0,135.34 -109.71,245.03 -245.03,245.03 -135.33,0 -245.04,-109.69 -245.04,-245.03 0,-135.33 109.71,-245.03 245.04,-245.03 135.32,0 245.03,109.7 245.03,245.03 z"
         transform="translate(0,2.5e-5)"
         id="path510" />
    </clipPath>
    <clipPath
       clipPathUnits="userSpaceOnUse"
       id="clipPath512">
      <path
         d="m 3844.95,1486.08 c 0,135.34 -109.71,245.03 -245.03,245.03 -135.33,0 -245.04,-109.69 -245.04,-245.03 0,-135.33 109.71,-245.03 245.04,-245.03 135.32,0 245.03,109.7 245.03,245.03 z"
         transform="translate(0,2.5e-5)"
         id="path512" />
    </clipPath>
    <clipPath
       clipPathUnits="userSpaceOnUse"
       id="clipPath514">
      <path
         d="m 3844.95,1486.08 c 0,135.34 -109.71,245.03 -245.03,245.03 -135.33,0 -245.04,-109.69 -245.04,-245.03 0,-135.33 109.71,-245.03 245.04,-245.03 135.32,0 245.03,109.7 245.03,245.03 z"
         transform="translate(0,2.5e-5)"
         id="path514" />
    </clipPath>
    <clipPath
       clipPathUnits="userSpaceOnUse"
       id="clipPath516">
      <path
         d="m 3844.95,1486.08 c 0,135.34 -109.71,245.03 -245.03,245.03 -135.33,0 -245.04,-109.69 -245.04,-245.03 0,-135.33 109.71,-245.03 245.04,-245.03 135.32,0 245.03,109.7 245.03,245.03 z"
         transform="translate(0,2.5e-5)"
         id="path516" />
    </clipPath>
    <clipPath
       clipPathUnits="userSpaceOnUse"
       id="clipPath518">
      <path
         d="m 3844.95,1486.08 c 0,135.34 -109.71,245.03 -245.03,245.03 -135.33,0 -245.04,-109.69 -245.04,-245.03 0,-135.33 109.71,-245.03 245.04,-245.03 135.32,0 245.03,109.7 245.03,245.03 z"
         transform="translate(0,2.5e-5)"
         id="path518" />
    </clipPath>
    <clipPath
       clipPathUnits="userSpaceOnUse"
       id="clipPath520">
      <path
         d="m 3844.95,1486.08 c 0,135.34 -109.71,245.03 -245.03,245.03 -135.33,0 -245.04,-109.69 -245.04,-245.03 0,-135.33 109.71,-245.03 245.04,-245.03 135.32,0 245.03,109.7 245.03,245.03 z"
         transform="translate(0,2.5e-5)"
         id="path520" />
    </clipPath>
    <clipPath
       clipPathUnits="userSpaceOnUse"
       id="clipPath522">
      <path
         d="m 3844.95,1486.08 c 0,135.34 -109.71,245.03 -245.03,245.03 -135.33,0 -245.04,-109.69 -245.04,-245.03 0,-135.33 109.71,-245.03 245.04,-245.03 135.32,0 245.03,109.7 245.03,245.03 z"
         transform="translate(0,2.5e-5)"
         id="path522" />
    </clipPath>
    <clipPath
       clipPathUnits="userSpaceOnUse"
       id="clipPath524">
      <path
         d="m 3844.95,1486.08 c 0,135.34 -109.71,245.03 -245.03,245.03 -135.33,0 -245.04,-109.69 -245.04,-245.03 0,-135.33 109.71,-245.03 245.04,-245.03 135.32,0 245.03,109.7 245.03,245.03 z"
         transform="translate(0,2.5e-5)"
         id="path524" />
    </clipPath>
    <clipPath
       clipPathUnits="userSpaceOnUse"
       id="clipPath526">
      <path
         d="m 3844.95,1486.08 c 0,135.34 -109.71,245.03 -245.03,245.03 -135.33,0 -245.04,-109.69 -245.04,-245.03 0,-135.33 109.71,-245.03 245.04,-245.03 135.32,0 245.03,109.7 245.03,245.03 z"
         transform="translate(0,2.5e-5)"
         id="path526" />
    </clipPath>
    <clipPath
       clipPathUnits="userSpaceOnUse"
       id="clipPath528">
      <path
         d="m 3844.95,1486.08 c 0,135.34 -109.71,245.03 -245.03,245.03 -135.33,0 -245.04,-109.69 -245.04,-245.03 0,-135.33 109.71,-245.03 245.04,-245.03 135.32,0 245.03,109.7 245.03,245.03 z"
         transform="translate(0,2.5e-5)"
         id="path528" />
    </clipPath>
    <clipPath
       clipPathUnits="userSpaceOnUse"
       id="clipPath530">
      <path
         d="m 3844.95,1486.08 c 0,135.34 -109.71,245.03 -245.03,245.03 -135.33,0 -245.04,-109.69 -245.04,-245.03 0,-135.33 109.71,-245.03 245.04,-245.03 135.32,0 245.03,109.7 245.03,245.03 z"
         transform="translate(0,2.5e-5)"
         id="path530" />
    </clipPath>
    <clipPath
       clipPathUnits="userSpaceOnUse"
       id="clipPath532">
      <path
         d="m 3844.95,1486.08 c 0,135.34 -109.71,245.03 -245.03,245.03 -135.33,0 -245.04,-109.69 -245.04,-245.03 0,-135.33 109.71,-245.03 245.04,-245.03 135.32,0 245.03,109.7 245.03,245.03 z"
         transform="translate(0,2.5e-5)"
         id="path532" />
    </clipPath>
    <clipPath
       clipPathUnits="userSpaceOnUse"
       id="clipPath534">
      <path
         d="m 3844.95,1486.08 c 0,135.34 -109.71,245.03 -245.03,245.03 -135.33,0 -245.04,-109.69 -245.04,-245.03 0,-135.33 109.71,-245.03 245.04,-245.03 135.32,0 245.03,109.7 245.03,245.03 z"
         transform="translate(0,2.5e-5)"
         id="path534" />
    </clipPath>
    <clipPath
       clipPathUnits="userSpaceOnUse"
       id="clipPath536">
      <path
         d="m 3844.95,1486.08 c 0,135.34 -109.71,245.03 -245.03,245.03 -135.33,0 -245.04,-109.69 -245.04,-245.03 0,-135.33 109.71,-245.03 245.04,-245.03 135.32,0 245.03,109.7 245.03,245.03 z"
         transform="translate(0,2.5e-5)"
         id="path536" />
    </clipPath>
    <clipPath
       clipPathUnits="userSpaceOnUse"
       id="clipPath538">
      <path
         d="m 3844.95,1486.08 c 0,135.34 -109.71,245.03 -245.03,245.03 -135.33,0 -245.04,-109.69 -245.04,-245.03 0,-135.33 109.71,-245.03 245.04,-245.03 135.32,0 245.03,109.7 245.03,245.03 z"
         transform="translate(0,2.5e-5)"
         id="path538" />
    </clipPath>
    <clipPath
       clipPathUnits="userSpaceOnUse"
       id="clipPath540">
      <path
         d="m 3844.95,1486.08 c 0,135.34 -109.71,245.03 -245.03,245.03 -135.33,0 -245.04,-109.69 -245.04,-245.03 0,-135.33 109.71,-245.03 245.04,-245.03 135.32,0 245.03,109.7 245.03,245.03 z"
         transform="translate(0,2.5e-5)"
         id="path540" />
    </clipPath>
    <clipPath
       clipPathUnits="userSpaceOnUse"
       id="clipPath542">
      <path
         d="m 3844.95,1486.08 c 0,135.34 -109.71,245.03 -245.03,245.03 -135.33,0 -245.04,-109.69 -245.04,-245.03 0,-135.33 109.71,-245.03 245.04,-245.03 135.32,0 245.03,109.7 245.03,245.03 z"
         transform="translate(0,2.5e-5)"
         id="path542" />
    </clipPath>
    <clipPath
       clipPathUnits="userSpaceOnUse"
       id="clipPath544">
      <path
         d="m 3844.95,1486.08 c 0,135.34 -109.71,245.03 -245.03,245.03 -135.33,0 -245.04,-109.69 -245.04,-245.03 0,-135.33 109.71,-245.03 245.04,-245.03 135.32,0 245.03,109.7 245.03,245.03 z"
         transform="translate(0,2.5e-5)"
         id="path544" />
    </clipPath>
    <clipPath
       clipPathUnits="userSpaceOnUse"
       id="clipPath546">
      <path
         d="m 3844.95,1486.08 c 0,135.34 -109.71,245.03 -245.03,245.03 -135.33,0 -245.04,-109.69 -245.04,-245.03 0,-135.33 109.71,-245.03 245.04,-245.03 135.32,0 245.03,109.7 245.03,245.03 z"
         transform="translate(0,2.5e-5)"
         id="path546" />
    </clipPath>
    <clipPath
       clipPathUnits="userSpaceOnUse"
       id="clipPath548">
      <path
         d="m 3844.95,1486.08 c 0,135.34 -109.71,245.03 -245.03,245.03 -135.33,0 -245.04,-109.69 -245.04,-245.03 0,-135.33 109.71,-245.03 245.04,-245.03 135.32,0 245.03,109.7 245.03,245.03 z"
         transform="translate(0,2.5e-5)"
         id="path548" />
    </clipPath>
    <clipPath
       clipPathUnits="userSpaceOnUse"
       id="clipPath550">
      <path
         d="m 3844.95,1486.08 c 0,135.34 -109.71,245.03 -245.03,245.03 -135.33,0 -245.04,-109.69 -245.04,-245.03 0,-135.33 109.71,-245.03 245.04,-245.03 135.32,0 245.03,109.7 245.03,245.03 z"
         transform="translate(0,2.5e-5)"
         id="path550" />
    </clipPath>
    <clipPath
       clipPathUnits="userSpaceOnUse"
       id="clipPath552">
      <path
         d="m 3844.95,1486.08 c 0,135.34 -109.71,245.03 -245.03,245.03 -135.33,0 -245.04,-109.69 -245.04,-245.03 0,-135.33 109.71,-245.03 245.04,-245.03 135.32,0 245.03,109.7 245.03,245.03 z"
         transform="translate(0,2.5e-5)"
         id="path552" />
    </clipPath>
    <clipPath
       clipPathUnits="userSpaceOnUse"
       id="clipPath554">
      <path
         d="m 3844.95,1486.08 c 0,135.34 -109.71,245.03 -245.03,245.03 -135.33,0 -245.04,-109.69 -245.04,-245.03 0,-135.33 109.71,-245.03 245.04,-245.03 135.32,0 245.03,109.7 245.03,245.03 z"
         transform="translate(0,2.5e-5)"
         id="path554" />
    </clipPath>
    <clipPath
       clipPathUnits="userSpaceOnUse"
       id="clipPath556">
      <path
         d="m 3844.95,1486.08 c 0,135.34 -109.71,245.03 -245.03,245.03 -135.33,0 -245.04,-109.69 -245.04,-245.03 0,-135.33 109.71,-245.03 245.04,-245.03 135.32,0 245.03,109.7 245.03,245.03 z"
         transform="translate(0,2.5e-5)"
         id="path556" />
    </clipPath>
    <clipPath
       clipPathUnits="userSpaceOnUse"
       id="clipPath558">
      <path
         d="m 3844.95,1486.08 c 0,135.34 -109.71,245.03 -245.03,245.03 -135.33,0 -245.04,-109.69 -245.04,-245.03 0,-135.33 109.71,-245.03 245.04,-245.03 135.32,0 245.03,109.7 245.03,245.03 z"
         transform="translate(0,2.5e-5)"
         id="path558" />
    </clipPath>
    <clipPath
       clipPathUnits="userSpaceOnUse"
       id="clipPath560">
      <path
         d="m 3844.95,1486.08 c 0,135.34 -109.71,245.03 -245.03,245.03 -135.33,0 -245.04,-109.69 -245.04,-245.03 0,-135.33 109.71,-245.03 245.04,-245.03 135.32,0 245.03,109.7 245.03,245.03 z"
         transform="translate(0,2.5e-5)"
         id="path560" />
    </clipPath>
    <clipPath
       clipPathUnits="userSpaceOnUse"
       id="clipPath562">
      <path
         d="m 3844.95,1486.08 c 0,135.34 -109.71,245.03 -245.03,245.03 -135.33,0 -245.04,-109.69 -245.04,-245.03 0,-135.33 109.71,-245.03 245.04,-245.03 135.32,0 245.03,109.7 245.03,245.03 z"
         transform="translate(0,2.5e-5)"
         id="path562" />
    </clipPath>
    <clipPath
       clipPathUnits="userSpaceOnUse"
       id="clipPath564">
      <path
         d="m 3844.95,1486.08 c 0,135.34 -109.71,245.03 -245.03,245.03 -135.33,0 -245.04,-109.69 -245.04,-245.03 0,-135.33 109.71,-245.03 245.04,-245.03 135.32,0 245.03,109.7 245.03,245.03 z"
         transform="translate(0,2.5e-5)"
         id="path564" />
    </clipPath>
    <clipPath
       clipPathUnits="userSpaceOnUse"
       id="clipPath566">
      <path
         d="m 3844.95,1486.08 c 0,135.34 -109.71,245.03 -245.03,245.03 -135.33,0 -245.04,-109.69 -245.04,-245.03 0,-135.33 109.71,-245.03 245.04,-245.03 135.32,0 245.03,109.7 245.03,245.03 z"
         transform="translate(0,2.5e-5)"
         id="path566" />
    </clipPath>
    <clipPath
       clipPathUnits="userSpaceOnUse"
       id="clipPath568">
      <path
         d="m 3844.95,1486.08 c 0,135.34 -109.71,245.03 -245.03,245.03 -135.33,0 -245.04,-109.69 -245.04,-245.03 0,-135.33 109.71,-245.03 245.04,-245.03 135.32,0 245.03,109.7 245.03,245.03 z"
         transform="translate(0,2.5e-5)"
         id="path568" />
    </clipPath>
    <clipPath
       clipPathUnits="userSpaceOnUse"
       id="clipPath570">
      <path
         d="m 3844.95,1486.08 c 0,135.34 -109.71,245.03 -245.03,245.03 -135.33,0 -245.04,-109.69 -245.04,-245.03 0,-135.33 109.71,-245.03 245.04,-245.03 135.32,0 245.03,109.7 245.03,245.03 z"
         transform="translate(0,2.5e-5)"
         id="path570" />
    </clipPath>
    <clipPath
       clipPathUnits="userSpaceOnUse"
       id="clipPath572">
      <path
         d="m 3844.95,1486.08 c 0,135.34 -109.71,245.03 -245.03,245.03 -135.33,0 -245.04,-109.69 -245.04,-245.03 0,-135.33 109.71,-245.03 245.04,-245.03 135.32,0 245.03,109.7 245.03,245.03 z"
         transform="translate(0,2.5e-5)"
         id="path572" />
    </clipPath>
    <clipPath
       clipPathUnits="userSpaceOnUse"
       id="clipPath574">
      <path
         d="m 3844.95,1486.08 c 0,135.34 -109.71,245.03 -245.03,245.03 -135.33,0 -245.04,-109.69 -245.04,-245.03 0,-135.33 109.71,-245.03 245.04,-245.03 135.32,0 245.03,109.7 245.03,245.03 z"
         transform="translate(0,2.5e-5)"
         id="path574" />
    </clipPath>
    <clipPath
       clipPathUnits="userSpaceOnUse"
       id="clipPath576">
      <path
         d="m 3844.95,1486.08 c 0,135.34 -109.71,245.03 -245.03,245.03 -135.33,0 -245.04,-109.69 -245.04,-245.03 0,-135.33 109.71,-245.03 245.04,-245.03 135.32,0 245.03,109.7 245.03,245.03 z"
         transform="translate(0,2.5e-5)"
         id="path576" />
    </clipPath>
    <clipPath
       clipPathUnits="userSpaceOnUse"
       id="clipPath578">
      <path
         d="m 3844.95,1486.08 c 0,135.34 -109.71,245.03 -245.03,245.03 -135.33,0 -245.04,-109.69 -245.04,-245.03 0,-135.33 109.71,-245.03 245.04,-245.03 135.32,0 245.03,109.7 245.03,245.03 z"
         transform="translate(0,2.5e-5)"
         id="path578" />
    </clipPath>
    <clipPath
       clipPathUnits="userSpaceOnUse"
       id="clipPath580">
      <path
         d="m 3844.95,1486.08 c 0,135.34 -109.71,245.03 -245.03,245.03 -135.33,0 -245.04,-109.69 -245.04,-245.03 0,-135.33 109.71,-245.03 245.04,-245.03 135.32,0 245.03,109.7 245.03,245.03 z"
         transform="translate(0,2.5e-5)"
         id="path580" />
    </clipPath>
    <clipPath
       clipPathUnits="userSpaceOnUse"
       id="clipPath582">
      <path
         d="m 3844.95,1486.08 c 0,135.34 -109.71,245.03 -245.03,245.03 -135.33,0 -245.04,-109.69 -245.04,-245.03 0,-135.33 109.71,-245.03 245.04,-245.03 135.32,0 245.03,109.7 245.03,245.03 z"
         transform="translate(0,2.5e-5)"
         id="path582" />
    </clipPath>
    <clipPath
       clipPathUnits="userSpaceOnUse"
       id="clipPath584">
      <path
         d="m 3844.95,1486.08 c 0,135.34 -109.71,245.03 -245.03,245.03 -135.33,0 -245.04,-109.69 -245.04,-245.03 0,-135.33 109.71,-245.03 245.04,-245.03 135.32,0 245.03,109.7 245.03,245.03 z"
         transform="translate(0,2.5e-5)"
         id="path584" />
    </clipPath>
    <clipPath
       clipPathUnits="userSpaceOnUse"
       id="clipPath586">
      <path
         d="m 3844.95,1486.08 c 0,135.34 -109.71,245.03 -245.03,245.03 -135.33,0 -245.04,-109.69 -245.04,-245.03 0,-135.33 109.71,-245.03 245.04,-245.03 135.32,0 245.03,109.7 245.03,245.03 z"
         transform="translate(0,2.5e-5)"
         id="path586" />
    </clipPath>
    <clipPath
       clipPathUnits="userSpaceOnUse"
       id="clipPath588">
      <path
         d="m 3844.95,1486.08 c 0,135.34 -109.71,245.03 -245.03,245.03 -135.33,0 -245.04,-109.69 -245.04,-245.03 0,-135.33 109.71,-245.03 245.04,-245.03 135.32,0 245.03,109.7 245.03,245.03 z"
         transform="translate(0,2.5e-5)"
         id="path588" />
    </clipPath>
    <clipPath
       clipPathUnits="userSpaceOnUse"
       id="clipPath590">
      <path
         d="m 3844.95,1486.08 c 0,135.34 -109.71,245.03 -245.03,245.03 -135.33,0 -245.04,-109.69 -245.04,-245.03 0,-135.33 109.71,-245.03 245.04,-245.03 135.32,0 245.03,109.7 245.03,245.03 z"
         transform="translate(0,2.5e-5)"
         id="path590" />
    </clipPath>
    <clipPath
       clipPathUnits="userSpaceOnUse"
       id="clipPath592">
      <path
         d="m 3844.95,1486.08 c 0,135.34 -109.71,245.03 -245.03,245.03 -135.33,0 -245.04,-109.69 -245.04,-245.03 0,-135.33 109.71,-245.03 245.04,-245.03 135.32,0 245.03,109.7 245.03,245.03 z"
         transform="translate(0,2.5e-5)"
         id="path592" />
    </clipPath>
    <clipPath
       clipPathUnits="userSpaceOnUse"
       id="clipPath594">
      <path
         d="m 3844.95,1486.08 c 0,135.34 -109.71,245.03 -245.03,245.03 -135.33,0 -245.04,-109.69 -245.04,-245.03 0,-135.33 109.71,-245.03 245.04,-245.03 135.32,0 245.03,109.7 245.03,245.03 z"
         transform="translate(0,2.5e-5)"
         id="path594" />
    </clipPath>
    <clipPath
       clipPathUnits="userSpaceOnUse"
       id="clipPath596">
      <path
         d="m 3844.95,1486.08 c 0,135.34 -109.71,245.03 -245.03,245.03 -135.33,0 -245.04,-109.69 -245.04,-245.03 0,-135.33 109.71,-245.03 245.04,-245.03 135.32,0 245.03,109.7 245.03,245.03 z"
         transform="translate(0,2.5e-5)"
         id="path596" />
    </clipPath>
    <clipPath
       clipPathUnits="userSpaceOnUse"
       id="clipPath598">
      <path
         d="m 3844.95,1486.08 c 0,135.34 -109.71,245.03 -245.03,245.03 -135.33,0 -245.04,-109.69 -245.04,-245.03 0,-135.33 109.71,-245.03 245.04,-245.03 135.32,0 245.03,109.7 245.03,245.03 z"
         transform="translate(0,2.5e-5)"
         id="path598" />
    </clipPath>
    <clipPath
       clipPathUnits="userSpaceOnUse"
       id="clipPath600">
      <path
         d="m 3844.95,1486.08 c 0,135.34 -109.71,245.03 -245.03,245.03 -135.33,0 -245.04,-109.69 -245.04,-245.03 0,-135.33 109.71,-245.03 245.04,-245.03 135.32,0 245.03,109.7 245.03,245.03 z"
         transform="translate(0,2.5e-5)"
         id="path600" />
    </clipPath>
    <clipPath
       clipPathUnits="userSpaceOnUse"
       id="clipPath602">
      <path
         d="m 3844.95,1486.08 c 0,135.34 -109.71,245.03 -245.03,245.03 -135.33,0 -245.04,-109.69 -245.04,-245.03 0,-135.33 109.71,-245.03 245.04,-245.03 135.32,0 245.03,109.7 245.03,245.03 z"
         transform="translate(0,2.5e-5)"
         id="path602" />
    </clipPath>
    <clipPath
       clipPathUnits="userSpaceOnUse"
       id="clipPath604">
      <path
         d="m 3844.95,1486.08 c 0,135.34 -109.71,245.03 -245.03,245.03 -135.33,0 -245.04,-109.69 -245.04,-245.03 0,-135.33 109.71,-245.03 245.04,-245.03 135.32,0 245.03,109.7 245.03,245.03 z"
         transform="translate(0,2.5e-5)"
         id="path604" />
    </clipPath>
    <clipPath
       clipPathUnits="userSpaceOnUse"
       id="clipPath606">
      <path
         d="m 3844.95,1486.08 c 0,135.34 -109.71,245.03 -245.03,245.03 -135.33,0 -245.04,-109.69 -245.04,-245.03 0,-135.33 109.71,-245.03 245.04,-245.03 135.32,0 245.03,109.7 245.03,245.03 z"
         transform="translate(0,2.5e-5)"
         id="path606" />
    </clipPath>
    <clipPath
       clipPathUnits="userSpaceOnUse"
       id="clipPath608">
      <path
         d="m 3844.95,1486.08 c 0,135.34 -109.71,245.03 -245.03,245.03 -135.33,0 -245.04,-109.69 -245.04,-245.03 0,-135.33 109.71,-245.03 245.04,-245.03 135.32,0 245.03,109.7 245.03,245.03 z"
         transform="translate(0,2.5e-5)"
         id="path608" />
    </clipPath>
  </defs>
  <rect x="372.85" y="79.51" width="214.31" height="214.31" fill="#1e1e20"/>
  <g transform="matrix(0.13333333,0,0,-0.13333333,0,666.66667)">
    <path
         id="path223"
         d="m 4255.21,3600 c 0,361.87 -293.34,655.22 -655.21,655.22 -361.87,0 -655.21,-293.35 -655.21,-655.22 0,-361.87 293.34,-655.21 655.21,-655.21 361.87,0 655.21,293.34 655.21,655.21 z"
         style="fill:none;stroke:#ffffff;stroke-width:5;stroke-linecap:round;stroke-linejoin:round;stroke-miterlimit:4;stroke-dasharray:25.1318, 40.2108, 25.1318, 40.2108, 25.1318, 40.2108;stroke-dashoffset:0;stroke-opacity:1" />
    <path
         id="path224"
         d="m 3747.3,3338.35 c 0,81.35 -65.95,147.3 -147.3,147.3 -81.35,0 -147.3,-65.95 -147.3,-147.3 0,-81.35 65.95,-147.3 147.3,-147.3 81.35,0 147.3,65.95 147.3,147.3 z"
         style="fill:none;stroke:#ffffff;stroke-width:5;stroke-linecap:round;stroke-linejoin:round;stroke-miterlimit:10;stroke-dasharray:none;stroke-opacity:1" />
    <path
         id="path225"
         d="m 4008.96,3600 c 0,225.86 -183.1,408.95 -408.96,408.95 -225.86,0 -408.96,-183.09 -408.96,-408.95 0,-225.86 183.1,-408.95 408.96,-408.95 225.86,0 408.96,183.09 408.96,408.95 z"
         style="fill:none;stroke:#ffffff;stroke-width:5;stroke-linecap:round;stroke-linejoin:round;stroke-miterlimit:4;stroke-dasharray:25.3337, 40.534, 25.3337, 40.534, 25.3337, 40.534;stroke-dashoffset:0;stroke-opacity:1" />
    <path
         id="path226"
         d="m 3747.3,3861.08 c 0,81.36 -65.95,147.31 -147.3,147.31 -81.35,0 -147.3,-65.95 -147.3,-147.31 0,-81.35 65.95,-147.3 147.3,-147.3 81.35,0 147.3,65.95 147.3,147.3 z"
         style="fill:none;stroke:#ffffff;stroke-width:5;stroke-linecap:round;stroke-linejoin:round;stroke-miterlimit:10;stroke-dasharray:none;stroke-opacity:1" />
    <path
         id="path227"
         d="m 4157.18,3600 c 0,307.72 -249.47,557.17 -557.18,557.17 -307.71,0 -557.18,-249.45 -557.18,-557.17 0,-307.72 249.47,-557.17 557.18,-557.17 307.71,0 557.18,249.45 557.18,557.17 z"
         style="fill:none;stroke:#ffffff;stroke-width:5;stroke-linecap:round;stroke-linejoin:round;stroke-miterlimit:10;stroke-dasharray:none;stroke-opacity:1" />
    <path
         id="path228"
         d="m 4036.95,3424.7 c 0,241.32 -195.63,436.95 -436.95,436.95 -241.32,0 -436.95,-195.63 -436.95,-436.95 0,-241.32 195.63,-436.95 436.95,-436.95 241.32,0 436.95,195.63 436.95,436.95 z"
         style="fill:none;stroke:#d3ae4c;stroke-width:10;stroke-linecap:round;stroke-linejoin:round;stroke-miterlimit:10;stroke-dasharray:none;stroke-opacity:1" />
    <path
         id="path229"
         d="M 3600,3773.54 3500.14,3600 3600,3427.03 l 99.71,173.25 -99.71,173.26"
         style="fill:#1e1e20;fill-opacity:1;fill-rule:nonzero;stroke:none" />
    <path
         id="path230"
         d="m 4036.95,3775.3 c 0,241.32 -195.63,436.95 -436.95,436.95 -241.32,0 -436.95,-195.63 -436.95,-436.95 0,-241.32 195.63,-436.95 436.95,-436.95 241.32,0 436.95,195.63 436.95,436.95 z"
         style="fill:none;stroke:#d3ae4c;stroke-width:10;stroke-linecap:round;stroke-linejoin:round;stroke-miterlimit:10;stroke-dasharray:none;stroke-opacity:1" />
    <path
         id="path231"
         d="m 3600,3427.03 508.96,881.52 H 3091.04 Z"
         style="fill:none;stroke:#d3ae4c;stroke-width:10;stroke-linecap:round;stroke-linejoin:round;stroke-miterlimit:10;stroke-dasharray:none;stroke-opacity:1" />
    <path
         id="path232"
         d="m 3600,3772.97 508.96,-881.52 H 3091.04 Z"
         style="fill:none;stroke:#d3ae4c;stroke-width:10;stroke-linecap:round;stroke-linejoin:round;stroke-miterlimit:10;stroke-dasharray:none;stroke-opacity:1" />
    <path
         id="path233"
         d="m 4308.55,3600 c 0,391.32 -317.22,708.55 -708.55,708.55 -391.33,0 -708.55,-317.23 -708.55,-708.55 0,-391.32 317.22,-708.55 708.55,-708.55 391.33,0 708.55,317.23 708.55,708.55 z"
         style="fill:none;stroke:#d3ae4c;stroke-width:10;stroke-linecap:round;stroke-linejoin:round;stroke-miterlimit:10;stroke-dasharray:none;stroke-opacity:1" />
    <path
         id="path234"
         d="m 3600,2987.75 v -96.3"
         style="fill:none;stroke:#d3ae4c;stroke-width:10;stroke-linecap:round;stroke-linejoin:round;stroke-miterlimit:10;stroke-dasharray:none;stroke-opacity:1" />
    <path
         id="path235"
         d="m 3600,4212.25 v 96.3"
         style="fill:none;stroke:#d3ae4c;stroke-width:10;stroke-linecap:round;stroke-linejoin:round;stroke-miterlimit:10;stroke-dasharray:none;stroke-opacity:1" />
    <path
         id="path236"
         d="M 3649.93,3513.51 3600,3600 l -49.93,-86.49 z"
         style="fill:none;stroke:#d3ae4c;stroke-width:10;stroke-linecap:round;stroke-linejoin:round;stroke-miterlimit:10;stroke-dasharray:none;stroke-opacity:1" />
    <path
         id="path237"
         d="M 3550.07,3686.49 3600,3600 l 49.93,86.49 z"
         style="fill:none;stroke:#d3ae4c;stroke-width:10;stroke-linecap:round;stroke-linejoin:round;stroke-miterlimit:10;stroke-dasharray:none;stroke-opacity:1" />
    <path
         id="path238"
         d="m 3600,3861.08 c -24.18,0 -43.77,-19.59 -43.77,-43.77 0,-24.18 19.59,-43.77 43.77,-43.77 24.18,0 43.77,19.59 43.77,43.77 0,24.18 -19.59,43.77 -43.77,43.77"
         style="fill:#1e1e20;fill-opacity:1;fill-rule:nonzero;stroke:none" />
    <path
         id="path239"
         d="m 3544.42,3786.49 h 111.16"
         style="fill:none;stroke:#ffffff;stroke-width:5;stroke-linecap:round;stroke-linejoin:round;stroke-miterlimit:10;stroke-dasharray:none;stroke-opacity:1"
         clip-path="url(#clipPath240)" />
    <path
         id="path241"
         d="m 3544.42,3798.82 h 111.16"
         style="fill:none;stroke:#ffffff;stroke-width:5;stroke-linecap:round;stroke-linejoin:round;stroke-miterlimit:10;stroke-dasharray:none;stroke-opacity:1"
         clip-path="url(#clipPath242)" />
    <path
         id="path243"
         d="m 3544.42,3811.15 h 111.16"
         style="fill:none;stroke:#ffffff;stroke-width:5;stroke-linecap:round;stroke-linejoin:round;stroke-miterlimit:10;stroke-dasharray:none;stroke-opacity:1"
         clip-path="url(#clipPath244)" />
    <path
         id="path245"
         d="m 3544.42,3823.48 h 111.16"
         style="fill:none;stroke:#ffffff;stroke-width:5;stroke-linecap:round;stroke-linejoin:round;stroke-miterlimit:10;stroke-dasharray:none;stroke-opacity:1"
         clip-path="url(#clipPath246)" />
    <path
         id="path247"
         d="m 3544.42,3835.81 h 111.16"
         style="fill:none;stroke:#ffffff;stroke-width:5;stroke-linecap:round;stroke-linejoin:round;stroke-miterlimit:10;stroke-dasharray:none;stroke-opacity:1"
         clip-path="url(#clipPath248)" />
    <path
         id="path249"
         d="m 3544.42,3848.13 h 111.16"
         style="fill:none;stroke:#ffffff;stroke-width:5;stroke-linecap:round;stroke-linejoin:round;stroke-miterlimit:10;stroke-dasharray:none;stroke-opacity:1"
         clip-path="url(#clipPath250)" />
    <path
         id="path251"
         d="m 3600,3861.08 c -24.18,0 -43.77,-19.59 -43.77,-43.77 0,-24.18 19.59,-43.77 43.77,-43.77 24.18,0 43.77,19.59 43.77,43.77 0,24.18 -19.59,43.77 -43.77,43.77 z"
         style="fill:none;stroke:#d3ae4c;stroke-width:10;stroke-linecap:round;stroke-linejoin:round;stroke-miterlimit:10;stroke-dasharray:none;stroke-opacity:1" />
    <path
         id="path252"
         d="m 3600,3427.03 c -24.18,0 -43.77,-19.6 -43.77,-43.78 0,-24.17 19.59,-43.77 43.77,-43.77 24.18,0 43.77,19.6 43.77,43.77 0,24.18 -19.59,43.78 -43.77,43.78"
         style="fill:#1e1e20;fill-opacity:1;fill-rule:nonzero;stroke:none" />
    <path
         id="path253"
         d="m 3544.42,3352.43 h 111.16"
         style="fill:none;stroke:#ffffff;stroke-width:5;stroke-linecap:round;stroke-linejoin:round;stroke-miterlimit:10;stroke-dasharray:none;stroke-opacity:1"
         clip-path="url(#clipPath254)" />
    <path
         id="path255"
         d="m 3544.42,3364.76 h 111.16"
         style="fill:none;stroke:#ffffff;stroke-width:5;stroke-linecap:round;stroke-linejoin:round;stroke-miterlimit:10;stroke-dasharray:none;stroke-opacity:1"
         clip-path="url(#clipPath256)" />
    <path
         id="path257"
         d="m 3544.42,3377.08 h 111.16"
         style="fill:none;stroke:#ffffff;stroke-width:5;stroke-linecap:round;stroke-linejoin:round;stroke-miterlimit:10;stroke-dasharray:none;stroke-opacity:1"
         clip-path="url(#clipPath258)" />
    <path
         id="path259"
         d="m 3544.42,3389.41 h 111.16"
         style="fill:none;stroke:#ffffff;stroke-width:5;stroke-linecap:round;stroke-linejoin:round;stroke-miterlimit:10;stroke-dasharray:none;stroke-opacity:1"
         clip-path="url(#clipPath260)" />
    <path
         id="path261"
         d="m 3544.42,3401.75 h 111.16"
         style="fill:none;stroke:#ffffff;stroke-width:5;stroke-linecap:round;stroke-linejoin:round;stroke-miterlimit:10;stroke-dasharray:none;stroke-opacity:1"
         clip-path="url(#clipPath262)" />
    <path
         id="path263"
         d="m 3544.42,3414.08 h 111.16"
         style="fill:none;stroke:#ffffff;stroke-width:5;stroke-linecap:round;stroke-linejoin:round;stroke-miterlimit:10;stroke-dasharray:none;stroke-opacity:1"
         clip-path="url(#clipPath264)" />
    <path
         id="path265"
         d="m 3600,3427.03 c -24.18,0 -43.77,-19.6 -43.77,-43.78 0,-24.17 19.59,-43.77 43.77,-43.77 24.18,0 43.77,19.6 43.77,43.77 0,24.18 -19.59,43.78 -43.77,43.78 z"
         style="fill:none;stroke:#d3ae4c;stroke-width:10;stroke-linecap:round;stroke-linejoin:round;stroke-miterlimit:10;stroke-dasharray:none;stroke-opacity:1" />
    <path
         id="path266"
         d="M 3199.67,3600 H 3088.62"
         style="fill:none;stroke:#d3ae4c;stroke-width:10;stroke-linecap:round;stroke-linejoin:round;stroke-miterlimit:10;stroke-dasharray:none;stroke-opacity:1" />
    <path
         id="path267"
         d="m 3019.93,3560.34 h 45.79 l 22.9,39.66 -22.9,39.66 h -45.79 l -22.9,-39.66 22.9,-39.66"
         style="fill:#1e1e20;fill-opacity:1;fill-rule:nonzero;stroke:none" />
    <path
         id="path268"
         d="m 3019.93,3560.34 h 45.79 l 22.9,39.66 -22.9,39.66 h -45.79 l -22.9,-39.66 z"
         style="fill:none;stroke:#d3ae4c;stroke-width:10;stroke-linecap:round;stroke-linejoin:round;stroke-miterlimit:10;stroke-dasharray:none;stroke-opacity:1" />
    <path
         id="path269"
         d="m 4000.35,3600 h 111.06"
         style="fill:none;stroke:#d3ae4c;stroke-width:10;stroke-linecap:round;stroke-linejoin:round;stroke-miterlimit:10;stroke-dasharray:none;stroke-opacity:1" />
    <path
         id="path270"
         d="m 4180.1,3639.66 h -45.8 l -22.89,-39.66 22.89,-39.66 h 45.8 l 22.89,39.66 -22.89,39.66"
         style="fill:#1e1e20;fill-opacity:1;fill-rule:nonzero;stroke:none" />
    <path
         id="path271"
         d="m 4180.1,3639.66 h -45.8 l -22.89,-39.66 22.89,-39.66 h 45.8 l 22.89,39.66 z"
         style="fill:none;stroke:#d3ae4c;stroke-width:10;stroke-linecap:round;stroke-linejoin:round;stroke-miterlimit:10;stroke-dasharray:none;stroke-opacity:1" />
    <path
         id="path272"
         d="m 3271.82,4035.58 c 0,12.17 -9.87,22.03 -22.03,22.03 -12.17,0 -22.04,-9.86 -22.04,-22.03 0,-12.17 9.87,-22.04 22.04,-22.04 12.16,0 22.03,9.87 22.03,22.04"
         style="fill:#1e1e20;fill-opacity:1;fill-rule:nonzero;stroke:none" />
    <path
         id="path273"
         d="m 3271.82,4035.58 c 0,12.17 -9.87,22.03 -22.03,22.03 -12.17,0 -22.04,-9.86 -22.04,-22.03 0,-12.17 9.87,-22.04 22.04,-22.04 12.16,0 22.03,9.87 22.03,22.04 z"
         style="fill:none;stroke:#d3ae4c;stroke-width:10;stroke-linecap:round;stroke-linejoin:round;stroke-miterlimit:10;stroke-dasharray:none;stroke-opacity:1" />
    <path
         id="path274"
         d="m 3973.55,4035.58 c 0,12.17 -9.86,22.03 -22.03,22.03 -12.16,0 -22.03,-9.86 -22.03,-22.03 0,-12.17 9.87,-22.04 22.03,-22.04 12.17,0 22.03,9.87 22.03,22.04"
         style="fill:#1e1e20;fill-opacity:1;fill-rule:nonzero;stroke:none" />
    <path
         id="path275"
         d="m 3973.55,4035.58 c 0,12.17 -9.86,22.03 -22.03,22.03 -12.16,0 -22.03,-9.86 -22.03,-22.03 0,-12.17 9.87,-22.04 22.03,-22.04 12.17,0 22.03,9.87 22.03,22.04 z"
         style="fill:none;stroke:#d3ae4c;stroke-width:10;stroke-linecap:round;stroke-linejoin:round;stroke-miterlimit:10;stroke-dasharray:none;stroke-opacity:1" />
    <path
         id="path276"
         d="m 3621.95,4308.55 c 0,12.17 -9.86,22.04 -22.03,22.04 -12.17,0 -22.04,-9.87 -22.04,-22.04 0,-12.16 9.87,-22.03 22.04,-22.03 12.17,0 22.03,9.87 22.03,22.03"
         style="fill:#1e1e20;fill-opacity:1;fill-rule:nonzero;stroke:none" />
    <path
         id="path277"
         d="m 3621.95,4308.55 c 0,12.17 -9.86,22.04 -22.03,22.04 -12.17,0 -22.04,-9.87 -22.04,-22.04 0,-12.16 9.87,-22.03 22.04,-22.03 12.17,0 22.03,9.87 22.03,22.03 z"
         style="fill:none;stroke:#d3ae4c;stroke-width:10;stroke-linecap:round;stroke-linejoin:round;stroke-miterlimit:10;stroke-dasharray:none;stroke-opacity:1" />
    <path
         id="path278"
         d="m 2913.48,3600 c 0,12.17 -9.87,22.03 -22.03,22.03 -12.17,0 -22.04,-9.86 -22.04,-22.03 0,-12.17 9.87,-22.04 22.04,-22.04 12.16,0 22.03,9.87 22.03,22.04"
         style="fill:#1e1e20;fill-opacity:1;fill-rule:nonzero;stroke:none" />
    <path
         id="path279"
         d="m 2913.48,3600 c 0,12.17 -9.87,22.03 -22.03,22.03 -12.17,0 -22.04,-9.86 -22.04,-22.03 0,-12.17 9.87,-22.04 22.04,-22.04 12.16,0 22.03,9.87 22.03,22.04 z"
         style="fill:none;stroke:#d3ae4c;stroke-width:10;stroke-linecap:round;stroke-linejoin:round;stroke-miterlimit:10;stroke-dasharray:none;stroke-opacity:1" />
    <path
         id="path280"
         d="m 4330.59,3600 c 0,12.17 -9.87,22.03 -22.04,22.03 -12.16,0 -22.03,-9.86 -22.03,-22.03 0,-12.17 9.87,-22.04 22.03,-22.04 12.17,0 22.04,9.87 22.04,22.04"
         style="fill:#1e1e20;fill-opacity:1;fill-rule:nonzero;stroke:none" />
    <path
         id="path281"
         d="m 4330.59,3600 c 0,12.17 -9.87,22.03 -22.04,22.03 -12.16,0 -22.03,-9.86 -22.03,-22.03 0,-12.17 9.87,-22.04 22.03,-22.04 12.17,0 22.04,9.87 22.04,22.04 z"
         style="fill:none;stroke:#d3ae4c;stroke-width:10;stroke-linecap:round;stroke-linejoin:round;stroke-miterlimit:10;stroke-dasharray:none;stroke-opacity:1" />
    <path
         id="path282"
         d="m 2936.88,3422.31 c -3.16,11.76 -15.24,18.73 -27,15.59 -11.75,-3.15 -18.73,-15.24 -15.57,-26.99 3.14,-11.75 15.23,-18.73 26.98,-15.58 11.76,3.15 18.73,15.23 15.59,26.98"
         style="fill:#d3ae4c;fill-opacity:1;fill-rule:nonzero;stroke:none" />
    <path
         id="path283"
         d="m 2936.88,3422.31 c -3.16,11.76 -15.24,18.73 -27,15.59 -11.75,-3.15 -18.73,-15.24 -15.57,-26.99 3.14,-11.75 15.23,-18.73 26.98,-15.58 11.76,3.15 18.73,15.23 15.59,26.98 z"
         style="fill:none;stroke:#d3ae4c;stroke-width:10;stroke-linecap:round;stroke-linejoin:round;stroke-miterlimit:10;stroke-dasharray:none;stroke-opacity:1" />
    <path
         id="path284"
         d="m 3005.46,3256.74 c -6.08,10.54 -19.56,14.15 -30.11,8.06 -10.54,-6.08 -14.14,-19.56 -8.06,-30.09 6.09,-10.54 19.57,-14.15 30.1,-8.07 10.54,6.08 14.15,19.56 8.07,30.1"
         style="fill:#1e1e20;fill-opacity:1;fill-rule:nonzero;stroke:none" />
    <path
         id="path285"
         d="m 3005.46,3256.74 c -6.08,10.54 -19.56,14.15 -30.11,8.06 -10.54,-6.08 -14.14,-19.56 -8.06,-30.09 6.09,-10.54 19.57,-14.15 30.1,-8.07 10.54,6.08 14.15,19.56 8.07,30.1 z"
         style="fill:none;stroke:#d3ae4c;stroke-width:10;stroke-linecap:round;stroke-linejoin:round;stroke-miterlimit:10;stroke-dasharray:none;stroke-opacity:1" />
    <path
         id="path286"
         d="m 3114.56,3114.56 c -8.61,8.6 -22.56,8.6 -31.16,0 -8.61,-8.61 -8.61,-22.56 0,-31.17 8.6,-8.6 22.55,-8.6 31.16,0 8.6,8.61 8.6,22.56 0,31.17"
         style="fill:#d3ae4c;fill-opacity:1;fill-rule:nonzero;stroke:none" />
    <path
         id="path287"
         d="m 3114.56,3114.56 c -8.61,8.6 -22.56,8.6 -31.16,0 -8.61,-8.61 -8.61,-22.56 0,-31.17 8.6,-8.6 22.55,-8.6 31.16,0 8.6,8.61 8.6,22.56 0,31.17 z"
         style="fill:none;stroke:#d3ae4c;stroke-width:10;stroke-linecap:round;stroke-linejoin:round;stroke-miterlimit:10;stroke-dasharray:none;stroke-opacity:1" />
    <path
         id="path288"
         d="m 3600,2913.48 c -12.17,0 -22.03,-9.87 -22.03,-22.03 0,-12.17 9.86,-22.04 22.03,-22.04 12.17,0 22.03,9.87 22.03,22.04 0,12.16 -9.86,22.03 -22.03,22.03"
         style="fill:#1e1e20;fill-opacity:1;fill-rule:nonzero;stroke:none" />
    <path
         id="path289"
         d="m 3600,2913.48 c -12.17,0 -22.03,-9.87 -22.03,-22.03 0,-12.17 9.86,-22.04 22.03,-22.04 12.17,0 22.03,9.87 22.03,22.04 0,12.16 -9.86,22.03 -22.03,22.03 z"
         style="fill:none;stroke:#d3ae4c;stroke-width:10;stroke-linecap:round;stroke-linejoin:round;stroke-miterlimit:10;stroke-dasharray:none;stroke-opacity:1" />
    <path
         id="path290"
         d="m 4085.45,3114.56 c -8.61,-8.61 -8.61,-22.56 0,-31.17 8.6,-8.6 22.55,-8.6 31.15,0 8.61,8.61 8.61,22.56 0,31.17 -8.6,8.6 -22.55,8.6 -31.15,0"
         style="fill:#d3ae4c;fill-opacity:1;fill-rule:nonzero;stroke:none" />
    <path
         id="path291"
         d="m 4085.45,3114.56 c -8.61,-8.61 -8.61,-22.56 0,-31.17 8.6,-8.6 22.55,-8.6 31.15,0 8.61,8.61 8.61,22.56 0,31.17 -8.6,8.6 -22.55,8.6 -31.15,0 z"
         style="fill:none;stroke:#d3ae4c;stroke-width:10;stroke-linecap:round;stroke-linejoin:round;stroke-miterlimit:10;stroke-dasharray:none;stroke-opacity:1" />
    <path
         id="path292"
         d="m 4194.54,3256.74 c -6.08,-10.54 -2.47,-24.02 8.07,-30.1 10.53,-6.08 24.01,-2.47 30.1,8.07 6.08,10.53 2.48,24.01 -8.06,30.09 -10.55,6.09 -24.02,2.48 -30.11,-8.06"
         style="fill:#1e1e20;fill-opacity:1;fill-rule:nonzero;stroke:none" />
    <path
         id="path293"
         d="m 4194.54,3256.74 c -6.08,-10.54 -2.47,-24.02 8.07,-30.1 10.53,-6.08 24.01,-2.47 30.1,8.07 6.08,10.53 2.48,24.01 -8.06,30.09 -10.55,6.09 -24.02,2.48 -30.11,-8.06 z"
         style="fill:none;stroke:#d3ae4c;stroke-width:10;stroke-linecap:round;stroke-linejoin:round;stroke-miterlimit:10;stroke-dasharray:none;stroke-opacity:1" />
    <path
         id="path294"
         d="m 4263.13,3422.31 c -3.15,-11.75 3.82,-23.83 15.58,-26.98 11.75,-3.15 23.84,3.83 26.98,15.58 3.16,11.76 -3.82,23.84 -15.57,26.99 -11.76,3.14 -23.84,-3.83 -26.99,-15.59"
         style="fill:#d3ae4c;fill-opacity:1;fill-rule:nonzero;stroke:none" />
    <path
         id="path295"
         d="m 4263.13,3422.31 c -3.15,-11.75 3.82,-23.83 15.58,-26.98 11.75,-3.15 23.84,3.83 26.98,15.58 3.16,11.76 -3.82,23.84 -15.57,26.99 -11.76,3.14 -23.84,-3.83 -26.99,-15.59 z"
         style="fill:none;stroke:#d3ae4c;stroke-width:10;stroke-linecap:round;stroke-linejoin:round;stroke-miterlimit:10;stroke-dasharray:none;stroke-opacity:1" />
    <path
         id="path296"
         d="m 4263.13,3777.69 c 3.15,-11.76 15.23,-18.73 26.99,-15.59 11.75,3.15 18.73,15.24 15.57,26.99 -3.14,11.75 -15.23,18.73 -26.98,15.58 -11.76,-3.15 -18.73,-15.23 -15.58,-26.98"
         style="fill:#d3ae4c;fill-opacity:1;fill-rule:nonzero;stroke:none" />
    <path
         id="path297"
         d="m 4263.13,3777.69 c 3.15,-11.76 15.23,-18.73 26.99,-15.59 11.75,3.15 18.73,15.24 15.57,26.99 -3.14,11.75 -15.23,18.73 -26.98,15.58 -11.76,-3.15 -18.73,-15.23 -15.58,-26.98 z"
         style="fill:none;stroke:#d3ae4c;stroke-width:10;stroke-linecap:round;stroke-linejoin:round;stroke-miterlimit:10;stroke-dasharray:none;stroke-opacity:1" />
    <path
         id="path298"
         d="m 4194.54,3943.26 c 6.09,-10.54 19.56,-14.15 30.11,-8.06 10.54,6.08 14.14,19.56 8.06,30.09 -6.09,10.54 -19.57,14.15 -30.1,8.07 -10.54,-6.08 -14.15,-19.56 -8.07,-30.1"
         style="fill:#1e1e20;fill-opacity:1;fill-rule:nonzero;stroke:none" />
    <path
         id="path299"
         d="m 4194.54,3943.26 c 6.09,-10.54 19.56,-14.15 30.11,-8.06 10.54,6.08 14.14,19.56 8.06,30.09 -6.09,10.54 -19.57,14.15 -30.1,8.07 -10.54,-6.08 -14.15,-19.56 -8.07,-30.1 z"
         style="fill:none;stroke:#d3ae4c;stroke-width:10;stroke-linecap:round;stroke-linejoin:round;stroke-miterlimit:10;stroke-dasharray:none;stroke-opacity:1" />
    <path
         id="path300"
         d="m 4085.44,4085.45 c 8.61,-8.61 22.56,-8.61 31.16,0 8.61,8.6 8.61,22.55 0,31.16 -8.6,8.6 -22.55,8.6 -31.16,0 -8.6,-8.61 -8.6,-22.56 0,-31.16"
         style="fill:#d3ae4c;fill-opacity:1;fill-rule:nonzero;stroke:none" />
    <path
         id="path301"
         d="m 4085.44,4085.45 c 8.61,-8.61 22.56,-8.61 31.16,0 8.61,8.6 8.61,22.55 0,31.16 -8.6,8.6 -22.55,8.6 -31.16,0 -8.6,-8.61 -8.6,-22.56 0,-31.16 z"
         style="fill:none;stroke:#d3ae4c;stroke-width:10;stroke-linecap:round;stroke-linejoin:round;stroke-miterlimit:10;stroke-dasharray:none;stroke-opacity:1" />
    <path
         id="path302"
         d="m 3114.55,4085.45 c 8.61,8.6 8.61,22.55 0,31.16 -8.6,8.6 -22.55,8.6 -31.15,0 -8.61,-8.61 -8.61,-22.56 0,-31.16 8.6,-8.61 22.55,-8.61 31.15,0"
         style="fill:#d3ae4c;fill-opacity:1;fill-rule:nonzero;stroke:none" />
    <path
         id="path303"
         d="m 3114.55,4085.45 c 8.61,8.6 8.61,22.55 0,31.16 -8.6,8.6 -22.55,8.6 -31.15,0 -8.61,-8.61 -8.61,-22.56 0,-31.16 8.6,-8.61 22.55,-8.61 31.15,0 z"
         style="fill:none;stroke:#d3ae4c;stroke-width:10;stroke-linecap:round;stroke-linejoin:round;stroke-miterlimit:10;stroke-dasharray:none;stroke-opacity:1" />
    <path
         id="path304"
         d="m 3005.46,3943.26 c 6.08,10.54 2.47,24.02 -8.07,30.1 -10.53,6.08 -24.01,2.47 -30.1,-8.07 -6.08,-10.53 -2.48,-24.01 8.06,-30.09 10.55,-6.09 24.02,-2.48 30.11,8.06"
         style="fill:#1e1e20;fill-opacity:1;fill-rule:nonzero;stroke:none" />
    <path
         id="path305"
         d="m 3005.46,3943.26 c 6.08,10.54 2.47,24.02 -8.07,30.1 -10.53,6.08 -24.01,2.47 -30.1,-8.07 -6.08,-10.53 -2.48,-24.01 8.06,-30.09 10.55,-6.09 24.02,-2.48 30.11,8.06 z"
         style="fill:none;stroke:#d3ae4c;stroke-width:10;stroke-linecap:round;stroke-linejoin:round;stroke-miterlimit:10;stroke-dasharray:none;stroke-opacity:1" />
    <path
         id="path306"
         d="m 2936.88,3777.69 c 3.14,11.75 -3.83,23.83 -15.59,26.98 -11.75,3.15 -23.84,-3.83 -26.98,-15.58 -3.16,-11.76 3.82,-23.84 15.57,-26.99 11.76,-3.14 23.84,3.83 27,15.59"
         style="fill:#d3ae4c;fill-opacity:1;fill-rule:nonzero;stroke:none" />
    <path
         id="path307"
         d="m 2936.88,3777.69 c 3.14,11.75 -3.83,23.83 -15.59,26.98 -11.75,3.15 -23.84,-3.83 -26.98,-15.58 -3.16,-11.76 3.82,-23.84 15.57,-26.99 11.76,-3.14 23.84,3.83 27,15.59 z"
         style="fill:none;stroke:#d3ae4c;stroke-width:10;stroke-linecap:round;stroke-linejoin:round;stroke-miterlimit:10;stroke-dasharray:none;stroke-opacity:1" />
    <path
         id="path308"
         d="m 3271.82,3164.42 c 0,-12.16 -9.87,-22.03 -22.03,-22.03 -12.17,0 -22.04,9.87 -22.04,22.03 0,12.17 9.87,22.04 22.04,22.04 12.16,0 22.03,-9.87 22.03,-22.04"
         style="fill:#1e1e20;fill-opacity:1;fill-rule:nonzero;stroke:none" />
    <path
         id="path309"
         d="m 3271.82,3164.42 c 0,-12.16 -9.87,-22.03 -22.03,-22.03 -12.17,0 -22.04,9.87 -22.04,22.03 0,12.17 9.87,22.04 22.04,22.04 12.16,0 22.03,-9.87 22.03,-22.04 z"
         style="fill:none;stroke:#d3ae4c;stroke-width:10;stroke-linecap:round;stroke-linejoin:round;stroke-miterlimit:10;stroke-dasharray:none;stroke-opacity:1" />
    <path
         id="path310"
         d="m 3973.55,3164.42 c 0,-12.16 -9.86,-22.03 -22.03,-22.03 -12.16,0 -22.03,9.87 -22.03,22.03 0,12.17 9.87,22.04 22.03,22.04 12.17,0 22.03,-9.87 22.03,-22.04"
         style="fill:#1e1e20;fill-opacity:1;fill-rule:nonzero;stroke:none" />
    <path
         id="path311"
         d="m 3973.55,3164.42 c 0,-12.16 -9.86,-22.03 -22.03,-22.03 -12.16,0 -22.03,9.87 -22.03,22.03 0,12.17 9.87,22.04 22.03,22.04 12.17,0 22.03,-9.87 22.03,-22.04 z"
         style="fill:none;stroke:#d3ae4c;stroke-width:10;stroke-linecap:round;stroke-linejoin:round;stroke-miterlimit:10;stroke-dasharray:none;stroke-opacity:1" />
    <path
         id="path312"
         d="M 3600,4157.17 V 4008.39"
         style="fill:none;stroke:#ffffff;stroke-width:5;stroke-linecap:round;stroke-linejoin:round;stroke-miterlimit:10;stroke-dasharray:none;stroke-opacity:1" />
    <path
         id="path313"
         d="M 3600,3191.05 V 3042.26"
         style="fill:none;stroke:#ffffff;stroke-width:5;stroke-linecap:round;stroke-linejoin:round;stroke-miterlimit:10;stroke-dasharray:none;stroke-opacity:1" />
    <path
         id="path314"
         d="m 3633.13,4101.02 h -66.25 l 33.12,-57.37 z"
         style="fill:#1e1e20;fill-opacity:1;fill-rule:nonzero;stroke:#ffffff;stroke-width:5;stroke-linecap:round;stroke-linejoin:round;stroke-miterlimit:10;stroke-dasharray:none;stroke-opacity:1" />
    <path
         id="path315"
         d="m 3566.88,3098.41 h 66.25 l -33.13,57.38 z"
         style="fill:#1e1e20;fill-opacity:1;fill-rule:nonzero;stroke:#ffffff;stroke-width:5;stroke-linecap:round;stroke-linejoin:round;stroke-miterlimit:10;stroke-dasharray:none;stroke-opacity:1" />
  </g>
</svg>