<?xml version="1.0" encoding="UTF-8" standalone="no"?>
<svg
   version="1.1"
   width="600"
   height="600"
   viewBox="3433.19 1360.65 809.04 809.04"
   xmlns="http://www.w3.org/2000/svg">
  <rect x="3433.19" y="1360.65" width="809.04" height="809.04" fill="#000000"/>
  <path
         id="path40"
         d="m 3506.77,1856.2 c -0.46,-1.69 -1,-3.35 -1.44,-5.05 h 1.44 v 5.05"
         style="fill:#ffffff;fill-opacity:1;fill-rule:nonzero;stroke:none" />
  <path
         id="path41"
         d="m 3506.77,1746.34 h -3.4 v -21.96 h 3.4 v 21.96"
         style="fill:#ffffff;fill-opacity:1;fill-rule:nonzero;stroke:none" />
  <path
         id="path42"
         d="m 3503.37,1687.66 c 1.04,-4.54 2.18,-9.06 3.4,-13.52 v 21.49 h -3.4 v -7.97"
         style="fill:#ffffff;fill-opacity:1;fill-rule:nonzero;stroke:none" />
  <path
         id="path43"
         d="m 3506.77,1771.69 h -3.4 v -21.95 h 3.4 v 21.95"
         style="fill:#ffffff;fill-opacity:1;fill-rule:nonzero;stroke:none" />
  <path
         id="path44"
         d="m 3506.77,1797.04 h -3.4 v -21.95 h 3.4 v 21.95"
         style="fill:#ffffff;fill-opacity:1;fill-rule:nonzero;stroke:none" />
  <path
         id="path45"
         d="m 3506.77,1822.4 h -3.4 v -21.96 h 3.4 v 21.96"
         style="fill:#ffffff;fill-opacity:1;fill-rule:nonzero;stroke:none" />
  <path
         id="path46"
         d="m 3506.77,1847.75 h -2.23 c -0.42,-1.68 -0.78,-3.38 -1.17,-5.06 v -16.89 h 3.4 v 21.95"
         style="fill:#ffffff;fill-opacity:1;fill-rule:nonzero;stroke:none" />
  <path
         id="path47"
         d="m 3506.77,1720.99 h -3.4 v -21.96 h 3.4 v 21.96"
         style="fill:#ffffff;fill-opacity:1;fill-rule:nonzero;stroke:none" />
  <path
         id="path48"
         d="m 3532.13,1898.46 h -3.4 v -21.96 h 3.4 v 21.96"
         style="fill:#ffffff;fill-opacity:1;fill-rule:nonzero;stroke:none" />
  <path
         id="path49"
         d="m 3532.13,1695.63 h -3.4 v -21.95 h 3.4 v 21.95"
         style="fill:#ffffff;fill-opacity:1;fill-rule:nonzero;stroke:none" />
  <path
         id="path50"
         d="m 3528.73,1847.75 v -21.95 h 3.4 v 21.95 h -3.4"
         style="fill:#ffffff;fill-opacity:1;fill-rule:nonzero;stroke:none" />
  <path
         id="path51"
         d="m 3528.73,1822.4 v -21.96 h 3.4 v 21.96 h -3.4"
         style="fill:#ffffff;fill-opacity:1;fill-rule:nonzero;stroke:none" />
  <path
         id="path52"
         d="m 3532.13,1873.11 h -3.4 v -21.96 h 3.4 v 21.96"
         style="fill:#ffffff;fill-opacity:1;fill-rule:nonzero;stroke:none" />
  <path
         id="path53"
         d="m 3532.13,1644.92 h -3.4 v -21.95 h 3.4 v 21.95"
         style="fill:#ffffff;fill-opacity:1;fill-rule:nonzero;stroke:none" />
  <path
         id="path54"
         d="m 3532.13,1670.28 h -3.4 v -21.96 h 3.4 v 21.96"
         style="fill:#ffffff;fill-opacity:1;fill-rule:nonzero;stroke:none" />
  <path
         id="path55"
         d="m 3528.73,1746.34 v -21.96 h 3.4 v 21.96 h -3.4"
         style="fill:#ffffff;fill-opacity:1;fill-rule:nonzero;stroke:none" />
  <path
         id="path56"
         d="m 3528.73,1797.04 v -21.95 h 3.4 v 21.95 h -3.4"
         style="fill:#ffffff;fill-opacity:1;fill-rule:nonzero;stroke:none" />
  <path
         id="path57"
         d="m 3532.13,1921.41 c -1.13,-2.21 -2.32,-4.4 -3.4,-6.63 v -12.92 h 3.4 v 19.55"
         style="fill:#ffffff;fill-opacity:1;fill-rule:nonzero;stroke:none" />
  <path
         id="path58"
         d="m 3528.73,1720.99 v -21.96 h 3.4 v 21.96 h -3.4"
         style="fill:#ffffff;fill-opacity:1;fill-rule:nonzero;stroke:none" />
  <path
         id="path59"
         d="m 3528.73,1771.69 v -21.95 h 3.4 v 21.95 h -3.4"
         style="fill:#ffffff;fill-opacity:1;fill-rule:nonzero;stroke:none" />
  <path
         id="path60"
         d="m 3528.73,1615.57 c 1.08,-2.24 2.27,-4.43 3.4,-6.64 v 10.64 h -3.4 v -4"
         style="fill:#ffffff;fill-opacity:1;fill-rule:nonzero;stroke:none" />
  <path
         id="path61"
         d="m 3557.48,1963.24 c -1.13,-1.59 -2.29,-3.16 -3.4,-4.77 v -5.91 h 3.4 v 10.68"
         style="fill:#ffffff;fill-opacity:1;fill-rule:nonzero;stroke:none" />
  <path
         id="path62"
         d="m 3557.48,1567.1 v 1.77 h -1.27 c 0.42,-0.6 0.85,-1.18 1.27,-1.77"
         style="fill:#ffffff;fill-opacity:1;fill-rule:nonzero;stroke:none" />
  <path
         id="path63"
         d="m 3557.48,1949.16 h -3.4 v -21.95 h 3.4 v 21.95"
         style="fill:#ffffff;fill-opacity:1;fill-rule:nonzero;stroke:none" />
  <path
         id="path64"
         d="m 3557.48,1923.81 h -3.4 v -21.95 h 3.4 v 21.95"
         style="fill:#ffffff;fill-opacity:1;fill-rule:nonzero;stroke:none" />
  <path
         id="path65"
         d="m 3554.08,1694.2 v -20.52 h 3.4 v 8.17 c -1.22,4.08 -2.36,8.19 -3.4,12.35"
         style="fill:#ffffff;fill-opacity:1;fill-rule:nonzero;stroke:none" />
  <path
         id="path66"
         d="m 3554.08,1644.92 v -21.95 h 3.4 v 21.95 h -3.4"
         style="fill:#ffffff;fill-opacity:1;fill-rule:nonzero;stroke:none" />
  <path
         id="path67"
         d="m 3554.08,1873.11 v -21.96 h 3.4 v 21.96 h -3.4"
         style="fill:#ffffff;fill-opacity:1;fill-rule:nonzero;stroke:none" />
  <path
         id="path68"
         d="m 3554.08,1670.28 v -21.96 h 3.4 v 21.96 h -3.4"
         style="fill:#ffffff;fill-opacity:1;fill-rule:nonzero;stroke:none" />
  <path
         id="path69"
         d="m 3557.27,1847.75 h -3.19 v -11.61 c 0.98,3.91 2.05,7.77 3.19,11.61"
         style="fill:#ffffff;fill-opacity:1;fill-rule:nonzero;stroke:none" />
  <path
         id="path70"
         d="m 3554.08,1898.46 v -21.96 h 3.4 v 21.96 h -3.4"
         style="fill:#ffffff;fill-opacity:1;fill-rule:nonzero;stroke:none" />
  <path
         id="path71"
         d="m 3557.48,1619.57 h -3.4 v -21.95 h 3.4 v 21.95"
         style="fill:#ffffff;fill-opacity:1;fill-rule:nonzero;stroke:none" />
  <path
         id="path72"
         d="m 3557.48,1594.22 h -3.4 v -21.95 h 3.4 v 21.95"
         style="fill:#ffffff;fill-opacity:1;fill-rule:nonzero;stroke:none" />
  <path
         id="path73"
         d="m 3582.83,1908.32 v 15.49 h -3.4 v -21.66 c 1.11,2.08 2.25,4.13 3.4,6.17"
         style="fill:#ffffff;fill-opacity:1;fill-rule:nonzero;stroke:none" />
  <path
         id="path74"
         d="m 3579.43,1949.16 v -21.95 h 3.4 v 21.95 h -3.4"
         style="fill:#ffffff;fill-opacity:1;fill-rule:nonzero;stroke:none" />
  <path
         id="path75"
         d="m 3579.43,1619.57 v -21.95 h 3.4 v 21.95 h -3.4"
         style="fill:#ffffff;fill-opacity:1;fill-rule:nonzero;stroke:none" />
  <path
         id="path76"
         d="m 3582.83,1568.87 h -3.4 v -21.96 h 3.4 v 21.96"
         style="fill:#ffffff;fill-opacity:1;fill-rule:nonzero;stroke:none" />
  <path
         id="path77"
         d="m 3582.83,1974.52 h -3.4 v -21.96 h 3.4 v 21.96"
         style="fill:#ffffff;fill-opacity:1;fill-rule:nonzero;stroke:none" />
  <path
         id="path78"
         d="m 3579.43,1594.22 v -21.95 h 3.4 v 21.95 h -3.4"
         style="fill:#ffffff;fill-opacity:1;fill-rule:nonzero;stroke:none" />
  <path
         id="path79"
         d="m 3579.43,1622.97 h 2.86 c -0.97,1.73 -1.93,3.47 -2.86,5.21 v -5.21"
         style="fill:#ffffff;fill-opacity:1;fill-rule:nonzero;stroke:none" />
  <path
         id="path80"
         d="m 3582.83,1995.02 c -1.16,-1.29 -2.26,-2.63 -3.4,-3.93 v -13.17 h 3.4 v 17.1"
         style="fill:#ffffff;fill-opacity:1;fill-rule:nonzero;stroke:none" />
  <path
         id="path81"
         d="m 3579.43,1539.25 c 1.14,-1.31 2.24,-2.65 3.4,-3.93 v 8.2 h -3.4 v -4.27"
         style="fill:#ffffff;fill-opacity:1;fill-rule:nonzero;stroke:none" />
  <path
         id="path82"
         d="m 3608.18,1946.13 v 3.03 h -3.39 v -7.35 c 1.11,1.45 2.26,2.88 3.39,4.32"
         style="fill:#ffffff;fill-opacity:1;fill-rule:nonzero;stroke:none" />
  <path
         id="path83"
         d="m 3604.79,1974.52 v -21.96 h 3.39 v 21.96 h -3.39"
         style="fill:#ffffff;fill-opacity:1;fill-rule:nonzero;stroke:none" />
  <path
         id="path84"
         d="m 3604.79,1513.13 c 1.13,-1.04 2.25,-2.09 3.39,-3.12 v 8.15 h -3.39 v -5.03"
         style="fill:#ffffff;fill-opacity:1;fill-rule:nonzero;stroke:none" />
  <path
         id="path85"
         d="m 3608.18,1543.52 h -3.39 v -21.96 h 3.39 v 21.96"
         style="fill:#ffffff;fill-opacity:1;fill-rule:nonzero;stroke:none" />
  <path
         id="path86"
         d="m 3604.79,1588.54 v -16.27 h 3.39 v 11.94 c -1.13,1.44 -2.28,2.87 -3.39,4.33"
         style="fill:#ffffff;fill-opacity:1;fill-rule:nonzero;stroke:none" />
  <path
         id="path87"
         d="m 3604.79,1568.87 v -21.96 h 3.39 v 21.96 h -3.39"
         style="fill:#ffffff;fill-opacity:1;fill-rule:nonzero;stroke:none" />
  <path
         id="path88"
         d="m 3608.18,2020.33 c -1.14,-1.03 -2.26,-2.08 -3.39,-3.13 v -13.93 h 3.39 v 17.06"
         style="fill:#ffffff;fill-opacity:1;fill-rule:nonzero;stroke:none" />
  <path
         id="path89"
         d="m 3608.18,1999.87 h -3.39 v -21.95 h 3.39 v 21.95"
         style="fill:#ffffff;fill-opacity:1;fill-rule:nonzero;stroke:none" />
  <path
         id="path90"
         d="m 3630.14,1543.52 v -21.96 h 3.4 v 21.96 h -3.4"
         style="fill:#ffffff;fill-opacity:1;fill-rule:nonzero;stroke:none" />
  <path
         id="path91"
         d="m 3633.54,1518.16 h -3.4 v -21.95 h 3.4 v 21.95"
         style="fill:#ffffff;fill-opacity:1;fill-rule:nonzero;stroke:none" />
  <path
         id="path92"
         d="m 3633.54,2041.06 c -1.15,-0.85 -2.27,-1.71 -3.4,-2.57 v -9.87 h 3.4 v 12.44"
         style="fill:#ffffff;fill-opacity:1;fill-rule:nonzero;stroke:none" />
  <path
         id="path93"
         d="m 3633.54,2025.22 h -3.4 v -21.95 h 3.4 v 21.95"
         style="fill:#ffffff;fill-opacity:1;fill-rule:nonzero;stroke:none" />
  <path
         id="path94"
         d="m 3630.14,1999.87 v -21.95 h 3.4 v 21.95 h -3.4"
         style="fill:#ffffff;fill-opacity:1;fill-rule:nonzero;stroke:none" />
  <path
         id="path95"
         d="m 3630.14,1559.34 v -12.43 h 3.4 v 9.11 c -1.14,1.1 -2.29,2.19 -3.4,3.32"
         style="fill:#ffffff;fill-opacity:1;fill-rule:nonzero;stroke:none" />
  <path
         id="path96"
         d="m 3633.54,1974.33 v 0.19 h -3.4 v -3.51 c 1.11,1.12 2.26,2.21 3.4,3.32"
         style="fill:#ffffff;fill-opacity:1;fill-rule:nonzero;stroke:none" />
  <path
         id="path97"
         d="m 3630.14,1491.86 c 1.13,-0.86 2.25,-1.73 3.4,-2.58 v 3.53 h -3.4 v -0.95"
         style="fill:#ffffff;fill-opacity:1;fill-rule:nonzero;stroke:none" />
  <path
         id="path98"
         d="m 3658.89,2050.58 h -3.4 v -21.96 h 3.4 v 21.96"
         style="fill:#ffffff;fill-opacity:1;fill-rule:nonzero;stroke:none" />
  <path
         id="path99"
         d="m 3655.49,1536.64 v -15.08 h 3.4 v 12.4 c -1.14,0.89 -2.28,1.78 -3.4,2.68"
         style="fill:#ffffff;fill-opacity:1;fill-rule:nonzero;stroke:none" />
  <path
         id="path100"
         d="m 3658.89,2058.17 c -1.16,-0.7 -2.26,-1.46 -3.4,-2.17 v -2.03 h 3.4 v 4.2"
         style="fill:#ffffff;fill-opacity:1;fill-rule:nonzero;stroke:none" />
  <path
         id="path101"
         d="m 3655.49,1518.16 v -21.95 h 3.4 v 21.95 h -3.4"
         style="fill:#ffffff;fill-opacity:1;fill-rule:nonzero;stroke:none" />
  <path
         id="path102"
         d="m 3655.49,2025.22 v -21.95 h 3.4 v 21.95 h -3.4"
         style="fill:#ffffff;fill-opacity:1;fill-rule:nonzero;stroke:none" />
  <path
         id="path103"
         d="m 3655.49,1474.35 c 1.14,-0.73 2.24,-1.48 3.4,-2.18 v 20.64 h -3.4 v -18.46"
         style="fill:#ffffff;fill-opacity:1;fill-rule:nonzero;stroke:none" />
  <path
         id="path104"
         d="m 3658.89,1996.38 v 3.49 h -3.4 v -6.17 c 1.12,0.9 2.26,1.79 3.4,2.68"
         style="fill:#ffffff;fill-opacity:1;fill-rule:nonzero;stroke:none" />
  <path
         id="path105"
         d="m 3680.84,2050.58 v -21.96 h 3.4 v 21.96 h -3.4"
         style="fill:#ffffff;fill-opacity:1;fill-rule:nonzero;stroke:none" />
  <path
         id="path106"
         d="m 3681.41,1518.16 h -0.57 v -21.95 h 3.4 v 20.14 c -0.96,0.58 -1.89,1.21 -2.83,1.81"
         style="fill:#ffffff;fill-opacity:1;fill-rule:nonzero;stroke:none" />
  <path
         id="path107"
         d="m 3684.24,2013.99 v 11.23 h -3.4 v -13.4 c 1.13,0.72 2.26,1.46 3.4,2.17"
         style="fill:#ffffff;fill-opacity:1;fill-rule:nonzero;stroke:none" />
  <path
         id="path108"
         d="m 3680.84,1459.91 c 1.13,-0.58 2.27,-1.17 3.4,-1.75 v 9.29 h -3.4 v -7.54"
         style="fill:#ffffff;fill-opacity:1;fill-rule:nonzero;stroke:none" />
  <path
         id="path109"
         d="m 3684.24,1492.81 h -3.4 v -21.96 h 3.4 v 21.96"
         style="fill:#ffffff;fill-opacity:1;fill-rule:nonzero;stroke:none" />
  <path
         id="path110"
         d="m 3684.24,2072.17 c -1.13,-0.57 -2.27,-1.15 -3.4,-1.74 v -16.46 h 3.4 v 18.2"
         style="fill:#ffffff;fill-opacity:1;fill-rule:nonzero;stroke:none" />
  <path
         id="path111"
         d="m 3706.2,1504.09 v -7.88 h 3.4 v 6.14 c -1.15,0.56 -2.27,1.17 -3.4,1.74"
         style="fill:#ffffff;fill-opacity:1;fill-rule:nonzero;stroke:none" />
  <path
         id="path112"
         d="m 3706.2,2050.58 v -21.96 h 3.4 v 21.96 h -3.4"
         style="fill:#ffffff;fill-opacity:1;fill-rule:nonzero;stroke:none" />
  <path
         id="path113"
         d="m 3709.6,2083.59 c -1.13,-0.45 -2.28,-0.87 -3.4,-1.33 v -2.93 h 3.4 v 4.26"
         style="fill:#ffffff;fill-opacity:1;fill-rule:nonzero;stroke:none" />
  <path
         id="path114"
         d="m 3706.2,1448.09 c 1.12,-0.47 2.27,-0.89 3.4,-1.35 v 20.71 h -3.4 v -19.36"
         style="fill:#ffffff;fill-opacity:1;fill-rule:nonzero;stroke:none" />
  <path
         id="path115"
         d="m 3706.2,1492.81 v -21.96 h 3.4 v 21.96 h -3.4"
         style="fill:#ffffff;fill-opacity:1;fill-rule:nonzero;stroke:none" />
  <path
         id="path116"
         d="m 3709.6,2075.93 h -3.4 v -21.96 h 3.4 v 21.96"
         style="fill:#ffffff;fill-opacity:1;fill-rule:nonzero;stroke:none" />
  <path
         id="path117"
         d="m 3734.95,2092.74 c -1.14,-0.36 -2.26,-0.78 -3.4,-1.15 v -12.26 h 3.4 v 13.41"
         style="fill:#ffffff;fill-opacity:1;fill-rule:nonzero;stroke:none" />
  <path
         id="path118"
         d="m 3731.55,1492.78 v -21.93 h 3.4 v 20.6 c -1.14,0.42 -2.26,0.89 -3.4,1.33"
         style="fill:#ffffff;fill-opacity:1;fill-rule:nonzero;stroke:none" />
  <path
         id="path119"
         d="m 3731.55,2075.93 v -21.96 h 3.4 v 21.96 h -3.4"
         style="fill:#ffffff;fill-opacity:1;fill-rule:nonzero;stroke:none" />
  <path
         id="path120"
         d="m 3731.55,1438.75 c 1.14,-0.37 2.26,-0.79 3.4,-1.15 v 29.85 h -3.4 v -28.7"
         style="fill:#ffffff;fill-opacity:1;fill-rule:nonzero;stroke:none" />
  <path
         id="path121"
         d="m 3734.95,2038.9 v 11.68 h -3.4 v -13.02 c 1.14,0.44 2.26,0.91 3.4,1.34"
         style="fill:#ffffff;fill-opacity:1;fill-rule:nonzero;stroke:none" />
  <path
         id="path122"
         d="m 3756.9,1431.59 c 1.13,-0.27 2.27,-0.52 3.4,-0.78 v 36.64 h -3.4 v -35.86"
         style="fill:#ffffff;fill-opacity:1;fill-rule:nonzero;stroke:none" />
  <path
         id="path123"
         d="m 3756.9,2075.93 v -21.96 h 3.4 v 21.96 h -3.4"
         style="fill:#ffffff;fill-opacity:1;fill-rule:nonzero;stroke:none" />
  <path
         id="path124"
         d="m 3760.3,2099.53 c -1.13,-0.26 -2.27,-0.51 -3.4,-0.78 v -19.42 h 3.4 v 20.2"
         style="fill:#ffffff;fill-opacity:1;fill-rule:nonzero;stroke:none" />
  <path
         id="path125"
         d="m 3760.3,2047.08 v 3.5 h -3.4 v -4.47 c 1.14,0.33 2.26,0.66 3.4,0.97"
         style="fill:#ffffff;fill-opacity:1;fill-rule:nonzero;stroke:none" />
  <path
         id="path126"
         d="m 3756.9,1484.23 v -13.38 h 3.4 v 12.41 c -1.14,0.31 -2.26,0.64 -3.4,0.97"
         style="fill:#ffffff;fill-opacity:1;fill-rule:nonzero;stroke:none" />
  <path
         id="path127"
         d="m 3782.26,1426.46 c 1.14,-0.19 2.25,-0.42 3.39,-0.6 v 41.59 h -3.39 v -40.99"
         style="fill:#ffffff;fill-opacity:1;fill-rule:nonzero;stroke:none" />
  <path
         id="path128"
         d="m 3785.65,2101.28 h -3.39 v -21.95 h 3.39 v 21.95"
         style="fill:#ffffff;fill-opacity:1;fill-rule:nonzero;stroke:none" />
  <path
         id="path129"
         d="m 3782.26,1478.14 v -7.29 h 3.39 v 6.69 c -1.13,0.19 -2.26,0.39 -3.39,0.6"
         style="fill:#ffffff;fill-opacity:1;fill-rule:nonzero;stroke:none" />
  <path
         id="path130"
         d="m 3782.26,2075.93 v -21.96 h 3.39 v 21.96 h -3.39"
         style="fill:#ffffff;fill-opacity:1;fill-rule:nonzero;stroke:none" />
  <path
         id="path131"
         d="m 3807.61,2101.28 v -21.95 h 3.4 v 21.95 h -3.4"
         style="fill:#ffffff;fill-opacity:1;fill-rule:nonzero;stroke:none" />
  <path
         id="path132"
         d="m 3807.61,1474.36 v -3.51 h 3.4 v 3.24 c -1.13,0.1 -2.28,0.15 -3.4,0.27"
         style="fill:#ffffff;fill-opacity:1;fill-rule:nonzero;stroke:none" />
  <path
         id="path133"
         d="m 3811.01,2056.25 v 19.68 h -3.4 v -19.94 c 1.12,0.1 2.27,0.16 3.4,0.26"
         style="fill:#ffffff;fill-opacity:1;fill-rule:nonzero;stroke:none" />
  <path
         id="path134"
         d="m 3807.61,1423.33 c 1.13,-0.1 2.26,-0.18 3.4,-0.26 v 44.38 h -3.4 v -44.12"
         style="fill:#ffffff;fill-opacity:1;fill-rule:nonzero;stroke:none" />
  <path
         id="path135"
         d="m 3811.01,2107.28 c -1.14,-0.09 -2.27,-0.17 -3.4,-0.27 v -2.33 h 3.4 v 2.6"
         style="fill:#ffffff;fill-opacity:1;fill-rule:nonzero;stroke:none" />
  <path
         id="path136"
         d="m 3836.36,2108.37 c -1.14,0 -2.27,-0.07 -3.4,-0.09 v -3.6 h 3.4 v 3.69"
         style="fill:#ffffff;fill-opacity:1;fill-rule:nonzero;stroke:none" />
  <path
         id="path137"
         d="m 3832.96,1422.06 c 1.13,-0.02 2.26,-0.09 3.4,-0.09 v 45.48 h -3.4 v -45.39"
         style="fill:#ffffff;fill-opacity:1;fill-rule:nonzero;stroke:none" />
  <path
         id="path138"
         d="m 3832.96,2101.28 v -21.95 h 3.4 v 21.95 h -3.4"
         style="fill:#ffffff;fill-opacity:1;fill-rule:nonzero;stroke:none" />
  <path
         id="path139"
         d="m 3836.36,2057.48 v 18.45 h -3.4 v -18.53 c 1.13,0.01 2.26,0.08 3.4,0.08"
         style="fill:#ffffff;fill-opacity:1;fill-rule:nonzero;stroke:none" />
  <path
         id="path140"
         d="m 3832.96,1472.94 v -2.09 h 3.4 v 2 c -1.14,0.01 -2.27,0.07 -3.4,0.09"
         style="fill:#ffffff;fill-opacity:1;fill-rule:nonzero;stroke:none" />
  <path
         id="path141"
         d="m 3858.32,1422.61 c 1.13,0.07 2.26,0.17 3.4,0.25 v 44.59 h -3.4 v -44.84"
         style="fill:#ffffff;fill-opacity:1;fill-rule:nonzero;stroke:none" />
  <path
         id="path142"
         d="m 3861.72,2107.48 c -1.14,0.08 -2.27,0.19 -3.4,0.25 v -3.05 h 3.4 v 2.8"
         style="fill:#ffffff;fill-opacity:1;fill-rule:nonzero;stroke:none" />
  <path
         id="path143"
         d="m 3861.72,2056.46 v 19.47 h -3.4 v -19.21 c 1.13,-0.08 2.27,-0.17 3.4,-0.26"
         style="fill:#ffffff;fill-opacity:1;fill-rule:nonzero;stroke:none" />
  <path
         id="path144"
         d="m 3858.32,1473.62 v -2.77 h 3.4 v 3.04 c -1.13,-0.1 -2.27,-0.19 -3.4,-0.27"
         style="fill:#ffffff;fill-opacity:1;fill-rule:nonzero;stroke:none" />
  <path
         id="path145"
         d="m 3858.32,2101.28 v -21.95 h 3.4 v 21.95 h -3.4"
         style="fill:#ffffff;fill-opacity:1;fill-rule:nonzero;stroke:none" />
  <path
         id="path146"
         d="m 3883.67,1476.45 v -5.6 h 3.4 v 6.2 c -1.14,-0.18 -2.27,-0.42 -3.4,-0.6"
         style="fill:#ffffff;fill-opacity:1;fill-rule:nonzero;stroke:none" />
  <path
         id="path147"
         d="m 3887.07,2104.81 c -1.13,0.17 -2.28,0.29 -3.4,0.44 v -0.57 h 3.4 v 0.13"
         style="fill:#ffffff;fill-opacity:1;fill-rule:nonzero;stroke:none" />
  <path
         id="path148"
         d="m 3887.07,2053.97 v 21.96 h -3.4 v -21.96 h 3.4"
         style="fill:#ffffff;fill-opacity:1;fill-rule:nonzero;stroke:none" />
  <path
         id="path149"
         d="m 3883.67,2079.33 h 3.4 v 21.95 h -3.4 v -21.95"
         style="fill:#ffffff;fill-opacity:1;fill-rule:nonzero;stroke:none" />
  <path
         id="path150"
         d="m 3883.67,1425.09 c 1.12,0.15 2.27,0.27 3.4,0.43 v 41.93 h -3.4 v -42.36"
         style="fill:#ffffff;fill-opacity:1;fill-rule:nonzero;stroke:none" />
  <path
         id="path151"
         d="m 3909.02,1481.62 v -10.77 h 3.4 v 11.65 c -1.13,-0.3 -2.26,-0.6 -3.4,-0.88"
         style="fill:#ffffff;fill-opacity:1;fill-rule:nonzero;stroke:none" />
  <path
         id="path152"
         d="m 3912.42,2053.97 v 21.96 h -3.4 v -21.96 h 3.4"
         style="fill:#ffffff;fill-opacity:1;fill-rule:nonzero;stroke:none" />
  <path
         id="path153"
         d="m 3909.02,1429.4 c 1.14,0.25 2.26,0.53 3.4,0.79 v 37.26 h -3.4 v -38.05"
         style="fill:#ffffff;fill-opacity:1;fill-rule:nonzero;stroke:none" />
  <path
         id="path154"
         d="m 3912.42,2100.16 c -1.14,0.25 -2.26,0.53 -3.4,0.78 v -21.61 h 3.4 v 20.83"
         style="fill:#ffffff;fill-opacity:1;fill-rule:nonzero;stroke:none" />
  <path
         id="path155"
         d="m 3912.42,2047.84 v 2.74 h -3.4 v -1.86 c 1.14,-0.28 2.27,-0.58 3.4,-0.88"
         style="fill:#ffffff;fill-opacity:1;fill-rule:nonzero;stroke:none" />
  <path
         id="path156"
         d="m 3934.38,1489.26 v -18.41 h 3.39 v 19.56 c -1.12,-0.41 -2.26,-0.75 -3.39,-1.15"
         style="fill:#ffffff;fill-opacity:1;fill-rule:nonzero;stroke:none" />
  <path
         id="path157"
         d="m 3937.77,2053.97 v 21.96 h -3.39 v -21.96 h 3.39"
         style="fill:#ffffff;fill-opacity:1;fill-rule:nonzero;stroke:none" />
  <path
         id="path158"
         d="m 3937.77,2039.93 v 10.65 h -3.39 v -9.5 c 1.13,-0.4 2.27,-0.74 3.39,-1.15"
         style="fill:#ffffff;fill-opacity:1;fill-rule:nonzero;stroke:none" />
  <path
         id="path159"
         d="m 3934.38,1435.83 c 1.13,0.33 2.27,0.63 3.39,0.97 v 30.65 h -3.39 v -31.62"
         style="fill:#ffffff;fill-opacity:1;fill-rule:nonzero;stroke:none" />
  <path
         id="path160"
         d="m 3937.77,2093.54 c -1.12,0.35 -2.26,0.64 -3.39,0.96 v -15.17 h 3.39 v 14.21"
         style="fill:#ffffff;fill-opacity:1;fill-rule:nonzero;stroke:none" />
  <path
         id="path161"
         d="m 3963.13,2029.29 v 21.29 h -3.4 v -19.76 c 1.13,-0.52 2.27,-1 3.4,-1.53"
         style="fill:#ffffff;fill-opacity:1;fill-rule:nonzero;stroke:none" />
  <path
         id="path162"
         d="m 3963.13,1470.85 v 21.96 h -3.4 v -21.96 h 3.4"
         style="fill:#ffffff;fill-opacity:1;fill-rule:nonzero;stroke:none" />
  <path
         id="path163"
         d="m 3959.73,1444.35 c 1.14,0.43 2.26,0.88 3.4,1.33 v 21.77 h -3.4 v -23.1"
         style="fill:#ffffff;fill-opacity:1;fill-rule:nonzero;stroke:none" />
  <path
         id="path164"
         d="m 3959.73,2053.97 h 3.4 v 21.96 h -3.4 v -21.96"
         style="fill:#ffffff;fill-opacity:1;fill-rule:nonzero;stroke:none" />
  <path
         id="path165"
         d="m 3959.73,1499.51 v -3.3 h 3.4 v 4.84 c -1.13,-0.53 -2.27,-1.01 -3.4,-1.54"
         style="fill:#ffffff;fill-opacity:1;fill-rule:nonzero;stroke:none" />
  <path
         id="path166"
         d="m 3963.13,2084.66 c -1.14,0.45 -2.26,0.91 -3.4,1.34 v -6.67 h 3.4 v 5.33"
         style="fill:#ffffff;fill-opacity:1;fill-rule:nonzero;stroke:none" />
  <path
         id="path167"
         d="m 3985.08,1512.71 v -16.5 h 3.4 v 18.47 c -1.12,-0.68 -2.27,-1.3 -3.4,-1.97"
         style="fill:#ffffff;fill-opacity:1;fill-rule:nonzero;stroke:none" />
  <path
         id="path168"
         d="m 3985.08,1455.14 c 1.14,0.53 2.26,1.09 3.4,1.65 v 10.66 h -3.4 v -12.31"
         style="fill:#ffffff;fill-opacity:1;fill-rule:nonzero;stroke:none" />
  <path
         id="path169"
         d="m 3988.48,2015.66 v 9.56 h -3.4 v -7.6 c 1.13,-0.66 2.28,-1.28 3.4,-1.96"
         style="fill:#ffffff;fill-opacity:1;fill-rule:nonzero;stroke:none" />
  <path
         id="path170"
         d="m 3988.48,1470.85 v 21.96 h -3.4 v -21.96 h 3.4"
         style="fill:#ffffff;fill-opacity:1;fill-rule:nonzero;stroke:none" />
  <path
         id="path171"
         d="m 3988.48,2073.55 c -1.14,0.55 -2.26,1.12 -3.4,1.66 v -21.24 h 3.4 v 19.58"
         style="fill:#ffffff;fill-opacity:1;fill-rule:nonzero;stroke:none" />
  <path
         id="path172"
         d="m 3988.48,2028.62 v 21.96 h -3.4 v -21.96 h 3.4"
         style="fill:#ffffff;fill-opacity:1;fill-rule:nonzero;stroke:none" />
  <path
         id="path173"
         d="m 4010.44,1470.85 h 3.4 v 21.96 h -3.4 v -21.96"
         style="fill:#ffffff;fill-opacity:1;fill-rule:nonzero;stroke:none" />
  <path
         id="path174"
         d="m 4010.44,2028.62 h 3.4 v 21.96 h -3.4 v -21.96"
         style="fill:#ffffff;fill-opacity:1;fill-rule:nonzero;stroke:none" />
  <path
         id="path175"
         d="m 4013.84,1999.87 h -1.83 c 0.62,-0.46 1.21,-0.92 1.83,-1.38 v 1.38"
         style="fill:#ffffff;fill-opacity:1;fill-rule:nonzero;stroke:none" />
  <path
         id="path176"
         d="m 4013.84,2003.27 v 21.95 h -3.4 v -21.95 h 3.4"
         style="fill:#ffffff;fill-opacity:1;fill-rule:nonzero;stroke:none" />
  <path
         id="path177"
         d="m 4013.84,1496.21 v 21.95 h -3.4 v -21.95 h 3.4"
         style="fill:#ffffff;fill-opacity:1;fill-rule:nonzero;stroke:none" />
  <path
         id="path178"
         d="m 4010.44,1529.35 v -7.79 h 3.4 v 10.3 c -1.13,-0.85 -2.27,-1.68 -3.4,-2.51"
         style="fill:#ffffff;fill-opacity:1;fill-rule:nonzero;stroke:none" />
  <path
         id="path179"
         d="m 4013.84,2059.78 c -1.13,0.67 -2.28,1.29 -3.4,1.95 v -7.76 h 3.4 v 5.81"
         style="fill:#ffffff;fill-opacity:1;fill-rule:nonzero;stroke:none" />
  <path
         id="path180"
         d="m 4039.19,2003.27 v 21.95 h -3.4 v -21.95 h 3.4"
         style="fill:#ffffff;fill-opacity:1;fill-rule:nonzero;stroke:none" />
  <path
         id="path181"
         d="m 4035.79,1550.21 v -3.3 h 3.4 v 6.55 c -1.13,-1.09 -2.25,-2.19 -3.4,-3.25"
         style="fill:#ffffff;fill-opacity:1;fill-rule:nonzero;stroke:none" />
  <path
         id="path182"
         d="m 4039.19,1521.56 v 21.96 h -3.4 v -21.96 h 3.4"
         style="fill:#ffffff;fill-opacity:1;fill-rule:nonzero;stroke:none" />
  <path
         id="path183"
         d="m 4035.79,1496.21 h 3.4 v 21.95 h -3.4 v -21.95"
         style="fill:#ffffff;fill-opacity:1;fill-rule:nonzero;stroke:none" />
  <path
         id="path184"
         d="m 4039.19,2042.98 c -1.12,0.81 -2.27,1.61 -3.4,2.41 v -16.77 h 3.4 v 14.36"
         style="fill:#ffffff;fill-opacity:1;fill-rule:nonzero;stroke:none" />
  <path
         id="path185"
         d="m 4038.11,1977.92 h 1.08 v 21.95 h -3.4 v -19.74 c 0.78,-0.73 1.54,-1.48 2.32,-2.21"
         style="fill:#ffffff;fill-opacity:1;fill-rule:nonzero;stroke:none" />
  <path
         id="path186"
         d="m 4035.79,1484.94 c 1.13,0.81 2.28,1.6 3.4,2.42 v 5.45 h -3.4 v -7.87"
         style="fill:#ffffff;fill-opacity:1;fill-rule:nonzero;stroke:none" />
  <path
         id="path187"
         d="m 4061.14,1521.56 h 3.4 v 21.96 h -3.4 v -21.96"
         style="fill:#ffffff;fill-opacity:1;fill-rule:nonzero;stroke:none" />
  <path
         id="path188"
         d="m 4061.14,2003.27 h 3.4 v 19.39 c -0.99,0.87 -1.97,1.71 -2.96,2.56 h -0.44 v -21.95"
         style="fill:#ffffff;fill-opacity:1;fill-rule:nonzero;stroke:none" />
  <path
         id="path189"
         d="m 4061.14,1504.74 c 1.14,0.97 2.27,1.95 3.4,2.94 v 10.48 h -3.4 v -13.42"
         style="fill:#ffffff;fill-opacity:1;fill-rule:nonzero;stroke:none" />
  <path
         id="path190"
         d="m 4064.54,1977.92 v 21.95 h -3.4 v -21.95 h 3.4"
         style="fill:#ffffff;fill-opacity:1;fill-rule:nonzero;stroke:none" />
  <path
         id="path191"
         d="m 4064.54,1546.91 v 21.96 h -3.4 v -21.96 h 3.4"
         style="fill:#ffffff;fill-opacity:1;fill-rule:nonzero;stroke:none" />
  <path
         id="path192"
         d="m 4062.06,1952.56 h 2.48 v 21.96 h -3.4 v -20.9 c 0.31,-0.36 0.62,-0.7 0.92,-1.06"
         style="fill:#ffffff;fill-opacity:1;fill-rule:nonzero;stroke:none" />
  <path
         id="path193"
         d="m 4061.14,1576.72 v -4.45 h 3.4 v 8.52 c -1.12,-1.38 -2.26,-2.72 -3.4,-4.07"
         style="fill:#ffffff;fill-opacity:1;fill-rule:nonzero;stroke:none" />
  <path
         id="path194"
         d="m 4089.89,1927.21 v 21.95 h -3.4 v -21.95 h 3.4"
         style="fill:#ffffff;fill-opacity:1;fill-rule:nonzero;stroke:none" />
  <path
         id="path195"
         d="m 4089.89,1913.01 v 10.8 h -3.4 v -5.12 c 1.17,-1.87 2.28,-3.78 3.4,-5.68"
         style="fill:#ffffff;fill-opacity:1;fill-rule:nonzero;stroke:none" />
  <path
         id="path196"
         d="m 4089.89,1572.27 v 21.95 h -3.4 v -21.95 h 3.4"
         style="fill:#ffffff;fill-opacity:1;fill-rule:nonzero;stroke:none" />
  <path
         id="path197"
         d="m 4086.49,1528.85 c 1.13,1.19 2.29,2.35 3.4,3.56 v 11.11 h -3.4 v -14.67"
         style="fill:#ffffff;fill-opacity:1;fill-rule:nonzero;stroke:none" />
  <path
         id="path198"
         d="m 4086.49,1611.64 v -14.02 h 3.4 v 19.71 c -1.12,-1.9 -2.23,-3.8 -3.4,-5.69"
         style="fill:#ffffff;fill-opacity:1;fill-rule:nonzero;stroke:none" />
  <path
         id="path199"
         d="m 4086.49,1546.91 h 3.4 v 21.96 h -3.4 v -21.96"
         style="fill:#ffffff;fill-opacity:1;fill-rule:nonzero;stroke:none" />
  <path
         id="path200"
         d="m 4086.49,1977.92 h 3.4 v 20.01 c -0.6,0.65 -1.24,1.29 -1.85,1.94 h -1.55 v -21.95"
         style="fill:#ffffff;fill-opacity:1;fill-rule:nonzero;stroke:none" />
  <path
         id="path201"
         d="m 4086.49,1952.56 h 3.4 v 21.96 h -3.4 v -21.96"
         style="fill:#ffffff;fill-opacity:1;fill-rule:nonzero;stroke:none" />
  <path
         id="path202"
         d="m 4115.24,1597.62 v 21.95 h -3.39 v -21.95 h 3.39"
         style="fill:#ffffff;fill-opacity:1;fill-rule:nonzero;stroke:none" />
  <path
         id="path203"
         d="m 4115.24,1622.97 v 21.95 h -3.39 v -21.95 h 3.39"
         style="fill:#ffffff;fill-opacity:1;fill-rule:nonzero;stroke:none" />
  <path
         id="path204"
         d="m 4111.85,1927.21 h 3.39 v 21.95 h -3.39 v -21.95"
         style="fill:#ffffff;fill-opacity:1;fill-rule:nonzero;stroke:none" />
  <path
         id="path205"
         d="m 4111.85,1648.32 h 3.39 v 21.96 h -1.02 c -0.78,-2.27 -1.53,-4.56 -2.37,-6.81 v -15.15"
         style="fill:#ffffff;fill-opacity:1;fill-rule:nonzero;stroke:none" />
  <path
         id="path206"
         d="m 4115.24,1967.02 c -1.13,1.56 -2.23,3.13 -3.39,4.66 v -19.12 h 3.39 v 14.46"
         style="fill:#ffffff;fill-opacity:1;fill-rule:nonzero;stroke:none" />
  <path
         id="path207"
         d="m 4111.85,1558.65 c 1.16,1.54 2.26,3.11 3.39,4.66 v 5.56 h -3.39 v -10.22"
         style="fill:#ffffff;fill-opacity:1;fill-rule:nonzero;stroke:none" />
  <path
         id="path208"
         d="m 4115.24,1857.02 v 16.09 h -3.39 v -6.24 c 1.21,-3.25 2.3,-6.54 3.39,-9.85"
         style="fill:#ffffff;fill-opacity:1;fill-rule:nonzero;stroke:none" />
  <path
         id="path209"
         d="m 4115.24,1876.5 v 21.96 h -3.39 v -21.96 h 3.39"
         style="fill:#ffffff;fill-opacity:1;fill-rule:nonzero;stroke:none" />
  <path
         id="path210"
         d="m 4111.85,1572.27 h 3.39 v 21.95 h -3.39 v -21.95"
         style="fill:#ffffff;fill-opacity:1;fill-rule:nonzero;stroke:none" />
  <path
         id="path211"
         d="m 4115.24,1901.86 v 21.95 h -3.39 v -21.95 h 3.39"
         style="fill:#ffffff;fill-opacity:1;fill-rule:nonzero;stroke:none" />
  <path
         id="path212"
         d="m 4140.6,1749.74 v 21.95 h -3.4 v -21.95 h 3.4"
         style="fill:#ffffff;fill-opacity:1;fill-rule:nonzero;stroke:none" />
  <path
         id="path213"
         d="m 4140.6,1673.68 v 21.95 h -3.4 v -21.95 h 3.4"
         style="fill:#ffffff;fill-opacity:1;fill-rule:nonzero;stroke:none" />
  <path
         id="path214"
         d="m 4137.2,1648.32 h 3.4 v 21.96 h -3.4 v -21.96"
         style="fill:#ffffff;fill-opacity:1;fill-rule:nonzero;stroke:none" />
  <path
         id="path215"
         d="m 4137.2,1873.11 v -21.96 h 3.4 v 21.96 h -3.4"
         style="fill:#ffffff;fill-opacity:1;fill-rule:nonzero;stroke:none" />
  <path
         id="path216"
         d="m 4137.2,1622.97 h 3.4 v 21.95 h -3.4 v -21.95"
         style="fill:#ffffff;fill-opacity:1;fill-rule:nonzero;stroke:none" />
  <path
         id="path217"
         d="m 4137.2,1597.62 h 0.05 c 1.13,2.01 2.26,4.02 3.35,6.06 v 15.89 h -3.4 v -21.95"
         style="fill:#ffffff;fill-opacity:1;fill-rule:nonzero;stroke:none" />
  <path
         id="path218"
         d="m 4137.2,1876.5 h 3.4 v 21.96 h -3.4 v -21.96"
         style="fill:#ffffff;fill-opacity:1;fill-rule:nonzero;stroke:none" />
  <path
         id="path219"
         d="m 4137.2,1901.86 h 3.4 v 21.95 h -3.4 v -21.95"
         style="fill:#ffffff;fill-opacity:1;fill-rule:nonzero;stroke:none" />
  <path
         id="path220"
         d="m 4140.6,1775.09 v 21.95 h -3.4 v -21.95 h 3.4"
         style="fill:#ffffff;fill-opacity:1;fill-rule:nonzero;stroke:none" />
  <path
         id="path221"
         d="m 4137.2,1932.8 v -5.59 h 3.11 c -1,1.88 -2.07,3.73 -3.11,5.59"
         style="fill:#ffffff;fill-opacity:1;fill-rule:nonzero;stroke:none" />
  <path
         id="path222"
         d="m 4140.6,1699.03 v 21.96 h -3.4 v -21.96 h 3.4"
         style="fill:#ffffff;fill-opacity:1;fill-rule:nonzero;stroke:none" />
  <path
         id="path223"
         d="m 4140.6,1825.8 v 21.95 h -3.4 v -21.95 h 3.4"
         style="fill:#ffffff;fill-opacity:1;fill-rule:nonzero;stroke:none" />
  <path
         id="path224"
         d="m 4140.6,1800.44 v 21.96 h -3.4 v -21.96 h 3.4"
         style="fill:#ffffff;fill-opacity:1;fill-rule:nonzero;stroke:none" />
  <path
         id="path225"
         d="m 4140.6,1724.38 v 21.96 h -3.4 v -21.96 h 3.4"
         style="fill:#ffffff;fill-opacity:1;fill-rule:nonzero;stroke:none" />
  <path
         id="path226"
         d="m 4162.55,1654.36 c 1.16,3.41 2.34,6.82 3.4,10.29 v 5.63 h -3.4 v -15.92"
         style="fill:#ffffff;fill-opacity:1;fill-rule:nonzero;stroke:none" />
  <path
         id="path227"
         d="m 4162.55,1749.74 h 3.4 v 21.95 h -3.4 v -21.95"
         style="fill:#ffffff;fill-opacity:1;fill-rule:nonzero;stroke:none" />
  <path
         id="path228"
         d="m 4162.55,1775.09 h 3.4 v 21.95 h -3.4 v -21.95"
         style="fill:#ffffff;fill-opacity:1;fill-rule:nonzero;stroke:none" />
  <path
         id="path229"
         d="m 4162.55,1800.44 h 3.4 v 21.96 h -3.4 v -21.96"
         style="fill:#ffffff;fill-opacity:1;fill-rule:nonzero;stroke:none" />
  <path
         id="path230"
         d="m 4162.55,1825.8 h 3.4 v 21.95 h -3.4 v -21.95"
         style="fill:#ffffff;fill-opacity:1;fill-rule:nonzero;stroke:none" />
  <path
         id="path231"
         d="m 4162.55,1699.03 h 3.4 v 21.96 h -3.4 v -21.96"
         style="fill:#ffffff;fill-opacity:1;fill-rule:nonzero;stroke:none" />
  <path
         id="path232"
         d="m 4162.55,1724.38 h 3.4 v 21.96 h -3.4 v -21.96"
         style="fill:#ffffff;fill-opacity:1;fill-rule:nonzero;stroke:none" />
  <path
         id="path233"
         d="m 4162.55,1673.68 h 3.4 v 21.95 h -3.4 v -21.95"
         style="fill:#ffffff;fill-opacity:1;fill-rule:nonzero;stroke:none" />
  <path
         id="path234"
         d="m 4163.53,1873.11 h -0.98 v -21.96 h 3.4 v 14.54 c -0.76,2.49 -1.61,4.94 -2.42,7.42"
         style="fill:#ffffff;fill-opacity:1;fill-rule:nonzero;stroke:none" />
  <path
         id="path235"
         d="m 3807.61,2101.28 h 99.92 c -6.39,1.32 -12.85,2.44 -19.37,3.4 h -1.09 -3.4 -21.95 -3.4 -21.96 -3.4 -21.95 -3.4 -20.36 c -6.52,-0.96 -12.97,-2.08 -19.37,-3.4 h 14.38 3.39 21.96"
         style="fill:#ffffff;fill-opacity:1;fill-rule:nonzero;stroke:none" />
  <path
         id="path236"
         d="m 3731.55,2075.93 h 251.93 c -2.49,1.17 -5,2.29 -7.52,3.4 h -12.83 -3.4 -21.96 -3.39 -21.96 -3.4 -21.95 -3.4 -21.95 -3.4 -21.96 -3.4 -21.95 -3.4 -21.96 -3.39 -21.96 -3.4 -21.95 -3.4 -21.95 -3.4 -6.75 c -2.52,-1.11 -5.03,-2.23 -7.52,-3.4 h 14.27 3.4 21.95"
         style="fill:#ffffff;fill-opacity:1;fill-rule:nonzero;stroke:none" />
  <path
         id="path237"
         d="m 3937.77,2053.97 h -54.55 c 5.99,-0.93 11.9,-2.1 17.76,-3.39 h 8.04 3.4 21.96 3.39 21.96 3.4 21.95 3.4 21.96 3.4 14.54 c -1.74,1.16 -3.54,2.25 -5.3,3.39 h -9.24 -3.4 -21.96 -3.4 -21.95 -3.4 -21.96"
         style="fill:#ffffff;fill-opacity:1;fill-rule:nonzero;stroke:none" />
  <path
         id="path238"
         d="m 3680.84,2050.58 h 93.59 c 5.86,1.29 11.77,2.46 17.76,3.39 h -6.54 -3.39 -21.96 -3.4 -21.95 -3.4 -21.95 -3.4 -21.96 -3.4 -21.95 -3.4 -3.16 c -1.76,-1.14 -3.56,-2.23 -5.3,-3.39 h 8.46 3.4 21.95"
         style="fill:#ffffff;fill-opacity:1;fill-rule:nonzero;stroke:none" />
  <path
         id="path239"
         d="m 3655.49,2025.22 h 48.7 c 2.21,1.14 4.39,2.32 6.64,3.4 h -1.23 -3.4 -21.96 -3.4 -21.95 -3.4 -21.95 -3.4 -12.39 c -1.32,-1.11 -2.6,-2.27 -3.92,-3.4 h 16.31 3.4 21.95"
         style="fill:#ffffff;fill-opacity:1;fill-rule:nonzero;stroke:none" />
  <path
         id="path240"
         d="m 3988.48,2028.62 h -23.89 c 2.24,-1.08 4.42,-2.26 6.63,-3.4 h 13.86 3.4 21.96 3.4 21.95 3.4 21.95 0.44 c -1.31,1.13 -2.6,2.29 -3.92,3.4 h -18.47 -3.4 -21.95 -3.4 -21.96"
         style="fill:#ffffff;fill-opacity:1;fill-rule:nonzero;stroke:none" />
  <path
         id="path241"
         d="m 3630.14,1999.87 h 33.26 c 1.56,1.17 3.18,2.27 4.77,3.4 h -9.28 -3.4 -21.95 -3.4 -21.96 -3.39 -14.17 c -1.09,-1.13 -2.17,-2.25 -3.25,-3.4 h 17.42 3.39 21.96"
         style="fill:#ffffff;fill-opacity:1;fill-rule:nonzero;stroke:none" />
  <path
         id="path242"
         d="m 4039.19,2003.27 h -31.95 c 1.59,-1.13 3.21,-2.23 4.77,-3.4 h 1.83 21.95 3.4 21.95 3.4 21.95 1.55 c -1.07,1.15 -2.15,2.27 -3.25,3.4 h -20.25 -3.4 -21.95"
         style="fill:#ffffff;fill-opacity:1;fill-rule:nonzero;stroke:none" />
  <path
         id="path243"
         d="m 3604.79,1974.52 h 28.95 c 1.18,1.14 2.37,2.27 3.56,3.4 h -3.76 -3.4 -21.96 -3.39 -21.96 -3.4 -10.96 c -0.9,-1.13 -1.8,-2.26 -2.68,-3.4 h 13.64 3.4 21.96"
         style="fill:#ffffff;fill-opacity:1;fill-rule:nonzero;stroke:none" />
  <path
         id="path244"
         d="m 4064.54,1977.92 h -26.43 c 1.19,-1.13 2.39,-2.26 3.56,-3.4 h 19.47 3.4 21.95 3.4 19.73 c -0.88,1.14 -1.78,2.27 -2.67,3.4 h -17.06 -3.4 -21.95"
         style="fill:#ffffff;fill-opacity:1;fill-rule:nonzero;stroke:none" />
  <path
         id="path245"
         d="m 4064.54,1952.56 h -2.48 c 0.94,-1.12 1.86,-2.26 2.78,-3.4 h 21.65 3.4 21.96 3.39 12.15 c -0.72,1.14 -1.44,2.28 -2.18,3.4 h -9.97 -3.39 -21.96 -3.4 -21.95"
         style="fill:#ffffff;fill-opacity:1;fill-rule:nonzero;stroke:none" />
  <path
         id="path246"
         d="m 3579.43,1949.16 h 31.14 c 0.92,1.14 1.84,2.28 2.79,3.4 h -5.18 -3.39 -21.96 -3.4 -21.95 -3.4 -3.88 c -0.74,-1.12 -1.46,-2.26 -2.18,-3.4 h 6.06 3.4 21.95"
         style="fill:#ffffff;fill-opacity:1;fill-rule:nonzero;stroke:none" />
  <path
         id="path247"
         d="m 4089.89,1927.21 h -8.85 c 0.74,-1.12 1.44,-2.27 2.17,-3.4 h 3.28 3.4 21.96 3.39 21.96 3.4 1.46 c -0.6,1.13 -1.14,2.28 -1.75,3.4 h -3.11 -21.96 -3.39 -21.96"
         style="fill:#ffffff;fill-opacity:1;fill-rule:nonzero;stroke:none" />
  <path
         id="path248"
         d="m 3579.43,1923.81 h 12.77 c 0.73,1.13 1.43,2.28 2.18,3.4 h -11.55 -3.4 -21.95 -3.4 -18.98 c -0.61,-1.12 -1.15,-2.27 -1.74,-3.4 h 20.72 3.4 21.95"
         style="fill:#ffffff;fill-opacity:1;fill-rule:nonzero;stroke:none" />
  <path
         id="path249"
         d="m 3554.08,1898.46 h 23.46 c 0.59,1.13 1.14,2.27 1.74,3.4 h -21.8 -3.4 -21.95 -3.4 -5.89 c -0.5,-1.14 -1.03,-2.26 -1.52,-3.4 h 7.41 3.4 21.95"
         style="fill:#ffffff;fill-opacity:1;fill-rule:nonzero;stroke:none" />
  <path
         id="path250"
         d="m 4115.24,1901.86 h -19.11 c 0.6,-1.13 1.16,-2.27 1.74,-3.4 h 13.98 3.39 21.96 3.4 13.49 c -0.49,1.14 -1.02,2.26 -1.52,3.4 h -11.97 -3.4 -21.96"
         style="fill:#ffffff;fill-opacity:1;fill-rule:nonzero;stroke:none" />
  <path
         id="path251"
         d="m 4115.24,1876.5 h -7.19 c 0.47,-1.12 0.9,-2.26 1.34,-3.39 h 2.46 3.39 21.96 3.4 21.95 0.98 c -0.39,1.13 -0.77,2.26 -1.16,3.39 h -21.77 -3.4 -21.96"
         style="fill:#ffffff;fill-opacity:1;fill-rule:nonzero;stroke:none" />
  <path
         id="path252"
         d="m 3554.08,1873.11 h 11.95 c 0.44,1.13 0.86,2.27 1.33,3.39 h -9.88 -3.4 -21.95 -3.4 -15.69 c -0.39,-1.13 -0.77,-2.26 -1.16,-3.39 h 16.85 3.4 21.95"
         style="fill:#ffffff;fill-opacity:1;fill-rule:nonzero;stroke:none" />
  <path
         id="path253"
         d="m 4140.6,1851.15 h -23.42 c 0.35,-1.12 0.63,-2.27 0.96,-3.4 h 19.06 3.4 21.95 3.4 4.92 c -0.27,1.13 -0.5,2.28 -0.79,3.4 h -4.13 -3.4 -21.95"
         style="fill:#ffffff;fill-opacity:1;fill-rule:nonzero;stroke:none" />
  <path
         id="path254"
         d="m 3528.73,1847.75 h 28.54 c 0.33,1.13 0.61,2.28 0.96,3.4 h -0.75 -3.4 -21.95 -3.4 -21.96 -1.44 c -0.29,-1.12 -0.52,-2.27 -0.79,-3.4 h 2.23 21.96"
         style="fill:#ffffff;fill-opacity:1;fill-rule:nonzero;stroke:none" />
  <path
         id="path255"
         d="M 3528.73,1822.4 H 3551 c 0.22,1.14 0.46,2.27 0.69,3.4 h -19.56 -3.4 -21.96 -3.4 -3.45 c -0.2,-1.13 -0.42,-2.26 -0.6,-3.4 h 4.05 3.4 21.96"
         style="fill:#ffffff;fill-opacity:1;fill-rule:nonzero;stroke:none" />
  <path
         id="path256"
         d="m 4140.6,1825.8 h -16.88 c 0.24,-1.13 0.47,-2.26 0.69,-3.4 h 12.79 3.4 21.95 3.4 10.15 c -0.19,1.14 -0.41,2.27 -0.61,3.4 h -9.54 -3.4 -21.95"
         style="fill:#ffffff;fill-opacity:1;fill-rule:nonzero;stroke:none" />
  <path
         id="path257"
         d="m 3528.73,1797.04 h 18.39 c 0.13,1.14 0.29,2.27 0.43,3.4 h -15.42 -3.4 -21.96 -3.4 -7.1 c -0.12,-1.12 -0.17,-2.27 -0.27,-3.4 h 7.37 3.4 21.96"
         style="fill:#ffffff;fill-opacity:1;fill-rule:nonzero;stroke:none" />
  <path
         id="path258"
         d="m 4140.6,1800.44 h -12.74 c 0.14,-1.13 0.3,-2.26 0.43,-3.4 h 8.91 3.4 21.95 3.4 13.46 c -0.1,1.13 -0.15,2.28 -0.26,3.4 h -13.2 -3.4 -21.95"
         style="fill:#ffffff;fill-opacity:1;fill-rule:nonzero;stroke:none" />
  <path
         id="path259"
         d="m 4140.6,1775.09 h -10.8 c 0.04,-1.13 0.06,-2.27 0.09,-3.4 h 7.31 3.4 21.95 3.4 14.82 c -0.02,1.14 -0.05,2.27 -0.08,3.4 h -14.74 -3.4 -21.95"
         style="fill:#ffffff;fill-opacity:1;fill-rule:nonzero;stroke:none" />
  <path
         id="path260"
         d="m 3528.73,1771.69 h 16.8 c 0.02,1.13 0.04,2.27 0.08,3.4 h -13.48 -3.4 -21.96 -3.4 -8.64 c -0.04,-1.13 -0.07,-2.26 -0.09,-3.4 h 8.73 3.4 21.96"
         style="fill:#ffffff;fill-opacity:1;fill-rule:nonzero;stroke:none" />
  <path
         id="path261"
         d="m 4140.6,1749.74 h -10.95 c -0.06,-1.14 -0.2,-2.26 -0.27,-3.4 h 7.82 3.4 21.95 3.4 14.45 c 0.07,1.13 0.1,2.26 0.15,3.4 h -14.6 -3.4 -21.95"
         style="fill:#ffffff;fill-opacity:1;fill-rule:nonzero;stroke:none" />
  <path
         id="path262"
         d="m 3528.73,1746.34 h 17.3 c -0.07,1.14 -0.2,2.26 -0.26,3.4 h -13.64 -3.4 -21.96 -3.4 -8.51 c 0.05,-1.14 0.08,-2.27 0.15,-3.4 h 8.36 3.4 21.96"
         style="fill:#ffffff;fill-opacity:1;fill-rule:nonzero;stroke:none" />
  <path
         id="path263"
         d="m 4140.6,1724.38 h -13.44 c -0.16,-1.13 -0.27,-2.27 -0.43,-3.39 h 10.47 3.4 21.95 3.4 12.07 c 0.13,1.13 0.29,2.25 0.43,3.39 h -12.5 -3.4 -21.95"
         style="fill:#ffffff;fill-opacity:1;fill-rule:nonzero;stroke:none" />
  <path
         id="path264"
         d="m 3528.73,1720.99 h 19.95 c -0.16,1.12 -0.27,2.26 -0.43,3.39 h -16.12 -3.4 -21.96 -3.4 -6.4 c 0.13,-1.14 0.29,-2.26 0.43,-3.39 h 5.97 3.4 21.96"
         style="fill:#ffffff;fill-opacity:1;fill-rule:nonzero;stroke:none" />
  <path
         id="path265"
         d="m 4140.6,1699.03 h -18.15 c -0.26,-1.13 -0.51,-2.27 -0.79,-3.4 h 15.54 3.4 21.95 3.4 7.94 c 0.22,1.13 0.4,2.27 0.62,3.4 h -8.56 -3.4 -21.95"
         style="fill:#ffffff;fill-opacity:1;fill-rule:nonzero;stroke:none" />
  <path
         id="path266"
         d="m 3553.75,1695.63 c -0.27,1.13 -0.53,2.27 -0.78,3.4 h -20.84 -3.4 -21.96 -3.4 -2.47 c 0.22,-1.13 0.4,-2.27 0.63,-3.4 h 1.84 3.4 21.96 3.4 21.62"
         style="fill:#ffffff;fill-opacity:1;fill-rule:nonzero;stroke:none" />
  <path
         id="path267"
         d="m 3554.08,1670.28 h 7.11 c -0.39,1.14 -0.77,2.26 -1.15,3.4 h -2.56 -3.4 -21.95 -3.4 -21.84 c 0.33,-1.14 0.65,-2.26 0.97,-3.4 h 20.87 3.4 21.95"
         style="fill:#ffffff;fill-opacity:1;fill-rule:nonzero;stroke:none" />
  <path
         id="path268"
         d="m 4140.6,1673.68 h -25.23 c -0.38,-1.14 -0.76,-2.26 -1.15,-3.4 h 1.02 21.96 3.4 21.95 3.4 1.6 c 0.32,1.14 0.65,2.26 0.97,3.4 h -2.57 -3.4 -21.95"
         style="fill:#ffffff;fill-opacity:1;fill-rule:nonzero;stroke:none" />
  <path
         id="path269"
         d="m 4115.24,1648.32 h -9.54 c -0.49,-1.14 -1.02,-2.27 -1.54,-3.4 h 7.69 3.39 21.96 3.4 18.63 c 0.43,1.13 0.87,2.27 1.28,3.4 h -19.91 -3.4 -21.96"
         style="fill:#ffffff;fill-opacity:1;fill-rule:nonzero;stroke:none" />
  <path
         id="path270"
         d="m 3554.08,1644.92 h 17.17 c -0.52,1.13 -1.04,2.26 -1.54,3.4 h -12.23 -3.4 -21.95 -3.4 -13.83 c 0.41,-1.13 0.85,-2.27 1.28,-3.4 h 12.55 3.4 21.95"
         style="fill:#ffffff;fill-opacity:1;fill-rule:nonzero;stroke:none" />
  <path
         id="path271"
         d="m 3579.43,1619.57 h 4.81 c -0.66,1.13 -1.32,2.26 -1.95,3.4 h -2.86 -21.95 -3.4 -21.95 -3.4 -3.4 c 0.52,-1.13 1.01,-2.28 1.54,-3.4 h 1.86 3.4 21.95 3.4 21.95"
         style="fill:#ffffff;fill-opacity:1;fill-rule:nonzero;stroke:none" />
  <path
         id="path272"
         d="m 4115.24,1622.97 h -22.11 c -0.64,-1.14 -1.3,-2.27 -1.96,-3.4 h 20.68 3.39 21.96 3.4 7.94 c 0.53,1.12 1.02,2.27 1.54,3.4 h -9.48 -3.4 -21.96"
         style="fill:#ffffff;fill-opacity:1;fill-rule:nonzero;stroke:none" />
  <path
         id="path273"
         d="m 3579.43,1594.22 h 21.19 c -0.82,1.13 -1.63,2.26 -2.42,3.4 h -15.37 -3.4 -21.95 -3.4 -15.92 c 0.65,-1.15 1.31,-2.27 1.96,-3.4 h 13.96 3.4 21.95"
         style="fill:#ffffff;fill-opacity:1;fill-rule:nonzero;stroke:none" />
  <path
         id="path274"
         d="m 4115.24,1597.62 h -38.02 c -0.8,-1.14 -1.61,-2.27 -2.43,-3.4 h 11.7 3.4 21.96 3.39 20.05 c 0.66,1.13 1.32,2.25 1.96,3.4 h -0.05 -21.96"
         style="fill:#ffffff;fill-opacity:1;fill-rule:nonzero;stroke:none" />
  <path
         id="path275"
         d="m 3604.79,1568.87 h 16.28 c -1,1.11 -1.95,2.27 -2.94,3.4 h -9.95 -3.39 -21.96 -3.4 -21.95 -3.4 -0.28 c 0.78,-1.16 1.62,-2.26 2.41,-3.4 h 1.27 21.95 3.4 21.96"
         style="fill:#ffffff;fill-opacity:1;fill-rule:nonzero;stroke:none" />
  <path
         id="path276"
         d="m 4089.89,1572.27 h -32.6 c -1,-1.13 -1.95,-2.29 -2.95,-3.4 h 6.8 3.4 21.95 3.4 21.96 3.39 3.96 c 0.79,1.14 1.63,2.24 2.41,3.4 h -6.37 -3.39 -21.96"
         style="fill:#ffffff;fill-opacity:1;fill-rule:nonzero;stroke:none" />
  <path
         id="path277"
         d="m 4064.54,1546.91 h -32.41 c -1.29,-1.15 -2.61,-2.27 -3.93,-3.39 h 7.59 3.4 21.95 3.4 21.95 3.4 9.79 c 0.96,1.14 1.98,2.23 2.94,3.39 h -12.73 -3.4 -21.95"
         style="fill:#ffffff;fill-opacity:1;fill-rule:nonzero;stroke:none" />
  <path
         id="path278"
         d="m 3630.14,1543.52 h 17.07 c -1.32,1.12 -2.64,2.24 -3.93,3.39 h -9.74 -3.4 -21.96 -3.39 -21.96 -3.4 -6.64 c 0.96,-1.16 1.98,-2.25 2.94,-3.39 h 3.7 3.4 21.96 3.39 21.96"
         style="fill:#ffffff;fill-opacity:1;fill-rule:nonzero;stroke:none" />
  <path
         id="path279"
         d="m 4039.19,1521.56 h -39.88 c -1.75,-1.16 -3.54,-2.27 -5.31,-3.4 h 16.44 3.4 21.95 3.4 21.95 3.4 11.36 c 1.18,1.14 2.39,2.24 3.55,3.4 h -14.91 -3.4 -21.95"
         style="fill:#ffffff;fill-opacity:1;fill-rule:nonzero;stroke:none" />
  <path
         id="path280"
         d="m 3655.49,1518.16 h 25.92 c -1.77,1.13 -3.56,2.24 -5.3,3.4 h -17.22 -3.4 -21.95 -3.4 -21.96 -3.39 -8.83 c 1.16,-1.16 2.38,-2.26 3.56,-3.4 h 5.27 3.39 21.96 3.4 21.95"
         style="fill:#ffffff;fill-opacity:1;fill-rule:nonzero;stroke:none" />
  <path
         id="path281"
         d="m 3706.2,1492.81 h 25.28 c -2.84,1.11 -5.68,2.2 -8.48,3.4 h -13.4 -3.4 -21.96 -3.4 -21.95 -3.4 -21.95 -3.4 -5.54 c 1.44,-1.14 2.87,-2.28 4.33,-3.4 h 1.21 3.4 21.95 3.4 21.95 3.4 21.96"
         style="fill:#ffffff;fill-opacity:1;fill-rule:nonzero;stroke:none" />
  <path
         id="path282"
         d="m 4013.84,1496.21 h -61.43 c -2.79,-1.2 -5.64,-2.29 -8.48,-3.4 h 15.8 3.4 21.95 3.4 21.96 3.4 21.95 3.4 7.29 c 1.46,1.12 2.9,2.26 4.33,3.4 h -11.62 -3.4 -21.95"
         style="fill:#ffffff;fill-opacity:1;fill-rule:nonzero;stroke:none" />
  <path
         id="path283"
         d="m 3988.48,1470.85 h -327.41 c 1.95,-1.17 3.94,-2.27 5.91,-3.4 h 13.86 3.4 21.96 3.4 21.95 3.4 21.95 3.4 21.96 3.39 21.96 3.4 21.95 3.4 21.96 3.4 21.95 3.4 21.95 3.4 21.96 3.39 21.96 3.4 21.95 3.4 19.95 c 1.97,1.13 3.96,2.23 5.91,3.4 h -0.5 -3.4 -21.96"
         style="fill:#ffffff;fill-opacity:1;fill-rule:nonzero;stroke:none" />
  <path
         id="path284"
         d="m 3837.71,2103.45 c -186.53,0 -338.28,-151.75 -338.28,-338.28 0,-186.53 151.75,-338.28 338.28,-338.28 186.53,0 338.28,151.75 338.28,338.28 0,186.53 -151.75,338.28 -338.28,338.28 z m 0,-686.48 c -192,0 -348.2,156.2 -348.2,348.2 0,192 156.2,348.2 348.2,348.2 192,0 348.2,-156.2 348.2,-348.2 0,-192 -156.2,-348.2 -348.2,-348.2"
         style="fill:#ffffff;fill-opacity:1;fill-rule:nonzero;stroke:none" />
  <path
         id="path285"
         d="m 3837.71,1997.51 c -128.11,0 -232.34,-104.23 -232.34,-232.34 0,-128.11 104.23,-232.34 232.34,-232.34 128.11,0 232.33,104.23 232.33,232.34 0,128.11 -104.22,232.34 -232.33,232.34 z m 0,-468.08 c -129.99,0 -235.74,105.76 -235.74,235.74 0,129.99 105.75,235.74 235.74,235.74 129.99,0 235.74,-105.75 235.74,-235.74 0,-129.98 -105.75,-235.74 -235.74,-235.74"
         style="fill:#ffffff;fill-opacity:1;fill-rule:nonzero;stroke:none" />
  <path
         id="path286"
         d="m 3837.71,2055.82 c -160.27,0 -290.65,-130.39 -290.65,-290.65 0,-160.27 130.38,-290.65 290.65,-290.65 160.26,0 290.65,130.38 290.65,290.65 0,160.26 -130.39,290.65 -290.65,290.65 z m 0,-584.7 c -162.14,0 -294.05,131.91 -294.05,294.05 0,162.13 131.91,294.05 294.05,294.05 162.13,0 294.05,-131.92 294.05,-294.05 0,-162.14 -131.92,-294.05 -294.05,-294.05"
         style="fill:#ffffff;fill-opacity:1;fill-rule:nonzero;stroke:none" />
  <path
         id="path287"
         d="m 3837.71,1950.73 c -4.18,-10.69 -15.4,-42.82 -15.4,-80.36 0,-37.53 11.22,-69.66 15.4,-80.35 4.18,10.69 15.4,42.82 15.4,80.35 0,37.56 -11.22,69.68 -15.4,80.36 z m 0,-169.32 -1.56,3.44 c -0.16,0.38 -17.23,38.85 -17.23,85.52 0,46.68 17.07,85.15 17.23,85.53 l 1.56,3.45 1.55,-3.45 c 0.17,-0.38 17.24,-38.85 17.24,-85.53 0,-46.67 -17.07,-85.14 -17.24,-85.52 l -1.55,-3.44"
         style="fill:#ffffff;fill-opacity:1;fill-rule:nonzero;stroke:none" />
  <path
         id="path288"
         d="m 3767.77,1938.7 c 0.1,-11.48 1.67,-45.48 15.65,-80.3 13.99,-34.86 36.36,-60.49 44.22,-68.85 -0.1,11.49 -1.66,45.48 -15.65,80.3 -13.97,34.84 -36.35,60.48 -44.22,68.85 z m 63.08,-157.15 -2.72,2.63 c -0.31,0.29 -30.48,29.63 -47.86,72.95 -17.39,43.31 -15.88,85.37 -15.86,85.79 l 0.16,3.78 2.72,-2.63 c 0.31,-0.29 30.47,-29.63 47.86,-72.95 17.39,-43.31 15.88,-85.37 15.85,-85.79 l -0.15,-3.78"
         style="fill:#ffffff;fill-opacity:1;fill-rule:nonzero;stroke:none" />
  <path
         id="path289"
         d="m 3665.55,1838.42 c 8.19,-8.05 33.35,-30.97 67.86,-45.71 34.53,-14.76 68.47,-17.07 79.94,-17.42 -8.19,8.05 -33.34,30.98 -67.85,45.73 v 0 c -34.54,14.74 -68.47,17.06 -79.95,17.4 z m 151.33,-66.58 c -5.35,0 -44.72,0.61 -84.81,17.74 -42.92,18.33 -71.59,49.14 -71.87,49.44 l -2.57,2.79 3.78,0.06 c 0.49,-0.04 42.51,0.6 85.43,-17.73 v 0 c 42.92,-18.34 71.58,-49.14 71.87,-49.45 l 2.56,-2.78 -3.78,-0.07 c -0.03,0 -0.24,0 -0.61,0"
         style="fill:#ffffff;fill-opacity:1;fill-rule:nonzero;stroke:none" />
  <path
         id="path290"
         d="m 3813.32,1755.1 c -11.48,-0.1 -45.47,-1.66 -80.3,-15.65 -34.83,-13.97 -60.48,-36.34 -68.84,-44.22 11.48,0.1 45.48,1.67 80.3,15.66 34.86,13.98 60.48,36.35 68.84,44.21 z m -150.42,-63.26 c -1.85,0 -2.87,0.03 -2.94,0.03 l -3.78,0.16 2.63,2.73 c 0.29,0.3 29.63,30.46 72.94,47.85 43.31,17.38 85.38,15.88 85.79,15.86 l 3.78,-0.16 -2.62,-2.72 c -0.29,-0.31 -29.63,-30.47 -72.95,-47.86 -36.73,-14.74 -72.55,-15.89 -82.85,-15.89"
         style="fill:#ffffff;fill-opacity:1;fill-rule:nonzero;stroke:none" />
  <path
         id="path291"
         d="m 3827.58,1740.81 c -8.04,-8.19 -30.97,-33.34 -45.71,-67.85 v 0 c -14.76,-34.54 -17.07,-68.48 -17.42,-79.94 8.05,8.18 30.98,33.34 45.73,67.85 14.74,34.51 17.06,68.47 17.4,79.94 z m -66.51,-155.71 -0.07,3.77 c -0.01,0.42 -0.6,42.51 17.74,85.43 18.33,42.92 49.14,71.59 49.45,71.87 l 2.78,2.56 0.07,-3.78 c 0.01,-0.42 0.6,-42.5 -17.74,-85.42 -18.34,-42.92 -49.14,-71.59 -49.45,-71.87 l -2.78,-2.56"
         style="fill:#ffffff;fill-opacity:1;fill-rule:nonzero;stroke:none" />
  <path
         id="path292"
         d="m 3847.77,1740.79 c 0.1,-11.48 1.67,-45.48 15.65,-80.31 v 0 c 13.99,-34.86 36.36,-60.48 44.22,-68.84 -0.1,11.48 -1.66,45.48 -15.65,80.3 -13.97,34.84 -36.35,60.48 -44.22,68.85 z m 63.08,-157.15 -2.72,2.63 c -0.31,0.29 -30.48,29.63 -47.86,72.94 v 0 c -17.39,43.32 -15.88,85.38 -15.86,85.8 l 0.16,3.78 2.72,-2.63 c 0.31,-0.29 30.47,-29.63 47.86,-72.95 17.39,-43.31 15.88,-85.37 15.85,-85.79 l -0.15,-3.78"
         style="fill:#ffffff;fill-opacity:1;fill-rule:nonzero;stroke:none" />
  <path
         id="path293"
         d="m 3929.92,1709.33 c 34.53,-14.76 68.47,-17.06 79.94,-17.42 -8.19,8.05 -33.34,30.98 -67.85,45.73 -34.54,14.75 -68.47,17.06 -79.94,17.41 8.18,-8.05 33.34,-30.98 67.85,-45.72 z m 83.48,-20.87 c -5.35,0 -44.72,0.6 -84.82,17.74 v 0 c -42.92,18.34 -71.59,49.14 -71.87,49.45 l -2.57,2.78 3.78,0.08 c 0.46,0 42.51,0.59 85.43,-17.75 42.92,-18.33 71.59,-49.14 71.87,-49.45 l 2.56,-2.77 -3.78,-0.08 c -0.03,0 -0.23,0 -0.6,0"
         style="fill:#ffffff;fill-opacity:1;fill-rule:nonzero;stroke:none" />
  <path
         id="path294"
         d="m 4011.24,1835.1 c -11.49,-0.1 -45.48,-1.66 -80.31,-15.65 -34.83,-13.97 -60.47,-36.34 -68.84,-44.22 11.48,0.1 45.48,1.67 80.3,15.66 34.84,13.97 60.48,36.35 68.85,44.21 z m -150.43,-63.26 c -1.85,0 -2.87,0.03 -2.94,0.03 l -3.78,0.16 2.63,2.73 c 0.29,0.3 29.63,30.46 72.94,47.85 43.32,17.39 85.39,15.9 85.8,15.86 l 3.78,-0.16 -2.63,-2.72 c -0.29,-0.31 -29.63,-30.47 -72.95,-47.86 -36.73,-14.74 -72.55,-15.89 -82.85,-15.89"
         style="fill:#ffffff;fill-opacity:1;fill-rule:nonzero;stroke:none" />
  <path
         id="path295"
         d="m 3910.96,1937.32 c -8.05,-8.19 -30.97,-33.34 -45.72,-67.85 -14.74,-34.51 -17.06,-68.46 -17.41,-79.94 8.05,8.18 30.98,33.34 45.72,67.85 14.75,34.53 17.07,68.47 17.41,79.94 z m -66.52,-155.72 -0.06,3.78 c -0.01,0.42 -0.6,42.51 17.74,85.43 18.33,42.92 49.13,71.59 49.44,71.88 l 2.78,2.55 0.07,-3.78 c 0.01,-0.42 0.6,-42.5 -17.73,-85.42 -18.34,-42.92 -49.15,-71.59 -49.45,-71.87 l -2.79,-2.57"
         style="fill:#ffffff;fill-opacity:1;fill-rule:nonzero;stroke:none" />
  <path
         id="path296"
         d="m 3706.49,1896.38 c 4.6,-10.52 19.41,-41.17 45.93,-67.71 26.55,-26.53 57.2,-41.33 67.72,-45.93 -4.6,10.52 -19.41,41.17 -45.94,67.71 -26.53,26.53 -57.19,41.33 -67.71,45.93 z m 119.74,-119.73 -3.53,1.34 c -0.4,0.14 -39.67,15.28 -72.67,48.28 -33.01,33.01 -48.14,72.27 -48.29,72.67 l -1.34,3.53 3.54,-1.34 c 0.39,-0.14 39.66,-15.28 72.66,-48.28 33.01,-33 48.14,-72.27 48.29,-72.66 l 1.34,-3.54"
         style="fill:#ffffff;fill-opacity:1;fill-rule:nonzero;stroke:none" />
  <path
         id="path297"
         d="m 3652.15,1765.17 c 10.68,-4.18 42.81,-15.39 80.35,-15.39 37.56,0 69.67,11.21 80.36,15.39 -10.69,4.19 -42.82,15.4 -80.36,15.4 -37.56,0 -69.67,-11.21 -80.35,-15.4 z m 80.35,-18.79 c -46.67,0 -85.14,17.07 -85.53,17.23 l -3.44,1.56 3.44,1.55 c 0.38,0.17 38.86,17.24 85.53,17.24 46.68,0 85.15,-17.07 85.53,-17.24 l 3.44,-1.55 -3.44,-1.56 c -0.38,-0.16 -38.85,-17.23 -85.53,-17.23"
         style="fill:#ffffff;fill-opacity:1;fill-rule:nonzero;stroke:none" />
  <path
         id="path298"
         d="m 3820.14,1747.6 c -10.52,-4.6 -41.17,-19.4 -67.72,-45.94 -26.54,-26.55 -41.33,-57.19 -45.93,-67.7 10.52,4.6 41.18,19.4 67.71,45.93 26.55,26.57 41.34,57.19 45.94,67.71 z m -119.74,-119.73 1.34,3.54 c 0.15,0.39 15.28,39.65 48.29,72.65 33,33.01 72.27,48.14 72.67,48.29 l 3.53,1.34 -1.34,-3.53 c -0.15,-0.39 -15.28,-39.67 -48.29,-72.67 -33,-33.01 -72.27,-48.13 -72.66,-48.28 l -3.54,-1.34"
         style="fill:#ffffff;fill-opacity:1;fill-rule:nonzero;stroke:none" />
  <path
         id="path299"
         d="m 3837.71,1740.32 c -4.18,-10.69 -15.4,-42.82 -15.4,-80.36 0,-37.53 11.22,-69.66 15.4,-80.35 4.18,10.69 15.4,42.82 15.4,80.35 0,37.56 -11.22,69.68 -15.4,80.36 z m 0,-169.32 -1.56,3.44 c -0.16,0.38 -17.23,38.85 -17.23,85.52 0,46.68 17.07,85.15 17.23,85.53 l 1.56,3.45 1.55,-3.45 c 0.17,-0.38 17.24,-38.85 17.24,-85.53 0,-46.67 -17.07,-85.14 -17.24,-85.52 l -1.55,-3.44"
         style="fill:#ffffff;fill-opacity:1;fill-rule:nonzero;stroke:none" />
  <path
         id="path300"
         d="m 3855.28,1747.6 c 4.6,-10.52 19.4,-41.16 45.93,-67.71 26.56,-26.55 57.2,-41.34 67.71,-45.93 -4.6,10.52 -19.4,41.17 -45.93,67.7 -26.56,26.56 -57.2,41.35 -67.71,45.94 z m 119.73,-119.73 -3.54,1.34 c -0.39,0.15 -39.65,15.27 -72.66,48.28 -33,33 -48.14,72.28 -48.28,72.67 l -1.34,3.53 3.52,-1.34 c 0.41,-0.15 39.67,-15.28 72.68,-48.29 33,-33 48.14,-72.26 48.28,-72.65 l 1.34,-3.54"
         style="fill:#ffffff;fill-opacity:1;fill-rule:nonzero;stroke:none" />
  <path
         id="path301"
         d="m 3862.56,1765.17 c 10.69,-4.18 42.82,-15.39 80.35,-15.39 37.56,0 69.67,11.21 80.36,15.39 -10.69,4.19 -42.82,15.4 -80.36,15.4 -37.53,0 -69.66,-11.21 -80.35,-15.4 z m 80.35,-18.79 c -46.67,0 -85.14,17.07 -85.52,17.23 l -3.44,1.56 3.44,1.55 c 0.38,0.17 38.85,17.24 85.52,17.24 46.68,0 85.15,-17.07 85.53,-17.24 l 3.44,-1.55 -3.44,-1.56 c -0.39,-0.16 -38.85,-17.23 -85.53,-17.23"
         style="fill:#ffffff;fill-opacity:1;fill-rule:nonzero;stroke:none" />
  <path
         id="path302"
         d="m 3968.92,1896.38 c -10.52,-4.6 -41.17,-19.4 -67.71,-45.93 -26.53,-26.54 -41.33,-57.19 -45.93,-67.71 10.52,4.6 41.17,19.4 67.71,45.93 26.53,26.54 41.33,57.19 45.93,67.71 z m -119.73,-119.73 1.34,3.54 c 0.14,0.39 15.28,39.66 48.28,72.66 33.01,33 72.27,48.14 72.66,48.28 l 3.54,1.34 -1.34,-3.53 c -0.14,-0.4 -15.28,-39.66 -48.28,-72.67 v 0 c -33.01,-33 -72.27,-48.14 -72.67,-48.28 l -3.53,-1.34"
         style="fill:#ffffff;fill-opacity:1;fill-rule:nonzero;stroke:none" />
  <path
         id="path303"
         d="m 3839.4,1776.71 h -3.39 v 222.5 h 3.39 v -222.5"
         style="fill:#ffffff;fill-opacity:1;fill-rule:nonzero;stroke:none" />
  <path
         id="path304"
         d="m 3828.35,1772.13 -157.33,157.33 2.4,2.41 157.32,-157.34 -2.39,-2.4"
         style="fill:#ffffff;fill-opacity:1;fill-rule:nonzero;stroke:none" />
  <path
         id="path305"
         d="m 3826.17,1763.47 h -222.5 v 3.4 h 222.5 v -3.4"
         style="fill:#ffffff;fill-opacity:1;fill-rule:nonzero;stroke:none" />
  <path
         id="path306"
         d="m 3673.42,1598.48 -2.4,2.4 157.33,157.33 2.39,-2.4 -157.32,-157.33"
         style="fill:#ffffff;fill-opacity:1;fill-rule:nonzero;stroke:none" />
  <path
         id="path307"
         d="m 3839.4,1531.13 h -3.39 v 222.5 h 3.39 v -222.5"
         style="fill:#ffffff;fill-opacity:1;fill-rule:nonzero;stroke:none" />
  <path
         id="path308"
         d="m 4001.99,1598.48 -157.33,157.33 2.41,2.4 157.33,-157.33 -2.41,-2.4"
         style="fill:#ffffff;fill-opacity:1;fill-rule:nonzero;stroke:none" />
  <path
         id="path309"
         d="m 4071.75,1763.47 h -222.5 v 3.4 h 222.5 v -3.4"
         style="fill:#ffffff;fill-opacity:1;fill-rule:nonzero;stroke:none" />
  <path
         id="path310"
         d="m 3847.07,1772.13 -2.41,2.4 157.33,157.34 2.41,-2.41 -157.33,-157.33"
         style="fill:#ffffff;fill-opacity:1;fill-rule:nonzero;stroke:none" />
  <path
         id="path311"
         d="m 3837.71,1776.24 c -6.11,0 -11.07,-4.97 -11.07,-11.07 0,-6.11 4.96,-11.07 11.07,-11.07 6.1,0 11.06,4.96 11.06,11.07 0,6.1 -4.96,11.07 -11.06,11.07 z m 0,-32.06 c -11.58,0 -20.99,9.41 -20.99,20.99 0,11.57 9.41,20.99 20.99,20.99 11.57,0 20.98,-9.42 20.98,-20.99 0,-11.58 -9.41,-20.99 -20.98,-20.99"
         style="fill:#ffffff;fill-opacity:1;fill-rule:nonzero;stroke:none" />
  <path
         id="path312"
         d="m 3845.21,1999.21 c 0,-4.14 -3.36,-7.5 -7.5,-7.5 -4.15,0 -7.5,3.36 -7.5,7.5 0,4.14 3.35,7.5 7.5,7.5 4.14,0 7.5,-3.36 7.5,-7.5"
         style="fill:#ffffff;fill-opacity:1;fill-rule:nonzero;stroke:none" />
  <path
         id="path313"
         d="m 3845.21,2057.52 c 0,-4.14 -3.36,-7.5 -7.5,-7.5 -4.15,0 -7.5,3.36 -7.5,7.5 0,4.14 3.35,7.5 7.5,7.5 4.14,0 7.5,-3.36 7.5,-7.5"
         style="fill:#ffffff;fill-opacity:1;fill-rule:nonzero;stroke:none" />
  <path
         id="path314"
         d="m 3636.29,1977.2 c 2.93,-2.93 2.93,-7.68 0,-10.61 -2.93,-2.93 -7.68,-2.93 -10.61,0 -2.93,2.93 -2.93,7.68 0,10.61 2.93,2.93 7.68,2.93 10.61,0"
         style="fill:#ffffff;fill-opacity:1;fill-rule:nonzero;stroke:none" />
  <path
         id="path315"
         d="m 3545.36,1772.67 c 4.14,0 7.5,-3.35 7.5,-7.5 0,-4.14 -3.36,-7.5 -7.5,-7.5 -4.15,0 -7.5,3.36 -7.5,7.5 0,4.15 3.35,7.5 7.5,7.5"
         style="fill:#ffffff;fill-opacity:1;fill-rule:nonzero;stroke:none" />
  <path
         id="path316"
         d="m 3625.68,1563.75 c 2.93,2.93 7.68,2.93 10.61,0 2.93,-2.93 2.93,-7.68 0,-10.61 -2.93,-2.93 -7.68,-2.93 -10.61,0 -2.93,2.93 -2.93,7.68 0,10.61"
         style="fill:#ffffff;fill-opacity:1;fill-rule:nonzero;stroke:none" />
  <path
         id="path317"
         d="m 3830.21,1472.82 c 0,4.14 3.35,7.5 7.5,7.5 4.14,0 7.5,-3.36 7.5,-7.5 0,-4.14 -3.36,-7.5 -7.5,-7.5 -4.15,0 -7.5,3.36 -7.5,7.5"
         style="fill:#ffffff;fill-opacity:1;fill-rule:nonzero;stroke:none" />
  <path
         id="path318"
         d="m 4039.12,1553.14 c -2.93,2.93 -2.93,7.68 0,10.61 2.93,2.93 7.68,2.93 10.61,0 2.93,-2.93 2.93,-7.68 0,-10.61 -2.93,-2.93 -7.68,-2.93 -10.61,0"
         style="fill:#ffffff;fill-opacity:1;fill-rule:nonzero;stroke:none" />
  <path
         id="path319"
         d="m 4130.06,1757.67 c -4.15,0 -7.5,3.36 -7.5,7.5 0,4.15 3.35,7.5 7.5,7.5 4.14,0 7.5,-3.35 7.5,-7.5 0,-4.14 -3.36,-7.5 -7.5,-7.5"
         style="fill:#ffffff;fill-opacity:1;fill-rule:nonzero;stroke:none" />
  <path
         id="path320"
         d="m 4049.73,1966.59 c -2.93,-2.93 -7.68,-2.93 -10.61,0 -2.93,2.93 -2.93,7.68 0,10.61 2.93,2.93 7.68,2.93 10.61,0 2.93,-2.93 2.93,-7.68 0,-10.61"
         style="fill:#ffffff;fill-opacity:1;fill-rule:nonzero;stroke:none" />
  <path
         id="path321"
         d="m 4010.69,1930.66 c 0,-4.15 -3.36,-7.5 -7.5,-7.5 -4.14,0 -7.5,3.35 -7.5,7.5 0,4.14 3.36,7.5 7.5,7.5 4.14,0 7.5,-3.36 7.5,-7.5"
         style="fill:#ffffff;fill-opacity:1;fill-rule:nonzero;stroke:none" />
  <path
         id="path322"
         d="m 4079.25,1765.17 c 0,-4.14 -3.36,-7.5 -7.5,-7.5 -4.15,0 -7.5,3.36 -7.5,7.5 0,4.15 3.35,7.5 7.5,7.5 4.14,0 7.5,-3.35 7.5,-7.5"
         style="fill:#ffffff;fill-opacity:1;fill-rule:nonzero;stroke:none" />
  <path
         id="path323"
         d="m 4010.69,1599.68 c 0,-4.14 -3.36,-7.5 -7.5,-7.5 -4.14,0 -7.5,3.36 -7.5,7.5 0,4.14 3.36,7.5 7.5,7.5 4.14,0 7.5,-3.36 7.5,-7.5"
         style="fill:#ffffff;fill-opacity:1;fill-rule:nonzero;stroke:none" />
  <path
         id="path324"
         d="m 3679.72,1930.66 c 0,-4.15 -3.36,-7.5 -7.5,-7.5 -4.14,0 -7.5,3.35 -7.5,7.5 0,4.14 3.36,7.5 7.5,7.5 4.14,0 7.5,-3.36 7.5,-7.5"
         style="fill:#ffffff;fill-opacity:1;fill-rule:nonzero;stroke:none" />
  <path
         id="path325"
         d="m 3611.17,1765.17 c 0,-4.14 -3.36,-7.5 -7.5,-7.5 -4.15,0 -7.5,3.36 -7.5,7.5 0,4.15 3.35,7.5 7.5,7.5 4.14,0 7.5,-3.35 7.5,-7.5"
         style="fill:#ffffff;fill-opacity:1;fill-rule:nonzero;stroke:none" />
  <path
         id="path326"
         d="m 3679.72,1599.68 c 0,-4.14 -3.36,-7.5 -7.5,-7.5 -4.14,0 -7.5,3.36 -7.5,7.5 0,4.14 3.36,7.5 7.5,7.5 4.14,0 7.5,-3.36 7.5,-7.5"
         style="fill:#ffffff;fill-opacity:1;fill-rule:nonzero;stroke:none" />
  <path
         id="path327"
         d="m 3845.21,1531.13 c 0,-4.14 -3.36,-7.5 -7.5,-7.5 -4.15,0 -7.5,3.36 -7.5,7.5 0,4.14 3.35,7.5 7.5,7.5 4.14,0 7.5,-3.36 7.5,-7.5"
         style="fill:#ffffff;fill-opacity:1;fill-rule:nonzero;stroke:none" />
  <path
         id="path328"
         d="m 3843.28,1765.17 c 0,-3.08 -2.5,-5.58 -5.57,-5.58 -3.08,0 -5.58,2.5 -5.58,5.58 0,3.08 2.5,5.57 5.58,5.57 3.07,0 5.57,-2.49 5.57,-5.57"
         style="fill:#ffffff;fill-opacity:1;fill-rule:nonzero;stroke:none" />
  <path
         id="path329"
         d="m 3737.73,1975.42 24.97,-23.32 1.33,34.69 c 0,0 -6.4,-1.95 -11.57,-3.65 -3.35,-1.1 -14.73,-7.72 -14.73,-7.72"
         style="fill:#ffffff;fill-opacity:1;fill-rule:nonzero;stroke:none" />
  <path
         id="path330"
         d="m 3618.34,1843.14 34.14,1.24 -23.58,25.41 c 0,0 -3.15,-5.91 -5.6,-10.77 -1.59,-3.15 -4.96,-15.88 -4.96,-15.88"
         style="fill:#ffffff;fill-opacity:1;fill-rule:nonzero;stroke:none" />
  <path
         id="path331"
         d="m 3627.45,1665.2 24.2,24.6 -35.57,1.69 c 0,0 1.96,-6.4 3.66,-11.57 1.1,-3.35 7.71,-14.72 7.71,-14.72"
         style="fill:#ffffff;fill-opacity:1;fill-rule:nonzero;stroke:none" />
  <path
         id="path332"
         d="m 3759.73,1545.81 0.25,34.41 -26.88,-23.85 c 0,0 5.9,-3.16 10.76,-5.61 3.14,-1.58 15.87,-4.95 15.87,-4.95"
         style="fill:#ffffff;fill-opacity:1;fill-rule:nonzero;stroke:none" />
  <path
         id="path333"
         d="m 3941.02,1554.08 -28.95,24.89 2.65,-36.26 c 0,0 6.4,1.96 11.57,3.66 3.34,1.1 14.73,7.71 14.73,7.71"
         style="fill:#ffffff;fill-opacity:1;fill-rule:nonzero;stroke:none" />
  <path
         id="path334"
         d="m 4061.19,1691.76 -38.29,-4.46 27.73,-22.17 c 0,0 3.15,5.91 5.6,10.76 1.59,3.15 4.96,15.87 4.96,15.87"
         style="fill:#ffffff;fill-opacity:1;fill-rule:nonzero;stroke:none" />
  <path
         id="path335"
         d="m 4050.88,1865.15 -23.81,-24.1 35.18,-2.2 c 0,0 -1.96,6.4 -3.66,11.57 -1.1,3.34 -7.71,14.73 -7.71,14.73"
         style="fill:#ffffff;fill-opacity:1;fill-rule:nonzero;stroke:none" />
  <path
         id="path336"
         d="m 3917.77,1985.37 -0.29,-33.07 26.92,22.5 c 0,0 -5.9,3.16 -10.76,5.61 -3.15,1.58 -15.87,4.96 -15.87,4.96"
         style="fill:#ffffff;fill-opacity:1;fill-rule:nonzero;stroke:none" />
  <path
         id="path337"
         d="m 3837.71,2048.47 c -10.94,0 -19.84,-8.91 -19.84,-19.85 0,-10.93 8.9,-19.83 19.84,-19.83 10.93,0 19.83,8.9 19.83,19.83 0,10.94 -8.9,19.85 -19.83,19.85 z m 0,-43.08 c -12.82,0 -23.24,10.42 -23.24,23.23 0,12.82 10.42,23.25 23.24,23.25 12.81,0 23.24,-10.43 23.24,-23.25 0,-12.81 -10.43,-23.23 -23.24,-23.23"
         style="fill:#ffffff;fill-opacity:1;fill-rule:nonzero;stroke:none" />
  <path
         id="path338"
         d="m 3651.42,1971.29 c -5.09,0 -10.17,-1.93 -14.03,-5.8 -7.73,-7.74 -7.73,-20.32 0,-28.06 7.73,-7.72 20.31,-7.73 28.06,0 7.73,7.74 7.73,20.32 0,28.06 v 0 c -3.87,3.87 -8.96,5.8 -14.03,5.8 z m 0,-43.06 c -5.95,0 -11.91,2.27 -16.43,6.8 -9.07,9.06 -9.07,23.8 0,32.86 9.04,9.05 23.8,9.06 32.86,0 v 0 c 9.06,-9.06 9.06,-23.8 0,-32.86 -4.53,-4.53 -10.49,-6.8 -16.43,-6.8"
         style="fill:#ffffff;fill-opacity:1;fill-rule:nonzero;stroke:none" />
  <path
         id="path339"
         d="m 3574.26,1785.01 c -10.94,0 -19.85,-8.91 -19.85,-19.84 0,-10.94 8.91,-19.84 19.85,-19.84 10.94,0 19.83,8.9 19.83,19.84 0,10.93 -8.89,19.84 -19.83,19.84 z m 0,-43.08 c -12.81,0 -23.24,10.42 -23.24,23.24 0,12.81 10.43,23.24 23.24,23.24 12.81,0 23.23,-10.43 23.23,-23.24 0,-12.82 -10.42,-23.24 -23.23,-23.24"
         style="fill:#ffffff;fill-opacity:1;fill-rule:nonzero;stroke:none" />
  <path
         id="path340"
         d="m 3651.42,1598.72 c -5.31,0 -10.29,-2.07 -14.03,-5.81 v 0 c -3.75,-3.75 -5.81,-8.73 -5.81,-14.03 0,-5.3 2.06,-10.28 5.81,-14.03 3.74,-3.75 8.72,-5.81 14.03,-5.81 5.3,0 10.28,2.06 14.03,5.81 3.74,3.75 5.8,8.73 5.8,14.03 0,5.3 -2.06,10.28 -5.8,14.03 -3.75,3.74 -8.73,5.81 -14.03,5.81 z m 0,-43.09 c -6.21,0 -12.04,2.43 -16.43,6.82 -4.39,4.39 -6.82,10.23 -6.82,16.43 0,6.21 2.43,12.05 6.82,16.43 v 0 0 c 4.39,4.39 10.22,6.81 16.43,6.81 6.2,0 12.04,-2.42 16.43,-6.81 4.39,-4.38 6.81,-10.22 6.81,-16.43 0,-6.2 -2.42,-12.04 -6.81,-16.43 -4.39,-4.39 -10.23,-6.82 -16.43,-6.82"
         style="fill:#ffffff;fill-opacity:1;fill-rule:nonzero;stroke:none" />
  <path
         id="path341"
         d="m 3837.71,1521.55 c -10.94,0 -19.84,-8.89 -19.84,-19.83 0,-10.94 8.9,-19.85 19.84,-19.85 10.93,0 19.83,8.91 19.83,19.85 0,10.94 -8.9,19.83 -19.83,19.83 z m 0,-43.07 c -12.82,0 -23.24,10.43 -23.24,23.24 0,12.81 10.42,23.23 23.24,23.23 12.81,0 23.24,-10.42 23.24,-23.23 0,-12.81 -10.43,-23.24 -23.24,-23.24"
         style="fill:#ffffff;fill-opacity:1;fill-rule:nonzero;stroke:none" />
  <path
         id="path342"
         d="m 4009.96,1564.85 c 3.75,-3.75 8.74,-5.81 14.03,-5.81 5.31,0 10.29,2.06 14.04,5.81 3.74,3.75 5.8,8.73 5.8,14.03 0,5.3 -2.06,10.28 -5.8,14.03 -3.75,3.74 -8.73,5.81 -14.04,5.81 -5.29,0 -10.28,-2.07 -14.03,-5.81 -7.72,-7.73 -7.72,-20.32 0,-28.06 z m 14.03,-9.22 c -6.21,0 -12.04,2.43 -16.42,6.82 v 0 c -9.06,9.06 -9.06,23.8 0,32.86 4.38,4.39 10.21,6.81 16.42,6.81 6.22,0 12.05,-2.42 16.44,-6.81 4.38,-4.38 6.81,-10.22 6.81,-16.43 0,-6.2 -2.43,-12.04 -6.81,-16.43 -4.39,-4.39 -10.22,-6.82 -16.44,-6.82"
         style="fill:#ffffff;fill-opacity:1;fill-rule:nonzero;stroke:none" />
  <path
         id="path343"
         d="m 4101.16,1785.01 c -10.94,0 -19.84,-8.91 -19.84,-19.84 0,-10.94 8.9,-19.84 19.84,-19.84 10.94,0 19.84,8.9 19.84,19.84 0,10.93 -8.9,19.84 -19.84,19.84 z m 0,-43.08 c -12.81,0 -23.24,10.42 -23.24,23.24 0,12.81 10.43,23.24 23.24,23.24 12.81,0 23.24,-10.43 23.24,-23.24 0,-12.82 -10.43,-23.24 -23.24,-23.24"
         style="fill:#ffffff;fill-opacity:1;fill-rule:nonzero;stroke:none" />
  <path
         id="path344"
         d="m 4023.99,1971.29 c -5.07,0 -10.15,-1.93 -14.03,-5.8 -7.72,-7.74 -7.72,-20.32 0,-28.06 7.75,-7.72 20.33,-7.73 28.07,0 7.73,7.74 7.73,20.32 0,28.06 -3.87,3.87 -8.95,5.8 -14.04,5.8 z m 0,-43.06 c -5.94,0 -11.89,2.27 -16.42,6.8 -9.06,9.06 -9.06,23.8 0,32.86 9.06,9.07 23.81,9.06 32.86,0 9.06,-9.06 9.06,-23.8 0,-32.86 -4.53,-4.53 -10.48,-6.8 -16.44,-6.8"
         style="fill:#ffffff;fill-opacity:1;fill-rule:nonzero;stroke:none" />
  <path
         id="path345"
         d="m 3955.5,1440.38 h -223.95 v 3.4 h 223.95 v -3.4"
         style="fill:#ffffff;fill-opacity:1;fill-rule:nonzero;stroke:none" />
  <path
         id="path346"
         d="m 3839.38,2055.96 c -160.51,0 -291.1,-130.59 -291.1,-291.1 0,-160.5 130.59,-291.08 291.1,-291.08 160.5,0 291.09,130.58 291.09,291.08 0,160.51 -130.59,291.1 -291.09,291.1 z m 0,-585.58 c -162.39,0 -294.5,132.1 -294.5,294.48 0,162.39 132.11,294.5 294.5,294.5 162.38,0 294.49,-132.11 294.49,-294.5 0,-162.38 -132.11,-294.48 -294.49,-294.48"
         style="fill:#ffffff;fill-opacity:1;fill-rule:nonzero;stroke:none" />
  <path
         id="path347"
         d="m 3839.38,1998.04 c -128.58,0 -233.18,-104.6 -233.18,-233.18 0,-128.56 104.6,-233.17 233.18,-233.17 128.56,0 233.16,104.61 233.16,233.17 0,128.58 -104.6,233.18 -233.16,233.18 z m 0,-469.75 c -130.45,0 -236.58,106.12 -236.58,236.57 0,130.45 106.13,236.58 236.58,236.58 130.44,0 236.57,-106.13 236.57,-236.58 0,-130.45 -106.13,-236.57 -236.57,-236.57"
         style="fill:#ffffff;fill-opacity:1;fill-rule:nonzero;stroke:none" />
  <path
         id="path348"
         d="m 3849.12,2121.49 c 0,-6.3 -5.11,-11.42 -11.41,-11.42 -6.31,0 -11.42,5.12 -11.42,11.42 0,6.31 5.11,11.42 11.42,11.42 6.3,0 11.41,-5.11 11.41,-11.42"
         style="fill:#ffffff;fill-opacity:1;fill-rule:nonzero;stroke:none" />
  <path
         id="path349"
         d="m 4101.08,2017.13 c 0,-6.31 -5.11,-11.42 -11.41,-11.42 -6.31,0 -11.43,5.11 -11.43,11.42 0,6.31 5.12,11.41 11.43,11.41 6.3,0 11.41,-5.1 11.41,-11.41"
         style="fill:#ffffff;fill-opacity:1;fill-rule:nonzero;stroke:none" />
  <path
         id="path350"
         d="m 4205.45,1765.17 c 0,-6.3 -5.12,-11.42 -11.43,-11.42 -6.3,0 -11.41,5.12 -11.41,11.42 0,6.3 5.11,11.42 11.41,11.42 6.31,0 11.43,-5.12 11.43,-11.42"
         style="fill:#ffffff;fill-opacity:1;fill-rule:nonzero;stroke:none" />
  <path
         id="path351"
         d="m 4101.08,1513.21 c 0,-6.31 -5.11,-11.41 -11.41,-11.41 -6.31,0 -11.43,5.1 -11.43,11.41 0,6.31 5.12,11.42 11.43,11.42 6.3,0 11.41,-5.11 11.41,-11.42"
         style="fill:#ffffff;fill-opacity:1;fill-rule:nonzero;stroke:none" />
  <path
         id="path352"
         d="m 3597.17,2017.13 c 0,-6.31 -5.12,-11.42 -11.42,-11.42 -6.31,0 -11.42,5.11 -11.42,11.42 0,6.31 5.11,11.41 11.42,11.41 6.3,0 11.42,-5.1 11.42,-11.41"
         style="fill:#ffffff;fill-opacity:1;fill-rule:nonzero;stroke:none" />
  <path
         id="path353"
         d="m 3492.8,1765.17 c 0,-6.3 -5.11,-11.42 -11.41,-11.42 -6.31,0 -11.43,5.12 -11.43,11.42 0,6.3 5.12,11.42 11.43,11.42 6.3,0 11.41,-5.12 11.41,-11.42"
         style="fill:#ffffff;fill-opacity:1;fill-rule:nonzero;stroke:none" />
  <path
         id="path354"
         d="m 3597.17,1513.21 c 0,-6.31 -5.12,-11.41 -11.42,-11.41 -6.31,0 -11.42,5.1 -11.42,11.41 0,6.31 5.11,11.42 11.42,11.42 6.3,0 11.42,-5.11 11.42,-11.42"
         style="fill:#ffffff;fill-opacity:1;fill-rule:nonzero;stroke:none" />
  <path
         id="path355"
         d="m 3849.12,1408.85 c 0,-6.31 -5.11,-11.42 -11.41,-11.42 -6.31,0 -11.42,5.11 -11.42,11.42 0,6.31 5.11,11.41 11.42,11.41 6.3,0 11.41,-5.1 11.41,-11.41"
         style="fill:#ffffff;fill-opacity:1;fill-rule:nonzero;stroke:none" />
</svg>