<?xml version="1.0" encoding="UTF-8" standalone="no"?>
<svg
   version="1.1"
   width="600"
   height="600"
   viewBox="2374.86 1337.12 805.96 805.96"
   xmlns="http://www.w3.org/2000/svg">
  <rect x="2374.86" y="1337.12" width="805.96" height="805.96" fill="#000000"/>
  <path
         id="path1084"
         d="m 2631.92,1387.82 h 291.83 l 206.36,206.35 v 291.84 l -206.36,206.35 h -291.83 l -206.35,-206.35 v -291.84 z m 293.24,-3.4 h -294.64 l -208.35,208.34 v 294.65 l 208.35,208.35 h 294.64 l 208.35,-208.35 v -294.65 l -208.35,-208.34"
         style="fill:#ffffff;fill-opacity:1;fill-rule:nonzero;stroke:none" />
  <path
         id="path1085"
         d="m 2776.77,1803.54 c -35.59,0 -64.53,-28.94 -64.53,-64.53 0,-35.58 28.94,-64.53 64.53,-64.53 35.57,0 64.52,28.95 64.52,64.53 0,35.59 -28.95,64.53 -64.52,64.53 z m 0,-138.98 c -41.06,0 -74.46,33.4 -74.46,74.45 0,41.06 33.4,74.46 74.46,74.46 41.04,0 74.44,-33.4 74.44,-74.46 0,-41.05 -33.4,-74.45 -74.44,-74.45"
         style="fill:#ffffff;fill-opacity:1;fill-rule:nonzero;stroke:none" />
  <path
         id="path1086"
         d="m 2534.5,1496.75 h 486.67 v 486.68 H 2534.5 Z m 496.59,-9.92 h -506.51 v 506.52 h 506.51 v -506.52"
         style="fill:#ffffff;fill-opacity:1;fill-rule:nonzero;stroke:none" />
  <path
         id="path1087"
         d="m 2615.69,1740.23 162.07,-165.99 162.21,165.86 -162.13,167.09 z m 162.06,-180.19 -175.9,180.17 175.99,181.22 175.98,-181.35 -176.07,-180.04"
         style="fill:#ffffff;fill-opacity:1;fill-rule:nonzero;stroke:none" />
  <path
         id="path1088"
         d="m 2645.92,1740.39 131.39,-134.58 131.86,134.81 -131.45,135.47 z m 131.39,-139.44 -1.22,1.24 -134.92,138.2 1.15,1.18 135.4,139.41 136.2,-140.36 -1.17,-1.19 -135.44,-138.48"
         style="fill:#ffffff;fill-opacity:1;fill-rule:nonzero;stroke:none" />
  <path
         id="path1089"
         d="m 2426.27,1740.09 351.57,-351.56 351.56,351.56 -351.56,351.57 z m 351.57,-356.37 -356.38,356.37 1.21,1.2 355.17,355.17 356.38,-356.37 -1.21,-1.2 -355.17,-355.17"
         style="fill:#ffffff;fill-opacity:1;fill-rule:nonzero;stroke:none" />
  <path
         id="path1090"
         d="m 2605.32,1563.84 h 344.88 v 352.77 h -344.88 z m 348.27,-3.4 h -351.67 v 359.57 h 351.67 v -359.57"
         style="fill:#ffffff;fill-opacity:1;fill-rule:nonzero;stroke:none" />
  <path
         id="path1091"
         d="m 2621.12,1914.31 c 0,-9.66 -7.84,-17.5 -17.5,-17.5 -9.66,0 -17.5,7.84 -17.5,17.5 0,9.66 7.84,17.5 17.5,17.5 9.66,0 17.5,-7.84 17.5,-17.5"
         style="fill:#ffffff;fill-opacity:1;fill-rule:nonzero;stroke:none" />
  <path
         id="path1092"
         d="m 2538.04,1992.27 c 0,-6.84 -5.54,-12.38 -12.38,-12.38 -6.83,0 -12.37,5.54 -12.37,12.38 0,6.83 5.54,12.37 12.37,12.37 6.84,0 12.38,-5.54 12.38,-12.37"
         style="fill:#ffffff;fill-opacity:1;fill-rule:nonzero;stroke:none" />
  <path
         id="path1093"
         d="m 2431.89,1884.43 c 0,-4.43 -3.59,-8.02 -8.02,-8.02 -4.44,0 -8.03,3.59 -8.03,8.02 0,4.44 3.59,8.03 8.03,8.03 4.43,0 8.02,-3.59 8.02,-8.03"
         style="fill:#ffffff;fill-opacity:1;fill-rule:nonzero;stroke:none" />
  <path
         id="path1094"
         d="m 2641.89,2094.06 c 0,-4.43 -3.59,-8.02 -8.02,-8.02 -4.44,0 -8.03,3.59 -8.03,8.02 0,4.44 3.59,8.03 8.03,8.03 4.43,0 8.02,-3.59 8.02,-8.03"
         style="fill:#ffffff;fill-opacity:1;fill-rule:nonzero;stroke:none" />
  <path
         id="path1095"
         d="m 2930.75,2094.06 c 0,-4.43 -3.59,-8.02 -8.03,-8.02 -4.43,0 -8.02,3.59 -8.02,8.02 0,4.44 3.59,8.03 8.02,8.03 4.44,0 8.03,-3.59 8.03,-8.03"
         style="fill:#ffffff;fill-opacity:1;fill-rule:nonzero;stroke:none" />
  <path
         id="path1096"
         d="m 3139.83,1884.43 c 0,-4.43 -3.59,-8.02 -8.02,-8.02 -4.44,0 -8.03,3.59 -8.03,8.02 0,4.44 3.59,8.03 8.03,8.03 4.43,0 8.02,-3.59 8.02,-8.03"
         style="fill:#ffffff;fill-opacity:1;fill-rule:nonzero;stroke:none" />
  <path
         id="path1097"
         d="m 2431.89,1593.5 c 0,-4.43 -3.59,-8.02 -8.02,-8.02 -4.44,0 -8.03,3.59 -8.03,8.02 0,4.43 3.59,8.02 8.03,8.02 4.43,0 8.02,-3.59 8.02,-8.02"
         style="fill:#ffffff;fill-opacity:1;fill-rule:nonzero;stroke:none" />
  <path
         id="path1098"
         d="m 2640.22,1386.12 c 0,-4.43 -3.59,-8.02 -8.02,-8.02 -4.44,0 -8.03,3.59 -8.03,8.02 0,4.44 3.59,8.03 8.03,8.03 4.43,0 8.02,-3.59 8.02,-8.03"
         style="fill:#ffffff;fill-opacity:1;fill-rule:nonzero;stroke:none" />
  <path
         id="path1099"
         d="m 2930.9,1386.12 c 0,-4.43 -3.6,-8.02 -8.03,-8.02 -4.43,0 -8.02,3.59 -8.02,8.02 0,4.44 3.59,8.03 8.02,8.03 4.43,0 8.03,-3.59 8.03,-8.03"
         style="fill:#ffffff;fill-opacity:1;fill-rule:nonzero;stroke:none" />
  <path
         id="path1100"
         d="m 3138.25,1593.48 c 0,-4.44 -3.59,-8.03 -8.03,-8.03 -4.43,0 -8.02,3.59 -8.02,8.03 0,4.42 3.59,8.01 8.02,8.01 4.44,0 8.03,-3.59 8.03,-8.01"
         style="fill:#ffffff;fill-opacity:1;fill-rule:nonzero;stroke:none" />
  <path
         id="path1101"
         d="m 3042.38,1992.27 c 0,-6.84 -5.53,-12.38 -12.37,-12.38 -6.84,0 -12.37,5.54 -12.37,12.38 0,6.83 5.53,12.37 12.37,12.37 6.84,0 12.37,-5.54 12.37,-12.37"
         style="fill:#ffffff;fill-opacity:1;fill-rule:nonzero;stroke:none" />
  <path
         id="path1102"
         d="m 2538.04,1485.6 c 0,-6.83 -5.54,-12.38 -12.38,-12.38 -6.83,0 -12.37,5.55 -12.37,12.38 0,6.83 5.54,12.38 12.37,12.38 6.84,0 12.38,-5.55 12.38,-12.38"
         style="fill:#ffffff;fill-opacity:1;fill-rule:nonzero;stroke:none" />
  <path
         id="path1103"
         d="m 3042.38,1485.6 c 0,-6.83 -5.53,-12.38 -12.37,-12.38 -6.84,0 -12.37,5.55 -12.37,12.38 0,6.83 5.53,12.38 12.37,12.38 6.84,0 12.37,-5.55 12.37,-12.38"
         style="fill:#ffffff;fill-opacity:1;fill-rule:nonzero;stroke:none" />
  <path
         id="path1104"
         d="m 2621.12,1738.22 c 0,-9.66 -7.84,-17.5 -17.5,-17.5 -9.66,0 -17.5,7.84 -17.5,17.5 0,9.67 7.84,17.5 17.5,17.5 9.66,0 17.5,-7.83 17.5,-17.5"
         style="fill:#ffffff;fill-opacity:1;fill-rule:nonzero;stroke:none" />
  <path
         id="path1105"
         d="m 2969.39,1914.31 c 0,-9.66 -7.84,-17.5 -17.5,-17.5 -9.66,0 -17.5,7.84 -17.5,17.5 0,9.66 7.84,17.5 17.5,17.5 9.66,0 17.5,-7.84 17.5,-17.5"
         style="fill:#ffffff;fill-opacity:1;fill-rule:nonzero;stroke:none" />
  <path
         id="path1106"
         d="m 2969.39,1739.01 c 0,-9.65 -7.84,-17.5 -17.5,-17.5 -9.66,0 -17.5,7.85 -17.5,17.5 0,9.67 7.84,17.5 17.5,17.5 9.66,0 17.5,-7.83 17.5,-17.5"
         style="fill:#ffffff;fill-opacity:1;fill-rule:nonzero;stroke:none" />
  <path
         id="path1107"
         d="m 2795.33,1918.31 c 0,-9.66 -7.83,-17.5 -17.5,-17.5 -9.66,0 -17.5,7.84 -17.5,17.5 0,9.67 7.84,17.5 17.5,17.5 9.67,0 17.5,-7.83 17.5,-17.5"
         style="fill:#ffffff;fill-opacity:1;fill-rule:nonzero;stroke:none" />
  <path
         id="path1108"
         d="m 2790.21,1988.39 c 0,-6.84 -5.54,-12.37 -12.38,-12.37 -6.82,0 -12.37,5.53 -12.37,12.37 0,6.83 5.55,12.37 12.37,12.37 6.84,0 12.38,-5.54 12.38,-12.37"
         style="fill:#ffffff;fill-opacity:1;fill-rule:nonzero;stroke:none" />
  <path
         id="path1109"
         d="m 2790.21,1491.79 c 0,-6.83 -5.54,-12.38 -12.38,-12.38 -6.82,0 -12.37,5.55 -12.37,12.38 0,6.83 5.55,12.38 12.37,12.38 6.84,0 12.38,-5.55 12.38,-12.38"
         style="fill:#ffffff;fill-opacity:1;fill-rule:nonzero;stroke:none" />
  <path
         id="path1110"
         d="m 2541.91,1739.01 c 0,-6.83 -5.54,-12.37 -12.37,-12.37 -6.83,0 -12.38,5.54 -12.38,12.37 0,6.84 5.55,12.38 12.38,12.38 6.83,0 12.37,-5.54 12.37,-12.38"
         style="fill:#ffffff;fill-opacity:1;fill-rule:nonzero;stroke:none" />
  <path
         id="path1111"
         d="m 3038.52,1739.01 c 0,-6.83 -5.55,-12.37 -12.39,-12.37 -6.82,0 -12.37,5.54 -12.37,12.37 0,6.84 5.55,12.38 12.37,12.38 6.84,0 12.39,-5.54 12.39,-12.38"
         style="fill:#ffffff;fill-opacity:1;fill-rule:nonzero;stroke:none" />
  <path
         id="path1112"
         d="m 2816.48,1741.16 c 0,-21.93 -17.78,-39.71 -39.72,-39.71 -21.94,0 -39.72,17.78 -39.72,39.71 0,21.95 17.78,39.73 39.72,39.73 21.94,0 39.72,-17.78 39.72,-39.73"
         style="fill:#ffffff;fill-opacity:1;fill-rule:nonzero;stroke:none" />
  <path
         id="path1113"
         d="m 2790.21,2094.06 c 0,-6.83 -5.54,-12.37 -12.38,-12.37 -6.82,0 -12.37,5.54 -12.37,12.37 0,6.84 5.55,12.38 12.37,12.38 6.84,0 12.38,-5.54 12.38,-12.38"
         style="fill:#ffffff;fill-opacity:1;fill-rule:nonzero;stroke:none" />
  <path
         id="path1114"
         d="m 2436.24,1740.72 c 0,-6.83 -5.54,-12.37 -12.37,-12.37 -6.84,0 -12.38,5.54 -12.38,12.37 0,6.84 5.54,12.38 12.38,12.38 6.83,0 12.37,-5.54 12.37,-12.38"
         style="fill:#ffffff;fill-opacity:1;fill-rule:nonzero;stroke:none" />
  <path
         id="path1115"
         d="m 3144.18,1740.72 c 0,-6.83 -5.54,-12.37 -12.37,-12.37 -6.84,0 -12.38,5.54 -12.38,12.37 0,6.84 5.54,12.38 12.38,12.38 6.83,0 12.37,-5.54 12.37,-12.38"
         style="fill:#ffffff;fill-opacity:1;fill-rule:nonzero;stroke:none" />
  <path
         id="path1116"
         d="m 2790.21,1386.12 c 0,-6.83 -5.54,-12.37 -12.38,-12.37 -6.82,0 -12.37,5.54 -12.37,12.37 0,6.84 5.55,12.38 12.37,12.38 6.84,0 12.38,-5.54 12.38,-12.38"
         style="fill:#ffffff;fill-opacity:1;fill-rule:nonzero;stroke:none" />
  <path
         id="path1117"
         d="m 2795.33,1562.14 c 0,-9.66 -7.83,-17.5 -17.5,-17.5 -9.66,0 -17.5,7.84 -17.5,17.5 0,9.67 7.84,17.5 17.5,17.5 9.67,0 17.5,-7.83 17.5,-17.5"
         style="fill:#ffffff;fill-opacity:1;fill-rule:nonzero;stroke:none" />
  <path
         id="path1118"
         d="m 2621.12,1562.14 c 0,-9.66 -7.84,-17.5 -17.5,-17.5 -9.66,0 -17.5,7.84 -17.5,17.5 0,9.67 7.84,17.5 17.5,17.5 9.66,0 17.5,-7.83 17.5,-17.5"
         style="fill:#ffffff;fill-opacity:1;fill-rule:nonzero;stroke:none" />
  <path
         id="path1119"
         d="m 2969.39,1562.14 c 0,-9.66 -7.84,-17.5 -17.5,-17.5 -9.66,0 -17.5,7.84 -17.5,17.5 0,9.67 7.84,17.5 17.5,17.5 9.66,0 17.5,-7.83 17.5,-17.5"
         style="fill:#ffffff;fill-opacity:1;fill-rule:nonzero;stroke:none" />
  <path
         id="path1120"
         d="m 2779.54,1808.51 h -3.4 v 285.55 h 3.4 v -285.55"
         style="fill:#ffffff;fill-opacity:1;fill-rule:nonzero;stroke:none" />
  <path
         id="path1121"
         d="m 2707.28,1738.39 h -283.41 v 3.4 h 283.41 v -3.4"
         style="fill:#ffffff;fill-opacity:1;fill-rule:nonzero;stroke:none" />
  <path
         id="path1122"
         d="m 2779.54,1386.12 h -3.4 v 283.4 h 3.4 v -283.4"
         style="fill:#ffffff;fill-opacity:1;fill-rule:nonzero;stroke:none" />
  <path
         id="path1123"
         d="m 3131.81,1738.39 h -285.56 v 3.4 h 285.56 v -3.4"
         style="fill:#ffffff;fill-opacity:1;fill-rule:nonzero;stroke:none" />
  <path
         id="path1124"
         d="m 2729.73,1789.8 -127.31,127.31 2.4,2.4 127.31,-127.3 -2.4,-2.41"
         style="fill:#ffffff;fill-opacity:1;fill-rule:nonzero;stroke:none" />
  <path
         id="path1125"
         d="m 2826.5,1786.51 -2.4,2.41 126.59,126.59 2.41,-2.4 -126.6,-126.6"
         style="fill:#ffffff;fill-opacity:1;fill-rule:nonzero;stroke:none" />
  <path
         id="path1126"
         d="m 2604.82,1560.94 -2.4,2.4 126.66,126.66 2.4,-2.4 -126.66,-126.66"
         style="fill:#ffffff;fill-opacity:1;fill-rule:nonzero;stroke:none" />
  <path
         id="path1127"
         d="m 2950.69,1560.94 -126.87,126.87 2.4,2.4 126.88,-126.87 -2.41,-2.4"
         style="fill:#ffffff;fill-opacity:1;fill-rule:nonzero;stroke:none" />
</svg>