<?xml version="1.0" encoding="UTF-8" standalone="no"?>
<svg
   version="1.1"
   width="600"
   height="600"
   viewBox="3411.75 3450.40 851.92 851.92"
   xmlns="http://www.w3.org/2000/svg">
  <rect x="3411.75" y="3450.40" width="851.92" height="851.92" fill="#000000"/>
  <path
         id="path1564"
         d="m 3837.71,4246.9 c -204.32,0 -370.55,-166.23 -370.55,-370.55 0,-204.31 166.23,-370.55 370.55,-370.55 204.31,0 370.54,166.24 370.54,370.55 0,204.32 -166.23,370.55 -370.54,370.55 z m 0,-744.49 c -206.2,0 -373.95,167.75 -373.95,373.94 0,206.19 167.75,373.95 373.95,373.95 206.19,0 373.94,-167.76 373.94,-373.95 0,-206.19 -167.75,-373.94 -373.94,-373.94"
         style="fill:#ffffff;fill-opacity:1;fill-rule:nonzero;stroke:none" />
  <path
         id="path1565"
         d="m 3837.71,4186.99 c -171.28,0 -310.64,-139.36 -310.64,-310.64 0,-171.28 139.36,-310.63 310.64,-310.63 171.27,0 310.63,139.35 310.63,310.63 0,171.28 -139.36,310.64 -310.63,310.64 z m 0,-624.67 c -173.17,0 -314.04,140.86 -314.04,314.03 0,173.16 140.87,314.03 314.04,314.03 173.16,0 314.03,-140.87 314.03,-314.03 0,-173.17 -140.87,-314.03 -314.03,-314.03"
         style="fill:#ffffff;fill-opacity:1;fill-rule:nonzero;stroke:none" />
  <path
         id="path1566"
         d="m 3853.64,4247.64 c 0,-8.8 -7.13,-15.94 -15.93,-15.94 -8.8,0 -15.94,7.14 -15.94,15.94 0,8.81 7.14,15.95 15.94,15.95 8.8,0 15.93,-7.14 15.93,-15.95"
         style="fill:#ffffff;fill-opacity:1;fill-rule:nonzero;stroke:none" />
  <path
         id="path1567"
         d="m 3853.64,4188.68 c 0,-8.8 -7.13,-15.93 -15.93,-15.93 -8.8,0 -15.94,7.13 -15.94,15.93 0,8.81 7.14,15.95 15.94,15.95 8.8,0 15.93,-7.14 15.93,-15.95"
         style="fill:#ffffff;fill-opacity:1;fill-rule:nonzero;stroke:none" />
  <path
         id="path1568"
         d="m 3695.34,4154.81 c 4.41,-7.63 1.79,-17.37 -5.83,-21.77 -7.63,-4.41 -17.37,-1.79 -21.78,5.83 -4.4,7.63 -1.78,17.37 5.83,21.77 7.63,4.4 17.38,1.79 21.78,-5.83"
         style="fill:#ffffff;fill-opacity:1;fill-rule:nonzero;stroke:none" />
  <path
         id="path1569"
         d="m 3575.19,4046.32 c 7.62,-4.4 10.23,-14.15 5.84,-21.77 -4.41,-7.62 -14.15,-10.24 -21.78,-5.84 -7.63,4.4 -10.24,14.15 -5.84,21.78 4.4,7.62 14.15,10.23 21.78,5.83"
         style="fill:#ffffff;fill-opacity:1;fill-rule:nonzero;stroke:none" />
  <path
         id="path1570"
         d="m 3525.37,3892.29 c 8.81,0 15.94,-7.13 15.94,-15.94 0,-8.8 -7.13,-15.94 -15.94,-15.94 -8.8,0 -15.94,7.14 -15.94,15.94 0,8.81 7.14,15.94 15.94,15.94"
         style="fill:#ffffff;fill-opacity:1;fill-rule:nonzero;stroke:none" />
  <path
         id="path1571"
         d="m 3559.25,3733.99 c 7.63,4.4 17.37,1.79 21.78,-5.84 4.39,-7.62 1.78,-17.37 -5.84,-21.77 -7.63,-4.4 -17.38,-1.79 -21.78,5.83 -4.4,7.63 -1.79,17.38 5.84,21.78"
         style="fill:#ffffff;fill-opacity:1;fill-rule:nonzero;stroke:none" />
  <path
         id="path1572"
         d="m 3667.73,3613.83 c 4.41,7.63 14.15,10.24 21.78,5.84 7.62,-4.4 10.24,-14.16 5.83,-21.78 -4.4,-7.62 -14.15,-10.23 -21.78,-5.84 -7.61,4.41 -10.23,14.16 -5.83,21.78"
         style="fill:#ffffff;fill-opacity:1;fill-rule:nonzero;stroke:none" />
  <path
         id="path1573"
         d="m 3821.77,3564.02 c 0,8.8 7.14,15.94 15.94,15.94 8.8,0 15.93,-7.14 15.93,-15.94 0,-8.81 -7.13,-15.94 -15.93,-15.94 -8.8,0 -15.94,7.13 -15.94,15.94"
         style="fill:#ffffff;fill-opacity:1;fill-rule:nonzero;stroke:none" />
  <path
         id="path1574"
         d="m 3980.07,3597.89 c -4.41,7.62 -1.79,17.38 5.83,21.78 7.63,4.4 17.37,1.79 21.78,-5.84 4.4,-7.62 1.78,-17.37 -5.83,-21.78 -7.63,-4.39 -17.38,-1.78 -21.78,5.84"
         style="fill:#ffffff;fill-opacity:1;fill-rule:nonzero;stroke:none" />
  <path
         id="path1575"
         d="m 4100.22,3706.38 c -7.62,4.4 -10.23,14.15 -5.83,21.77 4.4,7.63 14.15,10.24 21.77,5.84 7.63,-4.4 10.25,-14.15 5.84,-21.78 -4.4,-7.62 -14.15,-10.23 -21.78,-5.83"
         style="fill:#ffffff;fill-opacity:1;fill-rule:nonzero;stroke:none" />
  <path
         id="path1576"
         d="m 4150.04,3860.41 c -8.8,0 -15.94,7.14 -15.94,15.94 0,8.81 7.14,15.94 15.94,15.94 8.81,0 15.94,-7.13 15.94,-15.94 0,-8.8 -7.13,-15.94 -15.94,-15.94"
         style="fill:#ffffff;fill-opacity:1;fill-rule:nonzero;stroke:none" />
  <path
         id="path1577"
         d="m 4116.16,4018.71 c -7.62,-4.4 -17.37,-1.78 -21.77,5.84 -4.4,7.62 -1.79,17.37 5.83,21.77 7.63,4.4 17.38,1.79 21.78,-5.83 4.41,-7.63 1.79,-17.38 -5.84,-21.78"
         style="fill:#ffffff;fill-opacity:1;fill-rule:nonzero;stroke:none" />
  <path
         id="path1578"
         d="m 4007.68,4138.87 c -4.41,-7.62 -14.15,-10.24 -21.78,-5.83 -7.62,4.4 -10.24,14.14 -5.83,21.77 4.4,7.62 14.15,10.23 21.78,5.83 7.61,-4.4 10.23,-14.14 5.83,-21.77"
         style="fill:#ffffff;fill-opacity:1;fill-rule:nonzero;stroke:none" />
  <path
         id="path1579"
         d="m 3586.44,4150.17 c 6.22,-6.23 6.22,-16.32 0,-22.55 -6.23,-6.22 -16.32,-6.22 -22.55,0 -6.22,6.23 -6.22,16.32 0,22.55 6.23,6.22 16.32,6.22 22.55,0"
         style="fill:#ffffff;fill-opacity:1;fill-rule:nonzero;stroke:none" />
  <path
         id="path1580"
         d="m 3466.41,3892.29 c 8.8,0 15.94,-7.13 15.94,-15.94 0,-8.8 -7.14,-15.94 -15.94,-15.94 -8.8,0 -15.94,7.14 -15.94,15.94 0,8.81 7.14,15.94 15.94,15.94"
         style="fill:#ffffff;fill-opacity:1;fill-rule:nonzero;stroke:none" />
  <path
         id="path1581"
         d="m 3563.89,3625.08 c 6.23,6.22 16.32,6.22 22.55,0 6.22,-6.23 6.22,-16.32 0,-22.54 -6.23,-6.23 -16.32,-6.23 -22.55,0 -6.22,6.22 -6.22,16.31 0,22.54"
         style="fill:#ffffff;fill-opacity:1;fill-rule:nonzero;stroke:none" />
  <path
         id="path1582"
         d="m 3821.77,3505.05 c 0,8.81 7.14,15.95 15.94,15.95 8.8,0 15.93,-7.14 15.93,-15.95 0,-8.8 -7.13,-15.93 -15.93,-15.93 -8.8,0 -15.94,7.13 -15.94,15.93"
         style="fill:#ffffff;fill-opacity:1;fill-rule:nonzero;stroke:none" />
  <path
         id="path1583"
         d="m 4088.98,3602.54 c -6.23,6.22 -6.23,16.31 0,22.54 6.23,6.22 16.31,6.22 22.54,0 6.22,-6.23 6.22,-16.32 0,-22.54 -6.23,-6.23 -16.31,-6.23 -22.54,0"
         style="fill:#ffffff;fill-opacity:1;fill-rule:nonzero;stroke:none" />
  <path
         id="path1584"
         d="m 4209,3860.41 c -8.8,0 -15.94,7.14 -15.94,15.94 0,8.81 7.14,15.94 15.94,15.94 8.8,0 15.94,-7.13 15.94,-15.94 0,-8.8 -7.14,-15.94 -15.94,-15.94"
         style="fill:#ffffff;fill-opacity:1;fill-rule:nonzero;stroke:none" />
  <path
         id="path1585"
         d="m 4111.52,4127.62 c -6.23,-6.22 -16.31,-6.22 -22.54,0 -6.23,6.23 -6.23,16.32 0,22.55 6.23,6.22 16.31,6.22 22.54,0 6.22,-6.23 6.22,-16.32 0,-22.55"
         style="fill:#ffffff;fill-opacity:1;fill-rule:nonzero;stroke:none" />
  <path
         id="path1586"
         d="m 3708.92,3869.66 128.79,-242.43 128.78,242.43 -128.78,255.38 z m 128.79,-263.58 -139.97,263.47 1.16,2.29 138.81,275.23 139.96,-277.52 -139.96,-263.47"
         style="fill:#ffffff;fill-opacity:1;fill-rule:nonzero;stroke:none" />
  <path
         id="path1587"
         d="m 3699.67,3968.63 138.04,-259.86 138.04,259.86 -138.04,273.71 z m 138.04,-267.1 -1.51,2.82 -140.36,264.24 0.39,0.78 141.48,280.54 141.87,-281.32 -0.41,-0.79 -141.46,-266.27"
         style="fill:#ffffff;fill-opacity:1;fill-rule:nonzero;stroke:none" />
  <path
         id="path1588"
         d="m 3699.67,3767.71 138.04,-259.84 138.04,259.84 -138.04,273.73 z m 138.04,-267.09 -1.51,2.82 -140.36,264.24 0.39,0.78 141.48,280.54 141.87,-281.32 -0.41,-0.78 -141.46,-266.28"
         style="fill:#ffffff;fill-opacity:1;fill-rule:nonzero;stroke:none" />
  <path
         id="path1589"
         d="m 3728.22,3870.78 109.49,-206.1 109.48,206.1 -109.48,217.09 z m 109.49,-213.35 -1.51,2.83 -111.81,210.48 0.4,0.78 112.92,223.91 113.31,-224.69 -0.41,-0.78 -112.9,-212.53"
         style="fill:#ffffff;fill-opacity:1;fill-rule:nonzero;stroke:none" />
  <path
         id="path1590"
         d="m 3728.22,3775.61 109.49,-206.1 109.48,206.1 -109.48,217.09 z m 109.49,-213.34 -1.51,2.82 -111.81,210.48 0.4,0.78 112.92,223.91 113.31,-224.69 -0.41,-0.78 -112.9,-212.52"
         style="fill:#ffffff;fill-opacity:1;fill-rule:nonzero;stroke:none" />
  <path
         id="path1591"
         d="m 3728.22,3970.06 109.49,-206.1 109.48,206.1 -109.48,217.09 z m 109.49,-213.34 -1.51,2.83 -111.81,210.47 0.4,0.78 112.92,223.91 113.31,-224.69 -0.41,-0.78 -112.9,-212.52"
         style="fill:#ffffff;fill-opacity:1;fill-rule:nonzero;stroke:none" />
  <path
         id="path1592"
         d="m 3752.25,3871.97 85.46,-160.86 85.46,160.86 -85.46,169.47 z m 85.46,-168.11 -1.51,2.82 -87.78,165.25 0.39,0.78 88.9,176.29 89.29,-177.07 -0.41,-0.77 -88.88,-167.3"
         style="fill:#ffffff;fill-opacity:1;fill-rule:nonzero;stroke:none" />
  <path
         id="path1593"
         d="m 3777.46,3873.25 60.25,-113.41 60.24,113.41 -60.24,119.45 z m 60.25,-120.65 -64.08,120.61 0.39,0.78 63.69,126.27 64.07,-127.05 -0.41,-0.78 -63.66,-119.83"
         style="fill:#ffffff;fill-opacity:1;fill-rule:nonzero;stroke:none" />
  <path
         id="path1594"
         d="m 3868.71,3874.8 -31,-58.36 -31,58.36 31,61.46 31,-61.46"
         style="fill:#ffffff;fill-opacity:1;fill-rule:nonzero;stroke:none" />
</svg>