<?xml version="1.0" encoding="UTF-8" standalone="no"?>
<svg
   version="1.1"
   width="600"
   height="600"
   viewBox="3366.55 248.08 942.33 942.33"
   xmlns="http://www.w3.org/2000/svg">
  <rect x="3366.55" y="248.08" width="942.33" height="942.33" fill="#000000"/>
  <path
         id="path1060"
         d="m 3768.84,982.559 c -49.85,0 -96.71,-19.418 -131.96,-54.661 -35.24,-35.238 -54.64,-82.109 -54.64,-131.949 0,-49.84 19.4,-96.699 54.64,-131.949 35.25,-35.238 82.11,-54.648 131.96,-54.648 49.84,0 96.7,19.41 131.95,54.648 35.25,35.25 54.65,82.109 54.65,131.949 0,49.84 -19.4,96.711 -54.65,131.949 v 0 c -35.25,35.243 -82.11,54.661 -131.95,54.661 z m 0,-376.61 c -50.75,0 -98.47,19.762 -134.36,55.653 -35.89,35.886 -55.65,83.597 -55.65,134.347 0,50.762 19.76,98.461 55.65,134.352 35.89,35.89 83.61,55.66 134.36,55.66 50.75,0 98.46,-19.77 134.35,-55.66 v 0 0 c 35.89,-35.891 55.66,-83.59 55.66,-134.352 0,-50.75 -19.77,-98.461 -55.66,-134.347 -35.89,-35.891 -83.6,-55.653 -134.35,-55.653"
         style="fill:#ffffff;fill-opacity:1;fill-rule:nonzero;stroke:none" />
  <path
         id="path1061"
         d="m 3733.52,910.879 c -102.9,0 -186.62,-83.707 -186.62,-186.609 0,-102.899 83.72,-186.61 186.62,-186.61 102.89,0 186.6,83.711 186.6,186.61 0,102.902 -83.71,186.609 -186.6,186.609 z m 0,-376.617 c -104.78,0 -190.01,85.226 -190.01,190.008 0,104.769 85.23,190.011 190.01,190.011 104.76,0 190,-85.242 190,-190.011 0,-104.782 -85.24,-190.008 -190,-190.008"
         style="fill:#ffffff;fill-opacity:1;fill-rule:nonzero;stroke:none" />
  <path
         id="path1062"
         d="m 3627.28,780.559 c -72.76,-72.77 -72.76,-191.161 0,-263.911 72.76,-72.738 191.14,-72.738 263.9,0 72.76,72.75 72.76,191.141 0,263.911 -72.76,72.742 -191.14,72.742 -263.9,0 z m 131.95,-321.868 c -48.66,0 -97.32,18.52 -134.36,55.559 -74.08,74.082 -74.08,194.621 0,268.711 v 0 c 74.09,74.078 194.63,74.078 268.71,0 74.09,-74.09 74.09,-194.629 0,-268.711 -37.04,-37.039 -85.7,-55.559 -134.35,-55.559"
         style="fill:#ffffff;fill-opacity:1;fill-rule:nonzero;stroke:none" />
  <path
         id="path1063"
         d="m 3830.91,799.879 c -102.89,0 -186.6,-83.707 -186.6,-186.598 0,-102.902 83.71,-186.609 186.6,-186.609 102.9,0 186.61,83.707 186.61,186.609 0,102.891 -83.71,186.598 -186.61,186.598 z m 0,-376.609 c -104.77,0 -190,85.242 -190,190.011 0,104.77 85.23,190 190,190 104.77,0 190.01,-85.23 190.01,-190 0,-104.769 -85.24,-190.011 -190.01,-190.011"
         style="fill:#ffffff;fill-opacity:1;fill-rule:nonzero;stroke:none" />
  <path
         id="path1064"
         d="m 3906.58,825.512 c -47.79,0 -95.56,-18.192 -131.95,-54.563 -35.25,-35.258 -54.66,-82.109 -54.66,-131.961 0,-49.84 19.41,-96.699 54.66,-131.949 v 0 c 35.24,-35.238 82.11,-54.66 131.95,-54.66 49.85,0 96.7,19.422 131.95,54.66 35.24,35.25 54.65,82.109 54.65,131.949 0,49.852 -19.41,96.703 -54.65,131.961 -36.37,36.36 -84.17,54.563 -131.95,54.563 z m 0,-376.532 c -50.75,0 -98.46,19.77 -134.35,55.661 v 0 0 c -35.89,35.89 -55.66,83.597 -55.66,134.347 0,50.762 19.77,98.473 55.66,134.364 74.08,74.078 194.62,74.078 268.7,0 35.89,-35.891 55.65,-83.602 55.65,-134.364 0,-50.75 -19.76,-98.457 -55.65,-134.347 -35.88,-35.891 -83.6,-55.661 -134.35,-55.661"
         style="fill:#ffffff;fill-opacity:1;fill-rule:nonzero;stroke:none" />
  <path
         id="path1065"
         d="m 3941.9,897.289 c -102.9,0 -186.61,-83.719 -186.61,-186.617 0,-102.891 83.71,-186.602 186.61,-186.602 102.89,0 186.61,83.711 186.61,186.602 0,102.898 -83.72,186.617 -186.61,186.617 z m 0,-376.617 c -104.77,0 -190.01,85.238 -190.01,190 0,104.777 85.24,190.008 190.01,190.008 104.77,0 190,-85.231 190,-190.008 0,-104.762 -85.23,-190 -190,-190"
         style="fill:#ffffff;fill-opacity:1;fill-rule:nonzero;stroke:none" />
  <path
         id="path1066"
         d="m 3916.19,972.949 c -49.84,0 -96.71,-19.41 -131.95,-54.66 -72.76,-72.75 -72.76,-191.141 0,-263.898 35.24,-35.243 82.11,-54.653 131.95,-54.653 49.85,0 96.7,19.41 131.95,54.653 v 0 c 72.76,72.757 72.76,191.148 0,263.898 -35.25,35.25 -82.1,54.66 -131.95,54.66 z m 0,-376.609 c -50.75,0 -98.47,19.762 -134.35,55.648 -74.09,74.082 -74.09,194.621 0,268.703 35.88,35.887 83.6,55.661 134.35,55.661 50.75,0 98.47,-19.774 134.36,-55.661 74.08,-74.082 74.08,-194.621 0,-268.703 v 0 c -35.89,-35.886 -83.61,-55.648 -134.36,-55.648"
         style="fill:#ffffff;fill-opacity:1;fill-rule:nonzero;stroke:none" />
  <path
         id="path1067"
         d="m 3844.5,1008.27 c -102.89,0 -186.6,-83.711 -186.6,-186.598 0,-102.902 83.71,-186.613 186.6,-186.613 102.9,0 186.61,83.711 186.61,186.613 0,102.887 -83.71,186.598 -186.61,186.598 z m 0,-376.61 c -104.76,0 -190,85.231 -190,190.012 0,104.769 85.24,189.998 190,189.998 104.78,0 190.01,-85.229 190.01,-189.998 0,-104.781 -85.23,-190.012 -190.01,-190.012"
         style="fill:#ffffff;fill-opacity:1;fill-rule:nonzero;stroke:none" />
  <path
         id="path1068"
         d="m 3423.41,719.242 414.3,-414.312 414.3,414.312 -414.3,414.298 z M 3837.71,290.91 3409.38,719.242 3837.71,1147.57 4266.04,719.242 3837.71,290.91"
         style="fill:#ffffff;fill-opacity:1;fill-rule:nonzero;stroke:none" />
  <path
         id="path1069"
         d="m 3849.65,730.289 c 6.1,-6.098 6.1,-15.988 0,-22.098 -6.1,-6.101 -16,-6.101 -22.09,0 -6.1,6.11 -6.1,16 0,22.098 6.09,6.109 15.99,6.109 22.09,0"
         style="fill:#ffffff;fill-opacity:1;fill-rule:nonzero;stroke:none" />
  <path
         id="path1070"
         d="m 3838.6,796.621 c -43.14,0 -78.25,-35.109 -78.25,-78.25 0,-43.152 35.11,-78.25 78.25,-78.25 43.16,0 78.26,35.098 78.26,78.25 0,43.141 -35.1,78.25 -78.26,78.25 z m 0,-166.422 c -48.62,0 -88.17,39.551 -88.17,88.172 0,48.617 39.55,88.168 88.17,88.168 48.63,0 88.18,-39.551 88.18,-88.168 0,-48.621 -39.55,-88.172 -88.18,-88.172"
         style="fill:#ffffff;fill-opacity:1;fill-rule:nonzero;stroke:none" />
  <path
         id="path1071"
         d="m 3839.75,784.039 c -0.02,0 -0.03,0 -0.05,0 l -1.1,0.012 c -0.93,0 -1.83,0.758 -1.83,1.699 0,0.941 0.61,1.699 1.55,1.699 l 1.47,-0.008 c 0.93,-0.019 1.67,-0.8 1.66,-1.75 -0.03,-0.91 -0.79,-1.652 -1.7,-1.652 z m -11.3,-0.75 c -0.83,0 -1.57,0.609 -1.69,1.461 -0.14,0.922 0.51,1.781 1.43,1.922 l 1.41,0.199 c 0.99,0.188 1.79,-0.5 1.93,-1.43 0.13,-0.929 -0.5,-1.793 -1.44,-1.921 l -1.4,-0.211 c -0.08,-0.02 -0.16,-0.02 -0.24,-0.02 z m 21.17,-0.129 c -0.1,0 -0.19,0.012 -0.28,0.02 l -1.37,0.218 c -0.93,0.141 -1.57,0.993 -1.44,1.922 0.14,0.93 0.97,1.61 1.93,1.442 l 1.44,-0.223 c 0.93,-0.148 1.55,-1.027 1.39,-1.957 -0.14,-0.832 -0.86,-1.422 -1.67,-1.422 z m -30.84,-2.078 c -0.72,0 -1.41,0.469 -1.62,1.207 -0.28,0.891 0.23,1.852 1.13,2.121 l 1.36,0.41 c 0.91,0.282 1.84,-0.238 2.12,-1.14 0.27,-0.899 -0.24,-1.84 -1.14,-2.121 l -1.35,-0.411 c -0.17,-0.046 -0.33,-0.066 -0.5,-0.066 z m 40.47,-0.25 c -0.18,0 -0.35,0.027 -0.53,0.078 l -1.32,0.41 c -0.9,0.27 -1.4,1.219 -1.14,2.121 0.27,0.911 1.21,1.43 2.12,1.141 l 1.4,-0.434 c 0.88,-0.289 1.37,-1.257 1.08,-2.148 -0.23,-0.711 -0.9,-1.168 -1.61,-1.168 z m -49.69,-3.344 c -0.63,0 -1.24,0.352 -1.53,0.961 -0.41,0.852 -0.06,1.86 0.79,2.27 l 1.33,0.621 c 0.85,0.379 1.85,0.012 2.24,-0.86 0.39,-0.851 0,-1.859 -0.85,-2.25 l -1.25,-0.57 c -0.23,-0.121 -0.49,-0.172 -0.73,-0.172 z m 58.88,-0.379 c -0.26,0 -0.51,0.051 -0.74,0.172 l -1.27,0.61 c -0.85,0.398 -1.22,1.418 -0.8,2.269 0.4,0.86 1.44,1.199 2.26,0.801 l 1.28,-0.621 c 0.85,-0.41 1.2,-1.418 0.8,-2.27 -0.29,-0.609 -0.91,-0.961 -1.53,-0.961 z m -67.47,-4.527 c -0.55,0 -1.09,0.258 -1.42,0.75 -0.52,0.77 -0.31,1.84 0.46,2.348 l 1.22,0.808 c 0.78,0.492 1.85,0.293 2.34,-0.508 0.51,-0.789 0.29,-1.851 -0.5,-2.359 l -1.16,-0.75 c -0.29,-0.199 -0.62,-0.289 -0.94,-0.289 z m 76,-0.512 c -0.33,0 -0.66,0.102 -0.95,0.289 l -1.16,0.782 c -0.78,0.519 -0.99,1.589 -0.48,2.371 0.52,0.777 1.6,0.976 2.37,0.468 l 1.19,-0.8 c 0.77,-0.532 0.97,-1.598 0.44,-2.371 -0.33,-0.489 -0.86,-0.739 -1.41,-0.739 z m -83.79,-5.621 c -0.46,0 -0.9,0.18 -1.25,0.531 -0.63,0.7 -0.59,1.77 0.09,2.411 0.36,0.339 0.72,0.66 1.1,0.98 0.7,0.617 1.77,0.559 2.4,-0.16 0.61,-0.711 0.54,-1.781 -0.16,-2.402 l -1.02,-0.918 c -0.33,-0.301 -0.75,-0.442 -1.16,-0.442 z m 91.51,-0.609 c -0.41,0 -0.83,0.148 -1.15,0.449 l -1.02,0.941 c -0.7,0.622 -0.77,1.7 -0.15,2.399 0.63,0.691 1.7,0.769 2.41,0.141 l 1.07,-0.981 c 0.68,-0.648 0.72,-1.719 0.09,-2.41 -0.33,-0.348 -0.79,-0.539 -1.25,-0.539 z m -98.32,-6.598 c -0.38,0 -0.77,0.129 -1.09,0.387 -0.72,0.59 -0.83,1.672 -0.23,2.391 l 0.93,1.101 c 0.61,0.719 1.68,0.809 2.4,0.199 0.71,-0.609 0.8,-1.691 0.18,-2.398 l -0.88,-1.07 c -0.34,-0.411 -0.82,-0.61 -1.31,-0.61 z m 105.03,-0.691 c -0.5,0 -1,0.23 -1.33,0.648 l -0.87,1.063 c -0.61,0.726 -0.51,1.797 0.21,2.398 0.74,0.61 1.79,0.512 2.4,-0.211 0.31,-0.367 0.62,-0.758 0.92,-1.14 0.59,-0.739 0.46,-1.809 -0.28,-2.387 -0.31,-0.25 -0.68,-0.371 -1.05,-0.371 z m -110.73,-7.43 c -0.3,0 -0.59,0.078 -0.87,0.238 -0.81,0.493 -1.07,1.52 -0.59,2.332 l 0.76,1.239 c 0.49,0.8 1.55,1.05 2.34,0.55 0.8,-0.5 1.04,-1.539 0.55,-2.351 l -0.73,-1.18 c -0.31,-0.527 -0.88,-0.828 -1.46,-0.828 z m 116.3,-0.75 c -0.58,0 -1.16,0.301 -1.47,0.859 l -0.7,1.168 c -0.48,0.801 -0.23,1.864 0.57,2.352 0.8,0.469 1.86,0.219 2.34,-0.57 l 0.74,-1.27 c 0.47,-0.808 0.18,-1.851 -0.63,-2.308 -0.27,-0.161 -0.55,-0.231 -0.85,-0.231 z m -120.73,-8.101 c -0.21,0 -0.44,0.031 -0.64,0.121 -0.87,0.347 -1.29,1.347 -0.93,2.218 l 0.57,1.36 c 0.39,0.863 1.39,1.23 2.24,0.863 0.86,-0.383 1.25,-1.391 0.87,-2.25 l -0.54,-1.262 c -0.27,-0.66 -0.91,-1.05 -1.57,-1.05 z m 125.06,-0.809 c -0.67,0 -1.32,0.398 -1.58,1.059 l -0.52,1.281 c -0.37,0.871 0.04,1.859 0.91,2.238 0.85,0.359 1.85,-0.051 2.22,-0.91 l 0.54,-1.34 c 0.35,-0.879 -0.07,-1.867 -0.95,-2.219 -0.2,-0.082 -0.42,-0.109 -0.62,-0.109 z m -128.15,-8.633 c -0.12,0 -0.26,0.012 -0.4,0.051 -0.91,0.23 -1.47,1.141 -1.25,2.051 0.12,0.48 0.25,0.961 0.38,1.429 0.25,0.911 1.18,1.391 2.09,1.18 0.91,-0.258 1.44,-1.199 1.18,-2.098 -0.12,-0.429 -0.24,-0.871 -0.35,-1.312 -0.18,-0.777 -0.87,-1.301 -1.65,-1.301 z m 131.11,-0.816 c -0.77,0 -1.48,0.527 -1.66,1.308 l -0.33,1.352 c -0.23,0.91 0.32,1.828 1.23,2.07 0.94,0.18 1.83,-0.32 2.07,-1.23 l 0.34,-1.41 c 0.21,-0.922 -0.35,-1.832 -1.27,-2.051 -0.13,-0.031 -0.26,-0.039 -0.38,-0.039 z M 3771.5,723.07 c -0.04,0 -0.1,0 -0.16,0.012 -0.93,0.078 -1.62,0.898 -1.54,1.84 l 0.16,1.449 c 0.11,0.93 0.98,1.598 1.88,1.5 0.93,-0.109 1.61,-0.949 1.5,-1.871 l -0.15,-1.391 c -0.07,-0.879 -0.82,-1.539 -1.69,-1.539 z m 134.29,-0.851 c -0.88,0 -1.62,0.672 -1.7,1.562 l -0.13,1.367 c -0.09,0.934 0.59,1.762 1.52,1.864 0.89,0.168 1.77,-0.571 1.86,-1.512 l 0.14,-1.449 c 0.08,-0.93 -0.61,-1.762 -1.55,-1.832 -0.05,0 -0.1,0 -0.14,0 z m 0.21,-7 c -0.01,0 -0.02,0 -0.03,0 -0.94,0.019 -1.69,0.801 -1.67,1.742 l 0.02,1.379 c 0,0.941 0.76,1.699 1.7,1.699 0.93,0 1.69,-0.758 1.69,-1.699 l -0.01,-1.461 c -0.02,-0.918 -0.78,-1.66 -1.7,-1.66 z m -134.71,-2.071 c -0.9,0 -1.65,0.711 -1.7,1.622 l -0.06,1.449 c -0.03,0.941 0.7,1.722 1.64,1.75 0.02,0 0.04,0 0.06,0 0.92,0 1.67,-0.719 1.7,-1.649 l 0.06,-1.379 c 0.05,-0.941 -0.68,-1.742 -1.61,-1.793 -0.03,0 -0.06,0 -0.09,0 z m 133.78,-7.789 c -0.09,0 -0.19,0.012 -0.28,0.02 -0.92,0.16 -1.55,1.043 -1.4,1.961 l 0.21,1.371 c 0.15,0.93 1.02,1.641 1.94,1.437 0.92,-0.136 1.57,-1 1.43,-1.929 l -0.22,-1.438 c -0.14,-0.832 -0.86,-1.422 -1.68,-1.422 z m -132.56,-2.027 c -0.79,0 -1.5,0.559 -1.66,1.359 l -0.27,1.438 c -0.17,0.922 0.45,1.812 1.37,1.973 0.97,0.16 1.81,-0.454 1.98,-1.383 l 0.25,-1.348 c 0.19,-0.93 -0.41,-1.832 -1.33,-2.012 -0.12,-0.019 -0.22,-0.027 -0.34,-0.027 z m 130.2,-7.613 c -0.19,0 -0.37,0.031 -0.55,0.09 -0.89,0.3 -1.37,1.261 -1.07,2.16 0.15,0.429 0.28,0.863 0.41,1.301 0.27,0.89 1.21,1.421 2.11,1.14 0.91,-0.269 1.42,-1.219 1.16,-2.121 -0.15,-0.48 -0.3,-0.949 -0.45,-1.418 -0.25,-0.699 -0.91,-1.152 -1.61,-1.152 z m -127.53,-1.938 c -0.7,0 -1.35,0.43 -1.61,1.11 -0.16,0.461 -0.33,0.929 -0.47,1.398 -0.3,0.891 0.19,1.852 1.08,2.152 0.89,0.231 1.86,-0.203 2.15,-1.101 0.13,-0.43 0.28,-0.86 0.44,-1.281 0.32,-0.868 -0.13,-1.848 -1.01,-2.18 -0.19,-0.07 -0.39,-0.098 -0.58,-0.098 z m 123.76,-7.23 c -0.27,0 -0.53,0.058 -0.78,0.191 -0.84,0.43 -1.17,1.449 -0.74,2.278 l 0.61,1.242 c 0.41,0.859 1.44,1.207 2.26,0.797 0.85,-0.399 1.21,-1.411 0.8,-2.258 l -0.64,-1.321 c -0.3,-0.601 -0.9,-0.929 -1.51,-0.929 z m -119.73,-1.821 c -0.6,0 -1.18,0.321 -1.5,0.879 -0.23,0.43 -0.45,0.86 -0.68,1.301 -0.42,0.84 -0.08,1.871 0.76,2.289 0.83,0.403 1.87,0.082 2.29,-0.758 0.2,-0.402 0.41,-0.8 0.62,-1.191 0.45,-0.828 0.15,-1.871 -0.67,-2.32 -0.26,-0.141 -0.54,-0.2 -0.82,-0.2 z m 114.66,-6.691 c -0.33,0 -0.67,0.09 -0.96,0.293 -0.78,0.539 -0.98,1.59 -0.44,2.367 l 0.79,1.16 c 0.53,0.782 1.57,1.012 2.37,0.45 0.77,-0.508 0.97,-1.579 0.45,-2.348 l -0.81,-1.191 c -0.33,-0.481 -0.86,-0.731 -1.4,-0.731 z m -109.34,-1.66 c -0.52,0 -1.02,0.23 -1.37,0.68 l -0.85,1.16 c -0.54,0.769 -0.37,1.832 0.4,2.383 0.75,0.558 1.82,0.378 2.37,-0.391 l 0.82,-1.121 c 0.56,-0.75 0.4,-1.809 -0.35,-2.379 -0.31,-0.231 -0.66,-0.332 -1.02,-0.332 z m 103.08,-6.039 c -0.42,0 -0.84,0.16 -1.17,0.461 -0.69,0.648 -0.72,1.719 -0.07,2.398 l 0.93,1.031 c 0.64,0.692 1.71,0.739 2.41,0.122 0.69,-0.633 0.75,-1.704 0.12,-2.411 l -0.99,-1.062 c -0.33,-0.359 -0.78,-0.539 -1.23,-0.539 z m -96.57,-1.442 c -0.43,0 -0.87,0.161 -1.2,0.481 -0.35,0.351 -0.69,0.691 -1.03,1.051 -0.66,0.672 -0.63,1.75 0.05,2.398 0.68,0.652 1.75,0.641 2.41,-0.058 l 0.96,-0.961 c 0.67,-0.661 0.67,-1.739 0.02,-2.411 -0.34,-0.339 -0.78,-0.5 -1.21,-0.5 z m 89.25,-5.226 c -0.5,0 -1,0.226 -1.33,0.648 -0.59,0.739 -0.46,1.801 0.28,2.391 l 1.07,0.859 c 0.73,0.59 1.8,0.5 2.4,-0.23 0.59,-0.719 0.49,-1.789 -0.23,-2.391 l -1.13,-0.918 c -0.31,-0.242 -0.69,-0.359 -1.06,-0.359 z m -81.75,-1.242 c -0.36,0 -0.71,0.109 -1.01,0.332 l -1.14,0.859 c -0.76,0.57 -0.9,1.629 -0.34,2.391 0.57,0.75 1.65,0.886 2.39,0.328 l 1.12,-0.84 c 0.75,-0.57 0.91,-1.629 0.35,-2.379 -0.34,-0.449 -0.85,-0.691 -1.37,-0.691 z m 73.55,-4.309 c -0.58,0 -1.14,0.289 -1.46,0.828 -0.48,0.813 -0.22,1.84 0.59,2.332 l 1.21,0.707 c 0.79,0.481 1.85,0.242 2.34,-0.566 0.48,-0.813 0.22,-1.863 -0.58,-2.344 l -1.23,-0.726 c -0.27,-0.161 -0.58,-0.231 -0.87,-0.231 z m -65.17,-0.992 c -0.27,0 -0.54,0.062 -0.8,0.191 l -1.26,0.692 c -0.83,0.449 -1.13,1.476 -0.68,2.308 0.46,0.821 1.49,1.11 2.31,0.68 l 1.23,-0.672 c 0.83,-0.449 1.15,-1.469 0.7,-2.297 -0.3,-0.582 -0.89,-0.902 -1.5,-0.902 z m 56.23,-3.27 c -0.67,0 -1.3,0.403 -1.57,1.063 -0.35,0.879 0.07,1.867 0.95,2.219 l 1.3,0.519 c 0.87,0.36 1.85,-0.058 2.21,-0.941 0.36,-0.867 -0.06,-1.86 -0.93,-2.207 l -1.32,-0.543 c -0.21,-0.071 -0.42,-0.11 -0.64,-0.11 z M 3816,653.121 c -0.19,0 -0.37,0.027 -0.56,0.098 l -1.38,0.5 c -0.88,0.332 -1.33,1.312 -0.99,2.191 0.33,0.879 1.31,1.352 2.18,0.988 l 1.3,-0.468 c 0.89,-0.309 1.36,-1.27 1.06,-2.16 -0.25,-0.711 -0.91,-1.149 -1.61,-1.149 z m 37.69,-2.191 c -0.77,0 -1.47,0.531 -1.66,1.308 -0.21,0.91 0.35,1.832 1.27,2.051 l 1.35,0.32 c 0.93,0.18 1.83,-0.32 2.06,-1.23 0.23,-0.91 -0.31,-1.84 -1.22,-2.07 l -1.42,-0.34 c -0.12,-0.028 -0.25,-0.039 -0.38,-0.039 z m -28.13,-0.43 c -0.11,0 -0.22,0.012 -0.33,0.031 l -1.41,0.289 c -0.93,0.2 -1.52,1.09 -1.32,2.008 0.21,0.922 1.12,1.543 2.02,1.313 l 1.35,-0.27 c 0.93,-0.18 1.53,-1.07 1.36,-1.992 -0.16,-0.82 -0.87,-1.379 -1.67,-1.379 z m 18.33,-1.07 c -0.88,0 -1.62,0.679 -1.69,1.57 -0.08,0.93 0.61,1.75 1.55,1.828 l 1.38,0.121 c 0.94,0.172 1.76,-0.578 1.86,-1.508 0.1,-0.941 -0.58,-1.769 -1.51,-1.871 l -1.45,-0.14 c -0.05,0 -0.09,0 -0.14,0 z m -8.49,-0.11 c -0.03,0 -0.05,0 -0.07,0 l -1.45,0.071 c -0.94,0.058 -1.65,0.871 -1.59,1.808 0.05,0.942 0.76,1.551 1.8,1.59 l 1.38,-0.078 c 0.94,-0.031 1.67,-0.832 1.63,-1.762 -0.04,-0.918 -0.79,-1.629 -1.7,-1.629"
         style="fill:#ffffff;fill-opacity:1;fill-rule:nonzero;stroke:none" />
  <path
         id="path1072"
         d="m 3737.73,1048.55 c -60.14,-2.76 -116.5,-27.6 -159.12,-70.218 -42.61,-42.621 -67.45,-98.973 -70.22,-159.121 z m -233.02,-237.839 0.11,4.277 c 1.79,62.641 27.14,121.492 71.39,165.742 44.25,44.26 103.12,69.61 165.74,71.39 l 4.28,0.13 -241.52,-241.539"
         style="fill:#ffffff;fill-opacity:1;fill-rule:nonzero;stroke:none" />
  <path
         id="path1073"
         d="m 3937.68,1048.55 229.35,-229.339 c -2.77,60.148 -27.62,116.5 -70.23,159.121 -42.62,42.618 -98.98,67.458 -159.12,70.218 z m 233.03,-237.839 -3.02,3.027 -238.51,238.512 4.28,-0.13 c 62.63,-1.78 121.49,-27.13 165.74,-71.39 44.26,-44.25 69.61,-103.101 71.39,-165.742 l 0.12,-4.277"
         style="fill:#ffffff;fill-opacity:1;fill-rule:nonzero;stroke:none" />
  <path
         id="path1074"
         d="m 3508.39,616.66 c 2.77,-60.148 27.61,-116.5 70.22,-159.121 42.62,-42.617 98.98,-67.457 159.12,-70.23 z m 237.84,-233.039 -4.28,0.129 c -62.62,1.781 -121.49,27.129 -165.74,71.391 -44.25,44.238 -69.6,103.097 -71.39,165.738 l -0.11,4.281 3.01,-3.031 238.51,-238.508"
         style="fill:#ffffff;fill-opacity:1;fill-rule:nonzero;stroke:none" />
  <path
         id="path1075"
         d="M 4167.03,616.66 3937.68,387.309 c 60.14,2.773 116.5,27.613 159.12,70.23 42.61,42.621 67.46,98.973 70.23,159.121 z m -237.85,-233.039 241.53,241.539 -0.12,-4.281 c -1.78,-62.641 -27.13,-121.5 -71.39,-165.738 -44.25,-44.262 -103.11,-69.61 -165.74,-71.391 l -4.28,-0.129"
         style="fill:#ffffff;fill-opacity:1;fill-rule:nonzero;stroke:none" />
  <path
         id="path1076"
         d="m 3626.98,935.398 -47.65,47.661 2.4,2.402 47.65,-47.66 -2.4,-2.403"
         style="fill:#ffffff;fill-opacity:1;fill-rule:nonzero;stroke:none" />
  <path
         id="path1077"
         d="m 4046.72,931.422 -2.27,2.539 52.42,46.84 2.26,-2.539 -52.41,-46.84"
         style="fill:#ffffff;fill-opacity:1;fill-rule:nonzero;stroke:none" />
  <path
         id="path1078"
         d="m 3581.73,452.129 -2.4,2.402 46.79,46.801 2.41,-2.402 -46.8,-46.801"
         style="fill:#ffffff;fill-opacity:1;fill-rule:nonzero;stroke:none" />
  <path
         id="path1079"
         d="m 4098.4,456.141 -50.61,50.621 2.41,2.398 50.6,-50.621 -2.4,-2.398"
         style="fill:#ffffff;fill-opacity:1;fill-rule:nonzero;stroke:none" />
  <path
         id="path1080"
         d="m 3591.69,984.27 c 0,-6.11 -4.95,-11.059 -11.06,-11.059 -6.09,0 -11.04,4.949 -11.04,11.059 0,6.089 4.95,11.039 11.04,11.039 6.11,0 11.06,-4.95 11.06,-11.039"
         style="fill:#ffffff;fill-opacity:1;fill-rule:nonzero;stroke:none" />
  <path
         id="path1081"
         d="m 3591.69,453.332 c 0,-6.102 -4.95,-11.043 -11.06,-11.043 -6.09,0 -11.04,4.941 -11.04,11.043 0,6.098 4.95,11.039 11.04,11.039 6.11,0 11.06,-4.941 11.06,-11.039"
         style="fill:#ffffff;fill-opacity:1;fill-rule:nonzero;stroke:none" />
  <path
         id="path1082"
         d="m 4114.67,453.332 c 0,-6.102 -4.95,-11.043 -11.06,-11.043 -6.09,0 -11.04,4.941 -11.04,11.043 0,6.098 4.95,11.039 11.04,11.039 6.11,0 11.06,-4.941 11.06,-11.039"
         style="fill:#ffffff;fill-opacity:1;fill-rule:nonzero;stroke:none" />
  <path
         id="path1083"
         d="m 4109.04,979.531 c 0,-6.09 -4.94,-11.043 -11.04,-11.043 -6.11,0 -11.05,4.953 -11.05,11.043 0,6.098 4.94,11.059 11.05,11.059 6.1,0 11.04,-4.961 11.04,-11.059"
         style="fill:#ffffff;fill-opacity:1;fill-rule:nonzero;stroke:none" />
</svg>