<?xml version="1.0" encoding="UTF-8" standalone="no"?>
<svg
   version="1.1"
   width="600"
   height="600"
   viewBox="228.28 3443.58 945.56 945.56"
   xmlns="http://www.w3.org/2000/svg">
  <rect x="228.28" y="3443.58" width="945.56" height="945.56" fill="#000000"/>
  <path
         id="path356"
         d="m 711.996,3849.92 c 0,-6.17 -4.992,-11.16 -11.156,-11.16 -6.16,0 -11.156,4.99 -11.156,11.16 0,6.16 4.996,11.15 11.156,11.15 6.164,0 11.156,-4.99 11.156,-11.15"
         style="fill:#ffffff;fill-opacity:1;fill-rule:nonzero;stroke:none" />
  <path
         id="path357"
         d="m 711.996,4118.63 c 0,-6.17 -4.992,-11.17 -11.156,-11.17 -6.16,0 -11.156,5 -11.156,11.17 0,6.16 4.996,11.15 11.156,11.15 6.164,0 11.156,-4.99 11.156,-11.15"
         style="fill:#ffffff;fill-opacity:1;fill-rule:nonzero;stroke:none" />
  <path
         id="path358"
         d="m 706.664,4066.13 c 0,-3.22 -2.605,-5.84 -5.824,-5.84 -3.219,0 -5.828,2.62 -5.828,5.84 0,3.21 2.609,5.82 5.828,5.82 3.219,0 5.824,-2.61 5.824,-5.82"
         style="fill:#ffffff;fill-opacity:1;fill-rule:nonzero;stroke:none" />
  <path
         id="path359"
         d="m 470.824,3649.96 c 0,-3.22 -2.609,-5.83 -5.828,-5.83 -3.219,0 -5.832,2.61 -5.832,5.83 0,3.22 2.613,5.83 5.832,5.83 3.219,0 5.828,-2.61 5.828,-5.83"
         style="fill:#ffffff;fill-opacity:1;fill-rule:nonzero;stroke:none" />
  <path
         id="path360"
         d="m 942.699,3649.96 c 0,-3.22 -2.609,-5.83 -5.828,-5.83 -3.219,0 -5.832,2.61 -5.832,5.83 0,3.22 2.613,5.83 5.832,5.83 3.219,0 5.828,-2.61 5.828,-5.83"
         style="fill:#ffffff;fill-opacity:1;fill-rule:nonzero;stroke:none" />
  <path
         id="path361"
         d="m 655,3753.22 c 0,-6.16 -4.996,-11.15 -11.156,-11.15 -6.164,0 -11.156,4.99 -11.156,11.15 0,6.17 4.992,11.16 11.156,11.16 6.16,0 11.156,-4.99 11.156,-11.16"
         style="fill:#ffffff;fill-opacity:1;fill-rule:nonzero;stroke:none" />
  <path
         id="path362"
         d="m 428.434,3622.74 c 0,-6.16 -4.996,-11.16 -11.161,-11.16 -6.16,0 -11.156,5 -11.156,11.16 0,6.16 4.996,11.15 11.156,11.15 6.165,0 11.161,-4.99 11.161,-11.15"
         style="fill:#ffffff;fill-opacity:1;fill-rule:nonzero;stroke:none" />
  <path
         id="path363"
         d="m 995.766,3622.74 c 0,-6.16 -4.996,-11.16 -11.157,-11.16 -6.164,0 -11.156,5 -11.156,11.16 0,6.16 4.992,11.15 11.156,11.15 6.161,0 11.157,-4.99 11.157,-11.15"
         style="fill:#ffffff;fill-opacity:1;fill-rule:nonzero;stroke:none" />
  <path
         id="path364"
         d="m 769.809,3753.22 c 0,-6.16 -4.996,-11.15 -11.157,-11.15 -6.164,0 -11.156,4.99 -11.156,11.15 0,6.17 4.992,11.16 11.156,11.16 6.161,0 11.157,-4.99 11.157,-11.16"
         style="fill:#ffffff;fill-opacity:1;fill-rule:nonzero;stroke:none" />
  <path
         id="path365"
         d="m 701.57,4018.6 c -95.043,0 -172.355,-77.32 -172.355,-172.36 0,-95.03 77.312,-172.35 172.355,-172.35 95.039,0 172.352,77.32 172.352,172.35 0,95.04 -77.313,172.36 -172.352,172.36 z m 0,-348.11 c -96.918,0 -175.75,78.84 -175.75,175.75 0,96.91 78.832,175.76 175.75,175.76 96.914,0 175.75,-78.85 175.75,-175.76 0,-96.91 -78.836,-175.75 -175.75,-175.75"
         style="fill:#ffffff;fill-opacity:1;fill-rule:nonzero;stroke:none" />
  <path
         id="path366"
         d="m 648.738,3929.46 c -95.043,0 -172.355,-77.32 -172.355,-172.36 0,-95.04 77.312,-172.36 172.355,-172.36 95.039,0 172.36,77.32 172.36,172.36 0,95.04 -77.321,172.36 -172.36,172.36 z m 0,-348.12 c -96.918,0 -175.75,78.85 -175.75,175.76 0,96.92 78.832,175.76 175.75,175.76 96.914,0 175.758,-78.84 175.758,-175.76 0,-96.91 -78.844,-175.76 -175.758,-175.76"
         style="fill:#ffffff;fill-opacity:1;fill-rule:nonzero;stroke:none" />
  <path
         id="path367"
         d="m 753.777,3929.46 c -95.039,0 -172.355,-77.32 -172.355,-172.36 0,-95.04 77.316,-172.36 172.355,-172.36 95.039,0 172.36,77.32 172.36,172.36 0,95.04 -77.321,172.36 -172.36,172.36 z m 0,-348.12 c -96.914,0 -175.75,78.85 -175.75,175.76 0,96.92 78.836,175.76 175.75,175.76 96.914,0 175.758,-78.84 175.758,-175.76 0,-96.91 -78.844,-175.76 -175.758,-175.76"
         style="fill:#ffffff;fill-opacity:1;fill-rule:nonzero;stroke:none" />
  <path
         id="path368"
         d="m 756.207,3905.02 c -81.559,0 -147.922,-66.36 -147.922,-147.92 0,-81.56 66.363,-147.92 147.922,-147.92 81.57,0 147.93,66.36 147.93,147.92 0,81.56 -66.36,147.92 -147.93,147.92 z m 0,-299.24 c -83.434,0 -151.32,67.88 -151.32,151.32 0,83.44 67.886,151.32 151.32,151.32 83.445,0 151.328,-67.88 151.328,-151.32 0,-83.44 -67.883,-151.32 -151.328,-151.32"
         style="fill:#ffffff;fill-opacity:1;fill-rule:nonzero;stroke:none" />
  <path
         id="path369"
         d="m 648.738,3905.02 c -81.566,0 -147.918,-66.36 -147.918,-147.92 0,-81.56 66.352,-147.92 147.918,-147.92 81.559,0 147.918,66.36 147.918,147.92 0,81.56 -66.359,147.92 -147.918,147.92 z m 0,-299.24 c -83.441,0 -151.32,67.88 -151.32,151.32 0,83.44 67.879,151.32 151.32,151.32 83.434,0 151.317,-67.88 151.317,-151.32 0,-83.44 -67.883,-151.32 -151.317,-151.32"
         style="fill:#ffffff;fill-opacity:1;fill-rule:nonzero;stroke:none" />
  <path
         id="path370"
         d="m 701.57,3994.16 c -81.566,0 -147.918,-66.35 -147.918,-147.92 0,-81.56 66.352,-147.92 147.918,-147.92 81.559,0 147.918,66.36 147.918,147.92 0,81.57 -66.359,147.92 -147.918,147.92 z m 0,-299.24 c -83.441,0 -151.32,67.88 -151.32,151.32 0,83.44 67.879,151.33 151.32,151.33 83.434,0 151.317,-67.89 151.317,-151.33 0,-83.44 -67.883,-151.32 -151.317,-151.32"
         style="fill:#ffffff;fill-opacity:1;fill-rule:nonzero;stroke:none" />
  <path
         id="path371"
         d="m 354.449,3586.45 h 693.221 l -346.607,600.34 z m 710.411,-9.93 H 337.262 l 363.801,630.11 363.797,-630.11"
         style="fill:#ffffff;fill-opacity:1;fill-rule:nonzero;stroke:none" />
  <path
         id="path372"
         d="m 308.434,3562.88 h 785.246 l -392.617,680.05 z m 791.146,-3.4 H 302.543 l 1.473,2.55 397.047,687.7 398.517,-690.25"
         style="fill:#ffffff;fill-opacity:1;fill-rule:nonzero;stroke:none" />
  <path
         id="path373"
         d="m 277.152,3547.54 h 847.818 l -423.907,734.24 z m 853.708,-3.4 H 271.262 l 1.472,2.56 428.329,741.88 429.797,-744.44"
         style="fill:#ffffff;fill-opacity:1;fill-rule:nonzero;stroke:none" />
  <path
         id="path374"
         d="M 1055.42,3580 701.063,3783.83 346.703,3580 l -1.699,2.95 356.059,204.8 356.047,-204.8 -1.69,-2.95"
         style="fill:#ffffff;fill-opacity:1;fill-rule:nonzero;stroke:none" />
  <path
         id="path375"
         d="m 702.758,3785.79 h -3.395 v 410.92 h 3.395 v -410.92"
         style="fill:#ffffff;fill-opacity:1;fill-rule:nonzero;stroke:none" />
  <path
         id="path376"
         d="m 525.32,3890.18 -39.699,23.2 1.719,2.94 39.695,-23.21 -1.715,-2.93"
         style="fill:#ffffff;fill-opacity:1;fill-rule:nonzero;stroke:none" />
  <path
         id="path377"
         d="m 879.379,3890.16 -1.66,2.97 36.027,20.16 1.66,-2.97 -36.027,-20.16"
         style="fill:#ffffff;fill-opacity:1;fill-rule:nonzero;stroke:none" />
  <path
         id="path378"
         d="m 703.754,3546 h -3.395 v 34.8 h 3.395 V 3546"
         style="fill:#ffffff;fill-opacity:1;fill-rule:nonzero;stroke:none" />
</svg>