<?xml version="1.0" encoding="UTF-8" standalone="no"?>
<svg
   version="1.1"
   width="600"
   height="600"
   viewBox="195.16 1307.31 925.88 925.88"
   xmlns="http://www.w3.org/2000/svg">
  <rect x="195.16" y="1307.31" width="925.88" height="925.88" fill="#000000"/>
  <path
         id="path918"
         d="M 330.766,1580 658.102,1391.02 985.434,1580 v 377.97 L 658.102,2146.95 330.766,1957.97 Z m 327.336,-192.91 -0.852,0.49 -329.883,190.46 v 381.89 l 0.852,0.5 329.883,190.45 0.847,-0.49 329.883,-190.46 v -381.89 l -0.852,-0.5 -329.878,-190.45"
         style="fill:#ffffff;fill-opacity:1;fill-rule:nonzero;stroke:none" />
  <path
         id="path919"
         d="m 352.09,1592.31 306.012,-176.68 306.007,176.68 v 353.34 L 658.102,2122.33 352.09,1945.65 Z m 306.012,-188.13 -315.934,182.4 v 364.81 l 315.934,182.4 315.929,-182.4 v -364.81 l -315.929,-182.4"
         style="fill:#ffffff;fill-opacity:1;fill-rule:nonzero;stroke:none" />
  <path
         id="path920"
         d="m 472.961,1959.53 176.566,-176.57 v 274.88 z m 177.059,-181.87 -181.059,181.06 0.375,2.69 181.062,100.81 2.528,-1.49 v -281.87 l -2.906,-1.2"
         style="fill:#ffffff;fill-opacity:1;fill-rule:nonzero;stroke:none" />
  <path
         id="path921"
         d="m 664.504,2057.84 v -274.88 l 176.566,176.57 z m -0.5,-280.18 -2.899,1.2 v 281.87 l 2.524,1.49 181.062,-100.81 0.375,-2.69 -181.062,-181.06"
         style="fill:#ffffff;fill-opacity:1;fill-rule:nonzero;stroke:none" />
  <path
         id="path922"
         d="m 472.961,1582.51 176.566,-98.31 v 274.88 z m 177.437,-102.69 -181.062,100.81 -0.375,2.69 181.059,181.06 2.906,-1.2 v -281.87 l -2.528,-1.49"
         style="fill:#ffffff;fill-opacity:1;fill-rule:nonzero;stroke:none" />
  <path
         id="path923"
         d="M 664.504,1759.08 V 1484.2 l 176.566,98.31 z m -0.875,-279.26 -2.524,1.49 v 281.87 l 2.899,1.2 181.062,-181.06 -0.375,-2.69 -181.062,-100.81"
         style="fill:#ffffff;fill-opacity:1;fill-rule:nonzero;stroke:none" />
  <path
         id="path924"
         d="m 464.125,1946.79 -0.203,-350.03 175.109,175.11 z m -0.707,-355.33 -2.898,1.2 0.207,358.23 2.902,1.2 179.012,-179.01 v -2.41 L 463.418,1591.46"
         style="fill:#ffffff;fill-opacity:1;fill-rule:nonzero;stroke:none" />
  <path
         id="path925"
         d="m 350.141,1771.87 100.031,-172.88 -0.117,345.56 z m 100.257,-180.06 -103.687,179.22 v 1.69 l 103.57,179.02 3.172,-0.85 0.121,-358.23 -3.176,-0.85"
         style="fill:#ffffff;fill-opacity:1;fill-rule:nonzero;stroke:none" />
  <path
         id="path926"
         d="m 865.02,1944.55 -0.118,-345.56 100.032,172.88 z m -0.352,-352.74 -3.168,0.85 0.121,358.23 3.168,0.85 103.574,-179.02 v -1.69 L 864.668,1591.81"
         style="fill:#ffffff;fill-opacity:1;fill-rule:nonzero;stroke:none" />
  <path
         id="path927"
         d="m 676.586,1771.87 175.113,-175.11 -0.211,350.03 z M 852.203,1591.46 672.98,1770.67 v 2.41 l 179.008,179.01 2.899,-1.2 0.215,-358.23 -2.899,-1.2"
         style="fill:#ffffff;fill-opacity:1;fill-rule:nonzero;stroke:none" />
  <path
         id="path928"
         d="m 348.828,1946.83 v -147.77 l 86.156,147.77 z m -0.23,-154.92 -3.168,0.85 v 155.77 l 1.699,1.69 h 90.816 l 1.469,-2.55 -90.816,-155.76"
         style="fill:#ffffff;fill-opacity:1;fill-rule:nonzero;stroke:none" />
  <path
         id="path929"
         d="m 881.215,1946.83 86.156,-147.77 v 147.77 z m 86.387,-154.92 -90.817,155.76 1.473,2.55 h 90.812 l 1.696,-1.69 v -155.77 l -3.164,-0.85"
         style="fill:#ffffff;fill-opacity:1;fill-rule:nonzero;stroke:none" />
  <path
         id="path930"
         d="m 348.828,1591.31 h 86.156 l -86.156,147.76 z m 89.117,-3.4 h -90.816 l -1.699,1.7 v 155.76 l 3.168,0.85 90.816,-155.75 -1.469,-2.56"
         style="fill:#ffffff;fill-opacity:1;fill-rule:nonzero;stroke:none" />
  <path
         id="path931"
         d="m 881.215,1591.31 h 86.156 v 147.76 z m 87.855,-3.4 h -90.812 l -1.473,2.56 90.817,155.75 3.164,-0.85 v -155.76 l -1.696,-1.7"
         style="fill:#ffffff;fill-opacity:1;fill-rule:nonzero;stroke:none" />
  <path
         id="path932"
         d="m 652.926,1411.18 h -3.399 v 53.47 l -198.101,112.7 h -86.309 v 3.4 h 86.758 l 0.84,-0.21 199.348,-113.42 0.863,-1.49 v -54.45"
         style="fill:#ffffff;fill-opacity:1;fill-rule:nonzero;stroke:none" />
  <path
         id="path933"
         d="m 664.504,1411.18 h -3.399 v 54.45 l 0.86,1.49 199.344,113.42 0.843,0.21 h 86.754 v -3.4 h -86.304 l -198.098,-112.7 v -53.47"
         style="fill:#ffffff;fill-opacity:1;fill-rule:nonzero;stroke:none" />
  <path
         id="path934"
         d="m 948.906,1958.49 h -86.754 l -0.843,0.22 -199.344,113.42 -0.86,1.48 v 54.46 h 3.399 v -53.47 l 198.098,-112.72 h 86.304 v -3.39"
         style="fill:#ffffff;fill-opacity:1;fill-rule:nonzero;stroke:none" />
  <path
         id="path935"
         d="m 451.875,1958.49 h -86.758 v 3.39 h 86.309 l 198.101,112.72 v 53.47 h 3.399 v -54.46 l -0.863,-1.48 -199.348,-113.42 -0.84,-0.22"
         style="fill:#ffffff;fill-opacity:1;fill-rule:nonzero;stroke:none" />
  <path
         id="path936"
         d="m 329.066,1957.26 h -41.972 v 3.39 h 41.972 v -3.39"
         style="fill:#ffffff;fill-opacity:1;fill-rule:nonzero;stroke:none" />
  <path
         id="path937"
         d="m 329.066,1935 h -41.972 v 3.4 h 41.972 v -3.4"
         style="fill:#ffffff;fill-opacity:1;fill-rule:nonzero;stroke:none" />
  <path
         id="path938"
         d="m 329.066,1912.74 h -41.972 v 3.4 h 41.972 v -3.4"
         style="fill:#ffffff;fill-opacity:1;fill-rule:nonzero;stroke:none" />
  <path
         id="path939"
         d="m 329.066,1890.5 h -41.972 v 3.4 h 41.972 v -3.4"
         style="fill:#ffffff;fill-opacity:1;fill-rule:nonzero;stroke:none" />
  <path
         id="path940"
         d="m 329.066,1868.24 h -41.972 v 3.4 h 41.972 v -3.4"
         style="fill:#ffffff;fill-opacity:1;fill-rule:nonzero;stroke:none" />
  <path
         id="path941"
         d="m 329.066,1846 h -41.972 v 3.39 h 41.972 V 1846"
         style="fill:#ffffff;fill-opacity:1;fill-rule:nonzero;stroke:none" />
  <path
         id="path942"
         d="m 329.066,1823.74 h -41.972 v 3.4 h 41.972 v -3.4"
         style="fill:#ffffff;fill-opacity:1;fill-rule:nonzero;stroke:none" />
  <path
         id="path943"
         d="m 329.066,1801.49 h -41.972 v 3.4 h 41.972 v -3.4"
         style="fill:#ffffff;fill-opacity:1;fill-rule:nonzero;stroke:none" />
  <path
         id="path944"
         d="m 329.066,1779.24 h -41.972 v 3.4 h 41.972 v -3.4"
         style="fill:#ffffff;fill-opacity:1;fill-rule:nonzero;stroke:none" />
  <path
         id="path945"
         d="m 329.066,1756.98 h -41.972 v 3.4 h 41.972 v -3.4"
         style="fill:#ffffff;fill-opacity:1;fill-rule:nonzero;stroke:none" />
  <path
         id="path946"
         d="m 329.066,1734.74 h -41.972 v 3.39 h 41.972 v -3.39"
         style="fill:#ffffff;fill-opacity:1;fill-rule:nonzero;stroke:none" />
  <path
         id="path947"
         d="m 329.066,1712.48 h -41.972 v 3.4 h 41.972 v -3.4"
         style="fill:#ffffff;fill-opacity:1;fill-rule:nonzero;stroke:none" />
  <path
         id="path948"
         d="m 329.066,1690.23 h -41.972 v 3.4 h 41.972 v -3.4"
         style="fill:#ffffff;fill-opacity:1;fill-rule:nonzero;stroke:none" />
  <path
         id="path949"
         d="m 329.066,1667.98 h -41.972 v 3.4 h 41.972 v -3.4"
         style="fill:#ffffff;fill-opacity:1;fill-rule:nonzero;stroke:none" />
  <path
         id="path950"
         d="m 329.066,1645.73 h -41.972 v 3.4 h 41.972 v -3.4"
         style="fill:#ffffff;fill-opacity:1;fill-rule:nonzero;stroke:none" />
  <path
         id="path951"
         d="m 329.066,1623.48 h -41.972 v 3.39 h 41.972 v -3.39"
         style="fill:#ffffff;fill-opacity:1;fill-rule:nonzero;stroke:none" />
  <path
         id="path952"
         d="m 329.066,1601.22 h -41.972 v 3.4 h 41.972 v -3.4"
         style="fill:#ffffff;fill-opacity:1;fill-rule:nonzero;stroke:none" />
  <path
         id="path953"
         d="m 329.066,1578.97 h -41.972 v 3.4 h 41.972 v -3.4"
         style="fill:#ffffff;fill-opacity:1;fill-rule:nonzero;stroke:none" />
  <path
         id="path954"
         d="m 1029.11,1957.26 h -41.977 v 3.39 h 41.977 v -3.39"
         style="fill:#ffffff;fill-opacity:1;fill-rule:nonzero;stroke:none" />
  <path
         id="path955"
         d="m 1029.11,1935 h -41.977 v 3.4 h 41.977 v -3.4"
         style="fill:#ffffff;fill-opacity:1;fill-rule:nonzero;stroke:none" />
  <path
         id="path956"
         d="m 1029.11,1912.74 h -41.977 v 3.4 h 41.977 v -3.4"
         style="fill:#ffffff;fill-opacity:1;fill-rule:nonzero;stroke:none" />
  <path
         id="path957"
         d="m 1029.11,1890.5 h -41.977 v 3.4 h 41.977 v -3.4"
         style="fill:#ffffff;fill-opacity:1;fill-rule:nonzero;stroke:none" />
  <path
         id="path958"
         d="m 1029.11,1868.24 h -41.977 v 3.4 h 41.977 v -3.4"
         style="fill:#ffffff;fill-opacity:1;fill-rule:nonzero;stroke:none" />
  <path
         id="path959"
         d="m 1029.11,1846 h -41.977 v 3.39 h 41.977 V 1846"
         style="fill:#ffffff;fill-opacity:1;fill-rule:nonzero;stroke:none" />
  <path
         id="path960"
         d="m 1029.11,1823.74 h -41.977 v 3.4 h 41.977 v -3.4"
         style="fill:#ffffff;fill-opacity:1;fill-rule:nonzero;stroke:none" />
  <path
         id="path961"
         d="m 1029.11,1801.49 h -41.977 v 3.4 h 41.977 v -3.4"
         style="fill:#ffffff;fill-opacity:1;fill-rule:nonzero;stroke:none" />
  <path
         id="path962"
         d="m 1029.11,1779.24 h -41.977 v 3.4 h 41.977 v -3.4"
         style="fill:#ffffff;fill-opacity:1;fill-rule:nonzero;stroke:none" />
  <path
         id="path963"
         d="m 1029.11,1756.98 h -41.977 v 3.4 h 41.977 v -3.4"
         style="fill:#ffffff;fill-opacity:1;fill-rule:nonzero;stroke:none" />
  <path
         id="path964"
         d="m 1029.11,1734.74 h -41.977 v 3.39 h 41.977 v -3.39"
         style="fill:#ffffff;fill-opacity:1;fill-rule:nonzero;stroke:none" />
  <path
         id="path965"
         d="m 1029.11,1712.48 h -41.977 v 3.4 h 41.977 v -3.4"
         style="fill:#ffffff;fill-opacity:1;fill-rule:nonzero;stroke:none" />
  <path
         id="path966"
         d="m 1029.11,1690.23 h -41.977 v 3.4 h 41.977 v -3.4"
         style="fill:#ffffff;fill-opacity:1;fill-rule:nonzero;stroke:none" />
  <path
         id="path967"
         d="m 1029.11,1667.98 h -41.977 v 3.4 h 41.977 v -3.4"
         style="fill:#ffffff;fill-opacity:1;fill-rule:nonzero;stroke:none" />
  <path
         id="path968"
         d="m 1029.11,1645.73 h -41.977 v 3.4 h 41.977 v -3.4"
         style="fill:#ffffff;fill-opacity:1;fill-rule:nonzero;stroke:none" />
  <path
         id="path969"
         d="m 1029.11,1623.48 h -41.977 v 3.39 h 41.977 v -3.39"
         style="fill:#ffffff;fill-opacity:1;fill-rule:nonzero;stroke:none" />
  <path
         id="path970"
         d="m 1029.11,1601.22 h -41.977 v 3.4 h 41.977 v -3.4"
         style="fill:#ffffff;fill-opacity:1;fill-rule:nonzero;stroke:none" />
  <path
         id="path971"
         d="m 1029.11,1578.97 h -41.977 v 3.4 h 41.977 v -3.4"
         style="fill:#ffffff;fill-opacity:1;fill-rule:nonzero;stroke:none" />
  <path
         id="path972"
         d="m 659.801,2148.92 h -3.399 v 42.19 h 3.399 v -42.19"
         style="fill:#ffffff;fill-opacity:1;fill-rule:nonzero;stroke:none" />
  <path
         id="path973"
         d="m 659.801,1349.4 h -3.399 v 42.19 h 3.399 v -42.19"
         style="fill:#ffffff;fill-opacity:1;fill-rule:nonzero;stroke:none" />
  <path
         id="path974"
         d="m 486.754,2074.53 c 0,-4.59 -3.719,-8.3 -8.297,-8.3 -4.586,0 -8.297,3.71 -8.297,8.3 0,4.58 3.711,8.29 8.297,8.29 4.578,0 8.297,-3.71 8.297,-8.29"
         style="fill:#ffffff;fill-opacity:1;fill-rule:nonzero;stroke:none" />
  <path
         id="path975"
         d="m 843.867,2074.53 c 0,-4.59 -3.715,-8.3 -8.301,-8.3 -4.582,0 -8.296,3.71 -8.296,8.3 0,4.58 3.714,8.29 8.296,8.29 4.586,0 8.301,-3.71 8.301,-8.29"
         style="fill:#ffffff;fill-opacity:1;fill-rule:nonzero;stroke:none" />
  <path
         id="path976"
         d="m 486.754,1470.17 c 0,-4.58 -3.719,-8.3 -8.297,-8.3 -4.586,0 -8.297,3.72 -8.297,8.3 0,4.58 3.711,8.29 8.297,8.29 4.578,0 8.297,-3.71 8.297,-8.29"
         style="fill:#ffffff;fill-opacity:1;fill-rule:nonzero;stroke:none" />
  <path
         id="path977"
         d="m 843.867,1470.17 c 0,-4.58 -3.715,-8.3 -8.301,-8.3 -4.582,0 -8.296,3.72 -8.296,8.3 0,4.58 3.714,8.29 8.296,8.29 4.586,0 8.301,-3.71 8.301,-8.29"
         style="fill:#ffffff;fill-opacity:1;fill-rule:nonzero;stroke:none" />
  <path
         id="path978"
         d="m 583.84,2010.6 c -36.219,0 -65.688,-29.47 -65.688,-65.69 0,-36.22 29.469,-65.68 65.688,-65.68 36.219,0 65.687,29.46 65.687,65.68 0,36.22 -29.468,65.69 -65.687,65.69 z m 0,-134.77 c -38.094,0 -69.082,30.99 -69.082,69.08 0,38.1 30.988,69.08 69.082,69.08 38.094,0 69.086,-30.98 69.086,-69.08 0,-38.09 -30.992,-69.08 -69.086,-69.08"
         style="fill:#ffffff;fill-opacity:1;fill-rule:nonzero;stroke:none" />
  <path
         id="path979"
         d="m 730.188,2010.6 c -36.219,0 -65.684,-29.47 -65.684,-65.69 0,-36.22 29.465,-65.68 65.684,-65.68 36.218,0 65.687,29.46 65.687,65.68 0,36.22 -29.469,65.69 -65.687,65.69 z m 0,-134.77 c -38.094,0 -69.083,30.99 -69.083,69.08 0,38.1 30.989,69.08 69.083,69.08 38.093,0 69.082,-30.98 69.082,-69.08 0,-38.09 -30.989,-69.08 -69.082,-69.08"
         style="fill:#ffffff;fill-opacity:1;fill-rule:nonzero;stroke:none" />
  <path
         id="path980"
         d="m 583.84,1662.7 c -36.219,0 -65.688,-29.48 -65.688,-65.7 0,-36.21 29.469,-65.68 65.688,-65.68 36.219,0 65.687,29.47 65.687,65.68 0,36.22 -29.468,65.7 -65.687,65.7 z m 0,-134.78 c -38.094,0 -69.082,31 -69.082,69.08 0,38.1 30.988,69.09 69.082,69.09 38.094,0 69.086,-30.99 69.086,-69.09 0,-38.08 -30.992,-69.08 -69.086,-69.08"
         style="fill:#ffffff;fill-opacity:1;fill-rule:nonzero;stroke:none" />
  <path
         id="path981"
         d="m 535.602,1843.44 c -39.528,0 -71.684,-32.17 -71.684,-71.69 0,-39.53 32.156,-71.69 71.684,-71.69 39.527,0 71.687,32.16 71.687,71.69 0,39.52 -32.16,71.69 -71.687,71.69 z m 0,-146.78 c -41.403,0 -75.082,33.68 -75.082,75.09 0,41.4 33.679,75.09 75.082,75.09 41.406,0 75.082,-33.69 75.082,-75.09 0,-41.41 -33.676,-75.09 -75.082,-75.09"
         style="fill:#ffffff;fill-opacity:1;fill-rule:nonzero;stroke:none" />
  <path
         id="path982"
         d="m 780.016,1843.44 c -39.528,0 -71.688,-32.17 -71.688,-71.69 0,-39.53 32.16,-71.69 71.688,-71.69 39.527,0 71.687,32.16 71.687,71.69 0,39.52 -32.16,71.69 -71.687,71.69 z m 0,-146.78 c -41.403,0 -75.082,33.68 -75.082,75.09 0,41.4 33.679,75.09 75.082,75.09 41.406,0 75.086,-33.69 75.086,-75.09 0,-41.41 -33.68,-75.09 -75.086,-75.09"
         style="fill:#ffffff;fill-opacity:1;fill-rule:nonzero;stroke:none" />
  <path
         id="path983"
         d="m 730.188,1662.7 c -36.219,0 -65.684,-29.48 -65.684,-65.7 0,-36.21 29.465,-65.68 65.684,-65.68 36.218,0 65.687,29.47 65.687,65.68 0,36.22 -29.469,65.7 -65.687,65.7 z m 0,-134.78 c -38.094,0 -69.083,31 -69.083,69.08 0,38.1 30.989,69.09 69.083,69.09 38.093,0 69.082,-30.99 69.082,-69.09 0,-38.08 -30.989,-69.08 -69.082,-69.08"
         style="fill:#ffffff;fill-opacity:1;fill-rule:nonzero;stroke:none" />
  <path
         id="path984"
         d="m 658.102,1956.74 c -103.532,0 -187.754,-84.23 -187.754,-187.76 0,-103.53 84.222,-187.75 187.754,-187.75 103.531,0 187.75,84.22 187.75,187.75 0,103.53 -84.219,187.76 -187.75,187.76 z m 0,-385.43 c -109,0 -197.676,88.67 -197.676,197.67 0,109 88.676,197.68 197.676,197.68 109,0 197.675,-88.68 197.675,-197.68 0,-109 -88.675,-197.67 -197.675,-197.67"
         style="fill:#ffffff;fill-opacity:1;fill-rule:nonzero;stroke:none" />
</svg>