<?xml version="1.0" encoding="UTF-8" standalone="no"?>
<svg
   version="1.1"
   width="600"
   height="600"
   viewBox="2394.45 3481.85 795.42 795.42"
   xmlns="http://www.w3.org/2000/svg">
  <rect x="2394.45" y="3481.85" width="795.42" height="795.42" fill="#000000"/>
  <path
         id="path3"
         d="m 2506.36,3593.77 h 571.6 v 571.6 h -571.6 z m 575,-3.4 h -578.4 v 578.4 h 578.4 v -578.4"
         style="fill:#ffffff;fill-opacity:1;fill-rule:nonzero;stroke:none" />
  <path
         id="path4"
         d="m 3048.41,3621.62 h -0.71 c -0.94,0 -1.7,0.76 -1.7,1.7 0,0.65 0.37,1.21 0.9,1.5 0.29,0.54 0.85,0.9 1.51,0.9 0.94,0 1.7,-0.76 1.7,-1.7 v -0.7 l -1.7,-1.7"
         style="fill:#ffffff;fill-opacity:1;fill-rule:nonzero;stroke:none" />
  <path
         id="path5"
         d="m 2546.47,3621.62 h -1.41 c -0.94,0 -1.7,0.76 -1.7,1.7 0,0.93 0.76,1.7 1.7,1.7 h 1.41 c 0.94,0 1.7,-0.77 1.7,-1.7 0,-0.94 -0.76,-1.7 -1.7,-1.7 z m 9.86,0 h -1.41 c -0.94,0 -1.7,0.76 -1.7,1.7 0,0.93 0.76,1.7 1.7,1.7 h 1.41 c 0.94,0 1.7,-0.77 1.7,-1.7 0,-0.94 -0.76,-1.7 -1.7,-1.7 z m 9.85,0 h -1.4 c -0.94,0 -1.7,0.76 -1.7,1.7 0,0.93 0.76,1.7 1.7,1.7 h 1.4 c 0.94,0 1.7,-0.77 1.7,-1.7 0,-0.94 -0.76,-1.7 -1.7,-1.7 z m 9.86,0 h -1.41 c -0.94,0 -1.7,0.76 -1.7,1.7 0,0.93 0.76,1.7 1.7,1.7 h 1.41 c 0.93,0 1.69,-0.77 1.69,-1.7 0,-0.94 -0.76,-1.7 -1.69,-1.7 z m 9.85,0 h -1.41 c -0.94,0 -1.7,0.76 -1.7,1.7 0,0.93 0.76,1.7 1.7,1.7 h 1.41 c 0.94,0 1.7,-0.77 1.7,-1.7 0,-0.94 -0.76,-1.7 -1.7,-1.7 z m 9.86,0 h -1.4 c -0.94,0 -1.7,0.76 -1.7,1.7 0,0.93 0.76,1.7 1.7,1.7 h 1.4 c 0.94,0 1.7,-0.77 1.7,-1.7 0,-0.94 -0.76,-1.7 -1.7,-1.7 z m 9.86,0 h -1.41 c -0.94,0 -1.7,0.76 -1.7,1.7 0,0.93 0.76,1.7 1.7,1.7 h 1.41 c 0.93,0 1.69,-0.77 1.69,-1.7 0,-0.94 -0.76,-1.7 -1.69,-1.7 z m 9.85,0 h -1.41 c -0.93,0 -1.7,0.76 -1.7,1.7 0,0.93 0.77,1.7 1.7,1.7 h 1.41 c 0.94,0 1.7,-0.77 1.7,-1.7 0,-0.94 -0.76,-1.7 -1.7,-1.7 z m 9.85,0 h -1.4 c -0.94,0 -1.7,0.76 -1.7,1.7 0,0.93 0.76,1.7 1.7,1.7 h 1.4 c 0.94,0 1.7,-0.77 1.7,-1.7 0,-0.94 -0.76,-1.7 -1.7,-1.7 z m 9.87,0 h -1.42 c -0.94,0 -1.7,0.76 -1.7,1.7 0,0.93 0.76,1.7 1.7,1.7 h 1.42 c 0.93,0 1.7,-0.77 1.7,-1.7 0,-0.94 -0.77,-1.7 -1.7,-1.7 z m 9.85,0 h -1.41 c -0.93,0 -1.7,0.76 -1.7,1.7 0,0.93 0.77,1.7 1.7,1.7 h 1.41 c 0.94,0 1.7,-0.77 1.7,-1.7 0,-0.94 -0.76,-1.7 -1.7,-1.7 z m 9.85,0 h -1.4 c -0.94,0 -1.7,0.76 -1.7,1.7 0,0.93 0.76,1.7 1.7,1.7 h 1.4 c 0.94,0 1.7,-0.77 1.7,-1.7 0,-0.94 -0.76,-1.7 -1.7,-1.7 z m 9.86,0 h -1.41 c -0.94,0 -1.7,0.76 -1.7,1.7 0,0.93 0.76,1.7 1.7,1.7 h 1.41 c 0.93,0 1.7,-0.77 1.7,-1.7 0,-0.94 -0.77,-1.7 -1.7,-1.7 z m 9.85,0 h -1.41 c -0.93,0 -1.7,0.76 -1.7,1.7 0,0.93 0.77,1.7 1.7,1.7 h 1.41 c 0.94,0 1.7,-0.77 1.7,-1.7 0,-0.94 -0.76,-1.7 -1.7,-1.7 z m 9.86,0 h -1.41 c -0.94,0 -1.7,0.76 -1.7,1.7 0,0.93 0.76,1.7 1.7,1.7 h 1.41 c 0.94,0 1.7,-0.77 1.7,-1.7 0,-0.94 -0.76,-1.7 -1.7,-1.7 z m 9.86,0 h -1.41 c -0.94,0 -1.7,0.76 -1.7,1.7 0,0.93 0.76,1.7 1.7,1.7 h 1.41 c 0.93,0 1.7,-0.77 1.7,-1.7 0,-0.94 -0.77,-1.7 -1.7,-1.7 z m 9.85,0 h -1.41 c -0.93,0 -1.7,0.76 -1.7,1.7 0,0.93 0.77,1.7 1.7,1.7 h 1.41 c 0.94,0 1.7,-0.77 1.7,-1.7 0,-0.94 -0.76,-1.7 -1.7,-1.7 z m 9.85,0 h -1.4 c -0.94,0 -1.7,0.76 -1.7,1.7 0,0.93 0.76,1.7 1.7,1.7 h 1.4 c 0.94,0 1.7,-0.77 1.7,-1.7 0,-0.94 -0.76,-1.7 -1.7,-1.7 z m 9.86,0 h -1.41 c -0.94,0 -1.7,0.76 -1.7,1.7 0,0.93 0.76,1.7 1.7,1.7 h 1.41 c 0.93,0 1.7,-0.77 1.7,-1.7 0,-0.94 -0.77,-1.7 -1.7,-1.7 z m 9.86,0 h -1.42 c -0.93,0 -1.69,0.76 -1.69,1.7 0,0.93 0.76,1.7 1.69,1.7 h 1.42 c 0.94,0 1.7,-0.77 1.7,-1.7 0,-0.94 -0.76,-1.7 -1.7,-1.7 z m 9.85,0 h -1.4 c -0.94,0 -1.7,0.76 -1.7,1.7 0,0.93 0.76,1.7 1.7,1.7 h 1.4 c 0.94,0 1.7,-0.77 1.7,-1.7 0,-0.94 -0.76,-1.7 -1.7,-1.7 z m 9.86,0 h -1.41 c -0.94,0 -1.7,0.76 -1.7,1.7 0,0.93 0.76,1.7 1.7,1.7 h 1.41 c 0.94,0 1.7,-0.77 1.7,-1.7 0,-0.94 -0.76,-1.7 -1.7,-1.7 z m 9.85,0 h -1.41 c -0.93,0 -1.69,0.76 -1.69,1.7 0,0.93 0.76,1.7 1.69,1.7 h 1.41 c 0.94,0 1.7,-0.77 1.7,-1.7 0,-0.94 -0.76,-1.7 -1.7,-1.7 z m 9.86,0 h -1.41 c -0.94,0 -1.7,0.76 -1.7,1.7 0,0.93 0.76,1.7 1.7,1.7 h 1.41 c 0.94,0 1.7,-0.77 1.7,-1.7 0,-0.94 -0.76,-1.7 -1.7,-1.7 z m 9.86,0 h -1.41 c -0.94,0 -1.7,0.76 -1.7,1.7 0,0.93 0.76,1.7 1.7,1.7 h 1.41 c 0.94,0 1.7,-0.77 1.7,-1.7 0,-0.94 -0.76,-1.7 -1.7,-1.7 z m 9.85,0 h -1.4 c -0.94,0 -1.7,0.76 -1.7,1.7 0,0.93 0.76,1.7 1.7,1.7 h 1.4 c 0.94,0 1.7,-0.77 1.7,-1.7 0,-0.94 -0.76,-1.7 -1.7,-1.7 z m 9.85,0 h -1.4 c -0.94,0 -1.7,0.76 -1.7,1.7 0,0.93 0.76,1.7 1.7,1.7 h 1.4 c 0.94,0 1.7,-0.77 1.7,-1.7 0,-0.94 -0.76,-1.7 -1.7,-1.7 z m 9.86,0 h -1.41 c -0.94,0 -1.7,0.76 -1.7,1.7 0,0.93 0.76,1.7 1.7,1.7 h 1.41 c 0.94,0 1.7,-0.77 1.7,-1.7 0,-0.94 -0.76,-1.7 -1.7,-1.7 z m 9.86,0 h -1.41 c -0.94,0 -1.7,0.76 -1.7,1.7 0,0.93 0.76,1.7 1.7,1.7 h 1.41 c 0.94,0 1.7,-0.77 1.7,-1.7 0,-0.94 -0.76,-1.7 -1.7,-1.7 z m 9.86,0 h -1.41 c -0.94,0 -1.7,0.76 -1.7,1.7 0,0.93 0.76,1.7 1.7,1.7 h 1.41 c 0.93,0 1.69,-0.77 1.69,-1.7 0,-0.94 -0.76,-1.7 -1.69,-1.7 z m 9.85,0 h -1.41 c -0.94,0 -1.7,0.76 -1.7,1.7 0,0.93 0.76,1.7 1.7,1.7 h 1.41 c 0.94,0 1.7,-0.77 1.7,-1.7 0,-0.94 -0.76,-1.7 -1.7,-1.7 z m 9.85,0 h -1.4 c -0.94,0 -1.7,0.76 -1.7,1.7 0,0.93 0.76,1.7 1.7,1.7 h 1.4 c 0.94,0 1.7,-0.77 1.7,-1.7 0,-0.94 -0.76,-1.7 -1.7,-1.7 z m 9.86,0 h -1.41 c -0.94,0 -1.7,0.76 -1.7,1.7 0,0.93 0.76,1.7 1.7,1.7 h 1.41 c 0.93,0 1.69,-0.77 1.69,-1.7 0,-0.94 -0.76,-1.7 -1.69,-1.7 z m 9.86,0 h -1.42 c -0.93,0 -1.7,0.76 -1.7,1.7 0,0.93 0.77,1.7 1.7,1.7 h 1.42 c 0.94,0 1.7,-0.77 1.7,-1.7 0,-0.94 -0.76,-1.7 -1.7,-1.7 z m 9.85,0 h -1.4 c -0.94,0 -1.7,0.76 -1.7,1.7 0,0.93 0.76,1.7 1.7,1.7 h 1.4 c 0.94,0 1.7,-0.77 1.7,-1.7 0,-0.94 -0.76,-1.7 -1.7,-1.7 z m 9.86,0 h -1.41 c -0.94,0 -1.7,0.76 -1.7,1.7 0,0.93 0.76,1.7 1.7,1.7 h 1.41 c 0.93,0 1.7,-0.77 1.7,-1.7 0,-0.94 -0.77,-1.7 -1.7,-1.7 z m 9.85,0 h -1.41 c -0.93,0 -1.7,0.76 -1.7,1.7 0,0.93 0.77,1.7 1.7,1.7 h 1.41 c 0.94,0 1.7,-0.77 1.7,-1.7 0,-0.94 -0.76,-1.7 -1.7,-1.7 z m 9.85,0 h -1.4 c -0.94,0 -1.7,0.76 -1.7,1.7 0,0.93 0.76,1.7 1.7,1.7 h 1.4 c 0.94,0 1.7,-0.77 1.7,-1.7 0,-0.94 -0.76,-1.7 -1.7,-1.7 z m 9.87,0 h -1.41 c -0.94,0 -1.7,0.76 -1.7,1.7 0,0.93 0.76,1.7 1.7,1.7 h 1.41 c 0.93,0 1.7,-0.77 1.7,-1.7 0,-0.94 -0.77,-1.7 -1.7,-1.7 z m 9.85,0 h -1.41 c -0.93,0 -1.7,0.76 -1.7,1.7 0,0.93 0.77,1.7 1.7,1.7 h 1.41 c 0.94,0 1.7,-0.77 1.7,-1.7 0,-0.94 -0.76,-1.7 -1.7,-1.7 z m 9.85,0 h -1.4 c -0.94,0 -1.7,0.76 -1.7,1.7 0,0.93 0.76,1.7 1.7,1.7 h 1.4 c 0.94,0 1.7,-0.77 1.7,-1.7 0,-0.94 -0.76,-1.7 -1.7,-1.7 z m 9.86,0 h -1.41 c -0.94,0 -1.7,0.76 -1.7,1.7 0,0.93 0.76,1.7 1.7,1.7 h 1.41 c 0.93,0 1.7,-0.77 1.7,-1.7 0,-0.94 -0.77,-1.7 -1.7,-1.7 z m 9.86,0 h -1.42 c -0.93,0 -1.7,0.76 -1.7,1.7 0,0.93 0.77,1.7 1.7,1.7 h 1.42 c 0.94,0 1.7,-0.77 1.7,-1.7 0,-0.94 -0.76,-1.7 -1.7,-1.7 z m 9.85,0 h -1.4 c -0.94,0 -1.7,0.76 -1.7,1.7 0,0.93 0.76,1.7 1.7,1.7 h 1.4 c 0.94,0 1.7,-0.77 1.7,-1.7 0,-0.94 -0.76,-1.7 -1.7,-1.7 z m 9.86,0 h -1.41 c -0.94,0 -1.7,0.76 -1.7,1.7 0,0.93 0.76,1.7 1.7,1.7 h 1.41 c 0.93,0 1.7,-0.77 1.7,-1.7 0,-0.94 -0.77,-1.7 -1.7,-1.7 z m 9.85,0 h -1.41 c -0.93,0 -1.69,0.76 -1.69,1.7 0,0.93 0.76,1.7 1.69,1.7 h 1.41 c 0.94,0 1.7,-0.77 1.7,-1.7 0,-0.94 -0.76,-1.7 -1.7,-1.7 z m 9.85,0 h -1.4 c -0.94,0 -1.7,0.76 -1.7,1.7 0,0.93 0.76,1.7 1.7,1.7 h 1.4 c 0.94,0 1.7,-0.77 1.7,-1.7 0,-0.94 -0.76,-1.7 -1.7,-1.7 z m 9.87,0 h -1.42 c -0.94,0 -1.7,0.76 -1.7,1.7 0,0.93 0.76,1.7 1.7,1.7 h 1.42 c 0.94,0 1.7,-0.77 1.7,-1.7 0,-0.94 -0.76,-1.7 -1.7,-1.7 z m 9.85,0 h -1.41 c -0.93,0 -1.69,0.76 -1.69,1.7 0,0.93 0.76,1.7 1.69,1.7 h 1.41 c 0.94,0 1.7,-0.77 1.7,-1.7 0,-0.94 -0.76,-1.7 -1.7,-1.7 z m 9.85,0 h -1.4 c -0.94,0 -1.7,0.76 -1.7,1.7 0,0.93 0.76,1.7 1.7,1.7 h 1.4 c 0.94,0 1.7,-0.77 1.7,-1.7 0,-0.94 -0.76,-1.7 -1.7,-1.7 z m 9.86,0 h -1.41 c -0.94,0 -1.7,0.76 -1.7,1.7 0,0.93 0.76,1.7 1.7,1.7 h 1.41 c 0.94,0 1.7,-0.77 1.7,-1.7 0,-0.94 -0.76,-1.7 -1.7,-1.7"
         style="fill:#ffffff;fill-opacity:1;fill-rule:nonzero;stroke:none" />
  <path
         id="path6"
         d="m 2536.61,3621.62 h -0.7 l -1.7,1.7 v 0.7 c 0,0.94 0.76,1.7 1.7,1.7 0.65,0 1.21,-0.36 1.5,-0.9 0.54,-0.29 0.9,-0.85 0.9,-1.5 0,-0.94 -0.76,-1.7 -1.7,-1.7"
         style="fill:#ffffff;fill-opacity:1;fill-rule:nonzero;stroke:none" />
  <path
         id="path7"
         d="m 2535.91,4123.55 c -0.94,0 -1.7,0.76 -1.7,1.7 v 1.41 c 0,0.94 0.76,1.7 1.7,1.7 0.94,0 1.7,-0.76 1.7,-1.7 v -1.41 c 0,-0.94 -0.76,-1.7 -1.7,-1.7 z m 0,-9.85 c -0.94,0 -1.7,0.76 -1.7,1.69 v 1.41 c 0,0.94 0.76,1.7 1.7,1.7 0.94,0 1.7,-0.76 1.7,-1.7 v -1.41 c 0,-0.93 -0.76,-1.69 -1.7,-1.69 z m 0,-9.86 c -0.94,0 -1.7,0.76 -1.7,1.7 v 1.41 c 0,0.94 0.76,1.7 1.7,1.7 0.94,0 1.7,-0.76 1.7,-1.7 v -1.41 c 0,-0.94 -0.76,-1.7 -1.7,-1.7 z m 0,-9.86 c -0.94,0 -1.7,0.77 -1.7,1.7 v 1.41 c 0,0.94 0.76,1.7 1.7,1.7 0.94,0 1.7,-0.76 1.7,-1.7 v -1.41 c 0,-0.93 -0.76,-1.7 -1.7,-1.7 z m 0,-9.85 c -0.94,0 -1.7,0.76 -1.7,1.7 v 1.4 c 0,0.95 0.76,1.71 1.7,1.71 0.94,0 1.7,-0.76 1.7,-1.71 v -1.4 c 0,-0.94 -0.76,-1.7 -1.7,-1.7 z m 0,-9.86 c -0.94,0 -1.7,0.77 -1.7,1.7 v 1.41 c 0,0.94 0.76,1.7 1.7,1.7 0.94,0 1.7,-0.76 1.7,-1.7 v -1.41 c 0,-0.93 -0.76,-1.7 -1.7,-1.7 z m 0,-9.85 c -0.94,0 -1.7,0.76 -1.7,1.7 v 1.4 c 0,0.94 0.76,1.7 1.7,1.7 0.94,0 1.7,-0.76 1.7,-1.7 v -1.4 c 0,-0.94 -0.76,-1.7 -1.7,-1.7 z m 0,-9.86 c -0.94,0 -1.7,0.76 -1.7,1.7 v 1.41 c 0,0.94 0.76,1.7 1.7,1.7 0.94,0 1.7,-0.76 1.7,-1.7 v -1.41 c 0,-0.94 -0.76,-1.7 -1.7,-1.7 z m 0,-9.85 c -0.94,0 -1.7,0.76 -1.7,1.7 v 1.4 c 0,0.94 0.76,1.7 1.7,1.7 0.94,0 1.7,-0.76 1.7,-1.7 v -1.4 c 0,-0.94 -0.76,-1.7 -1.7,-1.7 z m 0,-9.86 c -0.94,0 -1.7,0.76 -1.7,1.7 v 1.41 c 0,0.93 0.76,1.7 1.7,1.7 0.94,0 1.7,-0.77 1.7,-1.7 v -1.41 c 0,-0.94 -0.76,-1.7 -1.7,-1.7 z m 0,-9.85 c -0.94,0 -1.7,0.76 -1.7,1.7 v 1.4 c 0,0.94 0.76,1.7 1.7,1.7 0.94,0 1.7,-0.76 1.7,-1.7 v -1.4 c 0,-0.94 -0.76,-1.7 -1.7,-1.7 z m 0,-9.86 c -0.94,0 -1.7,0.76 -1.7,1.7 v 1.41 c 0,0.93 0.76,1.7 1.7,1.7 0.94,0 1.7,-0.77 1.7,-1.7 v -1.41 c 0,-0.94 -0.76,-1.7 -1.7,-1.7 z m 0,-9.86 c -0.94,0 -1.7,0.77 -1.7,1.7 v 1.41 c 0,0.94 0.76,1.7 1.7,1.7 0.94,0 1.7,-0.76 1.7,-1.7 v -1.41 c 0,-0.93 -0.76,-1.7 -1.7,-1.7 z m 0,-9.85 c -0.94,0 -1.7,0.76 -1.7,1.7 v 1.41 c 0,0.93 0.76,1.69 1.7,1.69 0.94,0 1.7,-0.76 1.7,-1.69 v -1.41 c 0,-0.94 -0.76,-1.7 -1.7,-1.7 z m 0,-9.86 c -0.94,0 -1.7,0.76 -1.7,1.7 v 1.41 c 0,0.94 0.76,1.7 1.7,1.7 0.94,0 1.7,-0.76 1.7,-1.7 v -1.41 c 0,-0.94 -0.76,-1.7 -1.7,-1.7 z m 0,-9.85 c -0.94,0 -1.7,0.76 -1.7,1.7 v 1.4 c 0,0.94 0.76,1.7 1.7,1.7 0.94,0 1.7,-0.76 1.7,-1.7 v -1.4 c 0,-0.94 -0.76,-1.7 -1.7,-1.7 z m 0,-9.86 c -0.94,0 -1.7,0.76 -1.7,1.7 v 1.41 c 0,0.94 0.76,1.7 1.7,1.7 0.94,0 1.7,-0.76 1.7,-1.7 v -1.41 c 0,-0.94 -0.76,-1.7 -1.7,-1.7 z m 0,-9.85 c -0.94,0 -1.7,0.76 -1.7,1.7 v 1.4 c 0,0.94 0.76,1.7 1.7,1.7 0.94,0 1.7,-0.76 1.7,-1.7 v -1.4 c 0,-0.94 -0.76,-1.7 -1.7,-1.7 z m 0,-9.86 c -0.94,0 -1.7,0.76 -1.7,1.7 v 1.41 c 0,0.94 0.76,1.7 1.7,1.7 0.94,0 1.7,-0.76 1.7,-1.7 v -1.41 c 0,-0.94 -0.76,-1.7 -1.7,-1.7 z m 0,-9.86 c -0.94,0 -1.7,0.76 -1.7,1.7 v 1.41 c 0,0.94 0.76,1.71 1.7,1.71 0.94,0 1.7,-0.77 1.7,-1.71 v -1.41 c 0,-0.94 -0.76,-1.7 -1.7,-1.7 z m 0,-9.85 c -0.94,0 -1.7,0.76 -1.7,1.7 v 1.41 c 0,0.93 0.76,1.7 1.7,1.7 0.94,0 1.7,-0.77 1.7,-1.7 v -1.41 c 0,-0.94 -0.76,-1.7 -1.7,-1.7 z m 0,-9.86 c -0.94,0 -1.7,0.76 -1.7,1.7 v 1.41 c 0,0.94 0.76,1.7 1.7,1.7 0.94,0 1.7,-0.76 1.7,-1.7 v -1.41 c 0,-0.94 -0.76,-1.7 -1.7,-1.7 z m 0,-9.85 c -0.94,0 -1.7,0.76 -1.7,1.7 v 1.41 c 0,0.93 0.76,1.69 1.7,1.69 0.94,0 1.7,-0.76 1.7,-1.69 v -1.41 c 0,-0.94 -0.76,-1.7 -1.7,-1.7 z m 0,-9.86 c -0.94,0 -1.7,0.76 -1.7,1.7 v 1.41 c 0,0.94 0.76,1.7 1.7,1.7 0.94,0 1.7,-0.76 1.7,-1.7 v -1.41 c 0,-0.94 -0.76,-1.7 -1.7,-1.7 z m 0,-9.85 c -0.94,0 -1.7,0.76 -1.7,1.69 v 1.41 c 0,0.94 0.76,1.7 1.7,1.7 0.94,0 1.7,-0.76 1.7,-1.7 v -1.41 c 0,-0.93 -0.76,-1.69 -1.7,-1.69 z m 0,-9.86 c -0.94,0 -1.7,0.77 -1.7,1.7 v 1.41 c 0,0.94 0.76,1.7 1.7,1.7 0.94,0 1.7,-0.76 1.7,-1.7 v -1.41 c 0,-0.93 -0.76,-1.7 -1.7,-1.7 z m 0,-9.86 c -0.94,0 -1.7,0.77 -1.7,1.7 v 1.41 c 0,0.94 0.76,1.7 1.7,1.7 0.94,0 1.7,-0.76 1.7,-1.7 V 3869 c 0,-0.93 -0.76,-1.7 -1.7,-1.7 z m 0,-9.85 c -0.94,0 -1.7,0.76 -1.7,1.7 v 1.41 c 0,0.94 0.76,1.7 1.7,1.7 0.94,0 1.7,-0.76 1.7,-1.7 v -1.41 c 0,-0.94 -0.76,-1.7 -1.7,-1.7 z m 0,-9.86 c -0.94,0 -1.7,0.77 -1.7,1.7 v 1.41 c 0,0.94 0.76,1.7 1.7,1.7 0.94,0 1.7,-0.76 1.7,-1.7 v -1.41 c 0,-0.93 -0.76,-1.7 -1.7,-1.7 z m 0,-9.85 c -0.94,0 -1.7,0.76 -1.7,1.7 v 1.4 c 0,0.94 0.76,1.7 1.7,1.7 0.94,0 1.7,-0.76 1.7,-1.7 v -1.4 c 0,-0.94 -0.76,-1.7 -1.7,-1.7 z m 0,-9.86 c -0.94,0 -1.7,0.76 -1.7,1.7 v 1.41 c 0,0.94 0.76,1.7 1.7,1.7 0.94,0 1.7,-0.76 1.7,-1.7 v -1.41 c 0,-0.94 -0.76,-1.7 -1.7,-1.7 z m 0,-9.85 c -0.94,0 -1.7,0.76 -1.7,1.7 v 1.4 c 0,0.94 0.76,1.7 1.7,1.7 0.94,0 1.7,-0.76 1.7,-1.7 v -1.4 c 0,-0.94 -0.76,-1.7 -1.7,-1.7 z m 0,-9.85 c -0.94,0 -1.7,0.76 -1.7,1.7 v 1.4 c 0,0.94 0.76,1.7 1.7,1.7 0.94,0 1.7,-0.76 1.7,-1.7 v -1.4 c 0,-0.94 -0.76,-1.7 -1.7,-1.7 z m 0,-9.86 c -0.94,0 -1.7,0.76 -1.7,1.7 v 1.41 c 0,0.93 0.76,1.7 1.7,1.7 0.94,0 1.7,-0.77 1.7,-1.7 v -1.41 c 0,-0.94 -0.76,-1.7 -1.7,-1.7 z m 0,-9.86 c -0.94,0 -1.7,0.76 -1.7,1.7 v 1.41 c 0,0.93 0.76,1.7 1.7,1.7 0.94,0 1.7,-0.77 1.7,-1.7 v -1.41 c 0,-0.94 -0.76,-1.7 -1.7,-1.7 z m 0,-9.85 c -0.94,0 -1.7,0.75 -1.7,1.69 v 1.41 c 0,0.94 0.76,1.7 1.7,1.7 0.94,0 1.7,-0.76 1.7,-1.7 v -1.41 c 0,-0.94 -0.76,-1.69 -1.7,-1.69 z m 0,-9.86 c -0.94,0 -1.7,0.76 -1.7,1.7 v 1.41 c 0,0.93 0.76,1.69 1.7,1.69 0.94,0 1.7,-0.76 1.7,-1.69 v -1.41 c 0,-0.94 -0.76,-1.7 -1.7,-1.7 z m 0,-9.86 c -0.94,0 -1.7,0.77 -1.7,1.71 v 1.4 c 0,0.94 0.76,1.7 1.7,1.7 0.94,0 1.7,-0.76 1.7,-1.7 v -1.4 c 0,-0.94 -0.76,-1.71 -1.7,-1.71 z m 0,-9.85 c -0.94,0 -1.7,0.76 -1.7,1.7 v 1.4 c 0,0.94 0.76,1.7 1.7,1.7 0.94,0 1.7,-0.76 1.7,-1.7 v -1.4 c 0,-0.94 -0.76,-1.7 -1.7,-1.7 z m 0,-9.86 c -0.94,0 -1.7,0.77 -1.7,1.7 v 1.41 c 0,0.94 0.76,1.7 1.7,1.7 0.94,0 1.7,-0.76 1.7,-1.7 v -1.41 c 0,-0.93 -0.76,-1.7 -1.7,-1.7 z m 0,-9.85 c -0.94,0 -1.7,0.76 -1.7,1.69 v 1.42 c 0,0.94 0.76,1.7 1.7,1.7 0.94,0 1.7,-0.76 1.7,-1.7 v -1.42 c 0,-0.93 -0.76,-1.69 -1.7,-1.69 z m 0,-9.86 c -0.94,0 -1.7,0.76 -1.7,1.7 v 1.41 c 0,0.94 0.76,1.7 1.7,1.7 0.94,0 1.7,-0.76 1.7,-1.7 v -1.41 c 0,-0.94 -0.76,-1.7 -1.7,-1.7 z m 0,-9.86 c -0.94,0 -1.7,0.77 -1.7,1.7 v 1.42 c 0,0.93 0.76,1.7 1.7,1.7 0.94,0 1.7,-0.77 1.7,-1.7 v -1.42 c 0,-0.93 -0.76,-1.7 -1.7,-1.7 z m 0,-9.85 c -0.94,0 -1.7,0.76 -1.7,1.7 v 1.41 c 0,0.93 0.76,1.7 1.7,1.7 0.94,0 1.7,-0.77 1.7,-1.7 v -1.41 c 0,-0.94 -0.76,-1.7 -1.7,-1.7 z m 0,-9.85 c -0.94,0 -1.7,0.76 -1.7,1.7 v 1.4 c 0,0.94 0.76,1.7 1.7,1.7 0.94,0 1.7,-0.76 1.7,-1.7 v -1.4 c 0,-0.94 -0.76,-1.7 -1.7,-1.7 z m 0,-9.86 c -0.94,0 -1.7,0.76 -1.7,1.7 v 1.4 c 0,0.94 0.76,1.71 1.7,1.71 0.94,0 1.7,-0.77 1.7,-1.71 v -1.4 c 0,-0.94 -0.76,-1.7 -1.7,-1.7 z m 0,-9.85 c -0.94,0 -1.7,0.76 -1.7,1.69 v 1.41 c 0,0.94 0.76,1.7 1.7,1.7 0.94,0 1.7,-0.76 1.7,-1.7 v -1.41 c 0,-0.93 -0.76,-1.69 -1.7,-1.69 z m 0,-9.86 c -0.94,0 -1.7,0.76 -1.7,1.7 v 1.41 c 0,0.94 0.76,1.69 1.7,1.69 0.94,0 1.7,-0.75 1.7,-1.69 v -1.41 c 0,-0.94 -0.76,-1.7 -1.7,-1.7 z m 0,-9.86 c -0.94,0 -1.7,0.77 -1.7,1.7 v 1.41 c 0,0.94 0.76,1.7 1.7,1.7 0.94,0 1.7,-0.76 1.7,-1.7 v -1.41 c 0,-0.93 -0.76,-1.7 -1.7,-1.7 z m 0,-9.85 c -0.94,0 -1.7,0.76 -1.7,1.69 v 1.41 c 0,0.94 0.76,1.7 1.7,1.7 0.94,0 1.7,-0.76 1.7,-1.7 v -1.41 c 0,-0.93 -0.76,-1.69 -1.7,-1.69 z m 0,-9.86 c -0.94,0 -1.7,0.76 -1.7,1.7 v 1.41 c 0,0.93 0.76,1.7 1.7,1.7 0.94,0 1.7,-0.77 1.7,-1.7 v -1.41 c 0,-0.94 -0.76,-1.7 -1.7,-1.7"
         style="fill:#ffffff;fill-opacity:1;fill-rule:nonzero;stroke:none" />
  <path
         id="path8"
         d="m 2535.91,4133.41 c -0.94,0 -1.7,0.76 -1.7,1.7 v 0.71 l 1.7,1.7 h 0.7 c 0.94,0 1.7,-0.77 1.7,-1.7 0,-0.66 -0.36,-1.22 -0.9,-1.51 -0.29,-0.54 -0.85,-0.9 -1.5,-0.9"
         style="fill:#ffffff;fill-opacity:1;fill-rule:nonzero;stroke:none" />
  <path
         id="path9"
         d="m 2546.47,4134.12 h -1.4 c -0.94,0 -1.7,0.76 -1.7,1.7 0,0.93 0.76,1.7 1.7,1.7 h 1.4 c 0.94,0 1.7,-0.77 1.7,-1.7 0,-0.94 -0.76,-1.7 -1.7,-1.7 z m 9.86,0 h -1.41 c -0.94,0 -1.7,0.76 -1.7,1.7 0,0.93 0.76,1.7 1.7,1.7 h 1.41 c 0.94,0 1.7,-0.77 1.7,-1.7 0,-0.94 -0.76,-1.7 -1.7,-1.7 z m 9.85,0 h -1.4 c -0.94,0 -1.7,0.76 -1.7,1.7 0,0.93 0.76,1.7 1.7,1.7 h 1.4 c 0.94,0 1.7,-0.77 1.7,-1.7 0,-0.94 -0.76,-1.7 -1.7,-1.7 z m 9.86,0 h -1.41 c -0.94,0 -1.7,0.76 -1.7,1.7 0,0.93 0.76,1.7 1.7,1.7 h 1.41 c 0.94,0 1.7,-0.77 1.7,-1.7 0,-0.94 -0.76,-1.7 -1.7,-1.7 z m 9.86,0 h -1.41 c -0.94,0 -1.7,0.76 -1.7,1.7 0,0.93 0.76,1.7 1.7,1.7 h 1.41 c 0.94,0 1.7,-0.77 1.7,-1.7 0,-0.94 -0.76,-1.7 -1.7,-1.7 z m 9.85,0 h -1.4 c -0.94,0 -1.7,0.76 -1.7,1.7 0,0.93 0.76,1.7 1.7,1.7 h 1.4 c 0.94,0 1.7,-0.77 1.7,-1.7 0,-0.94 -0.76,-1.7 -1.7,-1.7 z m 9.86,0 h -1.41 c -0.94,0 -1.7,0.76 -1.7,1.7 0,0.93 0.76,1.7 1.7,1.7 h 1.41 c 0.93,0 1.69,-0.77 1.69,-1.7 0,-0.94 -0.76,-1.7 -1.69,-1.7 z m 9.85,0 h -1.41 c -0.93,0 -1.7,0.76 -1.7,1.7 0,0.93 0.77,1.7 1.7,1.7 h 1.41 c 0.94,0 1.7,-0.77 1.7,-1.7 0,-0.94 -0.76,-1.7 -1.7,-1.7 z m 9.86,0 h -1.41 c -0.94,0 -1.7,0.76 -1.7,1.7 0,0.93 0.76,1.7 1.7,1.7 h 1.41 c 0.94,0 1.7,-0.77 1.7,-1.7 0,-0.94 -0.76,-1.7 -1.7,-1.7 z m 9.86,0 h -1.41 c -0.94,0 -1.7,0.76 -1.7,1.7 0,0.93 0.76,1.7 1.7,1.7 h 1.41 c 0.93,0 1.7,-0.77 1.7,-1.7 0,-0.94 -0.77,-1.7 -1.7,-1.7 z m 9.85,0 h -1.41 c -0.93,0 -1.7,0.76 -1.7,1.7 0,0.93 0.77,1.7 1.7,1.7 h 1.41 c 0.94,0 1.7,-0.77 1.7,-1.7 0,-0.94 -0.76,-1.7 -1.7,-1.7 z m 9.85,0 h -1.4 c -0.94,0 -1.7,0.76 -1.7,1.7 0,0.93 0.76,1.7 1.7,1.7 h 1.4 c 0.94,0 1.7,-0.77 1.7,-1.7 0,-0.94 -0.76,-1.7 -1.7,-1.7 z m 9.86,0 h -1.41 c -0.94,0 -1.7,0.76 -1.7,1.7 0,0.93 0.76,1.7 1.7,1.7 h 1.41 c 0.93,0 1.7,-0.77 1.7,-1.7 0,-0.94 -0.77,-1.7 -1.7,-1.7 z m 9.86,0 h -1.41 c -0.93,0 -1.7,0.76 -1.7,1.7 0,0.93 0.77,1.7 1.7,1.7 h 1.41 c 0.94,0 1.7,-0.77 1.7,-1.7 0,-0.94 -0.76,-1.7 -1.7,-1.7 z m 9.85,0 h -1.4 c -0.94,0 -1.7,0.76 -1.7,1.7 0,0.93 0.76,1.7 1.7,1.7 h 1.4 c 0.94,0 1.7,-0.77 1.7,-1.7 0,-0.94 -0.76,-1.7 -1.7,-1.7 z m 9.86,0 h -1.41 c -0.94,0 -1.7,0.76 -1.7,1.7 0,0.93 0.76,1.7 1.7,1.7 h 1.41 c 0.93,0 1.7,-0.77 1.7,-1.7 0,-0.94 -0.77,-1.7 -1.7,-1.7 z m 9.85,0 h -1.41 c -0.93,0 -1.7,0.76 -1.7,1.7 0,0.93 0.77,1.7 1.7,1.7 h 1.41 c 0.94,0 1.7,-0.77 1.7,-1.7 0,-0.94 -0.76,-1.7 -1.7,-1.7 z m 9.86,0 h -1.41 c -0.94,0 -1.7,0.76 -1.7,1.7 0,0.93 0.76,1.7 1.7,1.7 h 1.41 c 0.94,0 1.7,-0.77 1.7,-1.7 0,-0.94 -0.76,-1.7 -1.7,-1.7 z m 9.86,0 h -1.41 c -0.94,0 -1.7,0.76 -1.7,1.7 0,0.93 0.76,1.7 1.7,1.7 h 1.41 c 0.93,0 1.7,-0.77 1.7,-1.7 0,-0.94 -0.77,-1.7 -1.7,-1.7 z m 9.85,0 h -1.41 c -0.93,0 -1.69,0.76 -1.69,1.7 0,0.93 0.76,1.7 1.69,1.7 h 1.41 c 0.94,0 1.7,-0.77 1.7,-1.7 0,-0.94 -0.76,-1.7 -1.7,-1.7 z m 9.85,0 h -1.4 c -0.94,0 -1.7,0.76 -1.7,1.7 0,0.93 0.76,1.7 1.7,1.7 h 1.4 c 0.94,0 1.7,-0.77 1.7,-1.7 0,-0.94 -0.76,-1.7 -1.7,-1.7 z m 9.86,0 h -1.41 c -0.94,0 -1.7,0.76 -1.7,1.7 0,0.93 0.76,1.7 1.7,1.7 h 1.41 c 0.94,0 1.7,-0.77 1.7,-1.7 0,-0.94 -0.76,-1.7 -1.7,-1.7 z m 9.86,0 h -1.42 c -0.93,0 -1.69,0.76 -1.69,1.7 0,0.93 0.76,1.7 1.69,1.7 h 1.42 c 0.94,0 1.7,-0.77 1.7,-1.7 0,-0.94 -0.76,-1.7 -1.7,-1.7 z m 9.85,0 h -1.4 c -0.94,0 -1.7,0.76 -1.7,1.7 0,0.93 0.76,1.7 1.7,1.7 h 1.4 c 0.94,0 1.7,-0.77 1.7,-1.7 0,-0.94 -0.76,-1.7 -1.7,-1.7 z m 9.86,0 h -1.41 c -0.94,0 -1.7,0.76 -1.7,1.7 0,0.93 0.76,1.7 1.7,1.7 h 1.41 c 0.94,0 1.7,-0.77 1.7,-1.7 0,-0.94 -0.76,-1.7 -1.7,-1.7 z m 9.85,0 h -1.4 c -0.94,0 -1.7,0.76 -1.7,1.7 0,0.93 0.76,1.7 1.7,1.7 h 1.4 c 0.94,0 1.7,-0.77 1.7,-1.7 0,-0.94 -0.76,-1.7 -1.7,-1.7 z m 9.85,0 h -1.4 c -0.94,0 -1.7,0.76 -1.7,1.7 0,0.93 0.76,1.7 1.7,1.7 h 1.4 c 0.94,0 1.7,-0.77 1.7,-1.7 0,-0.94 -0.76,-1.7 -1.7,-1.7 z m 9.87,0 h -1.42 c -0.94,0 -1.7,0.76 -1.7,1.7 0,0.93 0.76,1.7 1.7,1.7 h 1.42 c 0.94,0 1.7,-0.77 1.7,-1.7 0,-0.94 -0.76,-1.7 -1.7,-1.7 z m 9.85,0 h -1.4 c -0.94,0 -1.7,0.76 -1.7,1.7 0,0.93 0.76,1.7 1.7,1.7 h 1.4 c 0.94,0 1.7,-0.77 1.7,-1.7 0,-0.94 -0.76,-1.7 -1.7,-1.7 z m 9.86,0 h -1.41 c -0.94,0 -1.7,0.76 -1.7,1.7 0,0.93 0.76,1.7 1.7,1.7 h 1.41 c 0.93,0 1.69,-0.77 1.69,-1.7 0,-0.94 -0.76,-1.7 -1.69,-1.7 z m 9.85,0 h -1.41 c -0.94,0 -1.7,0.76 -1.7,1.7 0,0.93 0.76,1.7 1.7,1.7 h 1.41 c 0.94,0 1.7,-0.77 1.7,-1.7 0,-0.94 -0.76,-1.7 -1.7,-1.7 z m 9.86,0 h -1.41 c -0.94,0 -1.7,0.76 -1.7,1.7 0,0.93 0.76,1.7 1.7,1.7 h 1.41 c 0.94,0 1.7,-0.77 1.7,-1.7 0,-0.94 -0.76,-1.7 -1.7,-1.7 z m 9.86,0 h -1.41 c -0.94,0 -1.7,0.76 -1.7,1.7 0,0.93 0.76,1.7 1.7,1.7 h 1.41 c 0.93,0 1.69,-0.77 1.69,-1.7 0,-0.94 -0.76,-1.7 -1.69,-1.7 z m 9.85,0 h -1.41 c -0.93,0 -1.7,0.76 -1.7,1.7 0,0.93 0.77,1.7 1.7,1.7 h 1.41 c 0.94,0 1.7,-0.77 1.7,-1.7 0,-0.94 -0.76,-1.7 -1.7,-1.7 z m 9.85,0 h -1.4 c -0.94,0 -1.7,0.76 -1.7,1.7 0,0.93 0.76,1.7 1.7,1.7 h 1.4 c 0.94,0 1.7,-0.77 1.7,-1.7 0,-0.94 -0.76,-1.7 -1.7,-1.7 z m 9.86,0 h -1.41 c -0.94,0 -1.7,0.76 -1.7,1.7 0,0.93 0.76,1.7 1.7,1.7 h 1.41 c 0.93,0 1.7,-0.77 1.7,-1.7 0,-0.94 -0.77,-1.7 -1.7,-1.7 z m 9.86,0 h -1.42 c -0.93,0 -1.7,0.76 -1.7,1.7 0,0.93 0.77,1.7 1.7,1.7 h 1.42 c 0.94,0 1.7,-0.77 1.7,-1.7 0,-0.94 -0.76,-1.7 -1.7,-1.7 z m 9.85,0 h -1.4 c -0.94,0 -1.7,0.76 -1.7,1.7 0,0.93 0.76,1.7 1.7,1.7 h 1.4 c 0.94,0 1.7,-0.77 1.7,-1.7 0,-0.94 -0.76,-1.7 -1.7,-1.7 z m 9.86,0 h -1.41 c -0.94,0 -1.7,0.76 -1.7,1.7 0,0.93 0.76,1.7 1.7,1.7 h 1.41 c 0.93,0 1.7,-0.77 1.7,-1.7 0,-0.94 -0.77,-1.7 -1.7,-1.7 z m 9.85,0 h -1.41 c -0.93,0 -1.7,0.76 -1.7,1.7 0,0.93 0.77,1.7 1.7,1.7 h 1.41 c 0.94,0 1.7,-0.77 1.7,-1.7 0,-0.94 -0.76,-1.7 -1.7,-1.7 z m 9.85,0 h -1.4 c -0.94,0 -1.7,0.76 -1.7,1.7 0,0.93 0.76,1.7 1.7,1.7 h 1.4 c 0.94,0 1.7,-0.77 1.7,-1.7 0,-0.94 -0.76,-1.7 -1.7,-1.7 z m 9.87,0 h -1.42 c -0.94,0 -1.7,0.76 -1.7,1.7 0,0.93 0.76,1.7 1.7,1.7 h 1.42 c 0.93,0 1.7,-0.77 1.7,-1.7 0,-0.94 -0.77,-1.7 -1.7,-1.7 z m 9.85,0 H 2959 c -0.93,0 -1.7,0.76 -1.7,1.7 0,0.93 0.77,1.7 1.7,1.7 h 1.41 c 0.94,0 1.7,-0.77 1.7,-1.7 0,-0.94 -0.76,-1.7 -1.7,-1.7 z m 9.85,0 h -1.4 c -0.94,0 -1.7,0.76 -1.7,1.7 0,0.93 0.76,1.7 1.7,1.7 h 1.4 c 0.94,0 1.7,-0.77 1.7,-1.7 0,-0.94 -0.76,-1.7 -1.7,-1.7 z m 9.86,0 h -1.41 c -0.94,0 -1.7,0.76 -1.7,1.7 0,0.93 0.76,1.7 1.7,1.7 h 1.41 c 0.93,0 1.7,-0.77 1.7,-1.7 0,-0.94 -0.77,-1.7 -1.7,-1.7 z m 9.85,0 h -1.41 c -0.93,0 -1.69,0.76 -1.69,1.7 0,0.93 0.76,1.7 1.69,1.7 h 1.41 c 0.94,0 1.7,-0.77 1.7,-1.7 0,-0.94 -0.76,-1.7 -1.7,-1.7 z m 9.86,0 h -1.4 c -0.94,0 -1.7,0.76 -1.7,1.7 0,0.93 0.76,1.7 1.7,1.7 h 1.4 c 0.94,0 1.7,-0.77 1.7,-1.7 0,-0.94 -0.76,-1.7 -1.7,-1.7 z m 9.86,0 h -1.41 c -0.94,0 -1.7,0.76 -1.7,1.7 0,0.93 0.76,1.7 1.7,1.7 h 1.41 c 0.94,0 1.7,-0.77 1.7,-1.7 0,-0.94 -0.76,-1.7 -1.7,-1.7 z m 9.85,0 h -1.41 c -0.93,0 -1.69,0.76 -1.69,1.7 0,0.93 0.76,1.7 1.69,1.7 h 1.41 c 0.94,0 1.7,-0.77 1.7,-1.7 0,-0.94 -0.76,-1.7 -1.7,-1.7 z m 9.85,0 h -1.4 c -0.94,0 -1.7,0.76 -1.7,1.7 0,0.93 0.76,1.7 1.7,1.7 h 1.4 c 0.94,0 1.7,-0.77 1.7,-1.7 0,-0.94 -0.76,-1.7 -1.7,-1.7 z m 9.87,0 h -1.42 c -0.94,0 -1.7,0.76 -1.7,1.7 0,0.93 0.76,1.7 1.7,1.7 h 1.42 c 0.94,0 1.7,-0.77 1.7,-1.7 0,-0.94 -0.76,-1.7 -1.7,-1.7"
         style="fill:#ffffff;fill-opacity:1;fill-rule:nonzero;stroke:none" />
  <path
         id="path10"
         d="m 3048.41,4133.41 c -0.66,0 -1.22,0.36 -1.51,0.9 -0.53,0.29 -0.9,0.85 -0.9,1.51 0,0.93 0.76,1.7 1.7,1.7 h 0.71 l 1.7,-1.7 v -0.71 c 0,-0.94 -0.76,-1.7 -1.7,-1.7"
         style="fill:#ffffff;fill-opacity:1;fill-rule:nonzero;stroke:none" />
  <path
         id="path11"
         d="m 3048.41,4123.55 c -0.94,0 -1.7,0.77 -1.7,1.7 v 1.41 c 0,0.94 0.76,1.7 1.7,1.7 0.94,0 1.7,-0.76 1.7,-1.7 v -1.41 c 0,-0.93 -0.76,-1.7 -1.7,-1.7 z m 0,-9.85 c -0.94,0 -1.7,0.76 -1.7,1.69 v 1.42 c 0,0.94 0.76,1.7 1.7,1.7 0.94,0 1.7,-0.76 1.7,-1.7 v -1.42 c 0,-0.93 -0.76,-1.69 -1.7,-1.69 z m 0,-9.86 c -0.94,0 -1.7,0.77 -1.7,1.7 v 1.41 c 0,0.94 0.76,1.7 1.7,1.7 0.94,0 1.7,-0.76 1.7,-1.7 v -1.41 c 0,-0.93 -0.76,-1.7 -1.7,-1.7 z m 0,-9.86 c -0.94,0 -1.7,0.77 -1.7,1.7 v 1.41 c 0,0.94 0.76,1.7 1.7,1.7 0.94,0 1.7,-0.76 1.7,-1.7 v -1.41 c 0,-0.93 -0.76,-1.7 -1.7,-1.7 z m 0,-9.85 c -0.94,0 -1.7,0.76 -1.7,1.7 v 1.4 c 0,0.95 0.76,1.71 1.7,1.71 0.94,0 1.7,-0.76 1.7,-1.71 v -1.4 c 0,-0.94 -0.76,-1.7 -1.7,-1.7 z m 0,-9.85 c -0.94,0 -1.7,0.76 -1.7,1.7 v 1.4 c 0,0.94 0.76,1.7 1.7,1.7 0.94,0 1.7,-0.76 1.7,-1.7 v -1.4 c 0,-0.94 -0.76,-1.7 -1.7,-1.7 z m 0,-9.86 c -0.94,0 -1.7,0.76 -1.7,1.7 v 1.4 c 0,0.94 0.76,1.7 1.7,1.7 0.94,0 1.7,-0.76 1.7,-1.7 v -1.4 c 0,-0.94 -0.76,-1.7 -1.7,-1.7 z m 0,-9.85 c -0.94,0 -1.7,0.76 -1.7,1.7 v 1.4 c 0,0.94 0.76,1.7 1.7,1.7 0.94,0 1.7,-0.76 1.7,-1.7 v -1.4 c 0,-0.94 -0.76,-1.7 -1.7,-1.7 z m 0,-9.86 c -0.94,0 -1.7,0.76 -1.7,1.7 v 1.41 c 0,0.93 0.76,1.7 1.7,1.7 0.94,0 1.7,-0.77 1.7,-1.7 v -1.41 c 0,-0.94 -0.76,-1.7 -1.7,-1.7 z m 0,-9.85 c -0.94,0 -1.7,0.75 -1.7,1.69 v 1.41 c 0,0.93 0.76,1.7 1.7,1.7 0.94,0 1.7,-0.77 1.7,-1.7 v -1.41 c 0,-0.94 -0.76,-1.69 -1.7,-1.69 z m 0,-9.86 c -0.94,0 -1.7,0.76 -1.7,1.7 v 1.41 c 0,0.93 0.76,1.69 1.7,1.69 0.94,0 1.7,-0.76 1.7,-1.69 v -1.41 c 0,-0.94 -0.76,-1.7 -1.7,-1.7 z m 0,-9.86 c -0.94,0 -1.7,0.76 -1.7,1.7 v 1.41 c 0,0.93 0.76,1.7 1.7,1.7 0.94,0 1.7,-0.77 1.7,-1.7 v -1.41 c 0,-0.94 -0.76,-1.7 -1.7,-1.7 z m 0,-9.85 c -0.94,0 -1.7,0.76 -1.7,1.7 v 1.4 c 0,0.94 0.76,1.7 1.7,1.7 0.94,0 1.7,-0.76 1.7,-1.7 v -1.4 c 0,-0.94 -0.76,-1.7 -1.7,-1.7 z m 0,-9.86 c -0.94,0 -1.7,0.76 -1.7,1.7 v 1.41 c 0,0.93 0.76,1.69 1.7,1.69 0.94,0 1.7,-0.76 1.7,-1.69 v -1.41 c 0,-0.94 -0.76,-1.7 -1.7,-1.7 z m 0,-9.86 c -0.94,0 -1.7,0.77 -1.7,1.7 v 1.41 c 0,0.94 0.76,1.7 1.7,1.7 0.94,0 1.7,-0.76 1.7,-1.7 v -1.41 c 0,-0.93 -0.76,-1.7 -1.7,-1.7 z m 0,-9.85 c -0.94,0 -1.7,0.76 -1.7,1.7 v 1.41 c 0,0.94 0.76,1.7 1.7,1.7 0.94,0 1.7,-0.76 1.7,-1.7 v -1.41 c 0,-0.94 -0.76,-1.7 -1.7,-1.7 z m 0,-9.86 c -0.94,0 -1.7,0.77 -1.7,1.7 v 1.41 c 0,0.94 0.76,1.7 1.7,1.7 0.94,0 1.7,-0.76 1.7,-1.7 v -1.41 c 0,-0.93 -0.76,-1.7 -1.7,-1.7 z m 0,-9.85 c -0.94,0 -1.7,0.76 -1.7,1.7 v 1.41 c 0,0.93 0.76,1.7 1.7,1.7 0.94,0 1.7,-0.77 1.7,-1.7 v -1.41 c 0,-0.94 -0.76,-1.7 -1.7,-1.7 z m 0,-9.86 c -0.94,0 -1.7,0.76 -1.7,1.7 v 1.41 c 0,0.94 0.76,1.7 1.7,1.7 0.94,0 1.7,-0.76 1.7,-1.7 v -1.41 c 0,-0.94 -0.76,-1.7 -1.7,-1.7 z m 0,-9.85 c -0.94,0 -1.7,0.76 -1.7,1.7 v 1.4 c 0,0.94 0.76,1.71 1.7,1.71 0.94,0 1.7,-0.77 1.7,-1.71 v -1.4 c 0,-0.94 -0.76,-1.7 -1.7,-1.7 z m 0,-9.86 c -0.94,0 -1.7,0.76 -1.7,1.7 v 1.41 c 0,0.94 0.76,1.7 1.7,1.7 0.94,0 1.7,-0.76 1.7,-1.7 v -1.41 c 0,-0.94 -0.76,-1.7 -1.7,-1.7 z m 0,-9.85 c -0.94,0 -1.7,0.76 -1.7,1.7 v 1.4 c 0,0.94 0.76,1.7 1.7,1.7 0.94,0 1.7,-0.76 1.7,-1.7 v -1.4 c 0,-0.94 -0.76,-1.7 -1.7,-1.7 z m 0,-9.86 c -0.94,0 -1.7,0.76 -1.7,1.7 v 1.41 c 0,0.94 0.76,1.7 1.7,1.7 0.94,0 1.7,-0.76 1.7,-1.7 v -1.41 c 0,-0.94 -0.76,-1.7 -1.7,-1.7 z m 0,-9.85 c -0.94,0 -1.7,0.76 -1.7,1.69 v 1.41 c 0,0.94 0.76,1.7 1.7,1.7 0.94,0 1.7,-0.76 1.7,-1.7 v -1.41 c 0,-0.93 -0.76,-1.69 -1.7,-1.69 z m 0,-9.86 c -0.94,0 -1.7,0.76 -1.7,1.69 v 1.42 c 0,0.93 0.76,1.69 1.7,1.69 0.94,0 1.7,-0.76 1.7,-1.69 v -1.42 c 0,-0.93 -0.76,-1.69 -1.7,-1.69 z m 0,-9.86 c -0.94,0 -1.7,0.77 -1.7,1.7 v 1.41 c 0,0.94 0.76,1.7 1.7,1.7 0.94,0 1.7,-0.76 1.7,-1.7 v -1.41 c 0,-0.93 -0.76,-1.7 -1.7,-1.7 z m 0,-9.85 c -0.94,0 -1.7,0.76 -1.7,1.7 v 1.4 c 0,0.94 0.76,1.7 1.7,1.7 0.94,0 1.7,-0.76 1.7,-1.7 v -1.4 c 0,-0.94 -0.76,-1.7 -1.7,-1.7 z m 0,-9.86 c -0.94,0 -1.7,0.76 -1.7,1.7 v 1.41 c 0,0.94 0.76,1.7 1.7,1.7 0.94,0 1.7,-0.76 1.7,-1.7 v -1.41 c 0,-0.94 -0.76,-1.7 -1.7,-1.7 z m 0,-9.85 c -0.94,0 -1.7,0.76 -1.7,1.7 v 1.4 c 0,0.94 0.76,1.7 1.7,1.7 0.94,0 1.7,-0.76 1.7,-1.7 v -1.4 c 0,-0.94 -0.76,-1.7 -1.7,-1.7 z m 0,-9.86 c -0.94,0 -1.7,0.76 -1.7,1.7 v 1.41 c 0,0.94 0.76,1.7 1.7,1.7 0.94,0 1.7,-0.76 1.7,-1.7 v -1.41 c 0,-0.94 -0.76,-1.7 -1.7,-1.7 z m 0,-9.85 c -0.94,0 -1.7,0.76 -1.7,1.7 v 1.4 c 0,0.94 0.76,1.7 1.7,1.7 0.94,0 1.7,-0.76 1.7,-1.7 v -1.4 c 0,-0.94 -0.76,-1.7 -1.7,-1.7 z m 0,-9.86 c -0.94,0 -1.7,0.76 -1.7,1.7 v 1.41 c 0,0.93 0.76,1.7 1.7,1.7 0.94,0 1.7,-0.77 1.7,-1.7 v -1.41 c 0,-0.94 -0.76,-1.7 -1.7,-1.7 z m 0,-9.85 c -0.94,0 -1.7,0.76 -1.7,1.7 v 1.4 c 0,0.94 0.76,1.7 1.7,1.7 0.94,0 1.7,-0.76 1.7,-1.7 v -1.4 c 0,-0.94 -0.76,-1.7 -1.7,-1.7 z m 0,-9.86 c -0.94,0 -1.7,0.76 -1.7,1.7 v 1.41 c 0,0.93 0.76,1.7 1.7,1.7 0.94,0 1.7,-0.77 1.7,-1.7 v -1.41 c 0,-0.94 -0.76,-1.7 -1.7,-1.7 z m 0,-9.86 c -0.94,0 -1.7,0.76 -1.7,1.7 v 1.41 c 0,0.94 0.76,1.7 1.7,1.7 0.94,0 1.7,-0.76 1.7,-1.7 v -1.41 c 0,-0.94 -0.76,-1.7 -1.7,-1.7 z m 0,-9.85 c -0.94,0 -1.7,0.76 -1.7,1.7 v 1.4 c 0,0.94 0.76,1.7 1.7,1.7 0.94,0 1.7,-0.76 1.7,-1.7 v -1.4 c 0,-0.94 -0.76,-1.7 -1.7,-1.7 z m 0,-9.86 c -0.94,0 -1.7,0.76 -1.7,1.7 v 1.41 c 0,0.94 0.76,1.7 1.7,1.7 0.94,0 1.7,-0.76 1.7,-1.7 v -1.41 c 0,-0.94 -0.76,-1.7 -1.7,-1.7 z m 0,-9.86 c -0.94,0 -1.7,0.77 -1.7,1.71 v 1.4 c 0,0.94 0.76,1.7 1.7,1.7 0.94,0 1.7,-0.76 1.7,-1.7 v -1.4 c 0,-0.94 -0.76,-1.71 -1.7,-1.71 z m 0,-9.85 c -0.94,0 -1.7,0.76 -1.7,1.7 v 1.41 c 0,0.94 0.76,1.7 1.7,1.7 0.94,0 1.7,-0.76 1.7,-1.7 v -1.41 c 0,-0.94 -0.76,-1.7 -1.7,-1.7 z m 0,-9.86 c -0.94,0 -1.7,0.77 -1.7,1.7 v 1.41 c 0,0.94 0.76,1.7 1.7,1.7 0.94,0 1.7,-0.76 1.7,-1.7 v -1.41 c 0,-0.93 -0.76,-1.7 -1.7,-1.7 z m 0,-9.85 c -0.94,0 -1.7,0.76 -1.7,1.7 v 1.41 c 0,0.94 0.76,1.7 1.7,1.7 0.94,0 1.7,-0.76 1.7,-1.7 v -1.41 c 0,-0.94 -0.76,-1.7 -1.7,-1.7 z m 0,-9.86 c -0.94,0 -1.7,0.76 -1.7,1.7 v 1.41 c 0,0.94 0.76,1.7 1.7,1.7 0.94,0 1.7,-0.76 1.7,-1.7 v -1.41 c 0,-0.94 -0.76,-1.7 -1.7,-1.7 z m 0,-9.85 c -0.94,0 -1.7,0.76 -1.7,1.7 v 1.41 c 0,0.93 0.76,1.7 1.7,1.7 0.94,0 1.7,-0.77 1.7,-1.7 v -1.41 c 0,-0.94 -0.76,-1.7 -1.7,-1.7 z m 0,-9.86 c -0.94,0 -1.7,0.76 -1.7,1.7 v 1.41 c 0,0.94 0.76,1.7 1.7,1.7 0.94,0 1.7,-0.76 1.7,-1.7 v -1.41 c 0,-0.94 -0.76,-1.7 -1.7,-1.7 z m 0,-9.85 c -0.94,0 -1.7,0.76 -1.7,1.7 v 1.4 c 0,0.94 0.76,1.7 1.7,1.7 0.94,0 1.7,-0.76 1.7,-1.7 v -1.4 c 0,-0.94 -0.76,-1.7 -1.7,-1.7 z m 0,-9.86 c -0.94,0 -1.7,0.77 -1.7,1.7 v 1.41 c 0,0.94 0.76,1.7 1.7,1.7 0.94,0 1.7,-0.76 1.7,-1.7 v -1.41 c 0,-0.93 -0.76,-1.7 -1.7,-1.7 z m 0,-9.85 c -0.94,0 -1.7,0.76 -1.7,1.69 v 1.41 c 0,0.94 0.76,1.7 1.7,1.7 0.94,0 1.7,-0.76 1.7,-1.7 v -1.41 c 0,-0.93 -0.76,-1.69 -1.7,-1.69 z m 0,-9.86 c -0.94,0 -1.7,0.77 -1.7,1.7 v 1.41 c 0,0.94 0.76,1.69 1.7,1.69 0.94,0 1.7,-0.75 1.7,-1.69 v -1.41 c 0,-0.93 -0.76,-1.7 -1.7,-1.7 z m 0,-9.86 c -0.94,0 -1.7,0.77 -1.7,1.7 v 1.41 c 0,0.94 0.76,1.7 1.7,1.7 0.94,0 1.7,-0.76 1.7,-1.7 v -1.41 c 0,-0.93 -0.76,-1.7 -1.7,-1.7 z m 0,-9.85 c -0.94,0 -1.7,0.76 -1.7,1.7 v 1.4 c 0,0.94 0.76,1.7 1.7,1.7 0.94,0 1.7,-0.76 1.7,-1.7 v -1.4 c 0,-0.94 -0.76,-1.7 -1.7,-1.7 z m 0,-9.86 c -0.94,0 -1.7,0.76 -1.7,1.7 v 1.41 c 0,0.94 0.76,1.7 1.7,1.7 0.94,0 1.7,-0.76 1.7,-1.7 v -1.41 c 0,-0.94 -0.76,-1.7 -1.7,-1.7"
         style="fill:#ffffff;fill-opacity:1;fill-rule:nonzero;stroke:none" />
  <path
         id="path12"
         d="m 2600.51,3687.91 h 383.3 v 383.3 h -383.3 z m 393.22,-9.92 h -403.14 v 403.15 h 403.14 v -403.15"
         style="fill:#ffffff;fill-opacity:1;fill-rule:nonzero;stroke:none" />
  <path
         id="path13"
         d="m 2791.96,3715.79 184.47,-20.49 -20.5,184.08 20.5,184.45 -184.09,-20.49 -184.45,20.49 20.49,-184.07 -20.49,-184.46 z m 188.31,-24.34 -188.31,20.96 -187.92,-20.96 20.96,188.31 -20.96,187.92 188.3,-20.96 187.93,20.96 -20.96,-188.3 20.96,-187.93"
         style="fill:#ffffff;fill-opacity:1;fill-rule:nonzero;stroke:none" />
  <path
         id="path14"
         d="m 2792.16,3747 0.39,-0.1 173.09,-40.82 -40.91,173.49 0.08,0.39 40.83,173.09 -173.48,-40.92 -0.39,0.1 -173.1,40.82 40.92,-173.48 -0.1,-0.39 -40.82,-173.1 z m 178.05,-45.49 -178.05,41.99 -178.06,-41.99 41.99,178.06 -41.99,178.05 178.06,-41.99 178.05,41.99 -41.99,-178.05 41.99,-178.06"
         style="fill:#ffffff;fill-opacity:1;fill-rule:nonzero;stroke:none" />
  <path
         id="path15"
         d="m 2629.72,4042.01 61.08,-162.44 -0.22,-0.61 -60.86,-161.83 162.44,61.08 0.59,-0.22 161.85,-60.86 -61.09,162.44 0.22,0.6 60.87,161.84 -162.44,-61.09 -0.61,0.22 z m 330.7,-330.71 -168.26,63.28 -168.26,-63.28 63.27,168.27 -63.27,168.26 168.26,-63.28 168.26,63.28 -63.28,-168.26 63.28,-168.27"
         style="fill:#ffffff;fill-opacity:1;fill-rule:nonzero;stroke:none" />
  <path
         id="path16"
         d="m 2641.38,4030.35 80.68,-150.78 -80.68,-150.78 150.78,80.68 150.78,-80.68 -80.69,150.78 80.69,150.78 -150.78,-80.69 z m 309.86,-309.87 -159.08,85.13 -159.08,-85.13 85.12,159.09 -85.12,159.08 159.08,-85.13 159.08,85.13 -85.14,-159.08 85.14,-159.09"
         style="fill:#ffffff;fill-opacity:1;fill-rule:nonzero;stroke:none" />
  <path
         id="path17"
         d="m 2792.16,3840.79 0.98,-0.72 136.13,-97.62 -98.33,137.12 0.71,0.99 97.62,136.12 -137.11,-98.34 -1,0.72 -136.11,97.62 98.33,-137.11 -0.71,-1 -97.62,-136.12 z m 151.9,-113.13 -151.9,108.94 -151.91,-108.94 108.94,151.91 -108.94,151.91 151.91,-108.94 151.9,108.94 -108.93,-151.91 108.93,-151.91"
         style="fill:#ffffff;fill-opacity:1;fill-rule:nonzero;stroke:none" />
  <path
         id="path18"
         d="m 2792.16,3917.78 c -21.08,0 -38.21,-17.14 -38.21,-38.21 0,-21.07 17.13,-38.22 38.21,-38.22 21.07,0 38.21,17.15 38.21,38.22 0,21.07 -17.14,38.21 -38.21,38.21 z m 0,-79.83 c -22.95,0 -41.61,18.67 -41.61,41.62 0,22.94 18.66,41.61 41.61,41.61 22.95,0 41.61,-18.67 41.61,-41.61 0,-22.95 -18.66,-41.62 -41.61,-41.62"
         style="fill:#ffffff;fill-opacity:1;fill-rule:nonzero;stroke:none" />
  <path
         id="path19"
         d="m 2785.1,3879.57 c 0,3.9 3.16,7.06 7.06,7.06 3.89,0 7.06,-3.16 7.06,-7.06 0,-3.9 -3.17,-7.07 -7.06,-7.07 -3.9,0 -7.06,3.17 -7.06,7.07"
         style="fill:#ffffff;fill-opacity:1;fill-rule:nonzero;stroke:none" />
  <path
         id="path20"
         d="m 3138.12,3879.57 c 0,4.3 3.49,7.79 7.8,7.79 4.3,0 7.79,-3.49 7.79,-7.79 0,-4.31 -3.49,-7.8 -7.79,-7.8 -4.31,0 -7.8,3.49 -7.8,7.8"
         style="fill:#ffffff;fill-opacity:1;fill-rule:nonzero;stroke:none" />
  <path
         id="path21"
         d="m 2430.61,3879.57 c 0,4.3 3.49,7.79 7.79,7.79 4.31,0 7.8,-3.49 7.8,-7.79 0,-4.31 -3.49,-7.8 -7.8,-7.8 -4.3,0 -7.79,3.49 -7.79,7.8"
         style="fill:#ffffff;fill-opacity:1;fill-rule:nonzero;stroke:none" />
  <path
         id="path22"
         d="m 2784.37,4233.32 c 0,4.31 3.48,7.8 7.79,7.8 4.3,0 7.79,-3.49 7.79,-7.8 0,-4.3 -3.49,-7.79 -7.79,-7.79 -4.31,0 -7.79,3.49 -7.79,7.79"
         style="fill:#ffffff;fill-opacity:1;fill-rule:nonzero;stroke:none" />
  <path
         id="path23"
         d="m 2784.37,3525.81 c 0,4.31 3.48,7.8 7.79,7.8 4.3,0 7.79,-3.49 7.79,-7.8 0,-4.31 -3.49,-7.8 -7.79,-7.8 -4.31,0 -7.79,3.49 -7.79,7.8"
         style="fill:#ffffff;fill-opacity:1;fill-rule:nonzero;stroke:none" />
  <path
         id="path24"
         d="m 3081.31,4050.16 -3.31,0.79 36.06,150.14 -150.05,-35.68 -0.79,3.31 155.44,36.96 -37.35,-155.52"
         style="fill:#ffffff;fill-opacity:1;fill-rule:nonzero;stroke:none" />
  <path
         id="path25"
         d="m 3080.86,4165.86 -2.4,2.41 36.51,36.5 2.4,-2.39 -36.51,-36.52"
         style="fill:#ffffff;fill-opacity:1;fill-rule:nonzero;stroke:none" />
  <path
         id="path26"
         d="m 2502.37,4048.3 -35.43,157.36 155.4,-36.94 -0.79,-3.31 -150.09,35.68 34.23,-152.04 -3.32,-0.75"
         style="fill:#ffffff;fill-opacity:1;fill-rule:nonzero;stroke:none" />
  <path
         id="path27"
         d="m 2504.71,4165.86 -36.51,36.52 2.41,2.39 36.5,-36.5 -2.4,-2.41"
         style="fill:#ffffff;fill-opacity:1;fill-rule:nonzero;stroke:none" />
  <path
         id="path28"
         d="m 3118.63,3550.65 -163.08,38.77 0.79,3.31 157.75,-37.5 -36.09,156.7 3.31,0.77 37.32,-162.05"
         style="fill:#ffffff;fill-opacity:1;fill-rule:nonzero;stroke:none" />
  <path
         id="path29"
         d="m 3114.97,3551.54 -36.51,36.51 2.4,2.4 36.51,-36.51 -2.4,-2.4"
         style="fill:#ffffff;fill-opacity:1;fill-rule:nonzero;stroke:none" />
  <path
         id="path30"
         d="m 2466.94,3550.65 36.49,162.04 3.32,-0.75 -35.29,-156.71 157.71,37.48 0.79,-3.31 -163.02,-38.75"
         style="fill:#ffffff;fill-opacity:1;fill-rule:nonzero;stroke:none" />
  <path
         id="path31"
         d="m 2470.61,3551.54 -2.41,2.4 36.51,36.51 2.4,-2.4 -36.5,-36.51"
         style="fill:#ffffff;fill-opacity:1;fill-rule:nonzero;stroke:none" />
  <path
         id="path32"
         d="m 2629.98,4168.77 h 324.36 c -44.5,40.56 -101.91,62.85 -162.18,62.85 -60.28,0 -117.69,-22.29 -162.18,-62.85 z m 332.97,-3.4 h -341.58 l 3.11,2.93 c 45.55,43.03 105.1,66.72 167.68,66.72 62.58,0 122.13,-23.69 167.67,-66.72 l 3.12,-2.93"
         style="fill:#ffffff;fill-opacity:1;fill-rule:nonzero;stroke:none" />
  <path
         id="path33"
         d="m 2629.98,3590.37 c 44.49,-40.57 101.9,-62.86 162.18,-62.86 60.27,0 117.68,22.29 162.18,62.86 z m 162.18,-66.26 c -62.58,0 -122.13,23.69 -167.68,66.72 l -3.11,2.94 h 341.58 l -3.12,-2.94 c -45.54,-43.03 -105.09,-66.72 -167.67,-66.72"
         style="fill:#ffffff;fill-opacity:1;fill-rule:nonzero;stroke:none" />
  <path
         id="path34"
         d="m 2671.4,3590.37 c 36.64,-21.31 78.26,-32.55 120.76,-32.55 42.5,0 84.12,11.24 120.76,32.55 z m 120.76,-35.94 c -45.18,0 -89.38,12.51 -127.8,36.18 l -5.11,3.16 h 265.82 l -5.11,-3.16 c -38.43,-23.67 -82.63,-36.18 -127.8,-36.18"
         style="fill:#ffffff;fill-opacity:1;fill-rule:nonzero;stroke:none" />
  <path
         id="path35"
         d="m 2671.4,4168.77 h 241.52 c -36.64,21.3 -78.26,32.54 -120.76,32.54 -42.5,0 -84.12,-11.24 -120.76,-32.54 z m 253.67,-3.4 h -265.82 l 5.11,3.15 c 38.42,23.67 82.62,36.19 127.8,36.19 45.17,0 89.37,-12.52 127.8,-36.19 l 5.11,-3.15"
         style="fill:#ffffff;fill-opacity:1;fill-rule:nonzero;stroke:none" />
  <path
         id="path36"
         d="m 2502.96,4042.68 c -40.57,-44.5 -62.86,-101.91 -62.86,-162.19 0,-60.26 22.29,-117.68 62.86,-162.17 z m 3.4,-332.97 -2.94,3.11 c -43.03,45.54 -66.72,105.09 -66.72,167.67 0,62.58 23.69,122.14 66.72,167.69 l 2.94,3.11 v -341.58"
         style="fill:#ffffff;fill-opacity:1;fill-rule:nonzero;stroke:none" />
  <path
         id="path37"
         d="m 3081.36,4042.68 v -324.36 c 40.56,44.49 62.86,101.91 62.86,162.17 0,60.27 -22.3,117.69 -62.86,162.19 z m -3.4,-332.97 v 341.58 l 2.93,-3.11 c 43.03,-45.56 66.73,-105.11 66.73,-167.69 0,-62.58 -23.7,-122.12 -66.73,-167.67 l -2.93,-3.11"
         style="fill:#ffffff;fill-opacity:1;fill-rule:nonzero;stroke:none" />
  <path
         id="path38"
         d="m 3081.36,4001.25 v -241.52 c 21.31,36.65 32.54,78.27 32.54,120.76 0,42.5 -11.23,84.12 -32.54,120.76 z m -3.4,-253.67 v 265.83 l 3.14,-5.11 c 23.69,-38.43 36.19,-82.63 36.19,-127.81 0,-45.17 -12.5,-89.36 -36.19,-127.8 l -3.14,-5.11"
         style="fill:#ffffff;fill-opacity:1;fill-rule:nonzero;stroke:none" />
  <path
         id="path39"
         d="m 2502.96,4001.25 c -21.31,-36.64 -32.55,-78.26 -32.55,-120.76 0,-42.49 11.24,-84.11 32.55,-120.76 z m 3.4,-253.67 -3.16,5.11 c -23.67,38.44 -36.19,82.63 -36.19,127.8 0,45.18 12.52,89.38 36.19,127.81 l 3.16,5.11 v -265.83"
         style="fill:#ffffff;fill-opacity:1;fill-rule:nonzero;stroke:none" />
</svg>