<?xml version="1.0" encoding="UTF-8" standalone="no"?>
<svg
   version="1.1"
   width="600"
   height="600"
   viewBox="329.10 2453.80 743.93 743.93"
   xmlns="http://www.w3.org/2000/svg">
  <rect x="329.10" y="2453.80" width="743.93" height="743.93" fill="#000000"/>
  <path
         id="path985"
         d="m 409.742,2502.78 h 582.645 l -291.328,504.6 z m 588.543,-3.4 H 403.844 l 1.472,2.55 295.743,512.25 1.476,-2.55 295.75,-512.25"
         style="fill:#ffffff;fill-opacity:1;fill-rule:nonzero;stroke:none" />
  <path
         id="path986"
         d="m 409.742,3148.75 291.317,-504.6 291.328,504.6 z m 291.317,-511.4 -1.473,2.55 -295.742,512.25 h 594.441 l -1.472,-2.55 -295.754,-512.25"
         style="fill:#ffffff;fill-opacity:1;fill-rule:nonzero;stroke:none" />
  <path
         id="path987"
         d="m 517.289,3148.75 183.77,-318.32 183.781,318.32 z m 183.77,-325.12 -1.473,2.55 -188.195,325.97 h 379.347 l -1.476,-2.55 -188.203,-325.97"
         style="fill:#ffffff;fill-opacity:1;fill-rule:nonzero;stroke:none" />
  <path
         id="path988"
         d="m 517.289,3068.53 183.77,-318.32 183.781,318.32 z m 183.77,-325.12 -1.473,2.55 -188.195,325.96 h 379.347 l -1.476,-2.55 -188.203,-325.96"
         style="fill:#ffffff;fill-opacity:1;fill-rule:nonzero;stroke:none" />
  <path
         id="path989"
         d="m 628.676,3148.75 72.383,-126.54 72.394,126.54 z m 72.383,-133.4 -1.473,2.59 -76.77,134.21 h 156.497 l -78.254,-136.8"
         style="fill:#ffffff;fill-opacity:1;fill-rule:nonzero;stroke:none" />
  <path
         id="path990"
         d="m 628.676,2502.78 h 144.777 l -72.394,126.55 z m 150.637,-3.4 H 622.816 l 78.243,136.8 1.476,-2.59 76.778,-134.21"
         style="fill:#ffffff;fill-opacity:1;fill-rule:nonzero;stroke:none" />
  <path
         id="path991"
         d="M 596.129,2535.28 H 806 l -104.941,183.44 z m 215.73,-3.4 H 590.27 l 110.789,193.7 1.476,-2.59 109.324,-191.11"
         style="fill:#ffffff;fill-opacity:1;fill-rule:nonzero;stroke:none" />
  <path
         id="path992"
         d="m 592.895,2955.52 h 218.039 l -109.016,190.57 z m 220.968,-3.4 H 589.965 l -1.473,2.54 111.953,195.7 h 2.95 l 111.941,-195.7 -1.473,-2.54"
         style="fill:#ffffff;fill-opacity:1;fill-rule:nonzero;stroke:none" />
  <path
         id="path993"
         d="m 594.066,2690.76 107.852,-186.28 107.844,186.28 z m 106.379,-190.53 -110.8,191.38 1.472,2.55 h 221.594 l 1.473,-2.55 -110.789,-191.38 h -2.95"
         style="fill:#ffffff;fill-opacity:1;fill-rule:nonzero;stroke:none" />
  <path
         id="path994"
         d="M 596.129,3108.95 701.059,2925.51 806,3108.95 Z m 104.93,-190.3 -1.473,2.59 -109.316,191.1 h 221.589 l -110.8,-193.69"
         style="fill:#ffffff;fill-opacity:1;fill-rule:nonzero;stroke:none" />
  <path
         id="path995"
         d="M 517.289,2502.78 H 884.84 L 701.059,2821.1 Z m 373.449,-3.4 H 511.391 l 1.476,2.55 188.192,325.97 1.476,-2.55 188.203,-325.97"
         style="fill:#ffffff;fill-opacity:1;fill-rule:nonzero;stroke:none" />
  <path
         id="path996"
         d="M 517.289,2578.94 H 884.84 l -183.781,318.32 z m 373.449,-3.4 H 511.391 l 1.476,2.55 188.192,325.96 1.476,-2.55 188.203,-325.96"
         style="fill:#ffffff;fill-opacity:1;fill-rule:nonzero;stroke:none" />
  <path
         id="path997"
         d="m 810.895,2827.57 124.843,-219.83 c 56.102,59.85 86.972,137.83 86.972,219.84 0,80.97 -30.187,158.23 -85.058,217.8 z m 124.148,-225.5 -1.121,1.99 -126.953,223.53 0.488,0.85 129.559,222.61 1.562,-1.67 c 56.445,-60.42 87.532,-139.19 87.532,-221.8 0,-83.65 -31.778,-163.15 -89.485,-223.85 l -1.582,-1.66"
         style="fill:#ffffff;fill-opacity:1;fill-rule:nonzero;stroke:none" />
  <path
         id="path998"
         d="M 465.102,3046.04 C 409.82,2986.38 379.41,2908.9 379.41,2827.58 c 0,-81.77 30.731,-159.59 86.57,-219.4 l 125.254,219.4 z m 1.554,-443.53 -1.574,1.66 c -57.441,60.66 -89.07,140 -89.07,223.41 0,82.95 31.308,161.95 88.172,222.47 l 1.574,1.67 129.402,-224.14 -0.488,-0.84 -128.016,-224.23"
         style="fill:#ffffff;fill-opacity:1;fill-rule:nonzero;stroke:none" />
  <path
         id="path999"
         d="m 598.941,2827.55 102.118,-176.88 102.129,176.88 -102.129,173.46 z m 102.118,-196.72 -113.602,196.78 113.602,192.95 113.613,-192.95 -113.613,-196.78"
         style="fill:#ffffff;fill-opacity:1;fill-rule:nonzero;stroke:none" />
  <path
         id="path1000"
         d="m 491.195,2827.95 45.664,-79.08 45.664,79.08 -45.664,77.56 z m 45.664,-98.93 -57.148,98.99 57.148,97.05 57.149,-97.05 -57.149,-98.99"
         style="fill:#ffffff;fill-opacity:1;fill-rule:nonzero;stroke:none" />
  <path
         id="path1001"
         d="m 487.516,2931.85 c -0.586,0 -1.153,0.3 -1.465,0.84 l -0.715,1.22 c -0.477,0.81 -0.203,1.85 0.605,2.32 0.821,0.51 1.848,0.21 2.325,-0.61 l 0.714,-1.22 c 0.477,-0.81 0.204,-1.85 -0.605,-2.32 -0.273,-0.17 -0.566,-0.23 -0.859,-0.23 z m -5.754,-2.76 c -0.293,0 -0.594,0.08 -0.867,0.24 -0.801,0.47 -1.075,1.52 -0.598,2.33 l 0.723,1.22 c 0.488,0.81 1.515,1.07 2.335,0.6 0.801,-0.48 1.075,-1.53 0.594,-2.34 l -0.722,-1.22 c -0.321,-0.54 -0.887,-0.83 -1.465,-0.83 z m 10.793,-5.8 c -0.578,0 -1.145,0.29 -1.465,0.83 l -0.723,1.22 c -0.48,0.81 -0.207,1.86 0.594,2.34 0.801,0.47 1.848,0.21 2.336,-0.6 l 0.723,-1.22 c 0.476,-0.81 0.203,-1.86 -0.598,-2.33 -0.274,-0.16 -0.574,-0.24 -0.867,-0.24 z m -15.821,-2.75 c -0.293,0 -0.597,0.08 -0.871,0.23 -0.8,0.48 -1.074,1.52 -0.593,2.34 l 0.722,1.22 c 0.477,0.81 1.512,1.07 2.332,0.59 0.801,-0.48 1.074,-1.52 0.598,-2.33 l -0.723,-1.22 c -0.324,-0.54 -0.89,-0.83 -1.465,-0.83 z m 20.848,-5.79 c -0.586,0 -1.152,0.3 -1.465,0.84 l -0.711,1.22 c -0.48,0.81 -0.207,1.85 0.606,2.32 0.808,0.5 1.855,0.21 2.324,-0.6 l 0.711,-1.23 c 0.48,-0.81 0.207,-1.85 -0.606,-2.32 -0.273,-0.17 -0.566,-0.23 -0.859,-0.23 z m -25.887,-2.76 c -0.293,0 -0.597,0.08 -0.871,0.24 -0.801,0.48 -1.074,1.52 -0.594,2.33 l 0.723,1.22 c 0.477,0.81 1.512,1.08 2.332,0.6 0.801,-0.48 1.074,-1.53 0.598,-2.34 l -0.723,-1.22 c -0.324,-0.53 -0.89,-0.83 -1.465,-0.83 z m 30.926,-5.8 c -0.586,0 -1.152,0.3 -1.465,0.84 l -0.722,1.23 c -0.477,0.81 -0.204,1.85 0.605,2.33 0.813,0.47 1.848,0.2 2.324,-0.61 l 0.723,-1.23 c 0.48,-0.81 0.207,-1.85 -0.606,-2.32 -0.273,-0.16 -0.566,-0.24 -0.859,-0.24 z m -35.957,-2.75 c -0.293,0 -0.594,0.08 -0.867,0.23 -0.801,0.48 -1.074,1.53 -0.598,2.34 l 0.723,1.22 c 0.488,0.82 1.516,1.06 2.336,0.59 0.801,-0.48 1.074,-1.52 0.594,-2.33 l -0.723,-1.22 c -0.32,-0.54 -0.887,-0.83 -1.465,-0.83 z m 40.988,-5.79 c -0.586,0 -1.152,0.3 -1.464,0.84 l -0.715,1.22 c -0.477,0.81 -0.203,1.85 0.605,2.32 0.813,0.51 1.848,0.21 2.324,-0.6 l 0.715,-1.22 c 0.477,-0.82 0.203,-1.86 -0.605,-2.33 -0.274,-0.17 -0.567,-0.23 -0.86,-0.23 z m -46.015,-2.76 c -0.293,0 -0.586,0.07 -0.86,0.24 -0.812,0.47 -1.086,1.51 -0.605,2.32 l 0.711,1.22 c 0.461,0.81 1.504,1.12 2.324,0.61 0.813,-0.47 1.086,-1.52 0.606,-2.33 l -0.711,-1.22 c -0.313,-0.53 -0.879,-0.84 -1.465,-0.84 z m 51.054,-5.79 c -0.578,0 -1.144,0.29 -1.464,0.83 l -0.723,1.22 c -0.481,0.81 -0.207,1.86 0.594,2.34 0.812,0.47 1.847,0.21 2.336,-0.6 l 0.722,-1.22 c 0.477,-0.81 0.203,-1.86 -0.597,-2.33 -0.274,-0.16 -0.575,-0.24 -0.868,-0.24 z m -56.093,-2.76 c -0.293,0 -0.598,0.08 -0.871,0.23 -0.801,0.48 -1.075,1.53 -0.594,2.34 l 0.722,1.22 c 0.477,0.81 1.512,1.07 2.333,0.59 0.8,-0.48 1.074,-1.52 0.597,-2.33 l -0.722,-1.22 c -0.325,-0.54 -0.891,-0.83 -1.465,-0.83 z m 61.121,-5.79 c -0.574,0 -1.141,0.29 -1.465,0.83 l -0.723,1.22 c -0.476,0.81 -0.203,1.85 0.598,2.33 0.809,0.47 1.836,0.23 2.332,-0.59 l 0.723,-1.22 c 0.48,-0.82 0.207,-1.86 -0.594,-2.34 -0.274,-0.16 -0.578,-0.23 -0.871,-0.23 z m -66.153,-2.76 c -0.293,0 -0.586,0.07 -0.859,0.24 -0.809,0.47 -1.082,1.51 -0.605,2.32 l 0.714,1.22 c 0.469,0.81 1.493,1.12 2.325,0.61 0.808,-0.47 1.082,-1.52 0.605,-2.33 l -0.715,-1.22 c -0.312,-0.53 -0.879,-0.84 -1.465,-0.84 z m 71.192,-5.79 c -0.574,0 -1.141,0.29 -1.465,0.83 l -0.723,1.22 c -0.476,0.81 -0.203,1.86 0.598,2.34 0.809,0.47 1.844,0.22 2.332,-0.6 l 0.723,-1.22 c 0.48,-0.81 0.207,-1.86 -0.594,-2.33 -0.274,-0.16 -0.578,-0.24 -0.871,-0.24 z m -76.231,-2.76 c -0.293,0 -0.593,0.08 -0.867,0.23 -0.801,0.48 -1.074,1.53 -0.597,2.34 l 0.722,1.22 c 0.488,0.81 1.516,1.06 2.336,0.59 0.801,-0.48 1.074,-1.52 0.594,-2.33 l -0.723,-1.22 c -0.32,-0.54 -0.887,-0.83 -1.465,-0.83 z m 81.262,-5.79 c -0.578,0 -1.144,0.29 -1.465,0.83 l -0.722,1.22 c -0.481,0.81 -0.207,1.85 0.593,2.33 0.813,0.46 1.848,0.22 2.336,-0.59 l 0.723,-1.22 c 0.476,-0.81 0.203,-1.86 -0.598,-2.34 -0.273,-0.15 -0.574,-0.23 -0.867,-0.23 z m -86.289,-2.76 c -0.293,0 -0.586,0.07 -0.859,0.24 -0.813,0.47 -1.086,1.51 -0.606,2.32 l 0.711,1.22 c 0.461,0.81 1.496,1.11 2.324,0.61 0.813,-0.47 1.086,-1.52 0.606,-2.33 l -0.711,-1.22 c -0.313,-0.53 -0.879,-0.84 -1.465,-0.84 z m 91.316,-5.79 c -0.586,0 -1.152,0.31 -1.464,0.84 l -0.711,1.22 c -0.481,0.81 -0.207,1.86 0.605,2.33 0.809,0.5 1.844,0.2 2.324,-0.61 l 0.711,-1.22 c 0.481,-0.81 0.207,-1.85 -0.605,-2.32 -0.274,-0.17 -0.567,-0.24 -0.86,-0.24 z m -96.355,-2.76 c -0.293,0 -0.598,0.08 -0.871,0.23 -0.801,0.48 -1.074,1.53 -0.594,2.34 l 0.723,1.22 c 0.488,0.81 1.511,1.06 2.332,0.59 0.801,-0.48 1.074,-1.52 0.597,-2.33 l -0.722,-1.22 c -0.324,-0.54 -0.891,-0.83 -1.465,-0.83 z m 101.394,-5.79 c -0.574,0 -1.14,0.29 -1.464,0.83 l -0.723,1.22 c -0.477,0.81 -0.203,1.85 0.598,2.33 0.808,0.47 1.836,0.22 2.332,-0.59 l 0.722,-1.22 c 0.481,-0.81 0.207,-1.86 -0.593,-2.34 -0.274,-0.15 -0.579,-0.23 -0.872,-0.23 z m -106.425,-2.76 c -0.293,0 -0.594,0.08 -0.867,0.24 -0.801,0.48 -1.075,1.52 -0.598,2.33 l 0.723,1.22 c 0.48,0.81 1.523,1.07 2.335,0.6 0.801,-0.48 1.075,-1.52 0.594,-2.34 l -0.722,-1.22 c -0.321,-0.53 -0.887,-0.83 -1.465,-0.83 z m 111.457,-5.79 c -0.586,0 -1.153,0.31 -1.465,0.84 l -0.715,1.22 c -0.477,0.81 -0.203,1.86 0.606,2.33 0.82,0.51 1.847,0.2 2.324,-0.61 l 0.715,-1.22 c 0.476,-0.81 0.203,-1.85 -0.606,-2.32 -0.273,-0.17 -0.566,-0.24 -0.859,-0.24 z m -116.496,-2.76 c -0.293,0 -0.586,0.08 -0.86,0.23 -0.808,0.48 -1.082,1.52 -0.605,2.33 l 0.722,1.23 c 0.469,0.81 1.497,1.08 2.325,0.6 0.812,-0.47 1.086,-1.51 0.605,-2.32 l -0.723,-1.23 c -0.312,-0.54 -0.878,-0.84 -1.464,-0.84 z m 121.535,-5.79 c -0.578,0 -1.145,0.29 -1.465,0.83 l -0.723,1.22 c -0.48,0.81 -0.207,1.85 0.594,2.33 0.813,0.48 1.848,0.22 2.336,-0.59 l 0.723,-1.22 c 0.476,-0.81 0.203,-1.86 -0.598,-2.34 -0.273,-0.15 -0.574,-0.23 -0.867,-0.23 z m -125.039,-5.39 c -0.586,0 -1.153,0.3 -1.477,0.85 l -0.711,1.23 c -0.148,0.25 -0.215,0.52 -0.226,0.81 -0.789,0.48 -1.043,1.51 -0.575,2.31 l 0.723,1.22 c 0.477,0.81 1.524,1.06 2.332,0.6 0.801,-0.48 1.074,-1.52 0.598,-2.34 l -0.274,-0.45 c 0.145,-0.13 0.262,-0.28 0.371,-0.45 l 0.711,-1.23 c 0.469,-0.81 0.196,-1.85 -0.625,-2.33 -0.261,-0.15 -0.554,-0.22 -0.847,-0.22 z m 123.301,-3.19 c -0.286,0 -0.579,0.07 -0.84,0.23 -0.821,0.47 -1.106,1.5 -0.637,2.31 l 0.703,1.23 c 0.461,0.83 1.496,1.13 2.316,0.64 0.821,-0.47 1.102,-1.51 0.633,-2.32 l -0.703,-1.23 c -0.312,-0.55 -0.887,-0.86 -1.472,-0.86 z m -118.34,-5.4 c -0.586,0 -1.153,0.31 -1.465,0.84 l -0.715,1.22 c -0.477,0.81 -0.203,1.86 0.605,2.33 0.813,0.51 1.848,0.2 2.325,-0.61 l 0.715,-1.22 c 0.476,-0.81 0.203,-1.85 -0.606,-2.32 -0.273,-0.17 -0.566,-0.24 -0.859,-0.24 z m 113.379,-3.19 c -0.286,0 -0.579,0.07 -0.84,0.22 -0.821,0.47 -1.106,1.51 -0.637,2.32 l 0.703,1.23 c 0.461,0.83 1.496,1.11 2.317,0.63 0.82,-0.46 1.101,-1.5 0.632,-2.31 l -0.703,-1.23 c -0.312,-0.56 -0.886,-0.86 -1.472,-0.86 z m -108.418,-5.4 c -0.586,0 -1.153,0.3 -1.465,0.84 l -0.715,1.22 c -0.477,0.81 -0.203,1.86 0.605,2.32 0.813,0.51 1.856,0.21 2.325,-0.6 l 0.714,-1.22 c 0.477,-0.81 0.204,-1.86 -0.605,-2.33 -0.273,-0.16 -0.566,-0.23 -0.859,-0.23 z m 103.457,-3.19 c -0.286,0 -0.578,0.06 -0.84,0.22 -0.821,0.47 -1.106,1.5 -0.637,2.32 l 0.703,1.23 c 0.461,0.83 1.496,1.12 2.317,0.63 0.82,-0.47 1.101,-1.5 0.632,-2.31 l -0.703,-1.23 c -0.312,-0.56 -0.886,-0.86 -1.472,-0.86 z m -98.508,-5.4 c -0.586,0 -1.16,0.3 -1.473,0.86 l -0.703,1.23 c -0.469,0.81 -0.187,1.84 0.633,2.31 0.801,0.5 1.848,0.2 2.316,-0.63 l 0.703,-1.24 c 0.469,-0.81 0.184,-1.84 -0.636,-2.31 -0.262,-0.16 -0.555,-0.22 -0.84,-0.22 z m 93.547,-3.2 c -0.293,0 -0.586,0.07 -0.852,0.23 -0.82,0.48 -1.094,1.51 -0.625,2.32 l 0.715,1.23 c 0.477,0.83 1.523,1.11 2.324,0.63 0.821,-0.48 1.094,-1.52 0.625,-2.33 l -0.715,-1.23 c -0.32,-0.54 -0.886,-0.85 -1.472,-0.85 z m -88.586,-5.4 c -0.586,0 -1.16,0.3 -1.473,0.86 l -0.703,1.23 c -0.469,0.81 -0.188,1.85 0.633,2.32 0.801,0.48 1.847,0.19 2.316,-0.64 l 0.703,-1.23 c 0.469,-0.81 0.184,-1.84 -0.636,-2.31 -0.262,-0.16 -0.555,-0.23 -0.84,-0.23 z m 83.625,-3.19 c -0.293,0 -0.586,0.07 -0.852,0.22 -0.82,0.48 -1.094,1.52 -0.625,2.33 l 0.715,1.23 c 0.477,0.82 1.523,1.1 2.324,0.62 0.821,-0.48 1.094,-1.51 0.625,-2.32 l -0.715,-1.23 c -0.32,-0.55 -0.886,-0.85 -1.472,-0.85 z m -78.664,-5.4 c -0.586,0 -1.16,0.3 -1.473,0.86 l -0.703,1.23 c -0.469,0.81 -0.188,1.84 0.633,2.31 0.801,0.49 1.847,0.2 2.316,-0.63 l 0.703,-1.23 c 0.469,-0.81 0.184,-1.85 -0.636,-2.32 -0.262,-0.15 -0.555,-0.22 -0.84,-0.22 z m 73.703,-3.19 c -0.293,0 -0.586,0.07 -0.86,0.24 -0.812,0.47 -1.085,1.51 -0.605,2.32 l 0.711,1.22 c 0.469,0.81 1.496,1.12 2.324,0.61 0.813,-0.47 1.086,-1.51 0.606,-2.32 l -0.711,-1.23 c -0.313,-0.53 -0.879,-0.84 -1.465,-0.84 z m -68.742,-5.41 c -0.586,0 -1.161,0.31 -1.473,0.86 l -0.703,1.23 c -0.469,0.82 -0.188,1.85 0.633,2.32 0.8,0.49 1.847,0.19 2.316,-0.64 l 0.703,-1.23 c 0.469,-0.81 0.184,-1.84 -0.637,-2.31 -0.261,-0.16 -0.554,-0.23 -0.839,-0.23 z m 63.781,-3.18 c -0.293,0 -0.586,0.07 -0.852,0.23 -0.82,0.47 -1.093,1.51 -0.625,2.32 l 0.715,1.23 c 0.477,0.83 1.524,1.09 2.324,0.63 0.821,-0.48 1.094,-1.52 0.625,-2.33 l -0.714,-1.23 c -0.321,-0.55 -0.887,-0.85 -1.473,-0.85 z m -58.82,-5.4 c -0.586,0 -1.161,0.3 -1.473,0.85 l -0.703,1.22 c -0.469,0.81 -0.188,1.86 0.625,2.33 0.781,0.47 1.855,0.19 2.324,-0.63 l 0.703,-1.22 c 0.469,-0.81 0.184,-1.86 -0.625,-2.32 -0.265,-0.16 -0.558,-0.23 -0.851,-0.23 z m 53.859,-3.19 c -0.293,0 -0.586,0.07 -0.852,0.22 -0.82,0.48 -1.093,1.52 -0.625,2.33 l 0.715,1.23 c 0.477,0.83 1.524,1.1 2.324,0.62 0.821,-0.48 1.094,-1.51 0.625,-2.32 l -0.714,-1.23 c -0.321,-0.55 -0.887,-0.85 -1.473,-0.85 z m -48.898,-5.4 c -0.586,0 -1.161,0.3 -1.473,0.85 l -0.703,1.22 c -0.469,0.81 -0.188,1.85 0.625,2.32 0.789,0.47 1.843,0.21 2.324,-0.62 l 0.703,-1.22 c 0.469,-0.81 0.184,-1.86 -0.625,-2.33 -0.266,-0.15 -0.559,-0.22 -0.851,-0.22 z m 43.937,-3.2 c -0.293,0 -0.586,0.07 -0.852,0.23 -0.82,0.48 -1.093,1.51 -0.625,2.32 l 0.715,1.23 c 0.477,0.82 1.532,1.11 2.325,0.63 0.82,-0.48 1.093,-1.52 0.625,-2.33 l -0.715,-1.23 c -0.321,-0.54 -0.887,-0.85 -1.473,-0.85 z m -38.977,-5.4 c -0.585,0 -1.16,0.31 -1.472,0.86 l -0.703,1.23 c -0.469,0.81 -0.188,1.85 0.632,2.32 0.801,0.48 1.848,0.19 2.317,-0.64 l 0.703,-1.23 c 0.469,-0.81 0.184,-1.84 -0.637,-2.31 -0.261,-0.16 -0.554,-0.23 -0.84,-0.23 z m 34.016,-3.19 c -0.293,0 -0.586,0.07 -0.851,0.22 -0.821,0.48 -1.094,1.52 -0.625,2.33 l 0.714,1.23 c 0.477,0.83 1.524,1.09 2.325,0.62 0.82,-0.47 1.093,-1.51 0.625,-2.32 l -0.715,-1.23 c -0.321,-0.55 -0.887,-0.85 -1.473,-0.85 z m -29.055,-5.4 c -0.586,0 -1.16,0.3 -1.472,0.86 l -0.703,1.23 c -0.469,0.81 -0.188,1.84 0.632,2.31 0.801,0.49 1.848,0.2 2.317,-0.63 l 0.703,-1.23 c 0.469,-0.81 0.184,-1.85 -0.637,-2.32 -0.261,-0.15 -0.554,-0.22 -0.84,-0.22 z m 24.094,-3.19 c -0.293,0 -0.586,0.06 -0.851,0.22 -0.821,0.48 -1.094,1.51 -0.625,2.32 l 0.714,1.24 c 0.477,0.83 1.524,1.1 2.325,0.62 0.82,-0.48 1.093,-1.51 0.625,-2.32 l -0.715,-1.23 c -0.321,-0.55 -0.887,-0.85 -1.473,-0.85 z m -19.133,-5.4 c -0.586,0 -1.16,0.3 -1.472,0.86 l -0.703,1.23 c -0.469,0.81 -0.188,1.84 0.632,2.31 0.801,0.48 1.848,0.2 2.317,-0.63 l 0.703,-1.24 c 0.469,-0.81 0.183,-1.84 -0.637,-2.31 -0.262,-0.16 -0.555,-0.22 -0.84,-0.22 z m 14.172,-3.19 c -0.293,0 -0.586,0.07 -0.859,0.24 -0.813,0.47 -1.086,1.51 -0.606,2.32 l 0.711,1.22 c 0.469,0.81 1.496,1.1 2.325,0.61 0.812,-0.47 1.085,-1.52 0.605,-2.33 l -0.711,-1.22 c -0.312,-0.54 -0.879,-0.84 -1.465,-0.84 z m -9.211,-5.41 c -0.586,0 -1.152,0.3 -1.472,0.85 l -0.715,1.23 c -0.469,0.81 -0.196,1.85 0.625,2.33 0.793,0.46 1.836,0.2 2.324,-0.63 l 0.715,-1.23 c 0.469,-0.81 0.195,-1.84 -0.625,-2.32 -0.266,-0.16 -0.559,-0.23 -0.852,-0.23 z m 4.25,-3.18 c -0.293,0 -0.586,0.07 -0.859,0.23 -0.813,0.47 -1.086,1.52 -0.606,2.33 l 0.711,1.22 c 0.461,0.81 1.504,1.11 2.325,0.6 0.812,-0.47 1.086,-1.51 0.605,-2.32 l -0.711,-1.22 c -0.312,-0.54 -0.879,-0.84 -1.465,-0.84"
         style="fill:#ffffff;fill-opacity:1;fill-rule:nonzero;stroke:none" />
  <path
         id="path1002"
         d="m 918.727,2931.85 c -0.586,0 -1.153,0.3 -1.465,0.84 l -0.715,1.22 c -0.477,0.81 -0.203,1.85 0.605,2.32 0.813,0.51 1.856,0.21 2.325,-0.61 l 0.714,-1.22 c 0.477,-0.81 0.204,-1.85 -0.605,-2.32 -0.273,-0.17 -0.566,-0.23 -0.859,-0.23 z m -5.754,-2.76 c -0.293,0 -0.594,0.08 -0.868,0.24 -0.8,0.47 -1.074,1.52 -0.597,2.33 l 0.722,1.22 c 0.489,0.81 1.516,1.07 2.336,0.6 0.801,-0.48 1.075,-1.53 0.594,-2.34 l -0.722,-1.22 c -0.321,-0.54 -0.887,-0.83 -1.465,-0.83 z m 10.793,-5.8 c -0.586,0 -1.153,0.3 -1.465,0.84 l -0.723,1.23 c -0.48,0.81 -0.207,1.85 0.606,2.33 0.808,0.46 1.843,0.2 2.324,-0.61 l 0.722,-1.23 c 0.477,-0.81 0.204,-1.85 -0.605,-2.32 -0.273,-0.16 -0.566,-0.24 -0.859,-0.24 z m -15.821,-2.75 c -0.293,0 -0.597,0.08 -0.871,0.23 -0.801,0.48 -1.074,1.52 -0.594,2.34 l 0.723,1.22 c 0.477,0.81 1.512,1.07 2.332,0.59 0.801,-0.48 1.074,-1.52 0.598,-2.33 l -0.723,-1.22 c -0.324,-0.54 -0.89,-0.83 -1.465,-0.83 z m 20.848,-5.79 c -0.586,0 -1.152,0.3 -1.465,0.84 l -0.711,1.22 c -0.48,0.81 -0.207,1.85 0.606,2.32 0.808,0.5 1.843,0.21 2.324,-0.6 l 0.711,-1.23 c 0.48,-0.81 0.207,-1.85 -0.606,-2.32 -0.273,-0.17 -0.566,-0.23 -0.859,-0.23 z m -25.887,-2.76 c -0.293,0 -0.597,0.08 -0.871,0.24 -0.801,0.48 -1.074,1.52 -0.594,2.33 l 0.723,1.22 c 0.477,0.81 1.512,1.08 2.332,0.6 0.801,-0.48 1.074,-1.53 0.598,-2.34 l -0.723,-1.22 c -0.324,-0.53 -0.891,-0.83 -1.465,-0.83 z m 30.926,-5.79 c -0.574,0 -1.141,0.29 -1.465,0.83 l -0.722,1.22 c -0.477,0.81 -0.204,1.86 0.597,2.34 0.809,0.46 1.844,0.21 2.332,-0.6 l 0.723,-1.22 c 0.48,-0.81 0.207,-1.86 -0.594,-2.33 -0.273,-0.16 -0.578,-0.24 -0.871,-0.24 z m -35.957,-2.76 c -0.293,0 -0.594,0.08 -0.867,0.23 -0.801,0.48 -1.074,1.53 -0.598,2.34 l 0.723,1.22 c 0.488,0.82 1.515,1.06 2.336,0.59 0.801,-0.48 1.074,-1.52 0.594,-2.33 l -0.723,-1.22 c -0.32,-0.54 -0.887,-0.83 -1.465,-0.83 z m 40.988,-5.79 c -0.586,0 -1.152,0.3 -1.465,0.84 l -0.714,1.22 c -0.477,0.81 -0.204,1.85 0.605,2.32 0.82,0.51 1.848,0.21 2.324,-0.6 l 0.715,-1.22 c 0.477,-0.82 0.203,-1.86 -0.605,-2.33 -0.274,-0.17 -0.567,-0.23 -0.86,-0.23 z m -46.015,-2.76 c -0.293,0 -0.586,0.07 -0.86,0.24 -0.812,0.47 -1.086,1.51 -0.605,2.32 l 0.711,1.22 c 0.461,0.81 1.496,1.12 2.324,0.61 0.812,-0.47 1.086,-1.52 0.605,-2.33 l -0.71,-1.22 c -0.313,-0.53 -0.879,-0.84 -1.465,-0.84 z m 51.054,-5.79 c -0.578,0 -1.144,0.29 -1.464,0.83 l -0.723,1.22 c -0.481,0.81 -0.207,1.86 0.594,2.34 0.812,0.47 1.847,0.21 2.336,-0.6 l 0.722,-1.22 c 0.477,-0.81 0.203,-1.86 -0.597,-2.33 -0.274,-0.16 -0.575,-0.24 -0.868,-0.24 z m -56.093,-2.76 c -0.293,0 -0.598,0.08 -0.871,0.23 -0.801,0.48 -1.075,1.53 -0.594,2.34 l 0.722,1.22 c 0.477,0.81 1.512,1.07 2.332,0.59 0.801,-0.48 1.075,-1.52 0.598,-2.33 l -0.723,-1.22 c -0.324,-0.54 -0.89,-0.83 -1.464,-0.83 z m 61.132,-5.79 c -0.578,0 -1.144,0.29 -1.464,0.83 l -0.723,1.22 c -0.481,0.81 -0.207,1.85 0.594,2.33 0.8,0.47 1.847,0.23 2.336,-0.59 l 0.722,-1.22 c 0.477,-0.82 0.203,-1.86 -0.597,-2.34 -0.274,-0.16 -0.575,-0.23 -0.868,-0.23 z m -66.164,-2.76 c -0.293,0 -0.586,0.07 -0.859,0.24 -0.809,0.47 -1.082,1.51 -0.605,2.32 l 0.714,1.22 c 0.457,0.81 1.504,1.12 2.325,0.61 0.808,-0.47 1.082,-1.52 0.605,-2.33 l -0.715,-1.22 c -0.312,-0.53 -0.879,-0.84 -1.465,-0.84 z m 71.192,-5.79 c -0.574,0 -1.141,0.29 -1.465,0.83 l -0.723,1.22 c -0.476,0.81 -0.203,1.86 0.598,2.34 0.809,0.47 1.836,0.22 2.332,-0.6 l 0.723,-1.22 c 0.48,-0.81 0.207,-1.86 -0.594,-2.33 -0.274,-0.16 -0.578,-0.24 -0.871,-0.24 z m -76.231,-2.76 c -0.293,0 -0.593,0.08 -0.867,0.23 -0.801,0.48 -1.074,1.53 -0.598,2.34 l 0.723,1.22 c 0.488,0.81 1.516,1.06 2.336,0.59 0.801,-0.48 1.074,-1.52 0.594,-2.33 l -0.723,-1.22 c -0.32,-0.54 -0.887,-0.83 -1.465,-0.83 z m 81.27,-5.79 c -0.574,0 -1.141,0.29 -1.465,0.83 l -0.723,1.22 c -0.476,0.81 -0.203,1.85 0.598,2.33 0.809,0.46 1.844,0.22 2.332,-0.59 l 0.723,-1.22 c 0.48,-0.81 0.207,-1.86 -0.594,-2.34 -0.274,-0.15 -0.578,-0.23 -0.871,-0.23 z m -86.297,-2.76 c -0.293,0 -0.586,0.07 -0.859,0.24 -0.813,0.47 -1.086,1.51 -0.606,2.32 l 0.711,1.22 c 0.469,0.81 1.496,1.11 2.324,0.61 0.813,-0.47 1.086,-1.52 0.606,-2.33 l -0.711,-1.22 c -0.313,-0.53 -0.879,-0.84 -1.465,-0.84 z m 91.328,-5.79 c -0.578,0 -1.144,0.3 -1.465,0.83 l -0.722,1.22 c -0.481,0.81 -0.207,1.86 0.593,2.34 0.813,0.48 1.848,0.21 2.336,-0.6 l 0.723,-1.22 c 0.476,-0.81 0.203,-1.85 -0.598,-2.33 -0.273,-0.16 -0.574,-0.24 -0.867,-0.24 z m -96.367,-2.76 c -0.293,0 -0.598,0.08 -0.871,0.23 -0.801,0.48 -1.074,1.53 -0.594,2.34 l 0.723,1.22 c 0.476,0.81 1.511,1.06 2.332,0.59 0.801,-0.48 1.074,-1.52 0.597,-2.33 l -0.722,-1.22 c -0.324,-0.54 -0.891,-0.83 -1.465,-0.83 z m 101.406,-5.78 c -0.578,0 -1.144,0.29 -1.465,0.83 l -0.722,1.22 c -0.481,0.81 -0.207,1.85 0.593,2.33 0.813,0.48 1.848,0.22 2.336,-0.59 l 0.723,-1.22 c 0.477,-0.81 0.203,-1.86 -0.598,-2.34 -0.273,-0.15 -0.574,-0.23 -0.867,-0.23 z m -106.437,-2.77 c -0.293,0 -0.594,0.08 -0.868,0.24 -0.8,0.48 -1.074,1.52 -0.597,2.33 l 0.722,1.22 c 0.481,0.81 1.524,1.07 2.336,0.6 0.801,-0.48 1.075,-1.52 0.594,-2.34 l -0.723,-1.22 c -0.32,-0.53 -0.886,-0.83 -1.464,-0.83 z m 111.464,-5.79 c -0.574,0 -1.14,0.3 -1.464,0.83 l -0.723,1.22 c -0.477,0.81 -0.203,1.86 0.598,2.34 0.808,0.47 1.836,0.21 2.332,-0.6 l 0.722,-1.22 c 0.481,-0.81 0.207,-1.85 -0.593,-2.33 -0.274,-0.16 -0.579,-0.24 -0.872,-0.24 z m -116.503,-2.76 c -0.293,0 -0.586,0.08 -0.86,0.23 -0.808,0.48 -1.082,1.52 -0.605,2.33 l 0.722,1.23 c 0.461,0.81 1.504,1.08 2.325,0.6 0.812,-0.47 1.086,-1.51 0.605,-2.32 l -0.723,-1.23 c -0.312,-0.54 -0.878,-0.84 -1.464,-0.84 z m 121.543,-5.78 c -0.575,0 -1.141,0.29 -1.465,0.83 l -0.723,1.22 c -0.477,0.81 -0.203,1.85 0.598,2.33 0.808,0.47 1.836,0.22 2.332,-0.59 l 0.722,-1.22 c 0.481,-0.81 0.207,-1.86 -0.593,-2.34 -0.274,-0.15 -0.578,-0.23 -0.871,-0.23 z m -125.047,-5.4 c -0.586,0 -1.164,0.3 -1.477,0.85 l -0.703,1.22 c -0.145,0.25 -0.223,0.53 -0.223,0.81 -0.8,0.48 -1.066,1.51 -0.586,2.32 l 0.723,1.22 c 0.477,0.81 1.523,1.06 2.332,0.6 0.801,-0.48 1.074,-1.52 0.598,-2.34 l -0.274,-0.45 c 0.145,-0.13 0.274,-0.29 0.379,-0.46 l 0.703,-1.22 c 0.469,-0.81 0.188,-1.86 -0.625,-2.33 -0.261,-0.15 -0.554,-0.22 -0.847,-0.22 z m 123.308,-3.19 c -0.293,0 -0.586,0.07 -0.847,0.23 -0.821,0.48 -1.094,1.51 -0.625,2.32 l 0.711,1.23 c 0.48,0.83 1.523,1.11 2.324,0.63 0.82,-0.48 1.094,-1.52 0.625,-2.33 l -0.711,-1.23 c -0.324,-0.54 -0.891,-0.85 -1.477,-0.85 z m -118.347,-5.41 c -0.586,0 -1.164,0.31 -1.477,0.85 l -0.703,1.22 c -0.469,0.81 -0.184,1.86 0.625,2.33 0.781,0.48 1.855,0.2 2.324,-0.63 l 0.703,-1.22 c 0.469,-0.81 0.188,-1.85 -0.625,-2.32 -0.261,-0.16 -0.554,-0.23 -0.847,-0.23 z m 113.386,-3.18 c -0.293,0 -0.586,0.07 -0.847,0.22 -0.821,0.48 -1.094,1.52 -0.625,2.33 l 0.711,1.23 c 0.48,0.82 1.523,1.1 2.324,0.62 0.82,-0.47 1.094,-1.51 0.625,-2.32 l -0.711,-1.23 c -0.324,-0.55 -0.891,-0.85 -1.477,-0.85 z m -108.425,-5.41 c -0.586,0 -1.153,0.3 -1.477,0.85 l -0.711,1.23 c -0.469,0.81 -0.195,1.85 0.625,2.32 0.781,0.48 1.836,0.21 2.324,-0.62 l 0.711,-1.23 c 0.469,-0.81 0.196,-1.85 -0.625,-2.33 -0.262,-0.15 -0.554,-0.22 -0.847,-0.22 z m 103.464,-3.17 c -0.293,0 -0.586,0.06 -0.859,0.23 -0.809,0.47 -1.082,1.51 -0.605,2.32 l 0.714,1.23 c 0.469,0.81 1.493,1.11 2.325,0.6 0.808,-0.47 1.082,-1.51 0.605,-2.32 l -0.715,-1.22 c -0.312,-0.54 -0.879,-0.84 -1.465,-0.84 z m -98.504,-5.42 c -0.585,0 -1.152,0.3 -1.476,0.85 l -0.711,1.23 c -0.469,0.81 -0.195,1.84 0.625,2.32 0.789,0.48 1.836,0.2 2.324,-0.62 l 0.711,-1.24 c 0.469,-0.81 0.195,-1.84 -0.625,-2.32 -0.262,-0.16 -0.555,-0.22 -0.848,-0.22 z m 93.543,-3.18 c -0.293,0 -0.585,0.07 -0.847,0.23 -0.821,0.48 -1.094,1.51 -0.625,2.32 l 0.711,1.23 c 0.48,0.83 1.523,1.1 2.324,0.63 0.82,-0.48 1.094,-1.52 0.625,-2.33 L 964,2795.75 c -0.324,-0.54 -0.891,-0.85 -1.477,-0.85 z m -88.582,-5.42 c -0.586,0 -1.152,0.31 -1.476,0.85 l -0.711,1.23 c -0.469,0.81 -0.195,1.85 0.625,2.33 0.781,0.47 1.836,0.2 2.324,-0.63 l 0.711,-1.23 c 0.469,-0.81 0.195,-1.84 -0.625,-2.32 -0.262,-0.16 -0.555,-0.23 -0.848,-0.23 z m 83.622,-3.17 c -0.293,0 -0.586,0.07 -0.848,0.22 -0.82,0.48 -1.094,1.52 -0.625,2.33 l 0.711,1.23 c 0.48,0.83 1.523,1.1 2.324,0.62 0.82,-0.48 1.094,-1.51 0.625,-2.32 l -0.711,-1.23 c -0.324,-0.55 -0.891,-0.85 -1.476,-0.85 z m -78.661,-5.42 c -0.586,0 -1.152,0.3 -1.476,0.85 l -0.711,1.23 c -0.469,0.81 -0.195,1.84 0.625,2.32 0.781,0.48 1.836,0.21 2.324,-0.62 l 0.711,-1.23 c 0.469,-0.81 0.195,-1.85 -0.625,-2.33 -0.262,-0.15 -0.555,-0.22 -0.848,-0.22 z m 73.7,-3.18 c -0.293,0 -0.586,0.07 -0.848,0.23 -0.82,0.48 -1.094,1.51 -0.625,2.32 l 0.711,1.23 c 0.48,0.82 1.535,1.11 2.324,0.63 0.82,-0.48 1.094,-1.51 0.625,-2.33 l -0.711,-1.23 c -0.324,-0.54 -0.89,-0.85 -1.476,-0.85 z m -68.739,-5.41 c -0.586,0 -1.152,0.31 -1.465,0.84 l -0.714,1.23 c -0.477,0.81 -0.204,1.85 0.605,2.32 0.813,0.5 1.856,0.2 2.324,-0.61 l 0.715,-1.22 c 0.477,-0.81 0.203,-1.85 -0.605,-2.32 -0.274,-0.17 -0.567,-0.24 -0.86,-0.24 z m 63.778,-3.18 c -0.293,0 -0.586,0.07 -0.848,0.23 -0.82,0.47 -1.094,1.51 -0.625,2.32 l 0.711,1.23 c 0.48,0.83 1.523,1.09 2.324,0.63 0.82,-0.48 1.094,-1.52 0.625,-2.33 l -0.711,-1.23 c -0.324,-0.55 -0.89,-0.85 -1.476,-0.85 z m -58.817,-5.41 c -0.586,0 -1.152,0.3 -1.465,0.84 l -0.714,1.22 c -0.477,0.81 -0.204,1.86 0.605,2.33 0.82,0.5 1.848,0.2 2.324,-0.61 l 0.715,-1.22 c 0.477,-0.81 0.203,-1.86 -0.605,-2.32 -0.274,-0.17 -0.567,-0.24 -0.86,-0.24 z m 53.856,-3.17 c -0.293,0 -0.586,0.07 -0.86,0.23 -0.808,0.47 -1.082,1.52 -0.605,2.33 l 0.715,1.22 c 0.457,0.81 1.492,1.11 2.324,0.6 0.809,-0.47 1.082,-1.51 0.605,-2.32 l -0.714,-1.22 c -0.313,-0.54 -0.879,-0.84 -1.465,-0.84 z m -48.895,-5.42 c -0.586,0 -1.152,0.3 -1.476,0.85 l -0.711,1.23 c -0.469,0.81 -0.196,1.84 0.625,2.32 0.781,0.47 1.836,0.21 2.324,-0.62 l 0.711,-1.23 c 0.469,-0.81 0.195,-1.85 -0.625,-2.33 -0.262,-0.15 -0.555,-0.22 -0.848,-0.22 z m 43.934,-3.18 c -0.293,0 -0.586,0.07 -0.848,0.23 -0.82,0.48 -1.094,1.51 -0.625,2.32 l 0.711,1.23 c 0.481,0.83 1.535,1.11 2.324,0.63 0.821,-0.48 1.094,-1.52 0.625,-2.33 l -0.711,-1.23 c -0.324,-0.54 -0.89,-0.85 -1.476,-0.85 z m -38.973,-5.42 c -0.586,0 -1.152,0.31 -1.476,0.85 l -0.711,1.23 c -0.469,0.81 -0.196,1.85 0.625,2.33 0.789,0.48 1.836,0.2 2.324,-0.63 l 0.711,-1.23 c 0.469,-0.81 0.195,-1.84 -0.625,-2.32 -0.262,-0.16 -0.555,-0.23 -0.848,-0.23 z m 34.012,-3.17 c -0.293,0 -0.586,0.07 -0.848,0.22 -0.82,0.48 -1.094,1.52 -0.625,2.33 l 0.711,1.23 c 0.481,0.82 1.524,1.1 2.324,0.62 0.821,-0.47 1.094,-1.51 0.625,-2.32 l -0.711,-1.23 c -0.324,-0.55 -0.89,-0.85 -1.476,-0.85 z m -29.051,-5.42 c -0.586,0 -1.152,0.3 -1.477,0.85 l -0.71,1.23 c -0.469,0.81 -0.196,1.85 0.625,2.32 0.781,0.48 1.835,0.2 2.324,-0.62 l 0.711,-1.23 c 0.468,-0.81 0.195,-1.85 -0.625,-2.33 -0.262,-0.15 -0.555,-0.22 -0.848,-0.22 z m 24.09,-3.17 c -0.293,0 -0.586,0.06 -0.848,0.22 -0.82,0.48 -1.094,1.51 -0.625,2.32 l 0.711,1.24 c 0.481,0.83 1.524,1.09 2.324,0.62 0.821,-0.48 1.094,-1.51 0.625,-2.32 l -0.711,-1.23 c -0.324,-0.55 -0.89,-0.85 -1.476,-0.85 z m -19.129,-5.42 c -0.586,0 -1.152,0.3 -1.477,0.85 l -0.711,1.23 c -0.468,0.81 -0.195,1.84 0.625,2.32 0.782,0.47 1.836,0.21 2.325,-0.62 l 0.711,-1.24 c 0.468,-0.81 0.195,-1.84 -0.625,-2.32 -0.262,-0.16 -0.555,-0.22 -0.848,-0.22 z m 14.168,-3.18 c -0.293,0 -0.586,0.07 -0.848,0.23 -0.82,0.48 -1.093,1.51 -0.625,2.32 l 0.711,1.23 c 0.481,0.83 1.535,1.1 2.324,0.63 0.821,-0.48 1.094,-1.52 0.625,-2.33 l -0.71,-1.23 c -0.325,-0.55 -0.891,-0.85 -1.477,-0.85 z m -9.207,-5.42 c -0.586,0 -1.152,0.3 -1.477,0.85 l -0.711,1.23 c -0.468,0.81 -0.195,1.85 0.625,2.33 0.789,0.47 1.836,0.2 2.325,-0.63 l 0.711,-1.23 c 0.468,-0.81 0.195,-1.84 -0.625,-2.32 -0.262,-0.16 -0.555,-0.23 -0.848,-0.23 z m 4.246,-3.16 c -0.293,0 -0.586,0.07 -0.859,0.23 -0.809,0.47 -1.082,1.52 -0.606,2.33 l 0.715,1.22 c 0.457,0.81 1.504,1.1 2.324,0.6 0.809,-0.47 1.082,-1.51 0.606,-2.32 l -0.715,-1.22 c -0.313,-0.54 -0.879,-0.84 -1.465,-0.84"
         style="fill:#ffffff;fill-opacity:1;fill-rule:nonzero;stroke:none" />
  <path
         id="path1003"
         d="m 819.605,2827.95 45.665,-79.08 45.652,79.08 -45.652,77.56 z m 45.665,-98.93 -57.149,98.99 57.149,97.05 57.136,-97.05 -57.136,-98.99"
         style="fill:#ffffff;fill-opacity:1;fill-rule:nonzero;stroke:none" />
  <path
         id="path1004"
         d="m 676.008,2827.53 25.055,42.56 25.058,-42.56 -25.058,-43.4 -25.055,43.4"
         style="fill:#ffffff;fill-opacity:1;fill-rule:nonzero;stroke:none" />
  <path
         id="path1005"
         d="m 676.008,3085.04 25.055,42.56 25.058,-42.56 -25.058,-43.4 -25.055,43.4"
         style="fill:#ffffff;fill-opacity:1;fill-rule:nonzero;stroke:none" />
  <path
         id="path1006"
         d="m 676.008,2567.33 25.055,42.57 25.058,-42.57 -25.058,-43.39 -25.055,43.39"
         style="fill:#ffffff;fill-opacity:1;fill-rule:nonzero;stroke:none" />
  <path
         id="path1007"
         d="m 610.945,2827.36 14.801,25.14 14.801,-25.14 -14.801,-25.63 -14.801,25.63"
         style="fill:#ffffff;fill-opacity:1;fill-rule:nonzero;stroke:none" />
  <path
         id="path1008"
         d="m 362.914,2827.36 14.801,25.14 14.797,-25.14 -14.797,-25.63 -14.801,25.63"
         style="fill:#ffffff;fill-opacity:1;fill-rule:nonzero;stroke:none" />
  <path
         id="path1009"
         d="m 1009.61,2827.36 14.8,25.14 14.8,-25.14 -14.8,-25.63 -14.8,25.63"
         style="fill:#ffffff;fill-opacity:1;fill-rule:nonzero;stroke:none" />
  <path
         id="path1010"
         d="m 761.582,2827.36 14.801,25.14 14.793,-25.14 -14.793,-25.63 -14.801,25.63"
         style="fill:#ffffff;fill-opacity:1;fill-rule:nonzero;stroke:none" />
</svg>