<?xml version="1.0" encoding="UTF-8" standalone="no"?>
<svg
   version="1.1"
   width="600"
   height="600"
   viewBox="3441.45 2412.05 792.52 792.52"
   xmlns="http://www.w3.org/2000/svg">
  <rect x="3441.45" y="2412.05" width="792.52" height="792.52" fill="#000000"/>
  <path
         id="path861"
         d="m 3837.71,2885.13 c -116.29,0 -210.89,-94.61 -210.89,-210.9 0,-116.28 94.6,-210.89 210.89,-210.89 116.27,0 210.88,94.61 210.88,210.89 0,116.29 -94.61,210.9 -210.88,210.9 z m 0,-425.18 c -118.17,0 -214.29,96.12 -214.29,214.28 0,118.17 96.12,214.3 214.29,214.3 118.16,0 214.28,-96.13 214.28,-214.3 0,-118.16 -96.12,-214.28 -214.28,-214.28"
         style="fill:#ffffff;fill-opacity:1;fill-rule:nonzero;stroke:none" />
  <path
         id="path862"
         d="m 3691.76,3153.26 c -116.29,0 -210.89,-94.61 -210.89,-210.89 0,-116.28 94.6,-210.89 210.89,-210.89 116.28,0 210.89,94.61 210.89,210.89 0,116.28 -94.61,210.89 -210.89,210.89 z m 0,-425.18 c -118.17,0 -214.29,96.12 -214.29,214.29 0,118.16 96.12,214.29 214.29,214.29 118.16,0 214.28,-96.13 214.28,-214.29 0,-118.17 -96.12,-214.29 -214.28,-214.29"
         style="fill:#ffffff;fill-opacity:1;fill-rule:nonzero;stroke:none" />
  <path
         id="path863"
         d="m 3983.65,3153.26 c -116.29,0 -210.89,-94.61 -210.89,-210.89 0,-116.28 94.6,-210.89 210.89,-210.89 116.28,0 210.89,94.61 210.89,210.89 0,116.28 -94.61,210.89 -210.89,210.89 z m 0,-425.18 c -118.16,0 -214.28,96.12 -214.28,214.29 0,118.16 96.12,214.29 214.28,214.29 118.17,0 214.29,-96.13 214.29,-214.29 0,-118.17 -96.12,-214.29 -214.29,-214.29"
         style="fill:#ffffff;fill-opacity:1;fill-rule:nonzero;stroke:none" />
  <path
         id="path864"
         d="m 3642.66,2961.26 194.97,-335.04 188.3,335.04 z m 195.11,-355.02 -212.37,364.95 h 417.48 l -205.11,-364.95"
         style="fill:#ffffff;fill-opacity:1;fill-rule:nonzero;stroke:none" />
  <path
         id="path865"
         d="m 3666.76,2945.99 170.7,-291.55 164.86,291.55 z m 170.75,-298.37 -176.69,301.77 h 347.33 l -170.64,-301.77"
         style="fill:#ffffff;fill-opacity:1;fill-rule:nonzero;stroke:none" />
  <path
         id="path866"
         d="m 3852.1,2847.61 c 0,-7.95 -6.45,-14.39 -14.39,-14.39 -7.95,0 -14.4,6.44 -14.4,14.39 0,7.95 6.45,14.39 14.4,14.39 7.94,0 14.39,-6.44 14.39,-14.39"
         style="fill:#ffffff;fill-opacity:1;fill-rule:nonzero;stroke:none" />
  <path
         id="path867"
         d="m 3607.49,2988.7 c 0,-6.36 -5.16,-11.52 -11.51,-11.52 -6.37,0 -11.53,5.16 -11.53,11.52 0,6.36 5.16,11.52 11.53,11.52 6.35,0 11.51,-5.16 11.51,-11.52"
         style="fill:#ffffff;fill-opacity:1;fill-rule:nonzero;stroke:none" />
  <path
         id="path868"
         d="m 4079.99,2988.7 c 0,-6.36 -5.16,-11.52 -11.51,-11.52 -6.37,0 -11.53,5.16 -11.53,11.52 0,6.36 5.16,11.52 11.53,11.52 6.35,0 11.51,-5.16 11.51,-11.52"
         style="fill:#ffffff;fill-opacity:1;fill-rule:nonzero;stroke:none" />
  <path
         id="path869"
         d="m 3849.38,2576.2 c 0,-6.36 -5.17,-11.52 -11.53,-11.52 -6.37,0 -11.52,5.16 -11.52,11.52 0,6.36 5.15,11.52 11.52,11.52 6.36,0 11.53,-5.16 11.53,-11.52"
         style="fill:#ffffff;fill-opacity:1;fill-rule:nonzero;stroke:none" />
  <path
         id="path870"
         d="m 3529.43,3048.06 c -11.02,0 -20,-8.97 -20,-20 0,-11.03 8.98,-20.01 20,-20.01 11.04,0 20.01,8.98 20.01,20.01 0,11.03 -8.97,20 -20.01,20 z m 0,-49.93 c -16.5,0 -29.92,13.43 -29.92,29.93 0,16.5 13.42,29.92 29.92,29.92 16.51,0 29.94,-13.42 29.94,-29.92 0,-16.5 -13.43,-29.93 -29.94,-29.93"
         style="fill:#ffffff;fill-opacity:1;fill-rule:nonzero;stroke:none" />
  <path
         id="path871"
         d="m 4142.32,3053.92 c -11.03,0 -20.01,-8.97 -20.01,-20 0,-11.03 8.98,-20.01 20.01,-20.01 11.03,0 20,8.98 20,20.01 0,11.03 -8.97,20 -20,20 z m 0,-49.93 c -16.5,0 -29.93,13.43 -29.93,29.93 0,16.5 13.43,29.92 29.93,29.92 16.51,0 29.93,-13.42 29.93,-29.92 0,-16.5 -13.42,-29.93 -29.93,-29.93"
         style="fill:#ffffff;fill-opacity:1;fill-rule:nonzero;stroke:none" />
  <path
         id="path872"
         d="m 3837.71,2511.63 c -11.04,0 -20.01,-8.98 -20.01,-20.01 0,-11.03 8.97,-20 20.01,-20 11.02,0 20,8.97 20,20 0,11.03 -8.98,20.01 -20,20.01 z m 0,-49.94 c -16.51,0 -29.94,13.43 -29.94,29.93 0,16.5 13.43,29.93 29.94,29.93 16.5,0 29.92,-13.43 29.92,-29.93 0,-16.5 -13.42,-29.93 -29.92,-29.93"
         style="fill:#ffffff;fill-opacity:1;fill-rule:nonzero;stroke:none" />
  <path
         id="path873"
         d="m 3931.03,2788.2 -427.43,253.36 1.74,2.93 427.42,-253.36 -1.73,-2.93"
         style="fill:#ffffff;fill-opacity:1;fill-rule:nonzero;stroke:none" />
  <path
         id="path874"
         d="m 3738.9,2778.95 -1.81,2.89 429.3,269.14 1.8,-2.89 -429.29,-269.14"
         style="fill:#ffffff;fill-opacity:1;fill-rule:nonzero;stroke:none" />
  <path
         id="path875"
         d="m 3839.4,2461.65 h -3.39 v 504.58 h 3.39 v -504.58"
         style="fill:#ffffff;fill-opacity:1;fill-rule:nonzero;stroke:none" />
  <path
         id="path876"
         d="m 3628.28,3112.03 c -77.8,0 -141.09,-65.63 -141.09,-146.28 0,-80.66 63.29,-146.28 141.09,-146.28 77.79,0 141.09,65.62 141.09,146.28 0,80.65 -63.3,146.28 -141.09,146.28 z m 0,-295.96 c -79.68,0 -144.49,67.15 -144.49,149.68 0,82.53 64.81,149.67 144.49,149.67 79.67,0 144.48,-67.14 144.48,-149.67 0,-82.53 -64.81,-149.68 -144.48,-149.68"
         style="fill:#ffffff;fill-opacity:1;fill-rule:nonzero;stroke:none" />
  <path
         id="path877"
         d="m 4047.13,3112.03 c -77.79,0 -141.09,-65.63 -141.09,-146.28 0,-80.66 63.3,-146.28 141.09,-146.28 77.79,0 141.08,65.62 141.08,146.28 0,80.65 -63.29,146.28 -141.08,146.28 z m 0,-295.96 c -79.67,0 -144.48,67.15 -144.48,149.68 0,82.53 64.81,149.67 144.48,149.67 79.67,0 144.48,-67.14 144.48,-149.67 0,-82.53 -64.81,-149.68 -144.48,-149.68"
         style="fill:#ffffff;fill-opacity:1;fill-rule:nonzero;stroke:none" />
  <path
         id="path878"
         d="m 3837.85,2757.28 c -78.16,0 -141.75,-65.93 -141.75,-146.97 0,-81.04 63.59,-146.97 141.75,-146.97 78.16,0 141.75,65.93 141.75,146.97 0,81.04 -63.59,146.97 -141.75,146.97 z m 0,-297.33 c -80.04,0 -145.14,67.45 -145.14,150.36 0,82.92 65.1,150.37 145.14,150.37 80.03,0 145.15,-67.45 145.15,-150.37 0,-82.91 -65.12,-150.36 -145.15,-150.36"
         style="fill:#ffffff;fill-opacity:1;fill-rule:nonzero;stroke:none" />
</svg>